%TF.GenerationSoftware,KiCad,Pcbnew,6.0.2+dfsg-1*%
%TF.CreationDate,2023-06-14T19:57:57+03:00*%
%TF.ProjectId,clock,636c6f63-6b2e-46b6-9963-61645f706362,rev?*%
%TF.SameCoordinates,Original*%
%TF.FileFunction,Soldermask,Top*%
%TF.FilePolarity,Negative*%
%FSLAX46Y46*%
G04 Gerber Fmt 4.6, Leading zero omitted, Abs format (unit mm)*
G04 Created by KiCad (PCBNEW 6.0.2+dfsg-1) date 2023-06-14 19:57:57*
%MOMM*%
%LPD*%
G01*
G04 APERTURE LIST*
G04 Aperture macros list*
%AMRoundRect*
0 Rectangle with rounded corners*
0 $1 Rounding radius*
0 $2 $3 $4 $5 $6 $7 $8 $9 X,Y pos of 4 corners*
0 Add a 4 corners polygon primitive as box body*
4,1,4,$2,$3,$4,$5,$6,$7,$8,$9,$2,$3,0*
0 Add four circle primitives for the rounded corners*
1,1,$1+$1,$2,$3*
1,1,$1+$1,$4,$5*
1,1,$1+$1,$6,$7*
1,1,$1+$1,$8,$9*
0 Add four rect primitives between the rounded corners*
20,1,$1+$1,$2,$3,$4,$5,0*
20,1,$1+$1,$4,$5,$6,$7,0*
20,1,$1+$1,$6,$7,$8,$9,0*
20,1,$1+$1,$8,$9,$2,$3,0*%
G04 Aperture macros list end*
%ADD10RoundRect,0.250000X-0.450000X0.350000X-0.450000X-0.350000X0.450000X-0.350000X0.450000X0.350000X0*%
%ADD11R,1.524000X2.524000*%
%ADD12O,1.524000X2.524000*%
%ADD13RoundRect,0.250000X0.450000X-0.325000X0.450000X0.325000X-0.450000X0.325000X-0.450000X-0.325000X0*%
%ADD14RoundRect,0.250000X0.337500X0.475000X-0.337500X0.475000X-0.337500X-0.475000X0.337500X-0.475000X0*%
%ADD15RoundRect,0.250000X0.350000X0.450000X-0.350000X0.450000X-0.350000X-0.450000X0.350000X-0.450000X0*%
%ADD16RoundRect,0.250000X-0.350000X-0.450000X0.350000X-0.450000X0.350000X0.450000X-0.350000X0.450000X0*%
%ADD17RoundRect,0.250000X-0.337500X-0.475000X0.337500X-0.475000X0.337500X0.475000X-0.337500X0.475000X0*%
%ADD18R,1.800000X0.900000*%
G04 APERTURE END LIST*
%TO.C,G\u002A\u002A\u002A*%
G36*
X144189523Y-66239103D02*
G01*
X144507801Y-66296970D01*
X144798957Y-66394407D01*
X145056563Y-66530847D01*
X145188333Y-66627849D01*
X145237310Y-66671878D01*
X145247162Y-66691798D01*
X145214517Y-66687288D01*
X145135998Y-66658027D01*
X145028858Y-66612669D01*
X144697105Y-66495621D01*
X144319529Y-66412299D01*
X144038636Y-66375223D01*
X143687815Y-66360142D01*
X143320941Y-66384844D01*
X142931058Y-66450262D01*
X142511207Y-66557331D01*
X142375776Y-66598529D01*
X142336294Y-66608503D01*
X142341501Y-66600368D01*
X142382514Y-66578229D01*
X142450453Y-66546186D01*
X142536436Y-66508344D01*
X142631583Y-66468805D01*
X142727013Y-66431670D01*
X142773742Y-66414693D01*
X143136232Y-66308602D01*
X143497311Y-66244352D01*
X143850551Y-66221375D01*
X144189523Y-66239103D01*
G37*
G36*
X135448713Y-77631852D02*
G01*
X135480048Y-77416555D01*
X135526949Y-77214622D01*
X135568194Y-77090941D01*
X135572901Y-77061490D01*
X135549180Y-77046018D01*
X135485299Y-77040035D01*
X135432944Y-77039187D01*
X135164995Y-77016982D01*
X134868087Y-76956123D01*
X134552817Y-76860363D01*
X134229780Y-76733452D01*
X133909575Y-76579143D01*
X133602798Y-76401187D01*
X133568339Y-76379038D01*
X133428718Y-76277074D01*
X133273525Y-76145280D01*
X133114394Y-75995348D01*
X132962961Y-75838974D01*
X132830862Y-75687851D01*
X132729733Y-75553674D01*
X132699901Y-75506235D01*
X132555353Y-75203233D01*
X132465728Y-74890741D01*
X132430890Y-74574186D01*
X132437411Y-74470458D01*
X132743706Y-74470458D01*
X132744061Y-74603695D01*
X132747492Y-74672319D01*
X132793415Y-74952482D01*
X132892628Y-75219789D01*
X133046621Y-75477267D01*
X133256883Y-75727948D01*
X133276930Y-75748563D01*
X133583318Y-76020135D01*
X133933965Y-76257568D01*
X134324434Y-76458212D01*
X134715782Y-76608280D01*
X134866529Y-76655119D01*
X134986704Y-76684457D01*
X135099636Y-76700182D01*
X135228655Y-76706183D01*
X135306611Y-76706751D01*
X135470813Y-76702963D01*
X135600468Y-76689436D01*
X135718653Y-76662923D01*
X135799533Y-76637436D01*
X136064673Y-76531865D01*
X136329453Y-76398577D01*
X136586876Y-76243264D01*
X136829949Y-76071621D01*
X137051673Y-75889340D01*
X137245054Y-75702117D01*
X137403095Y-75515644D01*
X137518801Y-75335616D01*
X137567477Y-75217947D01*
X137901201Y-75217947D01*
X137924461Y-75215659D01*
X137984425Y-75190614D01*
X138053928Y-75155641D01*
X138155505Y-75106741D01*
X138252916Y-75068413D01*
X138301468Y-75054406D01*
X138396782Y-75034433D01*
X138293141Y-74919715D01*
X138221977Y-74831581D01*
X138160942Y-74740324D01*
X138141715Y-74704790D01*
X138107010Y-74640488D01*
X138080674Y-74606286D01*
X138076699Y-74604583D01*
X138064218Y-74630345D01*
X138041141Y-74698415D01*
X138011426Y-74794963D01*
X137979028Y-74906161D01*
X137947906Y-75018181D01*
X137922015Y-75117193D01*
X137905312Y-75189369D01*
X137901201Y-75217947D01*
X137567477Y-75217947D01*
X137579566Y-75188722D01*
X137605601Y-75100503D01*
X137627415Y-75030404D01*
X137632671Y-75014749D01*
X137625068Y-75002800D01*
X137585033Y-75028249D01*
X137550865Y-75057781D01*
X137475954Y-75121132D01*
X137406955Y-75170605D01*
X137388939Y-75181012D01*
X137301798Y-75205182D01*
X137185675Y-75212256D01*
X137066986Y-75202292D01*
X136982985Y-75180132D01*
X136901360Y-75146777D01*
X137022375Y-75124031D01*
X137166957Y-75083113D01*
X137297051Y-75012960D01*
X137429284Y-74903736D01*
X137480560Y-74853011D01*
X137568188Y-74755166D01*
X137644609Y-74649648D01*
X137713845Y-74527826D01*
X137779916Y-74381066D01*
X137846842Y-74200737D01*
X137918643Y-73978206D01*
X137973256Y-73795111D01*
X138055937Y-73517718D01*
X138134477Y-73270513D01*
X138212723Y-73045408D01*
X138294521Y-72834312D01*
X138383716Y-72629136D01*
X138484155Y-72421789D01*
X138599682Y-72204182D01*
X138734145Y-71968225D01*
X138891388Y-71705828D01*
X139075258Y-71408900D01*
X139207347Y-71199124D01*
X139299396Y-71045623D01*
X139396536Y-70870182D01*
X139490469Y-70689005D01*
X139572893Y-70518298D01*
X139635512Y-70374264D01*
X139652043Y-70330855D01*
X139673215Y-70292019D01*
X139684799Y-70288973D01*
X139684113Y-70322418D01*
X139668806Y-70400362D01*
X139641825Y-70512036D01*
X139606114Y-70646673D01*
X139564620Y-70793505D01*
X139520288Y-70941764D01*
X139476065Y-71080682D01*
X139438088Y-71190759D01*
X139403402Y-71282907D01*
X139365438Y-71375973D01*
X139320765Y-71477030D01*
X139265948Y-71593153D01*
X139197557Y-71731416D01*
X139112158Y-71898894D01*
X139006318Y-72102660D01*
X138876605Y-72349788D01*
X138864940Y-72371934D01*
X138725271Y-72657887D01*
X138606385Y-72943509D01*
X138509842Y-73222039D01*
X138437203Y-73486719D01*
X138390028Y-73730785D01*
X138369878Y-73947479D01*
X138378312Y-74130039D01*
X138416892Y-74271704D01*
X138423377Y-74285156D01*
X138464478Y-74356736D01*
X138515662Y-74426340D01*
X138581544Y-74497357D01*
X138666741Y-74573176D01*
X138775867Y-74657188D01*
X138913538Y-74752782D01*
X139084369Y-74863346D01*
X139292977Y-74992272D01*
X139543977Y-75142948D01*
X139786405Y-75286132D01*
X140111411Y-75477962D01*
X140391023Y-75645103D01*
X140630494Y-75791107D01*
X140835078Y-75919530D01*
X141010031Y-76033923D01*
X141160605Y-76137840D01*
X141292056Y-76234835D01*
X141409637Y-76328460D01*
X141518603Y-76422269D01*
X141624207Y-76519815D01*
X141656611Y-76550912D01*
X141888574Y-76775238D01*
X142178529Y-76673520D01*
X142502082Y-76573476D01*
X142813219Y-76503472D01*
X143104275Y-76464338D01*
X143367587Y-76456905D01*
X143595489Y-76482005D01*
X143698915Y-76508658D01*
X143845577Y-76577740D01*
X143987917Y-76682226D01*
X144106388Y-76805862D01*
X144165434Y-76896630D01*
X144224478Y-77042556D01*
X144281167Y-77242174D01*
X144334913Y-77491210D01*
X144385128Y-77785393D01*
X144431221Y-78120449D01*
X144472604Y-78492107D01*
X144508688Y-78896093D01*
X144538884Y-79328135D01*
X144562179Y-79774261D01*
X144571989Y-79948867D01*
X144582999Y-80065640D01*
X144594357Y-80124701D01*
X144605213Y-80126170D01*
X144614716Y-80070168D01*
X144622016Y-79956818D01*
X144626261Y-79786239D01*
X144626494Y-79765108D01*
X144630714Y-79625493D01*
X144947586Y-79625493D01*
X144954331Y-79649847D01*
X144980232Y-79668818D01*
X145033800Y-79684455D01*
X145123546Y-79698810D01*
X145257980Y-79713932D01*
X145353529Y-79723269D01*
X145492522Y-79741250D01*
X145648392Y-79768981D01*
X145805013Y-79802794D01*
X145946259Y-79839019D01*
X146056004Y-79873990D01*
X146100879Y-79893287D01*
X146211728Y-79972924D01*
X146300747Y-80077294D01*
X146351589Y-80186872D01*
X146353459Y-80195002D01*
X146350838Y-80297745D01*
X146312077Y-80417898D01*
X146246362Y-80536699D01*
X146162881Y-80635388D01*
X146121648Y-80668453D01*
X146059308Y-80714292D01*
X146023765Y-80746985D01*
X146020622Y-80752989D01*
X146031717Y-80758985D01*
X146068341Y-80761852D01*
X146135225Y-80761363D01*
X146237097Y-80757293D01*
X146378686Y-80749417D01*
X146564722Y-80737508D01*
X146799934Y-80721342D01*
X147034081Y-80704660D01*
X147246152Y-80687825D01*
X147429171Y-80670192D01*
X147575846Y-80652629D01*
X147678883Y-80636006D01*
X147729972Y-80621740D01*
X147852158Y-80546902D01*
X147999818Y-80438024D01*
X148160669Y-80305083D01*
X148322430Y-80158058D01*
X148423843Y-80058032D01*
X148524500Y-79956640D01*
X148589736Y-79895193D01*
X148623269Y-79870840D01*
X148628814Y-79880732D01*
X148615921Y-79910747D01*
X148529717Y-80057734D01*
X148416016Y-80218913D01*
X148292005Y-80371520D01*
X148180025Y-80488074D01*
X148042150Y-80615163D01*
X148198353Y-80595263D01*
X148891410Y-80495667D01*
X149540767Y-80379250D01*
X150144897Y-80246524D01*
X150702276Y-80098002D01*
X151211376Y-79934200D01*
X151670673Y-79755629D01*
X152078641Y-79562803D01*
X152433753Y-79356237D01*
X152734485Y-79136442D01*
X152858338Y-79027086D01*
X153085257Y-78779879D01*
X153256167Y-78520003D01*
X153370759Y-78248927D01*
X153428721Y-77968118D01*
X153429742Y-77679045D01*
X153373512Y-77383175D01*
X153266880Y-77097355D01*
X153217226Y-76994399D01*
X153175520Y-76929466D01*
X153126937Y-76887247D01*
X153056649Y-76852435D01*
X153012201Y-76834398D01*
X152792978Y-76741760D01*
X152596782Y-76644989D01*
X152413433Y-76537072D01*
X152232752Y-76410994D01*
X152044558Y-76259741D01*
X151838672Y-76076297D01*
X151644141Y-75891744D01*
X151455447Y-75712344D01*
X151297630Y-75570870D01*
X151162906Y-75462029D01*
X151043487Y-75380527D01*
X150931588Y-75321070D01*
X150819421Y-75278364D01*
X150699202Y-75247117D01*
X150694510Y-75246114D01*
X150486364Y-75217247D01*
X150270906Y-75219627D01*
X150040104Y-75254759D01*
X149785922Y-75324142D01*
X149500328Y-75429278D01*
X149331522Y-75500871D01*
X148941939Y-75685461D01*
X148605366Y-75873585D01*
X148316826Y-76068732D01*
X148071337Y-76274389D01*
X147863922Y-76494041D01*
X147801318Y-76572361D01*
X147724336Y-76676320D01*
X147662863Y-76765807D01*
X147624405Y-76829498D01*
X147615172Y-76853280D01*
X147642930Y-76880737D01*
X147721528Y-76903314D01*
X147843952Y-76920122D01*
X148003188Y-76930271D01*
X148192223Y-76932873D01*
X148238574Y-76932320D01*
X148406793Y-76923789D01*
X148568910Y-76901827D01*
X148739281Y-76863165D01*
X148932258Y-76804537D01*
X149162195Y-76722674D01*
X149166428Y-76721092D01*
X149346768Y-76675005D01*
X149560026Y-76655017D01*
X149786969Y-76661871D01*
X149978300Y-76689775D01*
X150101049Y-76717581D01*
X150238626Y-76752634D01*
X150378344Y-76791217D01*
X150507518Y-76829615D01*
X150613461Y-76864112D01*
X150683488Y-76890992D01*
X150703186Y-76902096D01*
X150701829Y-76914451D01*
X150653397Y-76906703D01*
X150645195Y-76904522D01*
X150584638Y-76895956D01*
X150479652Y-76889155D01*
X150343789Y-76884701D01*
X150190598Y-76883178D01*
X150152273Y-76883317D01*
X149995352Y-76885218D01*
X149870173Y-76890204D01*
X149760601Y-76900615D01*
X149650497Y-76918792D01*
X149523726Y-76947076D01*
X149364151Y-76987805D01*
X149282410Y-77009467D01*
X149044590Y-77072392D01*
X148853420Y-77121564D01*
X148699661Y-77158691D01*
X148574071Y-77185481D01*
X148467409Y-77203643D01*
X148370434Y-77214883D01*
X148273906Y-77220911D01*
X148168583Y-77223434D01*
X148122593Y-77223840D01*
X147937120Y-77221098D01*
X147774254Y-77208178D01*
X147617933Y-77181878D01*
X147452098Y-77138996D01*
X147260692Y-77076331D01*
X147111898Y-77022336D01*
X146855754Y-76930669D01*
X146638719Y-76861942D01*
X146448092Y-76813045D01*
X146271172Y-76780868D01*
X146095258Y-76762301D01*
X146034921Y-76758613D01*
X145842085Y-76755116D01*
X145680229Y-76769282D01*
X145545751Y-76805724D01*
X145435046Y-76869061D01*
X145344509Y-76963908D01*
X145270538Y-77094880D01*
X145209528Y-77266593D01*
X145157874Y-77483665D01*
X145111974Y-77750710D01*
X145079751Y-77981993D01*
X145063949Y-78110753D01*
X145052797Y-78216442D01*
X145047447Y-78287019D01*
X145048343Y-78310431D01*
X145079027Y-78320575D01*
X145154163Y-78340159D01*
X145261574Y-78366121D01*
X145358184Y-78388431D01*
X145596301Y-78448903D01*
X145783323Y-78512129D01*
X145926137Y-78581680D01*
X146031635Y-78661129D01*
X146106704Y-78754045D01*
X146124663Y-78785734D01*
X146160594Y-78913806D01*
X146146202Y-79051341D01*
X146086293Y-79189813D01*
X145985673Y-79320698D01*
X145849150Y-79435469D01*
X145715972Y-79510574D01*
X145638972Y-79541875D01*
X145561312Y-79561761D01*
X145466557Y-79572635D01*
X145338276Y-79576897D01*
X145259287Y-79577299D01*
X145120146Y-79578337D01*
X145029194Y-79582457D01*
X144976647Y-79591174D01*
X144952726Y-79605998D01*
X144947586Y-79625493D01*
X144630714Y-79625493D01*
X144631826Y-79588722D01*
X144644116Y-79367291D01*
X144644213Y-79365929D01*
X144947593Y-79365929D01*
X144955655Y-79397922D01*
X144985978Y-79419509D01*
X145047764Y-79432812D01*
X145150214Y-79439952D01*
X145281040Y-79442820D01*
X145429547Y-79439197D01*
X145542100Y-79422061D01*
X145639827Y-79388126D01*
X145643483Y-79386483D01*
X145795431Y-79297500D01*
X145914290Y-79187066D01*
X145991978Y-79064798D01*
X146020413Y-78940313D01*
X146020424Y-78937940D01*
X145993066Y-78848504D01*
X145916719Y-78759616D01*
X145799971Y-78678729D01*
X145651412Y-78613297D01*
X145643111Y-78610501D01*
X145510008Y-78569788D01*
X145372919Y-78533678D01*
X145244096Y-78504706D01*
X145135788Y-78485407D01*
X145060248Y-78478316D01*
X145030914Y-78483824D01*
X145023383Y-78516800D01*
X145012729Y-78595305D01*
X145000112Y-78707036D01*
X144986696Y-78839688D01*
X144973643Y-78980960D01*
X144962115Y-79118547D01*
X144953274Y-79240146D01*
X144948282Y-79333454D01*
X144947593Y-79365929D01*
X144644213Y-79365929D01*
X144662231Y-79113194D01*
X144685040Y-78838812D01*
X144711408Y-78556521D01*
X144740204Y-78278703D01*
X144770294Y-78017735D01*
X144800546Y-77785997D01*
X144818904Y-77662318D01*
X144876115Y-77355508D01*
X144944783Y-77101948D01*
X145028844Y-76897386D01*
X145132231Y-76737571D01*
X145258880Y-76618251D01*
X145412726Y-76535176D01*
X145597703Y-76484094D01*
X145817748Y-76460753D01*
X145933437Y-76458159D01*
X146139516Y-76465633D01*
X146342941Y-76490625D01*
X146558382Y-76536005D01*
X146800508Y-76604645D01*
X146977273Y-76662455D01*
X147310720Y-76775866D01*
X147436208Y-76632567D01*
X147551091Y-76515496D01*
X147704149Y-76383723D01*
X147897514Y-76235789D01*
X148133317Y-76070234D01*
X148413692Y-75885600D01*
X148740771Y-75680428D01*
X149116685Y-75453259D01*
X149427387Y-75270234D01*
X149715431Y-75100855D01*
X149831158Y-75031210D01*
X150807592Y-75031210D01*
X150914864Y-75063702D01*
X151007484Y-75098201D01*
X151113984Y-75146677D01*
X151152615Y-75166603D01*
X151227628Y-75205396D01*
X151277820Y-75228163D01*
X151289490Y-75230937D01*
X151285233Y-75202252D01*
X151268688Y-75129591D01*
X151242699Y-75024958D01*
X151219711Y-74936468D01*
X151185788Y-74813409D01*
X151154977Y-74711262D01*
X151131399Y-74643180D01*
X151121549Y-74622997D01*
X151096254Y-74629396D01*
X151060458Y-74676292D01*
X151049988Y-74695486D01*
X151001016Y-74777722D01*
X150934512Y-74872843D01*
X150904004Y-74912132D01*
X150807592Y-75031210D01*
X149831158Y-75031210D01*
X149957192Y-74955362D01*
X150157419Y-74830099D01*
X150320863Y-74721411D01*
X150452273Y-74625642D01*
X150556399Y-74539137D01*
X150637991Y-74458240D01*
X150701800Y-74379295D01*
X150752574Y-74298648D01*
X150791627Y-74220320D01*
X150836522Y-74109557D01*
X150861372Y-74010505D01*
X150871346Y-73896693D01*
X150872329Y-73807208D01*
X150867640Y-73682337D01*
X150853413Y-73556355D01*
X150827622Y-73423753D01*
X150788241Y-73279023D01*
X150733245Y-73116656D01*
X150660607Y-72931144D01*
X150568302Y-72716977D01*
X150454304Y-72468647D01*
X150316587Y-72180647D01*
X150153125Y-71847466D01*
X150147209Y-71835519D01*
X150024845Y-71583733D01*
X149910042Y-71338477D01*
X149805461Y-71106116D01*
X149713764Y-70893017D01*
X149637613Y-70705547D01*
X149579668Y-70550072D01*
X149542590Y-70432958D01*
X149529042Y-70360573D01*
X149529059Y-70356751D01*
X149541941Y-70369998D01*
X149576692Y-70426357D01*
X149628467Y-70517475D01*
X149692417Y-70634993D01*
X149714074Y-70675701D01*
X149786739Y-70809361D01*
X149881650Y-70978546D01*
X149990811Y-71169302D01*
X150106225Y-71367676D01*
X150219896Y-71559712D01*
X150237471Y-71589057D01*
X150425550Y-71910068D01*
X150597736Y-72218985D01*
X150750654Y-72509131D01*
X150880924Y-72773829D01*
X150985171Y-73006402D01*
X151060017Y-73200173D01*
X151074296Y-73243538D01*
X151110079Y-73362630D01*
X151154930Y-73519865D01*
X151203802Y-73697140D01*
X151251648Y-73876353D01*
X151264886Y-73927163D01*
X151360003Y-74254025D01*
X151461797Y-74524291D01*
X151570995Y-74739050D01*
X151688326Y-74899393D01*
X151814517Y-75006408D01*
X151950296Y-75061185D01*
X152028287Y-75069432D01*
X152090244Y-75072114D01*
X152101370Y-75083693D01*
X152068815Y-75112065D01*
X152067678Y-75112925D01*
X151969581Y-75153429D01*
X151851824Y-75151825D01*
X151732309Y-75110191D01*
X151666642Y-75066398D01*
X151604755Y-75019675D01*
X151565795Y-74998514D01*
X151558865Y-75001159D01*
X151571484Y-75069610D01*
X151602787Y-75168321D01*
X151644770Y-75276069D01*
X151689426Y-75371629D01*
X151715344Y-75416041D01*
X151821893Y-75551840D01*
X151968646Y-75706114D01*
X152145003Y-75869381D01*
X152340359Y-76032158D01*
X152544114Y-76184964D01*
X152672622Y-76272234D01*
X152963439Y-76449377D01*
X153225260Y-76582456D01*
X153464854Y-76673059D01*
X153688986Y-76722772D01*
X153904423Y-76733183D01*
X154117933Y-76705879D01*
X154302186Y-76654465D01*
X154646214Y-76515747D01*
X154980752Y-76340401D01*
X155298263Y-76134591D01*
X155591208Y-75904480D01*
X155852048Y-75656232D01*
X156073244Y-75396011D01*
X156247256Y-75129980D01*
X156304899Y-75017052D01*
X156359165Y-74878895D01*
X156402652Y-74726880D01*
X156431937Y-74578043D01*
X156443598Y-74449417D01*
X156436038Y-74364408D01*
X156422761Y-74334819D01*
X156397958Y-74339311D01*
X156348568Y-74381604D01*
X156336998Y-74392619D01*
X156231056Y-74458581D01*
X156098632Y-74477476D01*
X155937510Y-74449194D01*
X155745477Y-74373621D01*
X155720658Y-74361571D01*
X155605525Y-74307394D01*
X155529672Y-74279558D01*
X155482400Y-74274988D01*
X155457882Y-74286093D01*
X155441448Y-74310489D01*
X155444285Y-74349617D01*
X155469665Y-74414583D01*
X155520857Y-74516494D01*
X155531856Y-74537338D01*
X155613899Y-74725591D01*
X155645406Y-74886526D01*
X155626167Y-75021638D01*
X155555972Y-75132420D01*
X155436093Y-75219590D01*
X155292643Y-75269021D01*
X155124325Y-75287335D01*
X154954535Y-75274478D01*
X154806668Y-75230395D01*
X154787825Y-75221087D01*
X154716487Y-75173429D01*
X154633509Y-75103564D01*
X154551233Y-75023944D01*
X154481998Y-74947018D01*
X154438146Y-74885239D01*
X154429099Y-74859155D01*
X154404909Y-74848781D01*
X154347704Y-74850634D01*
X154280537Y-74862124D01*
X154226459Y-74880659D01*
X154223574Y-74882260D01*
X154217952Y-74913900D01*
X154220998Y-74985572D01*
X154229006Y-75057862D01*
X154238461Y-75257203D01*
X154209798Y-75418181D01*
X154146067Y-75538025D01*
X154050313Y-75613964D01*
X153925585Y-75643225D01*
X153774928Y-75623036D01*
X153656674Y-75578464D01*
X153453629Y-75453324D01*
X153275812Y-75281927D01*
X153181314Y-75153965D01*
X153108503Y-75057229D01*
X153096723Y-75048793D01*
X153298277Y-75048793D01*
X153320125Y-75103885D01*
X153377790Y-75179907D01*
X153459461Y-75264713D01*
X153553324Y-75346154D01*
X153647564Y-75412084D01*
X153656910Y-75417560D01*
X153802702Y-75483581D01*
X153922368Y-75499909D01*
X154014465Y-75466443D01*
X154038947Y-75444029D01*
X154069119Y-75396743D01*
X154085087Y-75328906D01*
X154089895Y-75224619D01*
X154089559Y-75179896D01*
X154084583Y-75074697D01*
X154074499Y-74992442D01*
X154061445Y-74950273D01*
X154060832Y-74949603D01*
X154020205Y-74941999D01*
X153937798Y-74948484D01*
X153833492Y-74966771D01*
X153700222Y-74989616D01*
X153560115Y-75005321D01*
X153465001Y-75010015D01*
X153361495Y-75015094D01*
X153308664Y-75030566D01*
X153298277Y-75048793D01*
X153096723Y-75048793D01*
X153047234Y-75013352D01*
X153027047Y-75009882D01*
X152925905Y-74989594D01*
X152817751Y-74939190D01*
X152725376Y-74871593D01*
X152676799Y-74811269D01*
X152638086Y-74675782D01*
X152642300Y-74628513D01*
X152776360Y-74628513D01*
X152802851Y-74714036D01*
X152872965Y-74792047D01*
X152972662Y-74848876D01*
X153016475Y-74862333D01*
X153130636Y-74876743D01*
X153285634Y-74878789D01*
X153465839Y-74869319D01*
X153655624Y-74849177D01*
X153839357Y-74819210D01*
X153849191Y-74817250D01*
X153869803Y-74811939D01*
X154581094Y-74811939D01*
X154621273Y-74884260D01*
X154668063Y-74941573D01*
X154798403Y-75052938D01*
X154952765Y-75125985D01*
X155116149Y-75156369D01*
X155273556Y-75139744D01*
X155310415Y-75127658D01*
X155416411Y-75064453D01*
X155483404Y-74976101D01*
X155501930Y-74893813D01*
X155488991Y-74825625D01*
X155454840Y-74726651D01*
X155406477Y-74616773D01*
X155399260Y-74602227D01*
X155296590Y-74398351D01*
X155203541Y-74455479D01*
X155119004Y-74503737D01*
X155008209Y-74562145D01*
X154887505Y-74622645D01*
X154773240Y-74677177D01*
X154681763Y-74717684D01*
X154639316Y-74733601D01*
X154587367Y-74763595D01*
X154581094Y-74811939D01*
X153869803Y-74811939D01*
X154271561Y-74708421D01*
X154675224Y-74557533D01*
X155049221Y-74369303D01*
X155354477Y-74169580D01*
X155388297Y-74142523D01*
X155652307Y-74142523D01*
X155669108Y-74170129D01*
X155722170Y-74208823D01*
X155739293Y-74218625D01*
X155911431Y-74300488D01*
X156049425Y-74338708D01*
X156156920Y-74333627D01*
X156237562Y-74285591D01*
X156253707Y-74267225D01*
X156296982Y-74184373D01*
X156312825Y-74071814D01*
X156313166Y-74042510D01*
X156301739Y-73933405D01*
X156272676Y-73818808D01*
X156232513Y-73717550D01*
X156187788Y-73648462D01*
X156171716Y-73635022D01*
X156143464Y-73648432D01*
X156085447Y-73694892D01*
X156007343Y-73764946D01*
X155918833Y-73849134D01*
X155829596Y-73937999D01*
X155749313Y-74022084D01*
X155687662Y-74091930D01*
X155654325Y-74138080D01*
X155652307Y-74142523D01*
X155388297Y-74142523D01*
X155451640Y-74091846D01*
X155560582Y-73995646D01*
X155673336Y-73889164D01*
X155781938Y-73780585D01*
X155878420Y-73678091D01*
X155954818Y-73589867D01*
X156003165Y-73524098D01*
X156015911Y-73490045D01*
X155986941Y-73461349D01*
X155921068Y-73418235D01*
X155850642Y-73379525D01*
X155747508Y-73333451D01*
X155650459Y-73309003D01*
X155532210Y-73300246D01*
X155484033Y-73299788D01*
X155306959Y-73312238D01*
X155089389Y-73347300D01*
X154842640Y-73401537D01*
X154578028Y-73471516D01*
X154306869Y-73553801D01*
X154040482Y-73644958D01*
X153790181Y-73741552D01*
X153567284Y-73840148D01*
X153383107Y-73937311D01*
X153382606Y-73937608D01*
X153223914Y-74044818D01*
X153077742Y-74168165D01*
X152952028Y-74298604D01*
X152854706Y-74427092D01*
X152793713Y-74544583D01*
X152776360Y-74628513D01*
X152642300Y-74628513D01*
X152651375Y-74526720D01*
X152713729Y-74369074D01*
X152822212Y-74207834D01*
X152973887Y-74047989D01*
X153165817Y-73894532D01*
X153249187Y-73838615D01*
X153446649Y-73723306D01*
X153687341Y-73600415D01*
X153958070Y-73475758D01*
X154245644Y-73355150D01*
X154536872Y-73244406D01*
X154798791Y-73155565D01*
X154872684Y-73128658D01*
X154916251Y-73106012D01*
X154921274Y-73099428D01*
X154898700Y-73075632D01*
X154840609Y-73030611D01*
X154769429Y-72980838D01*
X154664371Y-72900647D01*
X154532078Y-72784973D01*
X154381982Y-72643259D01*
X154223519Y-72484946D01*
X154066122Y-72319477D01*
X153919226Y-72156294D01*
X153792263Y-72004839D01*
X153784424Y-71994993D01*
X153520897Y-71641322D01*
X153249688Y-71236250D01*
X152973939Y-70785351D01*
X152696788Y-70294197D01*
X152421377Y-69768360D01*
X152150844Y-69213412D01*
X151888330Y-68634926D01*
X151878860Y-68613254D01*
X151636508Y-68100781D01*
X151379937Y-67642246D01*
X151107520Y-67234981D01*
X150825718Y-66885404D01*
X150742078Y-66795957D01*
X150666644Y-66723762D01*
X150611510Y-66680078D01*
X150597610Y-66673033D01*
X150543328Y-66673013D01*
X150454130Y-66689808D01*
X150349757Y-66719649D01*
X150265851Y-66750069D01*
X150196379Y-66783912D01*
X150129574Y-66829941D01*
X150053670Y-66896921D01*
X149956900Y-66993615D01*
X149893710Y-67059298D01*
X149628004Y-67317138D01*
X149348967Y-67550992D01*
X149072110Y-67748169D01*
X148987153Y-67801061D01*
X148570172Y-68021922D01*
X148113295Y-68210693D01*
X147627005Y-68364004D01*
X147121783Y-68478486D01*
X146676087Y-68543761D01*
X146559535Y-68558109D01*
X146466140Y-68572699D01*
X146410042Y-68585186D01*
X146400774Y-68589453D01*
X146390473Y-68628004D01*
X146382430Y-68713473D01*
X146376692Y-68834830D01*
X146373304Y-68981043D01*
X146372311Y-69141083D01*
X146373758Y-69303919D01*
X146377692Y-69458520D01*
X146384158Y-69593855D01*
X146393202Y-69698895D01*
X146396102Y-69720700D01*
X146416576Y-69839992D01*
X146438113Y-69935354D01*
X146458134Y-69999229D01*
X146474059Y-70024059D01*
X146483308Y-70002285D01*
X146484543Y-69979811D01*
X146504426Y-69888258D01*
X146554622Y-69774166D01*
X146625089Y-69656639D01*
X146705786Y-69554782D01*
X146710652Y-69549671D01*
X146881879Y-69412161D01*
X147085749Y-69314702D01*
X147312964Y-69257296D01*
X147554225Y-69239946D01*
X147800233Y-69262655D01*
X148041690Y-69325427D01*
X148269298Y-69428264D01*
X148447348Y-69549134D01*
X148577167Y-69689460D01*
X148678710Y-69871928D01*
X148748917Y-70086459D01*
X148784729Y-70322974D01*
X148783083Y-70571393D01*
X148776557Y-70633405D01*
X148701546Y-71007888D01*
X148574921Y-71358623D01*
X148399396Y-71682149D01*
X148177685Y-71975004D01*
X147912502Y-72233727D01*
X147606560Y-72454855D01*
X147262574Y-72634928D01*
X147180628Y-72669265D01*
X146967062Y-72746185D01*
X146757975Y-72801506D01*
X146539367Y-72837276D01*
X146297235Y-72855543D01*
X146017580Y-72858355D01*
X145904442Y-72855962D01*
X145665060Y-72846130D01*
X145455472Y-72831131D01*
X145285773Y-72811833D01*
X145186856Y-72794190D01*
X144711414Y-72659039D01*
X144269656Y-72476798D01*
X143860638Y-72246895D01*
X143483411Y-71968753D01*
X143137030Y-71641800D01*
X142961920Y-71444080D01*
X142652220Y-71029799D01*
X142374137Y-70569477D01*
X142129469Y-70066806D01*
X141920011Y-69525483D01*
X141747562Y-68949201D01*
X141746688Y-68945821D01*
X141710176Y-68806895D01*
X141678152Y-68689521D01*
X141653640Y-68604453D01*
X141639660Y-68562447D01*
X141638283Y-68560037D01*
X141606455Y-68550765D01*
X141530049Y-68535178D01*
X141421809Y-68515744D01*
X141337281Y-68501714D01*
X140799260Y-68393502D01*
X140303044Y-68247876D01*
X139844548Y-68062870D01*
X139419684Y-67836523D01*
X139024366Y-67566870D01*
X138654506Y-67251948D01*
X138573422Y-67173707D01*
X138331786Y-66935290D01*
X138215031Y-67065770D01*
X138058034Y-67261338D01*
X137891335Y-67506349D01*
X137718923Y-67793894D01*
X137544788Y-68117063D01*
X137372921Y-68468950D01*
X137260515Y-68718509D01*
X137030396Y-69227425D01*
X136788268Y-69726862D01*
X136538407Y-70209116D01*
X136285091Y-70666484D01*
X136032597Y-71091264D01*
X135785203Y-71475751D01*
X135547186Y-71812243D01*
X135529689Y-71835519D01*
X135306606Y-72114723D01*
X135068717Y-72383229D01*
X134826770Y-72629919D01*
X134591517Y-72843677D01*
X134429902Y-72972750D01*
X134249083Y-73107413D01*
X134705358Y-73258820D01*
X135107079Y-73400894D01*
X135454815Y-73543055D01*
X135752541Y-73687308D01*
X136004233Y-73835661D01*
X136213863Y-73990119D01*
X136294343Y-74061040D01*
X136460020Y-74234669D01*
X136574687Y-74397698D01*
X136636975Y-74547696D01*
X136645517Y-74682228D01*
X136645102Y-74684920D01*
X136600190Y-74799025D01*
X136512563Y-74899555D01*
X136397496Y-74972301D01*
X136307080Y-74999364D01*
X136239524Y-75015673D01*
X136185676Y-75047220D01*
X136130480Y-75106038D01*
X136069058Y-75189598D01*
X135941393Y-75342983D01*
X135793998Y-75473206D01*
X135638576Y-75572489D01*
X135486832Y-75633056D01*
X135378591Y-75648418D01*
X135244250Y-75624293D01*
X135142246Y-75553174D01*
X135073712Y-75436950D01*
X135044012Y-75297383D01*
X135183377Y-75297383D01*
X135212652Y-75412266D01*
X135272572Y-75480367D01*
X135363997Y-75503427D01*
X135366786Y-75503441D01*
X135466813Y-75489196D01*
X135561761Y-75455456D01*
X135735661Y-75346004D01*
X135871256Y-75213295D01*
X135903613Y-75171650D01*
X135952777Y-75093951D01*
X135958324Y-75045513D01*
X135915996Y-75020049D01*
X135821538Y-75011273D01*
X135794835Y-75010963D01*
X135705899Y-75005108D01*
X135585282Y-74990118D01*
X135457979Y-74969139D01*
X135448910Y-74967422D01*
X135341843Y-74948683D01*
X135258884Y-74937444D01*
X135214548Y-74935574D01*
X135211187Y-74936803D01*
X135202590Y-74970010D01*
X135192478Y-75044340D01*
X135183884Y-75133975D01*
X135183377Y-75297383D01*
X135044012Y-75297383D01*
X135039782Y-75277506D01*
X135040789Y-75085822D01*
X135058820Y-74872524D01*
X134965250Y-74853521D01*
X134893500Y-74847644D01*
X134848786Y-74874211D01*
X134829523Y-74900772D01*
X134785601Y-74957674D01*
X134716996Y-75034256D01*
X134663282Y-75089306D01*
X134522512Y-75195853D01*
X134363343Y-75263575D01*
X134196405Y-75293086D01*
X134032326Y-75285001D01*
X133881736Y-75239935D01*
X133755265Y-75158503D01*
X133663542Y-75041319D01*
X133658396Y-75031180D01*
X133626845Y-74954043D01*
X133622520Y-74910395D01*
X133777451Y-74910395D01*
X133800935Y-75006662D01*
X133814910Y-75026900D01*
X133908218Y-75098131D01*
X134036238Y-75140881D01*
X134181830Y-75152643D01*
X134327855Y-75130904D01*
X134386541Y-75110619D01*
X134540481Y-75018658D01*
X134653243Y-74891326D01*
X134672759Y-74857232D01*
X134714790Y-74776434D01*
X134503280Y-74679803D01*
X134376391Y-74619071D01*
X134246622Y-74552543D01*
X134141958Y-74494569D01*
X134141509Y-74494304D01*
X134062545Y-74449021D01*
X134008770Y-74430062D01*
X133968176Y-74443217D01*
X133928756Y-74494271D01*
X133878503Y-74589012D01*
X133857266Y-74631307D01*
X133796444Y-74783261D01*
X133777451Y-74910395D01*
X133622520Y-74910395D01*
X133620019Y-74885161D01*
X133635529Y-74794748D01*
X133638449Y-74782407D01*
X133672827Y-74679449D01*
X133726518Y-74559780D01*
X133770526Y-74479074D01*
X133822212Y-74391014D01*
X133846099Y-74338995D01*
X133845069Y-74309849D01*
X133822006Y-74290407D01*
X133812922Y-74285406D01*
X133768101Y-74274186D01*
X133708490Y-74288606D01*
X133619078Y-74332668D01*
X133603831Y-74341147D01*
X133414436Y-74429392D01*
X133243231Y-74473221D01*
X133095000Y-74472677D01*
X132974527Y-74427802D01*
X132886595Y-74338638D01*
X132884214Y-74334795D01*
X132846450Y-74259847D01*
X132827975Y-74197651D01*
X132827610Y-74191398D01*
X132814811Y-74148350D01*
X132800592Y-74140656D01*
X132780130Y-74167541D01*
X132762993Y-74239835D01*
X132750434Y-74344989D01*
X132743706Y-74470458D01*
X132437411Y-74470458D01*
X132450704Y-74258996D01*
X132492235Y-74086679D01*
X132955820Y-74086679D01*
X132977445Y-74194941D01*
X133019003Y-74280062D01*
X133054391Y-74313523D01*
X133156166Y-74340747D01*
X133286709Y-74324270D01*
X133421908Y-74272854D01*
X133532925Y-74218139D01*
X133596198Y-74178994D01*
X133615815Y-74144987D01*
X133595866Y-74105684D01*
X133540440Y-74050652D01*
X133517343Y-74029367D01*
X133428247Y-73940559D01*
X133329409Y-73832148D01*
X133260734Y-73750355D01*
X133195135Y-73671177D01*
X133142994Y-73613810D01*
X133114916Y-73589867D01*
X133114087Y-73589742D01*
X133091229Y-73614915D01*
X133058459Y-73679806D01*
X133022144Y-73768478D01*
X132988654Y-73864989D01*
X132964358Y-73953402D01*
X132959854Y-73975738D01*
X132955820Y-74086679D01*
X132492235Y-74086679D01*
X132525032Y-73950599D01*
X132653740Y-73654424D01*
X132750269Y-73494809D01*
X132794876Y-73442528D01*
X133240858Y-73442528D01*
X133284749Y-73534403D01*
X133373936Y-73656026D01*
X133404472Y-73692703D01*
X133694728Y-73990794D01*
X134025012Y-74248127D01*
X134395792Y-74464936D01*
X134807537Y-74641455D01*
X135260715Y-74777920D01*
X135755796Y-74874564D01*
X135770538Y-74876739D01*
X135879439Y-74884130D01*
X136011755Y-74880965D01*
X136148125Y-74869053D01*
X136269190Y-74850205D01*
X136355590Y-74826232D01*
X136367056Y-74820956D01*
X136452985Y-74757206D01*
X136489469Y-74676370D01*
X136477867Y-74571714D01*
X136437412Y-74471464D01*
X136318085Y-74290271D01*
X136142376Y-74118469D01*
X135911260Y-73956882D01*
X135688245Y-73836067D01*
X135446889Y-73727694D01*
X135186768Y-73627579D01*
X134915434Y-73537299D01*
X134640444Y-73458434D01*
X134369349Y-73392561D01*
X134109706Y-73341260D01*
X133869066Y-73306108D01*
X133654986Y-73288684D01*
X133475018Y-73290566D01*
X133336717Y-73313333D01*
X133284179Y-73333741D01*
X133241067Y-73376831D01*
X133240858Y-73442528D01*
X132794876Y-73442528D01*
X132909443Y-73308251D01*
X133107004Y-73158591D01*
X133332654Y-73051222D01*
X133576095Y-72991534D01*
X133731924Y-72980838D01*
X133818216Y-72978397D01*
X133886530Y-72966704D01*
X133953923Y-72939207D01*
X134037448Y-72889352D01*
X134127557Y-72828822D01*
X134340794Y-72665089D01*
X134570860Y-72456217D01*
X134810909Y-72210005D01*
X135054095Y-71934253D01*
X135293574Y-71636760D01*
X135522499Y-71325325D01*
X135734025Y-71007749D01*
X135754305Y-70975394D01*
X135919649Y-70699951D01*
X136098130Y-70384686D01*
X136282147Y-70043936D01*
X136464101Y-69692038D01*
X136636394Y-69343327D01*
X136769458Y-69060378D01*
X136923231Y-68725641D01*
X137056747Y-68438213D01*
X137173110Y-68192324D01*
X137275421Y-67982202D01*
X137366780Y-67802079D01*
X137450292Y-67646184D01*
X137529056Y-67508747D01*
X137606176Y-67383998D01*
X137684752Y-67266166D01*
X137767887Y-67149482D01*
X137858683Y-67028175D01*
X137869557Y-67013927D01*
X138069766Y-66752026D01*
X137804513Y-66660842D01*
X137497928Y-66541359D01*
X137163880Y-66386082D01*
X136814239Y-66201827D01*
X136460875Y-65995410D01*
X136115658Y-65773650D01*
X135790458Y-65543363D01*
X135594672Y-65391718D01*
X135154224Y-65008385D01*
X134718382Y-64573689D01*
X134291836Y-64094261D01*
X133879273Y-63576729D01*
X133485382Y-63027721D01*
X133114852Y-62453868D01*
X132772370Y-61861797D01*
X132462626Y-61258138D01*
X132190306Y-60649520D01*
X132122904Y-60482924D01*
X131888266Y-59837212D01*
X131703771Y-59214778D01*
X131569648Y-58616651D01*
X131486123Y-58043859D01*
X131453425Y-57497429D01*
X131453018Y-57455858D01*
X131452225Y-57325035D01*
X131727209Y-57325035D01*
X131730251Y-57457391D01*
X131735283Y-57577014D01*
X131786608Y-58141402D01*
X131887539Y-58726799D01*
X132035917Y-59328082D01*
X132229578Y-59940128D01*
X132466362Y-60557812D01*
X132744108Y-61176011D01*
X133060654Y-61789601D01*
X133413838Y-62393458D01*
X133801499Y-62982458D01*
X134221476Y-63551477D01*
X134294699Y-63644309D01*
X134451478Y-63832760D01*
X134636268Y-64040980D01*
X134840645Y-64260547D01*
X135056187Y-64483035D01*
X135274471Y-64700020D01*
X135487073Y-64903079D01*
X135685570Y-65083789D01*
X135861540Y-65233724D01*
X135963964Y-65313751D01*
X136223404Y-65498810D01*
X136497336Y-65680683D01*
X136768467Y-65848399D01*
X137019504Y-65990982D01*
X137088118Y-66027116D01*
X137191207Y-66078473D01*
X137315113Y-66137530D01*
X137448263Y-66199099D01*
X137579080Y-66257992D01*
X137695989Y-66309021D01*
X137787415Y-66346997D01*
X137841783Y-66366732D01*
X137849402Y-66368343D01*
X137845281Y-66345625D01*
X137817687Y-66283311D01*
X137771694Y-66192282D01*
X137738613Y-66130667D01*
X137463565Y-65580150D01*
X137238894Y-65022469D01*
X137060682Y-64446233D01*
X136925012Y-63840055D01*
X136898170Y-63687802D01*
X136871289Y-63473587D01*
X136854636Y-63224416D01*
X136848228Y-62957972D01*
X136852078Y-62691939D01*
X136866204Y-62443999D01*
X136890619Y-62231836D01*
X136896866Y-62194537D01*
X136937079Y-61988946D01*
X136983870Y-61790428D01*
X137039904Y-61592006D01*
X137107842Y-61386705D01*
X137190350Y-61167548D01*
X137290089Y-60927560D01*
X137409722Y-60659765D01*
X137551913Y-60357187D01*
X137719326Y-60012850D01*
X137765376Y-59919536D01*
X137945360Y-59553616D01*
X138099623Y-59235108D01*
X138229746Y-58960264D01*
X138337311Y-58725335D01*
X138423901Y-58526571D01*
X138491096Y-58360225D01*
X138540480Y-58222547D01*
X138573634Y-58109789D01*
X138592139Y-58018201D01*
X138597593Y-57947332D01*
X138569267Y-57755560D01*
X138486174Y-57561479D01*
X138351144Y-57369549D01*
X138167004Y-57184230D01*
X138057296Y-57095363D01*
X137824931Y-56940415D01*
X137546270Y-56788956D01*
X137233004Y-56645066D01*
X136896825Y-56512825D01*
X136549425Y-56396312D01*
X136202496Y-56299606D01*
X135867728Y-56226786D01*
X135556814Y-56181933D01*
X135408095Y-56171001D01*
X135222089Y-56168899D01*
X135017298Y-56179178D01*
X134785874Y-56202755D01*
X134519967Y-56240547D01*
X134211729Y-56293472D01*
X133972821Y-56338792D01*
X133827526Y-56368079D01*
X133698911Y-56396747D01*
X133578798Y-56427722D01*
X133459010Y-56463929D01*
X133331366Y-56508293D01*
X133187691Y-56563739D01*
X133019804Y-56633194D01*
X132819530Y-56719582D01*
X132578688Y-56825828D01*
X132445207Y-56885214D01*
X132262606Y-56965973D01*
X132096627Y-57038215D01*
X131954881Y-57098722D01*
X131844980Y-57144274D01*
X131774535Y-57171653D01*
X131752055Y-57178327D01*
X131737823Y-57192346D01*
X131729637Y-57238968D01*
X131727209Y-57325035D01*
X131452225Y-57325035D01*
X131450218Y-56994006D01*
X131624191Y-56923880D01*
X131702146Y-56891352D01*
X131822561Y-56839722D01*
X131974953Y-56773550D01*
X132148839Y-56697397D01*
X132333735Y-56615824D01*
X132407067Y-56583302D01*
X132897319Y-56369982D01*
X133343490Y-56185646D01*
X133750822Y-56028787D01*
X134124560Y-55897895D01*
X134246214Y-55860406D01*
X135930717Y-55860406D01*
X135955566Y-55873546D01*
X136030442Y-55896240D01*
X136157680Y-55930076D01*
X136277958Y-55960935D01*
X136665126Y-56077430D01*
X137051489Y-56227249D01*
X137426526Y-56404734D01*
X137779717Y-56604231D01*
X138100541Y-56820082D01*
X138378477Y-57046633D01*
X138482187Y-57145935D01*
X138627316Y-57299284D01*
X138732483Y-57429475D01*
X138803662Y-57548744D01*
X138846826Y-57669329D01*
X138867948Y-57803469D01*
X138873049Y-57946706D01*
X138869123Y-58097468D01*
X138854860Y-58213714D01*
X138826529Y-58318544D01*
X138802820Y-58381637D01*
X138716030Y-58593598D01*
X138629409Y-58798251D01*
X138538272Y-59005979D01*
X138437932Y-59227165D01*
X138323703Y-59472192D01*
X138190897Y-59751445D01*
X138088345Y-59964614D01*
X137907881Y-60342822D01*
X137753519Y-60676899D01*
X137622971Y-60973280D01*
X137513948Y-61238400D01*
X137424164Y-61478693D01*
X137351329Y-61700597D01*
X137293158Y-61910545D01*
X137247360Y-62114973D01*
X137211650Y-62320316D01*
X137187858Y-62497513D01*
X137160641Y-62941416D01*
X137179565Y-63408495D01*
X137242459Y-63889856D01*
X137347149Y-64376602D01*
X137491463Y-64859837D01*
X137673228Y-65330664D01*
X137890273Y-65780188D01*
X138062094Y-66077513D01*
X138358983Y-66504025D01*
X138690556Y-66884379D01*
X139057260Y-67218877D01*
X139459537Y-67507826D01*
X139897835Y-67751530D01*
X140372596Y-67950294D01*
X140884266Y-68104423D01*
X141089770Y-68151626D01*
X141273808Y-68189224D01*
X141407890Y-68213070D01*
X141498319Y-68223469D01*
X141551401Y-68220726D01*
X141573441Y-68205147D01*
X141570744Y-68177036D01*
X141569888Y-68174845D01*
X141557887Y-68115072D01*
X141548054Y-68006953D01*
X141540494Y-67860095D01*
X141535314Y-67684105D01*
X141532620Y-67488592D01*
X141532516Y-67283162D01*
X141535110Y-67077423D01*
X141540506Y-66880984D01*
X141548811Y-66703451D01*
X141552976Y-66639823D01*
X141570198Y-66417688D01*
X141586222Y-66243645D01*
X141600731Y-66119161D01*
X141613410Y-66045703D01*
X141623943Y-66024736D01*
X141632015Y-66057729D01*
X141637309Y-66146147D01*
X141639169Y-66239400D01*
X141658191Y-66690416D01*
X141704693Y-67176092D01*
X141776105Y-67681491D01*
X141869856Y-68191675D01*
X141983375Y-68691707D01*
X142114091Y-69166650D01*
X142177539Y-69367303D01*
X142370465Y-69881757D01*
X142596156Y-70358862D01*
X142852511Y-70795460D01*
X143137432Y-71188394D01*
X143448820Y-71534506D01*
X143784574Y-71830639D01*
X143846824Y-71877937D01*
X144161297Y-72082078D01*
X144514502Y-72259888D01*
X144890573Y-72404584D01*
X145273644Y-72509381D01*
X145368026Y-72528435D01*
X145541365Y-72551220D01*
X145751466Y-72563882D01*
X145982447Y-72566830D01*
X146218425Y-72560471D01*
X146443518Y-72545212D01*
X146641842Y-72521460D01*
X146788803Y-72491985D01*
X146988684Y-72427254D01*
X147199613Y-72338863D01*
X147403647Y-72235723D01*
X147582841Y-72126741D01*
X147695936Y-72041609D01*
X147945383Y-71794957D01*
X148152065Y-71521690D01*
X148312681Y-71228496D01*
X148423931Y-70922069D01*
X148482513Y-70609098D01*
X148491071Y-70429932D01*
X148484146Y-70248584D01*
X148462690Y-70108312D01*
X148422964Y-69993212D01*
X148364710Y-69892427D01*
X148240770Y-69759899D01*
X148077572Y-69656252D01*
X147887036Y-69583098D01*
X147681085Y-69542050D01*
X147471637Y-69534720D01*
X147270615Y-69562719D01*
X147089938Y-69627660D01*
X146971894Y-69704091D01*
X146872138Y-69820117D01*
X146795887Y-69977596D01*
X146748477Y-70162910D01*
X146735130Y-70308509D01*
X146735053Y-70411799D01*
X146744958Y-70476600D01*
X146770958Y-70522287D01*
X146816273Y-70565752D01*
X146860323Y-70598308D01*
X146909244Y-70618626D01*
X146973514Y-70627090D01*
X147063607Y-70624086D01*
X147190000Y-70610000D01*
X147359622Y-70585748D01*
X147484693Y-70567010D01*
X147339716Y-70717933D01*
X147187475Y-70857062D01*
X147046957Y-70942601D01*
X146912609Y-70976316D01*
X146778878Y-70959976D01*
X146691434Y-70924262D01*
X146538797Y-70817839D01*
X146406634Y-70663688D01*
X146293510Y-70459473D01*
X146197988Y-70202859D01*
X146156616Y-70055107D01*
X146135615Y-69967054D01*
X146119760Y-69882836D01*
X146108350Y-69792328D01*
X146100682Y-69685403D01*
X146096056Y-69551937D01*
X146093769Y-69381802D01*
X146093120Y-69164873D01*
X146093118Y-69138943D01*
X146094638Y-68881060D01*
X146099794Y-68650433D01*
X146109575Y-68432843D01*
X146124971Y-68214075D01*
X146146972Y-67979912D01*
X146176567Y-67716136D01*
X146212231Y-67428213D01*
X146241181Y-67213166D01*
X146273857Y-66990243D01*
X146308857Y-66767258D01*
X146344777Y-66552026D01*
X146380215Y-66352362D01*
X146413766Y-66176081D01*
X146444028Y-66030997D01*
X146469598Y-65924926D01*
X146489072Y-65865682D01*
X146494289Y-65857354D01*
X146503375Y-65877220D01*
X146515363Y-65942145D01*
X146528040Y-66039421D01*
X146531391Y-66070520D01*
X146544277Y-66259259D01*
X146549699Y-66492653D01*
X146547966Y-66757888D01*
X146539388Y-67042151D01*
X146524276Y-67332629D01*
X146502940Y-67616510D01*
X146490893Y-67743594D01*
X146438084Y-68261942D01*
X146657528Y-68243642D01*
X147109910Y-68183269D01*
X147560617Y-68079732D01*
X148001500Y-67936691D01*
X148424414Y-67757803D01*
X148821211Y-67546729D01*
X149183743Y-67307127D01*
X149503864Y-67042657D01*
X149646446Y-66901210D01*
X149848915Y-66675775D01*
X150023888Y-66455064D01*
X150181971Y-66223619D01*
X150333766Y-65965984D01*
X150480453Y-65685603D01*
X150687786Y-65230341D01*
X150862208Y-64762927D01*
X151001774Y-64291901D01*
X151104542Y-63825808D01*
X151168567Y-63373189D01*
X151191905Y-62942587D01*
X151179481Y-62613819D01*
X151159528Y-62410339D01*
X151134288Y-62220496D01*
X151101543Y-62037846D01*
X151059075Y-61855944D01*
X151004665Y-61668346D01*
X150936097Y-61468608D01*
X150851152Y-61250285D01*
X150747612Y-61006934D01*
X150623260Y-60732109D01*
X150475877Y-60419366D01*
X150303245Y-60062262D01*
X150296716Y-60048875D01*
X150177392Y-59803021D01*
X150059086Y-59556908D01*
X149945909Y-59319253D01*
X149841970Y-59098776D01*
X149751380Y-58904196D01*
X149678250Y-58744231D01*
X149626903Y-58628099D01*
X149561596Y-58474241D01*
X149515879Y-58359619D01*
X149486218Y-58270288D01*
X149469076Y-58192303D01*
X149460919Y-58111719D01*
X149458212Y-58014591D01*
X149458199Y-58012775D01*
X149717592Y-58012775D01*
X149731420Y-58158792D01*
X149770193Y-58322931D01*
X149835350Y-58510524D01*
X149928332Y-58726902D01*
X150050576Y-58977395D01*
X150203524Y-59267336D01*
X150301883Y-59446684D01*
X150524579Y-59855957D01*
X150716157Y-60225209D01*
X150879452Y-60561434D01*
X151017300Y-60871622D01*
X151132539Y-61162765D01*
X151228003Y-61441854D01*
X151306530Y-61715880D01*
X151370954Y-61991836D01*
X151404802Y-62165541D01*
X151425921Y-62321729D01*
X151441693Y-62519096D01*
X151451994Y-62743374D01*
X151456701Y-62980295D01*
X151455688Y-63215590D01*
X151448832Y-63434992D01*
X151436008Y-63624231D01*
X151418680Y-63760290D01*
X151315326Y-64240272D01*
X151173949Y-64736358D01*
X151001327Y-65227823D01*
X150804233Y-65693944D01*
X150747537Y-65813100D01*
X150672461Y-65968396D01*
X150620889Y-66080360D01*
X150589972Y-66157317D01*
X150576861Y-66207594D01*
X150578706Y-66239515D01*
X150592658Y-66261405D01*
X150593736Y-66262500D01*
X150620398Y-66281602D01*
X150656297Y-66284998D01*
X150713698Y-66270219D01*
X150804865Y-66234796D01*
X150871748Y-66206515D01*
X151006418Y-66145059D01*
X151163895Y-66067480D01*
X151317122Y-65987261D01*
X151368339Y-65959040D01*
X151816598Y-65691078D01*
X152231455Y-65406938D01*
X152626200Y-65096299D01*
X153014128Y-64748843D01*
X153328981Y-64436933D01*
X153810616Y-63907980D01*
X154263680Y-63344587D01*
X154685373Y-62752341D01*
X155072892Y-62136829D01*
X155423437Y-61503639D01*
X155734206Y-60858357D01*
X156002399Y-60206569D01*
X156225213Y-59553863D01*
X156399848Y-58905827D01*
X156523502Y-58268046D01*
X156561241Y-57990377D01*
X156581613Y-57792946D01*
X156595267Y-57609768D01*
X156602078Y-57448944D01*
X156601923Y-57318575D01*
X156594679Y-57226764D01*
X156580222Y-57181611D01*
X156573629Y-57178327D01*
X156540225Y-57167010D01*
X156460908Y-57135058D01*
X156342726Y-57085463D01*
X156192723Y-57021222D01*
X156017945Y-56945328D01*
X155825439Y-56860777D01*
X155798001Y-56848652D01*
X155542372Y-56735998D01*
X155331221Y-56644287D01*
X155156188Y-56570562D01*
X155008911Y-56511869D01*
X154881031Y-56465252D01*
X154764188Y-56427755D01*
X154650022Y-56396423D01*
X154530172Y-56368301D01*
X154396278Y-56340433D01*
X154315207Y-56324452D01*
X153874672Y-56247023D01*
X153476827Y-56196279D01*
X153112677Y-56172607D01*
X152773228Y-56176390D01*
X152449487Y-56208013D01*
X152132458Y-56267862D01*
X151813148Y-56356320D01*
X151565597Y-56442105D01*
X151184325Y-56597135D01*
X150839479Y-56763266D01*
X150534778Y-56937977D01*
X150273942Y-57118749D01*
X150060692Y-57303063D01*
X149898747Y-57488398D01*
X149811385Y-57630153D01*
X149759014Y-57753787D01*
X149727270Y-57879551D01*
X149717592Y-58012775D01*
X149458199Y-58012775D01*
X149457826Y-57961204D01*
X149459323Y-57821223D01*
X149467607Y-57720624D01*
X149485757Y-57640918D01*
X149516852Y-57563613D01*
X149527859Y-57540770D01*
X149599736Y-57427079D01*
X149710383Y-57291938D01*
X149849761Y-57145206D01*
X150007828Y-56996745D01*
X150174544Y-56856413D01*
X150339868Y-56734072D01*
X150369739Y-56714040D01*
X150664993Y-56535695D01*
X150993625Y-56365132D01*
X151340149Y-56208902D01*
X151689082Y-56073553D01*
X152024938Y-55965636D01*
X152297935Y-55898448D01*
X152388520Y-55877081D01*
X152425094Y-55861586D01*
X152411391Y-55852456D01*
X152351140Y-55850186D01*
X152248074Y-55855270D01*
X152105924Y-55868202D01*
X152085907Y-55870361D01*
X151915636Y-55891969D01*
X151750997Y-55919864D01*
X151586759Y-55956113D01*
X151417696Y-56002784D01*
X151238579Y-56061942D01*
X151044179Y-56135655D01*
X150829268Y-56225990D01*
X150588619Y-56335014D01*
X150317002Y-56464795D01*
X150009190Y-56617398D01*
X149659954Y-56794892D01*
X149372361Y-56943174D01*
X149244098Y-57007198D01*
X149146094Y-57047851D01*
X149058567Y-57071066D01*
X148961731Y-57082773D01*
X148893936Y-57086608D01*
X148729744Y-57083734D01*
X148578843Y-57056257D01*
X148427727Y-56999299D01*
X148262889Y-56907984D01*
X148104323Y-56801429D01*
X147848944Y-56621784D01*
X147631071Y-56472680D01*
X147442514Y-56348957D01*
X147275082Y-56245453D01*
X147120582Y-56157010D01*
X146970825Y-56078466D01*
X146906285Y-56046662D01*
X146381119Y-55823941D01*
X145833566Y-55651646D01*
X145269403Y-55529776D01*
X144694407Y-55458332D01*
X144114354Y-55437313D01*
X143535019Y-55466719D01*
X142962179Y-55546551D01*
X142401610Y-55676808D01*
X141859089Y-55857490D01*
X141424647Y-56046720D01*
X141258081Y-56131719D01*
X141086993Y-56227655D01*
X140903074Y-56339752D01*
X140698015Y-56473235D01*
X140463508Y-56633331D01*
X140225108Y-56801144D01*
X140038310Y-56925222D01*
X139876482Y-57010772D01*
X139726140Y-57062670D01*
X139573801Y-57085797D01*
X139436019Y-57086629D01*
X139315803Y-57077701D01*
X139218518Y-57058879D01*
X139120764Y-57023486D01*
X138999142Y-56964846D01*
X138986590Y-56958388D01*
X138644576Y-56782348D01*
X138348297Y-56631124D01*
X138092291Y-56502301D01*
X137871094Y-56393463D01*
X137679243Y-56302193D01*
X137511275Y-56226077D01*
X137361725Y-56162699D01*
X137225132Y-56109643D01*
X137096031Y-56064493D01*
X136968959Y-56024833D01*
X136838452Y-55988248D01*
X136727387Y-55959440D01*
X136561311Y-55922806D01*
X136379295Y-55891084D01*
X136209505Y-55868868D01*
X136132981Y-55862452D01*
X136021760Y-55856445D01*
X135953560Y-55855235D01*
X135930717Y-55860406D01*
X134246214Y-55860406D01*
X134469947Y-55791460D01*
X134792227Y-55707972D01*
X135096644Y-55645922D01*
X135388442Y-55603800D01*
X135672863Y-55580097D01*
X135915515Y-55573294D01*
X136198323Y-55579831D01*
X136453350Y-55603976D01*
X136702345Y-55649256D01*
X136967054Y-55719195D01*
X137128858Y-55769986D01*
X137401671Y-55868347D01*
X137708596Y-55994686D01*
X138036655Y-56143134D01*
X138372871Y-56307822D01*
X138699077Y-56480034D01*
X138854750Y-56564298D01*
X138999585Y-56640635D01*
X139123264Y-56703766D01*
X139215466Y-56748407D01*
X139261565Y-56767932D01*
X139430527Y-56799116D01*
X139610932Y-56780398D01*
X139806348Y-56710803D01*
X140020339Y-56589355D01*
X140090857Y-56541130D01*
X140413004Y-56317342D01*
X140701499Y-56127531D01*
X140965583Y-55966645D01*
X141214497Y-55829633D01*
X141457481Y-55711442D01*
X141703775Y-55607020D01*
X141962619Y-55511315D01*
X141994458Y-55500349D01*
X142566259Y-55334388D01*
X143153145Y-55220946D01*
X143749310Y-55159709D01*
X144348949Y-55150358D01*
X144946257Y-55192576D01*
X145535426Y-55286048D01*
X146110652Y-55430456D01*
X146666129Y-55625483D01*
X147002061Y-55773594D01*
X147211895Y-55876726D01*
X147392517Y-55972882D01*
X147560804Y-56072216D01*
X147733633Y-56184880D01*
X147927883Y-56321030D01*
X148006611Y-56377970D01*
X148218468Y-56526920D01*
X148395594Y-56639254D01*
X148544977Y-56718638D01*
X148673601Y-56768737D01*
X148788454Y-56793217D01*
X148800391Y-56794489D01*
X148890165Y-56797578D01*
X148980265Y-56786755D01*
X149080121Y-56758622D01*
X149199167Y-56709782D01*
X149346835Y-56636836D01*
X149532555Y-56536386D01*
X149561449Y-56520315D01*
X150032734Y-56268032D01*
X150469471Y-56056880D01*
X150876498Y-55885429D01*
X151258656Y-55752250D01*
X151620786Y-55655911D01*
X151967727Y-55594983D01*
X152304320Y-55568037D01*
X152635405Y-55573641D01*
X152738129Y-55581807D01*
X152998687Y-55611363D01*
X153256705Y-55651659D01*
X153517942Y-55704535D01*
X153788157Y-55771827D01*
X154073109Y-55855373D01*
X154378559Y-55957012D01*
X154710265Y-56078581D01*
X155073987Y-56221918D01*
X155475485Y-56388861D01*
X155920518Y-56581248D01*
X156052844Y-56639542D01*
X156248100Y-56725703D01*
X156427994Y-56804778D01*
X156585123Y-56873537D01*
X156712084Y-56928750D01*
X156801474Y-56967188D01*
X156845889Y-56985621D01*
X156847363Y-56986165D01*
X156867514Y-56996539D01*
X156881574Y-57016562D01*
X156890181Y-57054729D01*
X156893974Y-57119536D01*
X156893592Y-57219478D01*
X156889672Y-57363051D01*
X156885281Y-57490804D01*
X156837993Y-58089924D01*
X156738962Y-58707656D01*
X156589755Y-59339786D01*
X156391942Y-59982104D01*
X156147090Y-60630398D01*
X155856767Y-61280458D01*
X155522542Y-61928070D01*
X155145982Y-62569025D01*
X154795772Y-63102582D01*
X154332580Y-63733704D01*
X153849367Y-64312143D01*
X153346647Y-64837438D01*
X152824931Y-65309125D01*
X152284729Y-65726744D01*
X151726554Y-66089832D01*
X151150916Y-66397926D01*
X151144704Y-66400905D01*
X150890331Y-66522722D01*
X151045217Y-66685513D01*
X151239201Y-66905950D01*
X151426499Y-67153829D01*
X151610440Y-67434690D01*
X151794349Y-67754076D01*
X151981553Y-68117527D01*
X152175380Y-68530585D01*
X152239813Y-68675204D01*
X152326603Y-68866803D01*
X152431964Y-69090701D01*
X152550162Y-69335430D01*
X152675464Y-69589518D01*
X152802135Y-69841499D01*
X152924442Y-70079901D01*
X153036652Y-70293256D01*
X153133031Y-70470094D01*
X153167413Y-70530724D01*
X153323718Y-70792172D01*
X153497019Y-71065241D01*
X153677141Y-71334778D01*
X153853907Y-71585633D01*
X154017142Y-71802656D01*
X154046907Y-71840215D01*
X154216303Y-72039860D01*
X154407369Y-72244991D01*
X154607861Y-72443691D01*
X154805535Y-72624049D01*
X154988146Y-72774149D01*
X155064297Y-72830161D01*
X155171737Y-72903292D01*
X155250130Y-72948133D01*
X155316555Y-72971543D01*
X155388092Y-72980382D01*
X155441238Y-72981547D01*
X155697799Y-73005116D01*
X155926000Y-73075936D01*
X156134814Y-73197765D01*
X156301387Y-73341861D01*
X156433978Y-73492169D01*
X156538537Y-73655704D01*
X156623461Y-73847916D01*
X156689296Y-74055482D01*
X156740786Y-74342774D01*
X156735610Y-74629494D01*
X156673543Y-74916247D01*
X156554359Y-75203635D01*
X156377834Y-75492262D01*
X156143741Y-75782732D01*
X155980910Y-75952870D01*
X155731993Y-76176208D01*
X155455931Y-76384062D01*
X155161867Y-76571840D01*
X154858946Y-76734951D01*
X154556314Y-76868803D01*
X154263114Y-76968805D01*
X153988491Y-77030365D01*
X153798623Y-77048593D01*
X153696611Y-77051898D01*
X153621874Y-77054972D01*
X153588833Y-77057211D01*
X153588352Y-77057406D01*
X153596931Y-77083848D01*
X153619419Y-77150102D01*
X153647347Y-77231379D01*
X153722814Y-77531848D01*
X153747836Y-77841420D01*
X153722474Y-78147640D01*
X153646793Y-78438055D01*
X153641214Y-78453208D01*
X153510004Y-78723644D01*
X153322993Y-78984751D01*
X153081812Y-79235227D01*
X152788094Y-79473764D01*
X152443469Y-79699060D01*
X152049569Y-79909809D01*
X151608027Y-80104706D01*
X151544356Y-80129928D01*
X151071544Y-80297030D01*
X150546829Y-80449696D01*
X149974595Y-80587428D01*
X149359232Y-80709727D01*
X148705125Y-80816093D01*
X148016662Y-80906027D01*
X147298230Y-80979031D01*
X146554215Y-81034605D01*
X145789005Y-81072251D01*
X145006986Y-81091469D01*
X144212546Y-81091761D01*
X143410071Y-81072627D01*
X143294853Y-81068272D01*
X142470126Y-81025205D01*
X141684740Y-80963046D01*
X140939917Y-80882186D01*
X140236881Y-80783015D01*
X139576855Y-80665923D01*
X138961062Y-80531302D01*
X138390727Y-80379541D01*
X137867073Y-80211030D01*
X137391323Y-80026161D01*
X136964701Y-79825323D01*
X136588429Y-79608907D01*
X136263732Y-79377304D01*
X135991833Y-79130903D01*
X135773956Y-78870095D01*
X135623607Y-78620450D01*
X135527548Y-78400997D01*
X135468820Y-78194561D01*
X135441386Y-77975660D01*
X135439674Y-77914700D01*
X135745327Y-77914700D01*
X135754985Y-78002947D01*
X135826441Y-78289218D01*
X135949864Y-78559887D01*
X136125776Y-78815322D01*
X136354695Y-79055888D01*
X136637141Y-79281951D01*
X136973636Y-79493878D01*
X137364700Y-79692033D01*
X137810851Y-79876784D01*
X138312612Y-80048495D01*
X138870500Y-80207534D01*
X138898629Y-80214837D01*
X139058796Y-80253852D01*
X139247424Y-80295855D01*
X139457204Y-80339580D01*
X139680827Y-80383763D01*
X139910982Y-80427139D01*
X140140360Y-80468442D01*
X140361651Y-80506409D01*
X140567546Y-80539773D01*
X140750736Y-80567271D01*
X140903909Y-80587637D01*
X141019758Y-80599607D01*
X141090972Y-80601915D01*
X141109995Y-80597508D01*
X141098151Y-80573931D01*
X141051632Y-80533040D01*
X141038890Y-80523696D01*
X140957521Y-80451620D01*
X140860781Y-80345208D01*
X140761400Y-80220849D01*
X140672112Y-80094932D01*
X140605649Y-79983848D01*
X140585250Y-79939742D01*
X140551130Y-79853033D01*
X140524117Y-79784432D01*
X140516760Y-79765770D01*
X140527159Y-79766484D01*
X140568984Y-79803410D01*
X140634866Y-79869654D01*
X140686665Y-79924701D01*
X140899962Y-80148132D01*
X141092635Y-80334926D01*
X141260299Y-80480979D01*
X141366656Y-80561080D01*
X141511634Y-80660674D01*
X142164031Y-80706415D01*
X142362316Y-80720265D01*
X142549848Y-80733269D01*
X142715878Y-80744687D01*
X142849651Y-80753783D01*
X142940418Y-80759818D01*
X142961405Y-80761156D01*
X143054050Y-80767428D01*
X143125790Y-80773203D01*
X143146709Y-80775384D01*
X143148206Y-80761271D01*
X143112874Y-80719265D01*
X143051502Y-80661308D01*
X142936651Y-80546628D01*
X142867272Y-80439557D01*
X142835385Y-80325202D01*
X142831374Y-80257140D01*
X142975903Y-80257140D01*
X143003175Y-80370174D01*
X143078974Y-80482578D01*
X143194277Y-80586598D01*
X143340059Y-80674479D01*
X143507296Y-80738467D01*
X143548445Y-80749130D01*
X143641988Y-80763220D01*
X143771503Y-80772811D01*
X143916336Y-80777444D01*
X144055833Y-80776659D01*
X144169339Y-80769996D01*
X144211979Y-80763909D01*
X144295486Y-80747207D01*
X144293442Y-80658170D01*
X144890182Y-80658170D01*
X144904603Y-80721126D01*
X144942810Y-80756763D01*
X145013054Y-80772039D01*
X145123582Y-80773909D01*
X145282645Y-80769333D01*
X145310035Y-80768553D01*
X145485552Y-80760108D01*
X145620117Y-80744183D01*
X145730555Y-80718284D01*
X145791316Y-80697275D01*
X145943023Y-80618592D01*
X146072328Y-80512949D01*
X146165442Y-80393038D01*
X146196715Y-80324154D01*
X146214789Y-80248104D01*
X146202392Y-80191904D01*
X146172913Y-80146789D01*
X146104185Y-80075021D01*
X146031890Y-80021304D01*
X145957252Y-79990696D01*
X145838111Y-79956628D01*
X145687628Y-79921832D01*
X145518959Y-79889039D01*
X145345263Y-79860978D01*
X145179698Y-79840380D01*
X145143312Y-79836910D01*
X144918597Y-79816947D01*
X144918465Y-79958082D01*
X144916693Y-80046890D01*
X144912018Y-80174165D01*
X144905222Y-80320501D01*
X144899706Y-80422469D01*
X144891300Y-80560937D01*
X144890182Y-80658170D01*
X144293442Y-80658170D01*
X144285384Y-80307230D01*
X144280226Y-80152232D01*
X144272725Y-80017458D01*
X144263718Y-79913715D01*
X144254038Y-79851808D01*
X144249257Y-79839971D01*
X144209962Y-79831899D01*
X144125420Y-79833465D01*
X144007291Y-79843125D01*
X143867230Y-79859336D01*
X143716896Y-79880555D01*
X143567945Y-79905238D01*
X143432035Y-79931843D01*
X143320822Y-79958826D01*
X143295861Y-79966188D01*
X143143403Y-80024960D01*
X143043129Y-80092409D01*
X142989338Y-80173718D01*
X142975903Y-80257140D01*
X142831374Y-80257140D01*
X142830926Y-80249545D01*
X142849472Y-80131576D01*
X142907108Y-80029931D01*
X143006825Y-79943154D01*
X143151617Y-79869783D01*
X143344479Y-79808361D01*
X143588403Y-79757429D01*
X143886383Y-79715528D01*
X143938858Y-79709610D01*
X144060501Y-79696457D01*
X144159142Y-79686100D01*
X144221508Y-79679917D01*
X144236062Y-79678783D01*
X144249324Y-79654715D01*
X144251702Y-79627744D01*
X144246258Y-79605497D01*
X144223433Y-79590813D01*
X144173488Y-79582179D01*
X144086685Y-79578077D01*
X143953286Y-79576995D01*
X143925503Y-79577002D01*
X143773431Y-79575507D01*
X143663273Y-79569161D01*
X143579010Y-79555659D01*
X143504622Y-79532696D01*
X143445986Y-79508019D01*
X143296379Y-79416432D01*
X143166692Y-79291965D01*
X143071152Y-79150180D01*
X143034673Y-79058164D01*
X143016504Y-78918004D01*
X143021320Y-78897727D01*
X143163049Y-78897727D01*
X143168921Y-79002008D01*
X143203257Y-79089277D01*
X143289589Y-79220461D01*
X143403764Y-79320155D01*
X143526816Y-79387784D01*
X143603750Y-79418176D01*
X143683959Y-79435439D01*
X143785693Y-79441986D01*
X143924102Y-79440325D01*
X144044261Y-79433820D01*
X144142508Y-79423102D01*
X144204332Y-79410005D01*
X144216886Y-79403327D01*
X144222435Y-79367372D01*
X144223215Y-79286015D01*
X144220012Y-79171579D01*
X144213612Y-79036386D01*
X144204799Y-78892759D01*
X144194360Y-78753019D01*
X144183079Y-78629490D01*
X144171742Y-78534494D01*
X144161135Y-78480353D01*
X144157600Y-78473190D01*
X144124834Y-78472722D01*
X144049087Y-78483496D01*
X143943812Y-78503403D01*
X143885772Y-78515797D01*
X143633871Y-78579534D01*
X143437772Y-78647810D01*
X143295351Y-78722412D01*
X143204485Y-78805123D01*
X143163049Y-78897727D01*
X143021320Y-78897727D01*
X143046129Y-78793265D01*
X143125187Y-78682679D01*
X143255316Y-78584979D01*
X143438155Y-78498899D01*
X143675343Y-78423170D01*
X143932752Y-78363597D01*
X144016597Y-78345884D01*
X144075141Y-78325829D01*
X144111375Y-78294224D01*
X144128292Y-78241860D01*
X144128884Y-78159530D01*
X144116141Y-78038027D01*
X144093259Y-77869610D01*
X144051496Y-77606682D01*
X144004030Y-77376719D01*
X143952656Y-77186813D01*
X143899168Y-77044055D01*
X143870647Y-76990048D01*
X143768401Y-76878731D01*
X143622478Y-76801411D01*
X143436230Y-76758156D01*
X143213008Y-76749036D01*
X142956165Y-76774118D01*
X142669051Y-76833470D01*
X142355020Y-76927160D01*
X142268503Y-76957467D01*
X141956118Y-77065202D01*
X141684234Y-77146193D01*
X141442161Y-77200944D01*
X141219211Y-77229959D01*
X141004691Y-77233741D01*
X140787914Y-77212794D01*
X140558188Y-77167622D01*
X140304825Y-77098728D01*
X140168609Y-77056399D01*
X139788803Y-76950688D01*
X139435493Y-76887148D01*
X139096743Y-76864526D01*
X138760615Y-76881568D01*
X138643998Y-76896292D01*
X138543006Y-76908967D01*
X138466993Y-76914900D01*
X138431703Y-76912888D01*
X138431291Y-76912558D01*
X138452434Y-76899471D01*
X138519201Y-76872373D01*
X138621967Y-76834880D01*
X138751109Y-76790610D01*
X138790821Y-76777448D01*
X138961190Y-76723442D01*
X139096671Y-76686665D01*
X139216408Y-76663287D01*
X139339546Y-76649480D01*
X139467456Y-76642142D01*
X139583106Y-76637995D01*
X139677397Y-76638176D01*
X139762139Y-76645125D01*
X139849139Y-76661284D01*
X139950210Y-76689095D01*
X140077160Y-76731000D01*
X140241799Y-76789439D01*
X140324587Y-76819342D01*
X140589099Y-76891511D01*
X140881185Y-76930243D01*
X141179534Y-76933295D01*
X141307481Y-76922737D01*
X141423386Y-76908531D01*
X141515245Y-76895320D01*
X141569428Y-76885155D01*
X141577985Y-76882029D01*
X141573430Y-76848595D01*
X141538038Y-76781660D01*
X141478900Y-76691588D01*
X141403109Y-76588745D01*
X141317756Y-76483497D01*
X141262447Y-76420820D01*
X141078406Y-76238796D01*
X140869147Y-76069262D01*
X140625602Y-75905866D01*
X140338705Y-75742255D01*
X140168987Y-75654790D01*
X139846860Y-75501277D01*
X139562782Y-75382780D01*
X139310218Y-75297229D01*
X139082634Y-75242555D01*
X138873498Y-75216686D01*
X138777387Y-75213894D01*
X138681380Y-75219128D01*
X138595373Y-75238531D01*
X138498870Y-75278458D01*
X138394624Y-75332547D01*
X138200385Y-75446280D01*
X138002054Y-75579669D01*
X137790673Y-75739379D01*
X137557283Y-75932079D01*
X137373549Y-76092357D01*
X137144186Y-76287216D01*
X136933721Y-76445152D01*
X136726859Y-76576079D01*
X136508306Y-76689914D01*
X136329255Y-76769310D01*
X136194241Y-76826062D01*
X136102105Y-76867071D01*
X136042218Y-76898948D01*
X136003950Y-76928303D01*
X135976669Y-76961747D01*
X135950282Y-77004975D01*
X135855702Y-77208396D01*
X135787278Y-77441816D01*
X135749117Y-77684248D01*
X135745327Y-77914700D01*
X135439674Y-77914700D01*
X135437434Y-77834963D01*
X135448713Y-77631852D01*
G37*
G36*
X144094620Y-64835343D02*
G01*
X144246107Y-64838154D01*
X144365383Y-64844318D01*
X144465335Y-64855042D01*
X144558850Y-64871535D01*
X144658812Y-64895006D01*
X144724406Y-64912181D01*
X144949332Y-64982093D01*
X145165993Y-65067557D01*
X145360761Y-65162214D01*
X145520008Y-65259701D01*
X145594269Y-65318186D01*
X145660729Y-65383349D01*
X145679645Y-65416191D01*
X145651472Y-65415805D01*
X145576665Y-65381284D01*
X145565608Y-65375363D01*
X145455378Y-65324016D01*
X145305779Y-65265696D01*
X145133986Y-65206314D01*
X144957172Y-65151781D01*
X144792512Y-65108006D01*
X144780512Y-65105177D01*
X144387760Y-65038301D01*
X143967110Y-65011790D01*
X143531534Y-65024871D01*
X143094003Y-65076769D01*
X142667491Y-65166709D01*
X142395252Y-65247564D01*
X142284011Y-65283530D01*
X142195578Y-65309586D01*
X142142720Y-65322094D01*
X142133600Y-65322111D01*
X142149162Y-65302988D01*
X142209232Y-65267458D01*
X142304123Y-65219753D01*
X142424149Y-65164105D01*
X142559624Y-65104745D01*
X142700861Y-65045907D01*
X142838173Y-64991821D01*
X142961875Y-64946719D01*
X143062281Y-64914835D01*
X143071666Y-64912268D01*
X143181161Y-64884199D01*
X143276744Y-64863811D01*
X143371296Y-64849894D01*
X143477701Y-64841237D01*
X143608840Y-64836633D01*
X143777594Y-64834870D01*
X143898036Y-64834674D01*
X144094620Y-64835343D01*
G37*
G36*
X141461030Y-62754389D02*
G01*
X141471028Y-62826781D01*
X141448696Y-62931826D01*
X141399492Y-63058187D01*
X141328876Y-63194531D01*
X141242307Y-63329522D01*
X141145244Y-63451826D01*
X141104293Y-63495064D01*
X140969716Y-63615810D01*
X140839542Y-63699536D01*
X140697750Y-63752627D01*
X140528321Y-63781466D01*
X140360593Y-63791409D01*
X140139587Y-63790142D01*
X139968322Y-63771969D01*
X139899825Y-63756492D01*
X139615129Y-63650007D01*
X139362541Y-63499655D01*
X139148143Y-63309349D01*
X139078492Y-63228055D01*
X139002033Y-63121858D01*
X138969493Y-63052530D01*
X138979925Y-63020202D01*
X139032379Y-63025000D01*
X139125908Y-63067057D01*
X139259562Y-63146499D01*
X139331256Y-63193611D01*
X139506356Y-63309141D01*
X139645958Y-63394591D01*
X139760910Y-63454736D01*
X139862062Y-63494349D01*
X139960263Y-63518205D01*
X140066363Y-63531077D01*
X140104084Y-63533676D01*
X140362764Y-63530921D01*
X140583022Y-63487227D01*
X140770131Y-63399782D01*
X140929363Y-63265775D01*
X141065990Y-63082396D01*
X141115619Y-62994350D01*
X141199610Y-62854574D01*
X141280542Y-62758487D01*
X141354339Y-62708921D01*
X141416927Y-62708706D01*
X141461030Y-62754389D01*
G37*
G36*
X146911337Y-62711162D02*
G01*
X146985872Y-62764644D01*
X147067207Y-62864415D01*
X147144381Y-62994350D01*
X147273424Y-63198320D01*
X147422957Y-63351789D01*
X147598253Y-63457570D01*
X147804583Y-63518472D01*
X148047221Y-63537308D01*
X148155915Y-63533676D01*
X148266880Y-63523329D01*
X148366445Y-63503540D01*
X148465459Y-63469534D01*
X148574772Y-63416538D01*
X148705232Y-63339776D01*
X148867690Y-63234476D01*
X148928744Y-63193611D01*
X149079850Y-63097586D01*
X149191249Y-63039005D01*
X149261994Y-63017738D01*
X149291135Y-63033655D01*
X149277725Y-63086629D01*
X149220815Y-63176529D01*
X149181508Y-63228055D01*
X149061681Y-63357009D01*
X148912886Y-63484705D01*
X148756438Y-63594274D01*
X148636975Y-63658951D01*
X148441135Y-63728504D01*
X148223076Y-63775638D01*
X147999570Y-63798906D01*
X147787391Y-63796865D01*
X147603311Y-63768068D01*
X147551617Y-63752458D01*
X147336982Y-63647043D01*
X147147507Y-63491147D01*
X146985849Y-63287735D01*
X146854662Y-63039771D01*
X146809598Y-62923932D01*
X146785797Y-62826423D01*
X146796775Y-62758703D01*
X146798970Y-62754389D01*
X146847678Y-62706800D01*
X146911337Y-62711162D01*
G37*
G36*
X144395796Y-67448237D02*
G01*
X144592941Y-67466167D01*
X144767918Y-67500532D01*
X144938213Y-67554609D01*
X145091756Y-67618257D01*
X145205152Y-67673055D01*
X145272466Y-67713674D01*
X145292326Y-67737528D01*
X145263359Y-67742028D01*
X145184193Y-67724587D01*
X145141434Y-67711909D01*
X144748384Y-67618907D01*
X144338982Y-67577049D01*
X143923163Y-67585787D01*
X143510867Y-67644577D01*
X143112030Y-67752872D01*
X142897694Y-67835182D01*
X142768787Y-67890042D01*
X142687094Y-67923064D01*
X142646636Y-67935499D01*
X142641432Y-67928598D01*
X142665499Y-67903612D01*
X142694726Y-67877637D01*
X142802197Y-67801062D01*
X142950516Y-67719283D01*
X143123880Y-67639486D01*
X143306487Y-67568856D01*
X143482532Y-67514579D01*
X143506598Y-67508488D01*
X143650810Y-67477634D01*
X143794364Y-67457804D01*
X143956678Y-67447061D01*
X144157172Y-67443471D01*
X144158995Y-67443466D01*
X144395796Y-67448237D01*
G37*
%TD*%
D10*
%TO.C,R9*%
X144300000Y-107600000D03*
X144300000Y-109600000D03*
%TD*%
D11*
%TO.C,U1*%
X107950000Y-112913700D03*
D12*
X110490000Y-112913700D03*
X113030000Y-112913700D03*
X115570000Y-112913700D03*
X118110000Y-112913700D03*
X118110000Y-87913700D03*
X115570000Y-87913700D03*
X113030000Y-87913700D03*
X110490000Y-87913700D03*
X107950000Y-87913700D03*
%TD*%
D13*
%TO.C,D1*%
X144300000Y-113950000D03*
X144300000Y-111900000D03*
%TD*%
D14*
%TO.C,C1*%
X160437500Y-136600000D03*
X158362500Y-136600000D03*
%TD*%
D15*
%TO.C,R8*%
X131300000Y-133785000D03*
X129300000Y-133785000D03*
%TD*%
D16*
%TO.C,R7*%
X129300000Y-131000000D03*
X131300000Y-131000000D03*
%TD*%
%TO.C,R6*%
X158370000Y-133785000D03*
X160370000Y-133785000D03*
%TD*%
D17*
%TO.C,C2*%
X129300000Y-136600000D03*
X131375000Y-136600000D03*
%TD*%
D18*
%TO.C,SW2*%
X135230000Y-136600000D03*
X141530000Y-136600000D03*
X141530000Y-133600000D03*
X135230000Y-133600000D03*
%TD*%
%TO.C,SW1*%
X148030000Y-136600000D03*
X154330000Y-136600000D03*
X154330000Y-133600000D03*
X148030000Y-133600000D03*
%TD*%
D11*
%TO.C,U2*%
X128270000Y-112913700D03*
D12*
X130810000Y-112913700D03*
X133350000Y-112913700D03*
X135890000Y-112913700D03*
X138430000Y-112913700D03*
X138430000Y-87913700D03*
X135890000Y-87913700D03*
X133350000Y-87913700D03*
X130810000Y-87913700D03*
X128270000Y-87913700D03*
%TD*%
D15*
%TO.C,R5*%
X160370000Y-131000000D03*
X158370000Y-131000000D03*
%TD*%
D11*
%TO.C,U5*%
X171450000Y-112913700D03*
D12*
X173990000Y-112913700D03*
X176530000Y-112913700D03*
X179070000Y-112913700D03*
X181610000Y-112913700D03*
X181610000Y-87913700D03*
X179070000Y-87913700D03*
X176530000Y-87913700D03*
X173990000Y-87913700D03*
X171450000Y-87913700D03*
%TD*%
D11*
%TO.C,U4*%
X151130000Y-112913700D03*
D12*
X153670000Y-112913700D03*
X156210000Y-112913700D03*
X158750000Y-112913700D03*
X161290000Y-112913700D03*
X161290000Y-87913700D03*
X158750000Y-87913700D03*
X156210000Y-87913700D03*
X153670000Y-87913700D03*
X151130000Y-87913700D03*
%TD*%
M02*
