%TF.GenerationSoftware,KiCad,Pcbnew,6.0.2+dfsg-1*%
%TF.CreationDate,2023-06-14T19:57:58+03:00*%
%TF.ProjectId,clock,636c6f63-6b2e-46b6-9963-61645f706362,rev?*%
%TF.SameCoordinates,Original*%
%TF.FileFunction,Soldermask,Bot*%
%TF.FilePolarity,Negative*%
%FSLAX46Y46*%
G04 Gerber Fmt 4.6, Leading zero omitted, Abs format (unit mm)*
G04 Created by KiCad (PCBNEW 6.0.2+dfsg-1) date 2023-06-14 19:57:58*
%MOMM*%
%LPD*%
G01*
G04 APERTURE LIST*
G04 Aperture macros list*
%AMRoundRect*
0 Rectangle with rounded corners*
0 $1 Rounding radius*
0 $2 $3 $4 $5 $6 $7 $8 $9 X,Y pos of 4 corners*
0 Add a 4 corners polygon primitive as box body*
4,1,4,$2,$3,$4,$5,$6,$7,$8,$9,$2,$3,0*
0 Add four circle primitives for the rounded corners*
1,1,$1+$1,$2,$3*
1,1,$1+$1,$4,$5*
1,1,$1+$1,$6,$7*
1,1,$1+$1,$8,$9*
0 Add four rect primitives between the rounded corners*
20,1,$1+$1,$2,$3,$4,$5,0*
20,1,$1+$1,$4,$5,$6,$7,0*
20,1,$1+$1,$6,$7,$8,$9,0*
20,1,$1+$1,$8,$9,$2,$3,0*%
G04 Aperture macros list end*
%ADD10C,2.000000*%
%ADD11R,1.524000X2.524000*%
%ADD12O,1.524000X2.524000*%
%ADD13R,1.200000X0.900000*%
%ADD14RoundRect,0.250000X0.475000X-0.337500X0.475000X0.337500X-0.475000X0.337500X-0.475000X-0.337500X0*%
%ADD15RoundRect,0.237500X0.237500X-0.250000X0.237500X0.250000X-0.237500X0.250000X-0.237500X-0.250000X0*%
%ADD16R,1.000000X3.150000*%
%ADD17RoundRect,0.150000X-0.150000X1.100000X-0.150000X-1.100000X0.150000X-1.100000X0.150000X1.100000X0*%
%ADD18R,0.800000X1.900000*%
%ADD19R,1.900000X0.800000*%
%ADD20R,0.900000X1.200000*%
%ADD21RoundRect,0.250000X1.000000X-1.950000X1.000000X1.950000X-1.000000X1.950000X-1.000000X-1.950000X0*%
%ADD22RoundRect,0.237500X0.250000X0.237500X-0.250000X0.237500X-0.250000X-0.237500X0.250000X-0.237500X0*%
G04 APERTURE END LIST*
D10*
X192940000Y-101710000D02*
G75*
G03*
X192940000Y-101710000I-48000000J0D01*
G01*
D11*
%TO.C,U1*%
X107950000Y-112913700D03*
D12*
X110490000Y-112913700D03*
X113030000Y-112913700D03*
X115570000Y-112913700D03*
X118110000Y-112913700D03*
X118110000Y-87913700D03*
X115570000Y-87913700D03*
X113030000Y-87913700D03*
X110490000Y-87913700D03*
X107950000Y-87913700D03*
%TD*%
D11*
%TO.C,U2*%
X128270000Y-112913700D03*
D12*
X130810000Y-112913700D03*
X133350000Y-112913700D03*
X135890000Y-112913700D03*
X138430000Y-112913700D03*
X138430000Y-87913700D03*
X135890000Y-87913700D03*
X133350000Y-87913700D03*
X130810000Y-87913700D03*
X128270000Y-87913700D03*
%TD*%
D11*
%TO.C,U5*%
X171450000Y-112913700D03*
D12*
X173990000Y-112913700D03*
X176530000Y-112913700D03*
X179070000Y-112913700D03*
X181610000Y-112913700D03*
X181610000Y-87913700D03*
X179070000Y-87913700D03*
X176530000Y-87913700D03*
X173990000Y-87913700D03*
X171450000Y-87913700D03*
%TD*%
D11*
%TO.C,U4*%
X151130000Y-112913700D03*
D12*
X153670000Y-112913700D03*
X156210000Y-112913700D03*
X158750000Y-112913700D03*
X161290000Y-112913700D03*
X161290000Y-87913700D03*
X158750000Y-87913700D03*
X156210000Y-87913700D03*
X153670000Y-87913700D03*
X151130000Y-87913700D03*
%TD*%
D13*
%TO.C,D4*%
X145070000Y-82910000D03*
X145070000Y-86210000D03*
%TD*%
D14*
%TO.C,C4*%
X149000000Y-102700000D03*
X149000000Y-100625000D03*
%TD*%
D15*
%TO.C,R2*%
X119900000Y-93455000D03*
X119900000Y-91630000D03*
%TD*%
D16*
%TO.C,J1*%
X134670000Y-103755000D03*
X134670000Y-98705000D03*
X132130000Y-103755000D03*
X132130000Y-98705000D03*
X129590000Y-103755000D03*
X129590000Y-98705000D03*
X127050000Y-103755000D03*
X127050000Y-98705000D03*
%TD*%
D17*
%TO.C,U3*%
X167080000Y-98787500D03*
X168350000Y-98787500D03*
X169620000Y-98787500D03*
X170890000Y-98787500D03*
X172160000Y-98787500D03*
X173430000Y-98787500D03*
X174700000Y-98787500D03*
X175970000Y-98787500D03*
X175970000Y-104287500D03*
X174700000Y-104287500D03*
X173430000Y-104287500D03*
X172160000Y-104287500D03*
X170890000Y-104287500D03*
X169620000Y-104287500D03*
X168350000Y-104287500D03*
X167080000Y-104287500D03*
%TD*%
D13*
%TO.C,D5*%
X183140000Y-90970000D03*
X183140000Y-94270000D03*
%TD*%
D18*
%TO.C,Q1*%
X113260000Y-98520000D03*
X115160000Y-98520000D03*
X114210000Y-101520000D03*
%TD*%
%TO.C,Q3*%
X146030000Y-92280000D03*
X144130000Y-92280000D03*
X145080000Y-89280000D03*
%TD*%
D19*
%TO.C,Q2*%
X122530000Y-92300000D03*
X122530000Y-90400000D03*
X125530000Y-91350000D03*
%TD*%
D20*
%TO.C,D3*%
X131830000Y-91520000D03*
X128530000Y-91520000D03*
%TD*%
%TO.C,D2*%
X106720000Y-103150000D03*
X110020000Y-103150000D03*
%TD*%
D15*
%TO.C,R3*%
X150650000Y-94762500D03*
X150650000Y-92937500D03*
%TD*%
D14*
%TO.C,C5*%
X179225000Y-102512500D03*
X179225000Y-100437500D03*
%TD*%
D21*
%TO.C,C3*%
X141300000Y-105100000D03*
X141300000Y-97700000D03*
%TD*%
D17*
%TO.C,U6*%
X152480000Y-98625000D03*
X153750000Y-98625000D03*
X155020000Y-98625000D03*
X156290000Y-98625000D03*
X157560000Y-98625000D03*
X158830000Y-98625000D03*
X160100000Y-98625000D03*
X161370000Y-98625000D03*
X161370000Y-104125000D03*
X160100000Y-104125000D03*
X158830000Y-104125000D03*
X157560000Y-104125000D03*
X156290000Y-104125000D03*
X155020000Y-104125000D03*
X153750000Y-104125000D03*
X152480000Y-104125000D03*
%TD*%
D18*
%TO.C,Q4*%
X179730000Y-95530000D03*
X177830000Y-95530000D03*
X178780000Y-92530000D03*
%TD*%
D15*
%TO.C,R1*%
X118000000Y-102300000D03*
X118000000Y-100475000D03*
%TD*%
D22*
%TO.C,R4*%
X185952500Y-97410000D03*
X184127500Y-97410000D03*
%TD*%
M02*
