%TF.GenerationSoftware,KiCad,Pcbnew,6.0.2+dfsg-1*%
%TF.CreationDate,2023-04-16T00:57:54+03:00*%
%TF.ProjectId,clock,636c6f63-6b2e-46b6-9963-61645f706362,rev?*%
%TF.SameCoordinates,Original*%
%TF.FileFunction,Copper,L1,Top*%
%TF.FilePolarity,Positive*%
%FSLAX46Y46*%
G04 Gerber Fmt 4.6, Leading zero omitted, Abs format (unit mm)*
G04 Created by KiCad (PCBNEW 6.0.2+dfsg-1) date 2023-04-16 00:57:54*
%MOMM*%
%LPD*%
G01*
G04 APERTURE LIST*
G04 Aperture macros list*
%AMRoundRect*
0 Rectangle with rounded corners*
0 $1 Rounding radius*
0 $2 $3 $4 $5 $6 $7 $8 $9 X,Y pos of 4 corners*
0 Add a 4 corners polygon primitive as box body*
4,1,4,$2,$3,$4,$5,$6,$7,$8,$9,$2,$3,0*
0 Add four circle primitives for the rounded corners*
1,1,$1+$1,$2,$3*
1,1,$1+$1,$4,$5*
1,1,$1+$1,$6,$7*
1,1,$1+$1,$8,$9*
0 Add four rect primitives between the rounded corners*
20,1,$1+$1,$2,$3,$4,$5,0*
20,1,$1+$1,$4,$5,$6,$7,0*
20,1,$1+$1,$6,$7,$8,$9,0*
20,1,$1+$1,$8,$9,$2,$3,0*%
G04 Aperture macros list end*
%TA.AperFunction,SMDPad,CuDef*%
%ADD10RoundRect,0.250000X-0.450000X0.350000X-0.450000X-0.350000X0.450000X-0.350000X0.450000X0.350000X0*%
%TD*%
%TA.AperFunction,ComponentPad*%
%ADD11R,1.524000X2.524000*%
%TD*%
%TA.AperFunction,ComponentPad*%
%ADD12O,1.524000X2.524000*%
%TD*%
%TA.AperFunction,SMDPad,CuDef*%
%ADD13RoundRect,0.250000X0.450000X-0.325000X0.450000X0.325000X-0.450000X0.325000X-0.450000X-0.325000X0*%
%TD*%
%TA.AperFunction,SMDPad,CuDef*%
%ADD14RoundRect,0.250000X0.337500X0.475000X-0.337500X0.475000X-0.337500X-0.475000X0.337500X-0.475000X0*%
%TD*%
%TA.AperFunction,SMDPad,CuDef*%
%ADD15RoundRect,0.250000X0.350000X0.450000X-0.350000X0.450000X-0.350000X-0.450000X0.350000X-0.450000X0*%
%TD*%
%TA.AperFunction,SMDPad,CuDef*%
%ADD16RoundRect,0.250000X-0.350000X-0.450000X0.350000X-0.450000X0.350000X0.450000X-0.350000X0.450000X0*%
%TD*%
%TA.AperFunction,SMDPad,CuDef*%
%ADD17RoundRect,0.250000X-0.337500X-0.475000X0.337500X-0.475000X0.337500X0.475000X-0.337500X0.475000X0*%
%TD*%
%TA.AperFunction,SMDPad,CuDef*%
%ADD18R,1.800000X0.900000*%
%TD*%
%TA.AperFunction,ViaPad*%
%ADD19C,0.800000*%
%TD*%
%TA.AperFunction,Conductor*%
%ADD20C,0.300000*%
%TD*%
G04 APERTURE END LIST*
D10*
%TO.P,R9,1*%
%TO.N,Net-(R9-Pad1)*%
X144800000Y-107600000D03*
%TO.P,R9,2*%
%TO.N,Net-(D1-Pad2)*%
X144800000Y-109600000D03*
%TD*%
D11*
%TO.P,U1,1,E*%
%TO.N,E*%
X107950000Y-112913700D03*
D12*
%TO.P,U1,2,D*%
%TO.N,D*%
X110490000Y-112913700D03*
%TO.P,U1,3,CA*%
%TO.N,/h1_pow*%
X113030000Y-112913700D03*
%TO.P,U1,4,C*%
%TO.N,C*%
X115570000Y-112913700D03*
%TO.P,U1,5,DP*%
%TO.N,P*%
X118110000Y-112913700D03*
%TO.P,U1,6,B*%
%TO.N,B*%
X118110000Y-87913700D03*
%TO.P,U1,7,A*%
%TO.N,A*%
X115570000Y-87913700D03*
%TO.P,U1,8,CA*%
%TO.N,/h1_pow*%
X113030000Y-87913700D03*
%TO.P,U1,9,F*%
%TO.N,F*%
X110490000Y-87913700D03*
%TO.P,U1,10,G*%
%TO.N,G*%
X107950000Y-87913700D03*
%TD*%
D13*
%TO.P,D1,1,K*%
%TO.N,GND*%
X144800000Y-113950000D03*
%TO.P,D1,2,A*%
%TO.N,Net-(D1-Pad2)*%
X144800000Y-111900000D03*
%TD*%
D14*
%TO.P,C1,1*%
%TO.N,/SW1*%
X160437500Y-136600000D03*
%TO.P,C1,2*%
%TO.N,GND*%
X158362500Y-136600000D03*
%TD*%
D15*
%TO.P,R8,1*%
%TO.N,Net-(R7-Pad2)*%
X131300000Y-133785000D03*
%TO.P,R8,2*%
%TO.N,/SW2*%
X129300000Y-133785000D03*
%TD*%
D16*
%TO.P,R7,1*%
%TO.N,VCC*%
X129300000Y-131000000D03*
%TO.P,R7,2*%
%TO.N,Net-(R7-Pad2)*%
X131300000Y-131000000D03*
%TD*%
%TO.P,R6,1*%
%TO.N,Net-(R5-Pad2)*%
X158370000Y-133785000D03*
%TO.P,R6,2*%
%TO.N,/SW1*%
X160370000Y-133785000D03*
%TD*%
D17*
%TO.P,C2,1*%
%TO.N,/SW2*%
X129300000Y-136600000D03*
%TO.P,C2,2*%
%TO.N,GND*%
X131375000Y-136600000D03*
%TD*%
D18*
%TO.P,SW2,1*%
%TO.N,GND*%
X135230000Y-136600000D03*
X141530000Y-136600000D03*
%TO.P,SW2,2*%
%TO.N,Net-(R7-Pad2)*%
X141530000Y-133600000D03*
X135230000Y-133600000D03*
%TD*%
%TO.P,SW1,1*%
%TO.N,GND*%
X148030000Y-136600000D03*
X154330000Y-136600000D03*
%TO.P,SW1,2*%
%TO.N,Net-(R5-Pad2)*%
X154330000Y-133600000D03*
X148030000Y-133600000D03*
%TD*%
D11*
%TO.P,U2,1,E*%
%TO.N,E*%
X128270000Y-112913700D03*
D12*
%TO.P,U2,2,D*%
%TO.N,D*%
X130810000Y-112913700D03*
%TO.P,U2,3,CA*%
%TO.N,/h2_pow*%
X133350000Y-112913700D03*
%TO.P,U2,4,C*%
%TO.N,C*%
X135890000Y-112913700D03*
%TO.P,U2,5,DP*%
%TO.N,P*%
X138430000Y-112913700D03*
%TO.P,U2,6,B*%
%TO.N,B*%
X138430000Y-87913700D03*
%TO.P,U2,7,A*%
%TO.N,A*%
X135890000Y-87913700D03*
%TO.P,U2,8,CA*%
%TO.N,/h2_pow*%
X133350000Y-87913700D03*
%TO.P,U2,9,F*%
%TO.N,F*%
X130810000Y-87913700D03*
%TO.P,U2,10,G*%
%TO.N,G*%
X128270000Y-87913700D03*
%TD*%
D15*
%TO.P,R5,1*%
%TO.N,VCC*%
X160370000Y-131000000D03*
%TO.P,R5,2*%
%TO.N,Net-(R5-Pad2)*%
X158370000Y-131000000D03*
%TD*%
D11*
%TO.P,U5,1,E*%
%TO.N,E*%
X171450000Y-112913700D03*
D12*
%TO.P,U5,2,D*%
%TO.N,D*%
X173990000Y-112913700D03*
%TO.P,U5,3,CA*%
%TO.N,/m2_pow*%
X176530000Y-112913700D03*
%TO.P,U5,4,C*%
%TO.N,C*%
X179070000Y-112913700D03*
%TO.P,U5,5,DP*%
%TO.N,P*%
X181610000Y-112913700D03*
%TO.P,U5,6,B*%
%TO.N,B*%
X181610000Y-87913700D03*
%TO.P,U5,7,A*%
%TO.N,A*%
X179070000Y-87913700D03*
%TO.P,U5,8,CA*%
%TO.N,/m2_pow*%
X176530000Y-87913700D03*
%TO.P,U5,9,F*%
%TO.N,F*%
X173990000Y-87913700D03*
%TO.P,U5,10,G*%
%TO.N,G*%
X171450000Y-87913700D03*
%TD*%
D11*
%TO.P,U4,1,E*%
%TO.N,E*%
X151130000Y-112913700D03*
D12*
%TO.P,U4,2,D*%
%TO.N,D*%
X153670000Y-112913700D03*
%TO.P,U4,3,CA*%
%TO.N,/m1_pow*%
X156210000Y-112913700D03*
%TO.P,U4,4,C*%
%TO.N,C*%
X158750000Y-112913700D03*
%TO.P,U4,5,DP*%
%TO.N,P*%
X161290000Y-112913700D03*
%TO.P,U4,6,B*%
%TO.N,B*%
X161290000Y-87913700D03*
%TO.P,U4,7,A*%
%TO.N,A*%
X158750000Y-87913700D03*
%TO.P,U4,8,CA*%
%TO.N,/m1_pow*%
X156210000Y-87913700D03*
%TO.P,U4,9,F*%
%TO.N,F*%
X153670000Y-87913700D03*
%TO.P,U4,10,G*%
%TO.N,G*%
X151130000Y-87913700D03*
%TD*%
D19*
%TO.N,/SW1*%
X137748900Y-129469100D03*
%TO.N,GND*%
X146860000Y-114048000D03*
X144800000Y-136600000D03*
%TO.N,/SW2*%
X128556700Y-121637300D03*
%TO.N,VCC*%
X123300000Y-102700000D03*
X136200000Y-101500000D03*
X139100000Y-103400000D03*
X115700000Y-97100000D03*
X122100000Y-95800000D03*
X166500000Y-105500000D03*
X147200000Y-102900000D03*
X160080000Y-105800000D03*
X146900000Y-97900000D03*
X174400000Y-105800000D03*
X179400000Y-97000000D03*
X179400000Y-104000000D03*
X151200000Y-103500000D03*
%TO.N,SDATA*%
X163538400Y-104351300D03*
X151532100Y-102258300D03*
%TO.N,LATCH*%
X131661000Y-95920800D03*
X158271000Y-101774000D03*
%TO.N,CLK*%
X158795900Y-106791300D03*
X130870000Y-103521500D03*
%TO.N,OE_N*%
X170764500Y-102315800D03*
X155042000Y-102103200D03*
X130870000Y-99937500D03*
%TO.N,/h2_pow*%
X119769100Y-98299800D03*
%TO.N,/m1_pow*%
X118381600Y-98195600D03*
%TO.N,/m2_pow*%
X177333200Y-104708600D03*
%TO.N,Net-(R9-Pad1)*%
X138480300Y-99581600D03*
X157302000Y-97187100D03*
X145669000Y-106301100D03*
%TO.N,F*%
X174000000Y-84600300D03*
X153700000Y-84600000D03*
X130800000Y-84600000D03*
X110490000Y-84610000D03*
%TO.N,E*%
X164835700Y-94591700D03*
%TO.N,P*%
X181550000Y-118900000D03*
X177384800Y-99245700D03*
X118900000Y-119000000D03*
X161400000Y-119000000D03*
X138600000Y-119000000D03*
X177327400Y-103464100D03*
%TO.N,C*%
X179233000Y-117967000D03*
X158967000Y-117967000D03*
X115767000Y-117967000D03*
X136067000Y-117967000D03*
X163361400Y-94164800D03*
%TO.N,B*%
X118110000Y-82500000D03*
X161467000Y-82533300D03*
X181700000Y-82600000D03*
X138400000Y-82700000D03*
%TO.N,A*%
X179100000Y-83600000D03*
X115600000Y-83600000D03*
X165456300Y-103772400D03*
X158893300Y-83566700D03*
X135867000Y-83566700D03*
%TO.N,D*%
X130833000Y-116933000D03*
X153733000Y-116933000D03*
X181985000Y-102722400D03*
X174133000Y-116933000D03*
X110500000Y-116933000D03*
X169395400Y-96572600D03*
%TD*%
D20*
%TO.N,/SW1*%
X160437500Y-136599500D02*
X160438000Y-136600000D01*
X160370000Y-136532000D02*
X160437500Y-136599500D01*
X160370000Y-135158500D02*
X160370000Y-136532000D01*
X140739100Y-129469100D02*
X137748900Y-129469100D01*
X146428500Y-135158500D02*
X140739100Y-129469100D01*
X160370000Y-135158500D02*
X146428500Y-135158500D01*
X160370000Y-133785000D02*
X160370000Y-135158500D01*
X160437500Y-136599500D02*
X160437500Y-136600000D01*
%TO.N,GND*%
X135230000Y-136600000D02*
X131375000Y-136600000D01*
X144800000Y-136600000D02*
X148030000Y-136600000D01*
X158362500Y-136600000D02*
X158362000Y-136600000D01*
X151000000Y-136600000D02*
X154330000Y-136600000D01*
X149380000Y-136600000D02*
X151000000Y-136600000D01*
X148030000Y-136600000D02*
X149380000Y-136600000D01*
X141530000Y-136600000D02*
X144800000Y-136600000D01*
X146860000Y-114048000D02*
X144898000Y-114048000D01*
X144898000Y-114048000D02*
X144800000Y-113950000D01*
X135230000Y-136600000D02*
X141530000Y-136600000D01*
X154330000Y-136600000D02*
X158362000Y-136600000D01*
%TO.N,/SW2*%
X129300000Y-133785000D02*
X129300000Y-135192500D01*
X129300000Y-135192500D02*
X128871000Y-135192500D01*
X128200800Y-134522300D02*
X128200800Y-121993200D01*
X128871000Y-135192500D02*
X128200800Y-134522300D01*
X128200800Y-121993200D02*
X128556700Y-121637300D01*
X129300000Y-135192500D02*
X129300000Y-136600000D01*
%TO.N,VCC*%
X130300000Y-128600000D02*
X129300000Y-129600000D01*
X159900000Y-105800000D02*
X160080000Y-105800000D01*
X173700000Y-105800000D02*
X174400000Y-105800000D01*
X139100000Y-103400000D02*
X139600000Y-102900000D01*
X159900000Y-105800000D02*
X166200000Y-105800000D01*
X174100000Y-131000000D02*
X160370000Y-131000000D01*
X146600000Y-98200000D02*
X146900000Y-97900000D01*
X137200000Y-101500000D02*
X139100000Y-103400000D01*
X120800000Y-97100000D02*
X120800000Y-100200000D01*
X179400000Y-104300000D02*
X179400000Y-104000000D01*
X121850000Y-101250000D02*
X123300000Y-102700000D01*
X151200000Y-104800000D02*
X152200000Y-105800000D01*
X177900000Y-105800000D02*
X179200000Y-104500000D01*
X152200000Y-105800000D02*
X159900000Y-105800000D01*
X166200000Y-105800000D02*
X173700000Y-105800000D01*
X182200000Y-104000000D02*
X184300000Y-106100000D01*
X160080000Y-105800000D02*
X166200000Y-105800000D01*
X136200000Y-101500000D02*
X137200000Y-101500000D01*
X147200000Y-102900000D02*
X150600000Y-102900000D01*
X179200000Y-104500000D02*
X179400000Y-104300000D01*
X160370000Y-129370000D02*
X159600000Y-128600000D01*
X151200000Y-103500000D02*
X151200000Y-104800000D01*
X135950000Y-101250000D02*
X136200000Y-101500000D01*
X121850000Y-101250000D02*
X135950000Y-101250000D01*
X179700000Y-104000000D02*
X180500000Y-104000000D01*
X184300000Y-120800000D02*
X174100000Y-131000000D01*
X166200000Y-105800000D02*
X166500000Y-105500000D01*
X120800000Y-97100000D02*
X122100000Y-95800000D01*
X174400000Y-105800000D02*
X177900000Y-105800000D01*
X179200000Y-104500000D02*
X179400000Y-104300000D01*
X120800000Y-100200000D02*
X121850000Y-101250000D01*
X150600000Y-102900000D02*
X151200000Y-103500000D01*
X173700000Y-105800000D02*
X174400000Y-105800000D01*
X146600000Y-102900000D02*
X147200000Y-102900000D01*
X152200000Y-105800000D02*
X159900000Y-105800000D01*
X146600000Y-102900000D02*
X146600000Y-98200000D01*
X184300000Y-106100000D02*
X184300000Y-120800000D01*
X139600000Y-102900000D02*
X146600000Y-102900000D01*
X180500000Y-104000000D02*
X180500000Y-98100000D01*
X129300000Y-129600000D02*
X129300000Y-131000000D01*
X115700000Y-97100000D02*
X120800000Y-97100000D01*
X180500000Y-104000000D02*
X182200000Y-104000000D01*
X160370000Y-131000000D02*
X160370000Y-129370000D01*
X180500000Y-98100000D02*
X179400000Y-97000000D01*
X159600000Y-128600000D02*
X130300000Y-128600000D01*
X179400000Y-104300000D02*
X179700000Y-104000000D01*
%TO.N,Net-(D1-Pad2)*%
X144800000Y-109600000D02*
X144800000Y-111900000D01*
%TO.N,SDATA*%
X153625100Y-104351300D02*
X151532100Y-102258300D01*
X163538400Y-104351300D02*
X153625100Y-104351300D01*
%TO.N,LATCH*%
X131661000Y-95920800D02*
X131790500Y-95791300D01*
X131790500Y-95791300D02*
X157149300Y-95791300D01*
X157149300Y-95791300D02*
X158271000Y-96913000D01*
X158271000Y-96913000D02*
X158271000Y-101774000D01*
%TO.N,CLK*%
X145109400Y-104255200D02*
X131603700Y-104255200D01*
X147645500Y-106791300D02*
X145109400Y-104255200D01*
X158795900Y-106791300D02*
X147645500Y-106791300D01*
X131603700Y-104255200D02*
X130870000Y-103521500D01*
%TO.N,OE_N*%
X168457700Y-104622600D02*
X165012100Y-104622600D01*
X163789400Y-103399900D02*
X156338700Y-103399900D01*
X131420800Y-100488300D02*
X139947100Y-100488300D01*
X165012100Y-104622600D02*
X163789400Y-103399900D01*
X139947100Y-100488300D02*
X143387400Y-97048000D01*
X143387400Y-97048000D02*
X149986800Y-97048000D01*
X130870000Y-99937500D02*
X131420800Y-100488300D01*
X170764500Y-102315800D02*
X168457700Y-104622600D01*
X149986800Y-97048000D02*
X155042000Y-102103200D01*
X156338700Y-103399900D02*
X155042000Y-102103200D01*
%TO.N,/h2_pow*%
X133350000Y-111250000D02*
X133350000Y-112913700D01*
X119769100Y-100401400D02*
X129657700Y-110290000D01*
X129657700Y-110290000D02*
X132390000Y-110290000D01*
X132390000Y-110290000D02*
X133350000Y-111250000D01*
X119769100Y-98299800D02*
X119769100Y-100401400D01*
%TO.N,/m1_pow*%
X118381600Y-98195600D02*
X118381600Y-99862700D01*
X129540000Y-111021100D02*
X129540000Y-114250000D01*
X148512200Y-113623000D02*
X148512200Y-111857800D01*
X130294900Y-115004900D02*
X147130300Y-115004900D01*
X156210000Y-110660000D02*
X156210000Y-112913700D01*
X147130300Y-115004900D02*
X148512200Y-113623000D01*
X149710000Y-110660000D02*
X156210000Y-110660000D01*
X129540000Y-114250000D02*
X130294900Y-115004900D01*
X148512200Y-111857800D02*
X149710000Y-110660000D01*
X118381600Y-99862700D02*
X129540000Y-111021100D01*
%TO.N,/m2_pow*%
X176530000Y-87913700D02*
X176530000Y-89625800D01*
X176477200Y-89678600D02*
X176477200Y-103852600D01*
X176477200Y-103852600D02*
X177333200Y-104708600D01*
X176530000Y-89625800D02*
X176477200Y-89678600D01*
%TO.N,Net-(R5-Pad2)*%
X158370000Y-133600000D02*
X154330000Y-133600000D01*
X148030000Y-133600000D02*
X154330000Y-133600000D01*
X158370000Y-131000000D02*
X158370000Y-133600000D01*
X158370000Y-133600000D02*
X158370000Y-133785000D01*
%TO.N,Net-(R7-Pad2)*%
X131300000Y-131000000D02*
X131300000Y-133600000D01*
X135230000Y-133600000D02*
X141530000Y-133600000D01*
X131300000Y-133600000D02*
X131300000Y-133785000D01*
X131300000Y-133600000D02*
X135230000Y-133600000D01*
%TO.N,Net-(R9-Pad1)*%
X138480300Y-99581600D02*
X141670400Y-96391500D01*
X141670400Y-96391500D02*
X156506400Y-96391500D01*
X156506400Y-96391500D02*
X157302000Y-97187100D01*
X144800000Y-107170100D02*
X144800000Y-107600000D01*
X145669000Y-106301100D02*
X144800000Y-107170100D01*
%TO.N,F*%
X130800000Y-84600000D02*
X125734000Y-84600000D01*
X158834000Y-84600300D02*
X135934000Y-84600300D01*
X125734000Y-84600000D02*
X115533000Y-84600000D01*
X158834000Y-84600300D02*
X135934000Y-84600300D01*
X125734000Y-84600300D02*
X125734000Y-84600000D01*
X125734000Y-84600300D02*
X115534000Y-84600300D01*
X158833000Y-84600000D02*
X153800000Y-84600000D01*
X115534000Y-84600300D02*
X115524000Y-84610000D01*
X135934000Y-84600300D02*
X125734000Y-84600300D01*
X174000000Y-84600300D02*
X158834000Y-84600300D01*
X135934000Y-84600300D02*
X125734000Y-84600300D01*
X125734000Y-84600300D02*
X115534000Y-84600300D01*
X153800000Y-84600000D02*
X153700000Y-84600000D01*
X115524000Y-84610000D02*
X110490000Y-84610000D01*
X153700000Y-84600000D02*
X130800000Y-84600000D01*
%TO.N,G*%
X171500000Y-85700000D02*
X171500000Y-86781800D01*
X151130000Y-85633300D02*
X161367000Y-85633300D01*
X128270000Y-85633300D02*
X118867000Y-85633300D01*
X118867000Y-85633300D02*
X118367000Y-85633300D01*
X171500000Y-86781800D02*
X171500000Y-87863700D01*
X118867000Y-85633300D02*
X118367000Y-85633300D01*
X108067000Y-85633300D02*
X107950000Y-85750000D01*
X128270000Y-85633300D02*
X118867000Y-85633300D01*
X118867000Y-85633300D02*
X118367000Y-85633300D01*
X128270000Y-85633300D02*
X118867000Y-85633300D01*
X161367000Y-85633300D02*
X171433000Y-85633300D01*
X118367000Y-85633300D02*
X108067000Y-85633300D01*
X107950000Y-85750000D02*
X107950000Y-87913700D01*
X128270000Y-87913700D02*
X128270000Y-85633300D01*
X171500000Y-86781800D02*
X171450000Y-86831800D01*
X151130000Y-87913700D02*
X151130000Y-85633300D01*
X161367000Y-85633300D02*
X151130000Y-85633300D01*
X171433000Y-85633300D02*
X171500000Y-85700000D01*
X171450000Y-86831800D02*
X171450000Y-87913700D01*
X138467000Y-85633300D02*
X151130000Y-85633300D01*
X138467000Y-85633300D02*
X128270000Y-85633300D01*
X151130000Y-85633300D02*
X138467000Y-85633300D01*
X138467000Y-85633300D02*
X128270000Y-85633300D01*
X138467000Y-85633300D02*
X128270000Y-85633300D01*
X151130000Y-85633300D02*
X138467000Y-85633300D01*
X161367000Y-85633300D02*
X151130000Y-85633300D01*
%TO.N,E*%
X151130000Y-112914000D02*
X151130000Y-112913700D01*
X151200000Y-115900000D02*
X171300000Y-115900000D01*
X107700000Y-113164000D02*
X107700000Y-115700000D01*
X128270000Y-112914000D02*
X128270000Y-115870000D01*
X128270000Y-112914000D02*
X128270000Y-112913700D01*
X151130000Y-115830000D02*
X151200000Y-115900000D01*
X164412500Y-95014900D02*
X164835700Y-94591700D01*
X162896300Y-94901800D02*
X163009400Y-95014900D01*
X107700000Y-115700000D02*
X107900000Y-115900000D01*
X107900000Y-115900000D02*
X128300000Y-115900000D01*
X128270000Y-115870000D02*
X128300000Y-115900000D01*
X163009400Y-95014900D02*
X164412500Y-95014900D01*
X151130000Y-112914000D02*
X151130000Y-115830000D01*
X107950000Y-112914000D02*
X107700000Y-113164000D01*
X171450000Y-112914000D02*
X171450000Y-112913700D01*
X128300000Y-115900000D02*
X151200000Y-115900000D01*
X107950000Y-112914000D02*
X107950000Y-112913700D01*
X107950000Y-103632400D02*
X116680600Y-94901800D01*
X116680600Y-94901800D02*
X162896300Y-94901800D01*
X107950000Y-112913700D02*
X107950000Y-103632400D01*
X171300000Y-115900000D02*
X171450000Y-115750000D01*
X171450000Y-115750000D02*
X171450000Y-112914000D01*
%TO.N,P*%
X161400000Y-119000000D02*
X181450000Y-119000000D01*
X177384800Y-99245700D02*
X177327400Y-99303100D01*
X118900000Y-119000000D02*
X138600000Y-119000000D01*
X177327400Y-99303100D02*
X177327400Y-103464100D01*
X138600000Y-119000000D02*
X161400000Y-119000000D01*
X181450000Y-119000000D02*
X181550000Y-118900000D01*
%TO.N,C*%
X106701500Y-116051500D02*
X106701500Y-103528500D01*
X136067000Y-117967000D02*
X158967000Y-117967000D01*
X115767000Y-117967000D02*
X108617000Y-117967000D01*
X106701500Y-103528500D02*
X116065200Y-94164800D01*
X115767000Y-117967000D02*
X136067000Y-117967000D01*
X158967000Y-117967000D02*
X179233000Y-117967000D01*
X108617000Y-117967000D02*
X106701500Y-116051500D01*
X116065200Y-94164800D02*
X163361400Y-94164800D01*
%TO.N,B*%
X161467000Y-82533300D02*
X151067000Y-82533300D01*
X151067000Y-82533300D02*
X139367000Y-82533300D01*
X151067000Y-82533300D02*
X139367000Y-82533300D01*
X138567000Y-82533300D02*
X128267000Y-82533300D01*
X170767000Y-82533300D02*
X181633000Y-82533300D01*
X170533000Y-82533300D02*
X161467000Y-82533300D01*
X170767000Y-82533300D02*
X170533000Y-82533300D01*
X161467000Y-82533300D02*
X151067000Y-82533300D01*
X139367000Y-82533300D02*
X138567000Y-82533300D01*
X138400000Y-82700000D02*
X138567000Y-82533300D01*
X170533000Y-82533300D02*
X170767000Y-82533300D01*
X170533000Y-82533300D02*
X161467000Y-82533300D01*
X170767000Y-82533300D02*
X170533000Y-82533300D01*
X151067000Y-82533300D02*
X139367000Y-82533300D01*
X128267000Y-82533300D02*
X118143300Y-82533300D01*
X139367000Y-82533300D02*
X138567000Y-82533300D01*
X139367000Y-82533300D02*
X138567000Y-82533300D01*
X138567000Y-82533300D02*
X128267000Y-82533300D01*
X138567000Y-82533300D02*
X139367000Y-82533300D01*
X170533000Y-82533300D02*
X161467000Y-82533300D01*
X181633000Y-82533300D02*
X181700000Y-82600000D01*
X170767000Y-82533300D02*
X170533000Y-82533300D01*
X138567000Y-82533300D02*
X128267000Y-82533300D01*
X161467000Y-82533300D02*
X151067000Y-82533300D01*
%TO.N,A*%
X165737200Y-94291000D02*
X161776200Y-90330000D01*
X173566000Y-83566300D02*
X153600000Y-83566300D01*
X134275000Y-83566300D02*
X130700000Y-83566300D01*
X130700000Y-83566300D02*
X115566000Y-83566300D01*
X115566000Y-83566300D02*
X115600000Y-83600000D01*
X158750000Y-89130000D02*
X158750000Y-87913700D01*
X158893300Y-83566700D02*
X158667000Y-83566700D01*
X153600000Y-83566300D02*
X134275000Y-83566300D01*
X135867000Y-83566700D02*
X134275000Y-83566700D01*
X165456300Y-103772400D02*
X165737200Y-103491500D01*
X134275000Y-83566700D02*
X130700000Y-83566700D01*
X173566700Y-83566700D02*
X158893300Y-83566700D01*
X153600000Y-83566300D02*
X134275000Y-83566300D01*
X173566000Y-83566300D02*
X153600000Y-83566300D01*
X161776200Y-90330000D02*
X159950000Y-90330000D01*
X159950000Y-90330000D02*
X158750000Y-89130000D01*
X165737200Y-103491500D02*
X165737200Y-94291000D01*
X173566700Y-83566700D02*
X173600000Y-83600000D01*
X158667000Y-83566700D02*
X135867000Y-83566700D01*
X179100000Y-83600000D02*
X173600000Y-83600000D01*
X134275000Y-83566300D02*
X130700000Y-83566300D01*
X173900000Y-83566700D02*
X173566700Y-83566700D01*
X134275000Y-83566300D02*
X134275000Y-83566700D01*
%TO.N,D*%
X175260000Y-86894600D02*
X175260000Y-90708000D01*
X175993000Y-86161600D02*
X175260000Y-86894600D01*
X130833000Y-116933000D02*
X153733000Y-116933000D01*
X153733000Y-116933000D02*
X174133000Y-116933000D01*
X177026200Y-86161600D02*
X175993000Y-86161600D01*
X175260000Y-90708000D02*
X169395400Y-96572600D01*
X177800000Y-88967700D02*
X177800000Y-86935400D01*
X177800000Y-86935400D02*
X177026200Y-86161600D01*
X181985000Y-102722400D02*
X181985000Y-93152700D01*
X110500000Y-116933000D02*
X130833000Y-116933000D01*
X181985000Y-93152700D02*
X177800000Y-88967700D01*
%TD*%
%TA.AperFunction,Conductor*%
%TO.N,VCC*%
G36*
X145127279Y-52109243D02*
G01*
X145533821Y-52117759D01*
X146505459Y-52138112D01*
X146508975Y-52138234D01*
X147595071Y-52191353D01*
X147885880Y-52205576D01*
X147889376Y-52205795D01*
X149263862Y-52311556D01*
X149267317Y-52311871D01*
X150311700Y-52421640D01*
X150638317Y-52455969D01*
X150641812Y-52456386D01*
X152008208Y-52638703D01*
X152011665Y-52639213D01*
X152661059Y-52744392D01*
X153372460Y-52859614D01*
X153375925Y-52860225D01*
X154730000Y-53118529D01*
X154733447Y-53119236D01*
X155510511Y-53290084D01*
X156079868Y-53415265D01*
X156083248Y-53416059D01*
X156657810Y-53559313D01*
X157420819Y-53749553D01*
X157424221Y-53750452D01*
X158751938Y-54121157D01*
X158755313Y-54122150D01*
X160072172Y-54529786D01*
X160075518Y-54530873D01*
X161380501Y-54975125D01*
X161383784Y-54976294D01*
X162017688Y-55212040D01*
X162675898Y-55456826D01*
X162679178Y-55458099D01*
X163957270Y-55974482D01*
X163960514Y-55975845D01*
X165223805Y-56527763D01*
X165226938Y-56529185D01*
X166474280Y-57116139D01*
X166477390Y-57117655D01*
X167084133Y-57424143D01*
X167707875Y-57739218D01*
X167710993Y-57740848D01*
X168923636Y-58396522D01*
X168926677Y-58398223D01*
X169883234Y-58950491D01*
X170120489Y-59087470D01*
X170123511Y-59089271D01*
X171297655Y-59811609D01*
X171300626Y-59813495D01*
X172454089Y-60568300D01*
X172457006Y-60570267D01*
X172964082Y-60922694D01*
X173589004Y-61357026D01*
X173591815Y-61359038D01*
X174139953Y-61763160D01*
X174701430Y-62177117D01*
X174704232Y-62179245D01*
X175242483Y-62599772D01*
X175790476Y-63027911D01*
X175793209Y-63030108D01*
X176217975Y-63381505D01*
X176855397Y-63908827D01*
X176858077Y-63911108D01*
X177895277Y-64819107D01*
X177897892Y-64821461D01*
X178909351Y-65758083D01*
X178911899Y-65760509D01*
X179896829Y-66725024D01*
X179899308Y-66727521D01*
X180856906Y-67719143D01*
X180859314Y-67721708D01*
X181788835Y-68739663D01*
X181791171Y-68742294D01*
X182691911Y-69785811D01*
X182694173Y-69788506D01*
X183565444Y-70856789D01*
X183567630Y-70859547D01*
X184408730Y-71951739D01*
X184410837Y-71954556D01*
X185221102Y-73069791D01*
X185223130Y-73072666D01*
X186001950Y-74210102D01*
X186003897Y-74213033D01*
X186750636Y-75371747D01*
X186752501Y-75374731D01*
X187466616Y-76553873D01*
X187468396Y-76556907D01*
X188149308Y-77755529D01*
X188151003Y-77758613D01*
X188798155Y-78975730D01*
X188799764Y-78978859D01*
X189412716Y-80213643D01*
X189414236Y-80216816D01*
X189801313Y-81054525D01*
X189992454Y-81468192D01*
X189993875Y-81471383D01*
X190393506Y-82403794D01*
X190536936Y-82738441D01*
X190538277Y-82741694D01*
X191045749Y-84023422D01*
X191046998Y-84026712D01*
X191518475Y-85322086D01*
X191519632Y-85325408D01*
X191954757Y-86633438D01*
X191955821Y-86636792D01*
X192354253Y-87956464D01*
X192355223Y-87959846D01*
X192716657Y-89290143D01*
X192717532Y-89293551D01*
X193041674Y-90633395D01*
X193042454Y-90636826D01*
X193140508Y-91098133D01*
X193287282Y-91788646D01*
X193329071Y-91985249D01*
X193329751Y-91988688D01*
X193562654Y-93257672D01*
X193578597Y-93344541D01*
X193579180Y-93347987D01*
X193660337Y-93872231D01*
X193790081Y-94710329D01*
X193790570Y-94713813D01*
X193963338Y-96081408D01*
X193963731Y-96084904D01*
X194096737Y-97441394D01*
X194098255Y-97456879D01*
X194098548Y-97460369D01*
X194134759Y-97978218D01*
X194194708Y-98835541D01*
X194194904Y-98839054D01*
X194252629Y-100216317D01*
X194252728Y-100219834D01*
X194271975Y-101598241D01*
X194271975Y-101601759D01*
X194252728Y-102980166D01*
X194252629Y-102983683D01*
X194194904Y-104360946D01*
X194194708Y-104364459D01*
X194146604Y-105052387D01*
X194106414Y-105627145D01*
X194098549Y-105739614D01*
X194098257Y-105743099D01*
X193996123Y-106784735D01*
X193963731Y-107115096D01*
X193963338Y-107118592D01*
X193790570Y-108486187D01*
X193790081Y-108489671D01*
X193759190Y-108689216D01*
X193584385Y-109818396D01*
X193579184Y-109851990D01*
X193578601Y-109855435D01*
X193330966Y-111204693D01*
X193329754Y-111211299D01*
X193329074Y-111214738D01*
X193208383Y-111782541D01*
X193042454Y-112563174D01*
X193041674Y-112566605D01*
X192865207Y-113296032D01*
X192725314Y-113874284D01*
X192717532Y-113906449D01*
X192716658Y-113909853D01*
X192657216Y-114128637D01*
X192355223Y-115240154D01*
X192354253Y-115243536D01*
X191955821Y-116563208D01*
X191954757Y-116566562D01*
X191519632Y-117874592D01*
X191518475Y-117877914D01*
X191046998Y-119173288D01*
X191045749Y-119176578D01*
X190538277Y-120458306D01*
X190536937Y-120461556D01*
X190004777Y-121703182D01*
X189993885Y-121728594D01*
X189992464Y-121731785D01*
X189724711Y-122311255D01*
X189414236Y-122983184D01*
X189412716Y-122986357D01*
X188799764Y-124221141D01*
X188798155Y-124224270D01*
X188151003Y-125441387D01*
X188149308Y-125444471D01*
X187468396Y-126643093D01*
X187466616Y-126646127D01*
X186752501Y-127825269D01*
X186750636Y-127828253D01*
X186376538Y-128408740D01*
X186010333Y-128976981D01*
X186003897Y-128986967D01*
X186001951Y-128989896D01*
X185967238Y-129040593D01*
X185223130Y-130127334D01*
X185221102Y-130130209D01*
X184410837Y-131245444D01*
X184408730Y-131248261D01*
X184010344Y-131765576D01*
X183625060Y-132265879D01*
X183567630Y-132340453D01*
X183565453Y-132343199D01*
X182997414Y-133039684D01*
X182694173Y-133411494D01*
X182691911Y-133414189D01*
X181791171Y-134457706D01*
X181788835Y-134460337D01*
X180916236Y-135415955D01*
X180859314Y-135478292D01*
X180856906Y-135480857D01*
X179899308Y-136472479D01*
X179896829Y-136474976D01*
X179008562Y-137344832D01*
X178911899Y-137439491D01*
X178909355Y-137441913D01*
X178558780Y-137766550D01*
X177897892Y-138378539D01*
X177895277Y-138380893D01*
X176858077Y-139288892D01*
X176855397Y-139291173D01*
X176318493Y-139735339D01*
X175916908Y-140067560D01*
X175793218Y-140169885D01*
X175790485Y-140172082D01*
X175241127Y-140601287D01*
X174704232Y-141020755D01*
X174701430Y-141022883D01*
X173591815Y-141840962D01*
X173589004Y-141842974D01*
X173018779Y-142239291D01*
X172457006Y-142629733D01*
X172454089Y-142631700D01*
X171300626Y-143386505D01*
X171297655Y-143388391D01*
X170123511Y-144110729D01*
X170120499Y-144112524D01*
X169517907Y-144460431D01*
X168926692Y-144801769D01*
X168923636Y-144803478D01*
X168581234Y-144988614D01*
X167710993Y-145459152D01*
X167707875Y-145460782D01*
X166477390Y-146082345D01*
X166474280Y-146083861D01*
X165226938Y-146670815D01*
X165223805Y-146672237D01*
X164471857Y-147000755D01*
X163960514Y-147224155D01*
X163957270Y-147225518D01*
X162679178Y-147741901D01*
X162675898Y-147743174D01*
X162285932Y-147888201D01*
X161383784Y-148223706D01*
X161380501Y-148224875D01*
X160075518Y-148669127D01*
X160072172Y-148670214D01*
X158755313Y-149077850D01*
X158751938Y-149078843D01*
X157424221Y-149449548D01*
X157420819Y-149450447D01*
X156735053Y-149621428D01*
X156083248Y-149783941D01*
X156079868Y-149784735D01*
X155510511Y-149909916D01*
X154733447Y-150080764D01*
X154730000Y-150081471D01*
X153375925Y-150339775D01*
X153372460Y-150340386D01*
X152775213Y-150437119D01*
X152011665Y-150560787D01*
X152008208Y-150561297D01*
X151291101Y-150656980D01*
X150641810Y-150743614D01*
X150638314Y-150744031D01*
X149267317Y-150888129D01*
X149263862Y-150888444D01*
X147889376Y-150994205D01*
X147885880Y-150994424D01*
X147595071Y-151008647D01*
X146508975Y-151061766D01*
X146505459Y-151061888D01*
X145533821Y-151082241D01*
X145127279Y-151090757D01*
X145123785Y-151090782D01*
X144473393Y-151086241D01*
X143745265Y-151081158D01*
X143741748Y-151081084D01*
X142364083Y-151032974D01*
X142360568Y-151032802D01*
X140984775Y-150946245D01*
X140981267Y-150945975D01*
X139963361Y-150853339D01*
X139608449Y-150821039D01*
X139604964Y-150820674D01*
X138236080Y-150657444D01*
X138232606Y-150656980D01*
X136868901Y-150455605D01*
X136865473Y-150455050D01*
X135507830Y-150215662D01*
X135504375Y-150215002D01*
X134154056Y-149937820D01*
X134150622Y-149937066D01*
X132808522Y-149622279D01*
X132805108Y-149621428D01*
X131472329Y-149269293D01*
X131468940Y-149268347D01*
X130146485Y-148879128D01*
X130143124Y-148878087D01*
X128832098Y-148452108D01*
X128828767Y-148450974D01*
X127530146Y-147988556D01*
X127526848Y-147987330D01*
X126241608Y-147488818D01*
X126238346Y-147487500D01*
X124967534Y-146953300D01*
X124964310Y-146951891D01*
X123708929Y-146382425D01*
X123705758Y-146380933D01*
X123672626Y-146364773D01*
X122466754Y-145776630D01*
X122463614Y-145775044D01*
X121241951Y-145136374D01*
X121238856Y-145134700D01*
X120035541Y-144462190D01*
X120032494Y-144460431D01*
X118848395Y-143754566D01*
X118845398Y-143752722D01*
X117783283Y-143078684D01*
X117681482Y-143014079D01*
X117678572Y-143012175D01*
X116535700Y-142241299D01*
X116532811Y-142239291D01*
X115411959Y-141436840D01*
X115409126Y-141434752D01*
X114311077Y-140601287D01*
X114308305Y-140599121D01*
X113233955Y-139735321D01*
X113231289Y-139733115D01*
X112181483Y-138839661D01*
X112178837Y-138837344D01*
X111154400Y-137914936D01*
X111151818Y-137912546D01*
X111058309Y-137823498D01*
X110600189Y-137387237D01*
X110153534Y-136961893D01*
X110151020Y-136959431D01*
X109179672Y-135981277D01*
X109177228Y-135978746D01*
X108233585Y-134973870D01*
X108231212Y-134971272D01*
X108167194Y-134899167D01*
X107315942Y-133940378D01*
X107313679Y-133937756D01*
X106427571Y-132881733D01*
X106425350Y-132879010D01*
X106316523Y-132741704D01*
X105569087Y-131798674D01*
X105566946Y-131795894D01*
X105555188Y-131780176D01*
X104777137Y-130740135D01*
X104741177Y-130692066D01*
X104739109Y-130689219D01*
X103944502Y-129562791D01*
X103942514Y-129559888D01*
X103542019Y-128957096D01*
X103179646Y-128411681D01*
X103177751Y-128408740D01*
X102447246Y-127239687D01*
X102445423Y-127236677D01*
X101747851Y-126047695D01*
X101746113Y-126044636D01*
X101081990Y-124836600D01*
X101080339Y-124833493D01*
X100450250Y-123607472D01*
X100448685Y-123604321D01*
X99853040Y-122361114D01*
X99851564Y-122357920D01*
X99679898Y-121972352D01*
X127537394Y-121972352D01*
X127540251Y-122002571D01*
X127541741Y-122018338D01*
X127542300Y-122030196D01*
X127542300Y-134440244D01*
X127541741Y-134452100D01*
X127540012Y-134459837D01*
X127540261Y-134467759D01*
X127542238Y-134530669D01*
X127542300Y-134534627D01*
X127542300Y-134563732D01*
X127542856Y-134568132D01*
X127543788Y-134579964D01*
X127545238Y-134626131D01*
X127547450Y-134633744D01*
X127547450Y-134633745D01*
X127551219Y-134646716D01*
X127555230Y-134666082D01*
X127557918Y-134687364D01*
X127560834Y-134694729D01*
X127560835Y-134694733D01*
X127574926Y-134730321D01*
X127578765Y-134741531D01*
X127591655Y-134785900D01*
X127602575Y-134804365D01*
X127611266Y-134822105D01*
X127619165Y-134842056D01*
X127646316Y-134879426D01*
X127652833Y-134889348D01*
X127672307Y-134922277D01*
X127672310Y-134922281D01*
X127676347Y-134929107D01*
X127691511Y-134944271D01*
X127704351Y-134959304D01*
X127716959Y-134976657D01*
X127737319Y-134993500D01*
X127752552Y-135006102D01*
X127761332Y-135014092D01*
X128306398Y-135559158D01*
X128340424Y-135621470D01*
X128335359Y-135692285D01*
X128324563Y-135714369D01*
X128274970Y-135794824D01*
X128270385Y-135802262D01*
X128262894Y-135824848D01*
X128226796Y-135933681D01*
X128214703Y-135970139D01*
X128204000Y-136074600D01*
X128204000Y-137125400D01*
X128214974Y-137231166D01*
X128217155Y-137237702D01*
X128217155Y-137237704D01*
X128240920Y-137308935D01*
X128270950Y-137398946D01*
X128364022Y-137549348D01*
X128489197Y-137674305D01*
X128495427Y-137678145D01*
X128495428Y-137678146D01*
X128632590Y-137762694D01*
X128639762Y-137767115D01*
X128719505Y-137793564D01*
X128801111Y-137820632D01*
X128801113Y-137820632D01*
X128807639Y-137822797D01*
X128814475Y-137823497D01*
X128814478Y-137823498D01*
X128857531Y-137827909D01*
X128912100Y-137833500D01*
X129687900Y-137833500D01*
X129691146Y-137833163D01*
X129691150Y-137833163D01*
X129786808Y-137823238D01*
X129786812Y-137823237D01*
X129793666Y-137822526D01*
X129800202Y-137820345D01*
X129800204Y-137820345D01*
X129932306Y-137776272D01*
X129961446Y-137766550D01*
X130111848Y-137673478D01*
X130236805Y-137548303D01*
X130239406Y-137544084D01*
X130296530Y-137503583D01*
X130367453Y-137500351D01*
X130428865Y-137535976D01*
X130435422Y-137543530D01*
X130439022Y-137549348D01*
X130564197Y-137674305D01*
X130570427Y-137678145D01*
X130570428Y-137678146D01*
X130707590Y-137762694D01*
X130714762Y-137767115D01*
X130794505Y-137793564D01*
X130876111Y-137820632D01*
X130876113Y-137820632D01*
X130882639Y-137822797D01*
X130889475Y-137823497D01*
X130889478Y-137823498D01*
X130932531Y-137827909D01*
X130987100Y-137833500D01*
X131762900Y-137833500D01*
X131766146Y-137833163D01*
X131766150Y-137833163D01*
X131861808Y-137823238D01*
X131861812Y-137823237D01*
X131868666Y-137822526D01*
X131875202Y-137820345D01*
X131875204Y-137820345D01*
X132007306Y-137776272D01*
X132036446Y-137766550D01*
X132186848Y-137673478D01*
X132311805Y-137548303D01*
X132339371Y-137503583D01*
X132400775Y-137403968D01*
X132400776Y-137403966D01*
X132404615Y-137397738D01*
X132422163Y-137344832D01*
X132462594Y-137286473D01*
X132528158Y-137259236D01*
X132541756Y-137258500D01*
X133787725Y-137258500D01*
X133855846Y-137278502D01*
X133888551Y-137308935D01*
X133966739Y-137413261D01*
X134083295Y-137500615D01*
X134219684Y-137551745D01*
X134281866Y-137558500D01*
X136178134Y-137558500D01*
X136240316Y-137551745D01*
X136376705Y-137500615D01*
X136493261Y-137413261D01*
X136571449Y-137308935D01*
X136628308Y-137266420D01*
X136672275Y-137258500D01*
X140087725Y-137258500D01*
X140155846Y-137278502D01*
X140188551Y-137308935D01*
X140266739Y-137413261D01*
X140383295Y-137500615D01*
X140519684Y-137551745D01*
X140581866Y-137558500D01*
X142478134Y-137558500D01*
X142540316Y-137551745D01*
X142676705Y-137500615D01*
X142793261Y-137413261D01*
X142871449Y-137308935D01*
X142928308Y-137266420D01*
X142972275Y-137258500D01*
X144119776Y-137258500D01*
X144187897Y-137278502D01*
X144193837Y-137282564D01*
X144319400Y-137373791D01*
X144343248Y-137391118D01*
X144349276Y-137393802D01*
X144349278Y-137393803D01*
X144392982Y-137413261D01*
X144517712Y-137468794D01*
X144611113Y-137488647D01*
X144698056Y-137507128D01*
X144698061Y-137507128D01*
X144704513Y-137508500D01*
X144895487Y-137508500D01*
X144901939Y-137507128D01*
X144901944Y-137507128D01*
X144988887Y-137488647D01*
X145082288Y-137468794D01*
X145207018Y-137413261D01*
X145250722Y-137393803D01*
X145250724Y-137393802D01*
X145256752Y-137391118D01*
X145280601Y-137373791D01*
X145406163Y-137282564D01*
X145473031Y-137258706D01*
X145480224Y-137258500D01*
X146587725Y-137258500D01*
X146655846Y-137278502D01*
X146688551Y-137308935D01*
X146766739Y-137413261D01*
X146883295Y-137500615D01*
X147019684Y-137551745D01*
X147081866Y-137558500D01*
X148978134Y-137558500D01*
X149040316Y-137551745D01*
X149176705Y-137500615D01*
X149293261Y-137413261D01*
X149371449Y-137308935D01*
X149428308Y-137266420D01*
X149472275Y-137258500D01*
X152887725Y-137258500D01*
X152955846Y-137278502D01*
X152988551Y-137308935D01*
X153066739Y-137413261D01*
X153183295Y-137500615D01*
X153319684Y-137551745D01*
X153381866Y-137558500D01*
X155278134Y-137558500D01*
X155340316Y-137551745D01*
X155476705Y-137500615D01*
X155593261Y-137413261D01*
X155671449Y-137308935D01*
X155728308Y-137266420D01*
X155772275Y-137258500D01*
X157195803Y-137258500D01*
X157263924Y-137278502D01*
X157310417Y-137332158D01*
X157315326Y-137344623D01*
X157329544Y-137387237D01*
X157333450Y-137398946D01*
X157426522Y-137549348D01*
X157551697Y-137674305D01*
X157557927Y-137678145D01*
X157557928Y-137678146D01*
X157695090Y-137762694D01*
X157702262Y-137767115D01*
X157782005Y-137793564D01*
X157863611Y-137820632D01*
X157863613Y-137820632D01*
X157870139Y-137822797D01*
X157876975Y-137823497D01*
X157876978Y-137823498D01*
X157920031Y-137827909D01*
X157974600Y-137833500D01*
X158750400Y-137833500D01*
X158753646Y-137833163D01*
X158753650Y-137833163D01*
X158849308Y-137823238D01*
X158849312Y-137823237D01*
X158856166Y-137822526D01*
X158862702Y-137820345D01*
X158862704Y-137820345D01*
X158994806Y-137776272D01*
X159023946Y-137766550D01*
X159174348Y-137673478D01*
X159299305Y-137548303D01*
X159301906Y-137544084D01*
X159359030Y-137503583D01*
X159429953Y-137500351D01*
X159491365Y-137535976D01*
X159497922Y-137543530D01*
X159501522Y-137549348D01*
X159626697Y-137674305D01*
X159632927Y-137678145D01*
X159632928Y-137678146D01*
X159770090Y-137762694D01*
X159777262Y-137767115D01*
X159857005Y-137793564D01*
X159938611Y-137820632D01*
X159938613Y-137820632D01*
X159945139Y-137822797D01*
X159951975Y-137823497D01*
X159951978Y-137823498D01*
X159995031Y-137827909D01*
X160049600Y-137833500D01*
X160825400Y-137833500D01*
X160828646Y-137833163D01*
X160828650Y-137833163D01*
X160924308Y-137823238D01*
X160924312Y-137823237D01*
X160931166Y-137822526D01*
X160937702Y-137820345D01*
X160937704Y-137820345D01*
X161069806Y-137776272D01*
X161098946Y-137766550D01*
X161249348Y-137673478D01*
X161374305Y-137548303D01*
X161401871Y-137503583D01*
X161463275Y-137403968D01*
X161463276Y-137403966D01*
X161467115Y-137397738D01*
X161522797Y-137229861D01*
X161533500Y-137125400D01*
X161533500Y-136074600D01*
X161523688Y-135980032D01*
X161523238Y-135975692D01*
X161523237Y-135975688D01*
X161522526Y-135968834D01*
X161510765Y-135933580D01*
X161468868Y-135808002D01*
X161466550Y-135801054D01*
X161373478Y-135650652D01*
X161354238Y-135631445D01*
X161253483Y-135530866D01*
X161248303Y-135525695D01*
X161171402Y-135478292D01*
X161103966Y-135436724D01*
X161099707Y-135434099D01*
X161099705Y-135434097D01*
X161097738Y-135432885D01*
X161097946Y-135432548D01*
X161047964Y-135388539D01*
X161028500Y-135321263D01*
X161028500Y-135232655D01*
X161030732Y-135209046D01*
X161030939Y-135207962D01*
X161030939Y-135207960D01*
X161032424Y-135200176D01*
X161028749Y-135141764D01*
X161028500Y-135133853D01*
X161028500Y-135006311D01*
X161048502Y-134938190D01*
X161088196Y-134899167D01*
X161104063Y-134889348D01*
X161194348Y-134833478D01*
X161319305Y-134708303D01*
X161357268Y-134646716D01*
X161408275Y-134563968D01*
X161408276Y-134563966D01*
X161412115Y-134557738D01*
X161467797Y-134389861D01*
X161478500Y-134285400D01*
X161478500Y-133284600D01*
X161467526Y-133178834D01*
X161411550Y-133011054D01*
X161318478Y-132860652D01*
X161193303Y-132735695D01*
X161167655Y-132719885D01*
X161048968Y-132646725D01*
X161048966Y-132646724D01*
X161042738Y-132642885D01*
X160962995Y-132616436D01*
X160881389Y-132589368D01*
X160881387Y-132589368D01*
X160874861Y-132587203D01*
X160868025Y-132586503D01*
X160868022Y-132586502D01*
X160811206Y-132580681D01*
X160770400Y-132576500D01*
X159969600Y-132576500D01*
X159966354Y-132576837D01*
X159966350Y-132576837D01*
X159870692Y-132586762D01*
X159870688Y-132586763D01*
X159863834Y-132587474D01*
X159857298Y-132589655D01*
X159857296Y-132589655D01*
X159771587Y-132618250D01*
X159696054Y-132643450D01*
X159545652Y-132736522D01*
X159495523Y-132786739D01*
X159459216Y-132823109D01*
X159396934Y-132857188D01*
X159326114Y-132852185D01*
X159281025Y-132823264D01*
X159198483Y-132740866D01*
X159193303Y-132735695D01*
X159167587Y-132719843D01*
X159134621Y-132699523D01*
X159088383Y-132671021D01*
X159040891Y-132618250D01*
X159028500Y-132563762D01*
X159028500Y-132221311D01*
X159048502Y-132153190D01*
X159088196Y-132114167D01*
X159194348Y-132048478D01*
X159281137Y-131961537D01*
X159343421Y-131927458D01*
X159414241Y-131932461D01*
X159459329Y-131961382D01*
X159541829Y-132043739D01*
X159553240Y-132052751D01*
X159691243Y-132137816D01*
X159704424Y-132143963D01*
X159858710Y-132195138D01*
X159872086Y-132198005D01*
X159966438Y-132207672D01*
X159972854Y-132208000D01*
X160097885Y-132208000D01*
X160113124Y-132203525D01*
X160114329Y-132202135D01*
X160116000Y-132194452D01*
X160116000Y-132189884D01*
X160624000Y-132189884D01*
X160628475Y-132205123D01*
X160629865Y-132206328D01*
X160637548Y-132207999D01*
X160767095Y-132207999D01*
X160773614Y-132207662D01*
X160869206Y-132197743D01*
X160882600Y-132194851D01*
X161036784Y-132143412D01*
X161049962Y-132137239D01*
X161187807Y-132051937D01*
X161199208Y-132042901D01*
X161313739Y-131928171D01*
X161322751Y-131916760D01*
X161407816Y-131778757D01*
X161413963Y-131765576D01*
X161465138Y-131611290D01*
X161468005Y-131597914D01*
X161477672Y-131503562D01*
X161478000Y-131497146D01*
X161478000Y-131272115D01*
X161473525Y-131256876D01*
X161472135Y-131255671D01*
X161464452Y-131254000D01*
X160642115Y-131254000D01*
X160626876Y-131258475D01*
X160625671Y-131259865D01*
X160624000Y-131267548D01*
X160624000Y-132189884D01*
X160116000Y-132189884D01*
X160116000Y-130727885D01*
X160624000Y-130727885D01*
X160628475Y-130743124D01*
X160629865Y-130744329D01*
X160637548Y-130746000D01*
X161459884Y-130746000D01*
X161475123Y-130741525D01*
X161476328Y-130740135D01*
X161477999Y-130732452D01*
X161477999Y-130502905D01*
X161477662Y-130496386D01*
X161467743Y-130400794D01*
X161464851Y-130387400D01*
X161413412Y-130233216D01*
X161407239Y-130220038D01*
X161321937Y-130082193D01*
X161312901Y-130070792D01*
X161198171Y-129956261D01*
X161186760Y-129947249D01*
X161048757Y-129862184D01*
X161035576Y-129856037D01*
X160881290Y-129804862D01*
X160867914Y-129801995D01*
X160773562Y-129792328D01*
X160767145Y-129792000D01*
X160642115Y-129792000D01*
X160626876Y-129796475D01*
X160625671Y-129797865D01*
X160624000Y-129805548D01*
X160624000Y-130727885D01*
X160116000Y-130727885D01*
X160116000Y-129810116D01*
X160111525Y-129794877D01*
X160110135Y-129793672D01*
X160102452Y-129792001D01*
X159972905Y-129792001D01*
X159966386Y-129792338D01*
X159870794Y-129802257D01*
X159857400Y-129805149D01*
X159703216Y-129856588D01*
X159690038Y-129862761D01*
X159552193Y-129948063D01*
X159540792Y-129957099D01*
X159459570Y-130038462D01*
X159397287Y-130072541D01*
X159326467Y-130067538D01*
X159281380Y-130038617D01*
X159198488Y-129955870D01*
X159198483Y-129955866D01*
X159193303Y-129950695D01*
X159187072Y-129946854D01*
X159048968Y-129861725D01*
X159048966Y-129861724D01*
X159042738Y-129857885D01*
X158962995Y-129831436D01*
X158881389Y-129804368D01*
X158881387Y-129804368D01*
X158874861Y-129802203D01*
X158868025Y-129801503D01*
X158868022Y-129801502D01*
X158824969Y-129797091D01*
X158770400Y-129791500D01*
X157969600Y-129791500D01*
X157966354Y-129791837D01*
X157966350Y-129791837D01*
X157870692Y-129801762D01*
X157870688Y-129801763D01*
X157863834Y-129802474D01*
X157857298Y-129804655D01*
X157857296Y-129804655D01*
X157840928Y-129810116D01*
X157696054Y-129858450D01*
X157545652Y-129951522D01*
X157540479Y-129956704D01*
X157478839Y-130018451D01*
X157420695Y-130076697D01*
X157416855Y-130082927D01*
X157416854Y-130082928D01*
X157387710Y-130130209D01*
X157327885Y-130227262D01*
X157272203Y-130395139D01*
X157261500Y-130499600D01*
X157261500Y-131500400D01*
X157261837Y-131503646D01*
X157261837Y-131503650D01*
X157271618Y-131597914D01*
X157272474Y-131606166D01*
X157328450Y-131773946D01*
X157421522Y-131924348D01*
X157546697Y-132049305D01*
X157552927Y-132053145D01*
X157552928Y-132053146D01*
X157651616Y-132113978D01*
X157699109Y-132166750D01*
X157711500Y-132221238D01*
X157711500Y-132563689D01*
X157691498Y-132631810D01*
X157651804Y-132670833D01*
X157545652Y-132736522D01*
X157420695Y-132861697D01*
X157416853Y-132867929D01*
X157416852Y-132867931D01*
X157408417Y-132881615D01*
X157355646Y-132929109D01*
X157301157Y-132941500D01*
X155772275Y-132941500D01*
X155704154Y-132921498D01*
X155671449Y-132891065D01*
X155598642Y-132793919D01*
X155593261Y-132786739D01*
X155476705Y-132699385D01*
X155340316Y-132648255D01*
X155278134Y-132641500D01*
X153381866Y-132641500D01*
X153319684Y-132648255D01*
X153183295Y-132699385D01*
X153066739Y-132786739D01*
X153061358Y-132793919D01*
X152988551Y-132891065D01*
X152931692Y-132933580D01*
X152887725Y-132941500D01*
X149472275Y-132941500D01*
X149404154Y-132921498D01*
X149371449Y-132891065D01*
X149298642Y-132793919D01*
X149293261Y-132786739D01*
X149176705Y-132699385D01*
X149040316Y-132648255D01*
X148978134Y-132641500D01*
X147081866Y-132641500D01*
X147019684Y-132648255D01*
X146883295Y-132699385D01*
X146766739Y-132786739D01*
X146679385Y-132903295D01*
X146628255Y-133039684D01*
X146621500Y-133101866D01*
X146621500Y-134098134D01*
X146622115Y-134103791D01*
X146622020Y-134104320D01*
X146622053Y-134104928D01*
X146621910Y-134104936D01*
X146609588Y-134173674D01*
X146561269Y-134225691D01*
X146492497Y-134243327D01*
X146425109Y-134220982D01*
X146407757Y-134206497D01*
X141262755Y-129061495D01*
X141254765Y-129052715D01*
X141254763Y-129052713D01*
X141250516Y-129046020D01*
X141198842Y-128997495D01*
X141196001Y-128994741D01*
X141175433Y-128974173D01*
X141171926Y-128971453D01*
X141162904Y-128963747D01*
X141135013Y-128937556D01*
X141129233Y-128932128D01*
X141122281Y-128928306D01*
X141110442Y-128921797D01*
X141093918Y-128910943D01*
X141083232Y-128902655D01*
X141076968Y-128897796D01*
X141069696Y-128894649D01*
X141069694Y-128894648D01*
X141034565Y-128879446D01*
X141023905Y-128874224D01*
X140990384Y-128855795D01*
X140990382Y-128855794D01*
X140983437Y-128851976D01*
X140962659Y-128846641D01*
X140943969Y-128840242D01*
X140924276Y-128831720D01*
X140878652Y-128824494D01*
X140867029Y-128822087D01*
X140839028Y-128814898D01*
X140822288Y-128810600D01*
X140800841Y-128810600D01*
X140781131Y-128809049D01*
X140767777Y-128806934D01*
X140759948Y-128805694D01*
X140713959Y-128810041D01*
X140702104Y-128810600D01*
X138429124Y-128810600D01*
X138361003Y-128790598D01*
X138355063Y-128786536D01*
X138354809Y-128786351D01*
X138205652Y-128677982D01*
X138199624Y-128675298D01*
X138199622Y-128675297D01*
X138037219Y-128602991D01*
X138037218Y-128602991D01*
X138031188Y-128600306D01*
X137937787Y-128580453D01*
X137850844Y-128561972D01*
X137850839Y-128561972D01*
X137844387Y-128560600D01*
X137653413Y-128560600D01*
X137646961Y-128561972D01*
X137646956Y-128561972D01*
X137560013Y-128580453D01*
X137466612Y-128600306D01*
X137460582Y-128602991D01*
X137460581Y-128602991D01*
X137298178Y-128675297D01*
X137298176Y-128675298D01*
X137292148Y-128677982D01*
X137137647Y-128790234D01*
X137133226Y-128795144D01*
X137133225Y-128795145D01*
X137023489Y-128917020D01*
X137009860Y-128932156D01*
X136914373Y-129097544D01*
X136855358Y-129279172D01*
X136835396Y-129469100D01*
X136855358Y-129659028D01*
X136914373Y-129840656D01*
X137009860Y-130006044D01*
X137014278Y-130010951D01*
X137014279Y-130010952D01*
X137128818Y-130138160D01*
X137137647Y-130147966D01*
X137160411Y-130164505D01*
X137254689Y-130233002D01*
X137292148Y-130260218D01*
X137298176Y-130262902D01*
X137298178Y-130262903D01*
X137460581Y-130335209D01*
X137466612Y-130337894D01*
X137560013Y-130357747D01*
X137646956Y-130376228D01*
X137646961Y-130376228D01*
X137653413Y-130377600D01*
X137844387Y-130377600D01*
X137850839Y-130376228D01*
X137850844Y-130376228D01*
X137937787Y-130357747D01*
X138031188Y-130337894D01*
X138037219Y-130335209D01*
X138199622Y-130262903D01*
X138199624Y-130262902D01*
X138205652Y-130260218D01*
X138243112Y-130233002D01*
X138337389Y-130164505D01*
X138355063Y-130151664D01*
X138421931Y-130127806D01*
X138429124Y-130127600D01*
X140414150Y-130127600D01*
X140482271Y-130147602D01*
X140503245Y-130164505D01*
X142868662Y-132529922D01*
X142902688Y-132592234D01*
X142897623Y-132663049D01*
X142855076Y-132719885D01*
X142788556Y-132744696D01*
X142719182Y-132729605D01*
X142704002Y-132719843D01*
X142692654Y-132711338D01*
X142676705Y-132699385D01*
X142540316Y-132648255D01*
X142478134Y-132641500D01*
X140581866Y-132641500D01*
X140519684Y-132648255D01*
X140383295Y-132699385D01*
X140266739Y-132786739D01*
X140261358Y-132793919D01*
X140188551Y-132891065D01*
X140131692Y-132933580D01*
X140087725Y-132941500D01*
X136672275Y-132941500D01*
X136604154Y-132921498D01*
X136571449Y-132891065D01*
X136498642Y-132793919D01*
X136493261Y-132786739D01*
X136376705Y-132699385D01*
X136240316Y-132648255D01*
X136178134Y-132641500D01*
X134281866Y-132641500D01*
X134219684Y-132648255D01*
X134083295Y-132699385D01*
X133966739Y-132786739D01*
X133961358Y-132793919D01*
X133888551Y-132891065D01*
X133831692Y-132933580D01*
X133787725Y-132941500D01*
X132368712Y-132941500D01*
X132300591Y-132921498D01*
X132261568Y-132881804D01*
X132252329Y-132866875D01*
X132252328Y-132866874D01*
X132248478Y-132860652D01*
X132123303Y-132735695D01*
X132097587Y-132719843D01*
X132064621Y-132699523D01*
X132018383Y-132671021D01*
X131970891Y-132618250D01*
X131958500Y-132563762D01*
X131958500Y-132221311D01*
X131978502Y-132153190D01*
X132018196Y-132114167D01*
X132124348Y-132048478D01*
X132249305Y-131923303D01*
X132326972Y-131797304D01*
X132338275Y-131778968D01*
X132338276Y-131778966D01*
X132342115Y-131772738D01*
X132397797Y-131604861D01*
X132408500Y-131500400D01*
X132408500Y-130499600D01*
X132398371Y-130401978D01*
X132398238Y-130400692D01*
X132398237Y-130400688D01*
X132397526Y-130393834D01*
X132341550Y-130226054D01*
X132248478Y-130075652D01*
X132123303Y-129950695D01*
X132117072Y-129946854D01*
X131978968Y-129861725D01*
X131978966Y-129861724D01*
X131972738Y-129857885D01*
X131892995Y-129831436D01*
X131811389Y-129804368D01*
X131811387Y-129804368D01*
X131804861Y-129802203D01*
X131798025Y-129801503D01*
X131798022Y-129801502D01*
X131754969Y-129797091D01*
X131700400Y-129791500D01*
X130899600Y-129791500D01*
X130896354Y-129791837D01*
X130896350Y-129791837D01*
X130800692Y-129801762D01*
X130800688Y-129801763D01*
X130793834Y-129802474D01*
X130787298Y-129804655D01*
X130787296Y-129804655D01*
X130770928Y-129810116D01*
X130626054Y-129858450D01*
X130475652Y-129951522D01*
X130470479Y-129956704D01*
X130388862Y-130038463D01*
X130326579Y-130072542D01*
X130255759Y-130067539D01*
X130210671Y-130038618D01*
X130128171Y-129956261D01*
X130116760Y-129947249D01*
X129978757Y-129862184D01*
X129965576Y-129856037D01*
X129811290Y-129804862D01*
X129797914Y-129801995D01*
X129703562Y-129792328D01*
X129697145Y-129792000D01*
X129572115Y-129792000D01*
X129556876Y-129796475D01*
X129555671Y-129797865D01*
X129554000Y-129805548D01*
X129554000Y-132189884D01*
X129558475Y-132205123D01*
X129559865Y-132206328D01*
X129567548Y-132207999D01*
X129697095Y-132207999D01*
X129703614Y-132207662D01*
X129799206Y-132197743D01*
X129812600Y-132194851D01*
X129966784Y-132143412D01*
X129979962Y-132137239D01*
X130117807Y-132051937D01*
X130129208Y-132042901D01*
X130210430Y-131961538D01*
X130272713Y-131927459D01*
X130343533Y-131932462D01*
X130388620Y-131961383D01*
X130471512Y-132044130D01*
X130471517Y-132044134D01*
X130476697Y-132049305D01*
X130482927Y-132053145D01*
X130482928Y-132053146D01*
X130581616Y-132113978D01*
X130629109Y-132166750D01*
X130641500Y-132221238D01*
X130641500Y-132563689D01*
X130621498Y-132631810D01*
X130581804Y-132670833D01*
X130475652Y-132736522D01*
X130425523Y-132786739D01*
X130389216Y-132823109D01*
X130326934Y-132857188D01*
X130256114Y-132852185D01*
X130211025Y-132823264D01*
X130128483Y-132740866D01*
X130123303Y-132735695D01*
X130097655Y-132719885D01*
X129978968Y-132646725D01*
X129978966Y-132646724D01*
X129972738Y-132642885D01*
X129892995Y-132616436D01*
X129811389Y-132589368D01*
X129811387Y-132589368D01*
X129804861Y-132587203D01*
X129798025Y-132586503D01*
X129798022Y-132586502D01*
X129741206Y-132580681D01*
X129700400Y-132576500D01*
X128985300Y-132576500D01*
X128917179Y-132556498D01*
X128870686Y-132502842D01*
X128859300Y-132450500D01*
X128859300Y-132334000D01*
X128879302Y-132265879D01*
X128932958Y-132219386D01*
X128985300Y-132208000D01*
X129027885Y-132208000D01*
X129043124Y-132203525D01*
X129044329Y-132202135D01*
X129046000Y-132194452D01*
X129046000Y-129810116D01*
X129041525Y-129794877D01*
X129040135Y-129793672D01*
X129032452Y-129792001D01*
X128985300Y-129792001D01*
X128917179Y-129771999D01*
X128870686Y-129718343D01*
X128859300Y-129666001D01*
X128859300Y-122578877D01*
X128879302Y-122510756D01*
X128934051Y-122463770D01*
X129007422Y-122431103D01*
X129007424Y-122431102D01*
X129013452Y-122428418D01*
X129167953Y-122316166D01*
X129295740Y-122174244D01*
X129391227Y-122008856D01*
X129450242Y-121827228D01*
X129451438Y-121815855D01*
X129469514Y-121643865D01*
X129470204Y-121637300D01*
X129450242Y-121447372D01*
X129391227Y-121265744D01*
X129295740Y-121100356D01*
X129167953Y-120958434D01*
X129013452Y-120846182D01*
X129007424Y-120843498D01*
X129007422Y-120843497D01*
X128845019Y-120771191D01*
X128845018Y-120771191D01*
X128838988Y-120768506D01*
X128745588Y-120748653D01*
X128658644Y-120730172D01*
X128658639Y-120730172D01*
X128652187Y-120728800D01*
X128461213Y-120728800D01*
X128454761Y-120730172D01*
X128454756Y-120730172D01*
X128367812Y-120748653D01*
X128274412Y-120768506D01*
X128268382Y-120771191D01*
X128268381Y-120771191D01*
X128105978Y-120843497D01*
X128105976Y-120843498D01*
X128099948Y-120846182D01*
X127945447Y-120958434D01*
X127817660Y-121100356D01*
X127722173Y-121265744D01*
X127663158Y-121447372D01*
X127662468Y-121453933D01*
X127662468Y-121453935D01*
X127646474Y-121606109D01*
X127630714Y-121653762D01*
X127629496Y-121655332D01*
X127626349Y-121662604D01*
X127626348Y-121662606D01*
X127611146Y-121697735D01*
X127605924Y-121708395D01*
X127583676Y-121748863D01*
X127578341Y-121769641D01*
X127571942Y-121788331D01*
X127563420Y-121808024D01*
X127559384Y-121833506D01*
X127556194Y-121853648D01*
X127553787Y-121865271D01*
X127542300Y-121910012D01*
X127542300Y-121931459D01*
X127540749Y-121951169D01*
X127537394Y-121972352D01*
X99679898Y-121972352D01*
X99446162Y-121447372D01*
X99290864Y-121098568D01*
X99289482Y-121095343D01*
X98764167Y-119820832D01*
X98762872Y-119817561D01*
X98555464Y-119271556D01*
X98273335Y-118528846D01*
X98272151Y-118525591D01*
X98268221Y-118514303D01*
X97818812Y-117223779D01*
X97817702Y-117220444D01*
X97675953Y-116773595D01*
X97400865Y-115906409D01*
X97399856Y-115903065D01*
X97395982Y-115889552D01*
X97019882Y-114577935D01*
X97018963Y-114574550D01*
X96934921Y-114247226D01*
X96733722Y-113463611D01*
X96676149Y-113239378D01*
X96675321Y-113235958D01*
X96369906Y-111891666D01*
X96369175Y-111888225D01*
X96211603Y-111092432D01*
X96101416Y-110535947D01*
X96100802Y-110532605D01*
X95870891Y-109173288D01*
X95870360Y-109169858D01*
X95678504Y-107804734D01*
X95678063Y-107801243D01*
X95524401Y-106431308D01*
X95524058Y-106427806D01*
X95408709Y-105054162D01*
X95408463Y-105050652D01*
X95331511Y-103674253D01*
X95331364Y-103670738D01*
X95326808Y-103507652D01*
X106038094Y-103507652D01*
X106038840Y-103515543D01*
X106042441Y-103553638D01*
X106043000Y-103565496D01*
X106043000Y-115969444D01*
X106042441Y-115981300D01*
X106040712Y-115989037D01*
X106040961Y-115996959D01*
X106042938Y-116059869D01*
X106043000Y-116063827D01*
X106043000Y-116092932D01*
X106043556Y-116097332D01*
X106044488Y-116109164D01*
X106045938Y-116155331D01*
X106048150Y-116162944D01*
X106048150Y-116162945D01*
X106051919Y-116175916D01*
X106055930Y-116195282D01*
X106058618Y-116216564D01*
X106061534Y-116223929D01*
X106061535Y-116223933D01*
X106075626Y-116259521D01*
X106079465Y-116270731D01*
X106092355Y-116315100D01*
X106103275Y-116333565D01*
X106111966Y-116351305D01*
X106119865Y-116371256D01*
X106142038Y-116401774D01*
X106147016Y-116408626D01*
X106153533Y-116418548D01*
X106173007Y-116451477D01*
X106173010Y-116451481D01*
X106177047Y-116458307D01*
X106192211Y-116473471D01*
X106205051Y-116488504D01*
X106217659Y-116505857D01*
X106253252Y-116535302D01*
X106262032Y-116543292D01*
X108093345Y-118374605D01*
X108101335Y-118383385D01*
X108105584Y-118390080D01*
X108111362Y-118395506D01*
X108111363Y-118395507D01*
X108157257Y-118438604D01*
X108160099Y-118441359D01*
X108180667Y-118461927D01*
X108184170Y-118464644D01*
X108193195Y-118472352D01*
X108226867Y-118503972D01*
X108233818Y-118507793D01*
X108233819Y-118507794D01*
X108245658Y-118514303D01*
X108262182Y-118525157D01*
X108272271Y-118532982D01*
X108279132Y-118538304D01*
X108286404Y-118541451D01*
X108286406Y-118541452D01*
X108321535Y-118556654D01*
X108332196Y-118561876D01*
X108372663Y-118584124D01*
X108393441Y-118589459D01*
X108412131Y-118595858D01*
X108431824Y-118604380D01*
X108475596Y-118611313D01*
X108477448Y-118611606D01*
X108489071Y-118614013D01*
X108517072Y-118621202D01*
X108533812Y-118625500D01*
X108555259Y-118625500D01*
X108574969Y-118627051D01*
X108596152Y-118630406D01*
X108642141Y-118626059D01*
X108653996Y-118625500D01*
X115086776Y-118625500D01*
X115154897Y-118645502D01*
X115160834Y-118649562D01*
X115310248Y-118758118D01*
X115316276Y-118760802D01*
X115316278Y-118760803D01*
X115426939Y-118810072D01*
X115484712Y-118835794D01*
X115578113Y-118855647D01*
X115665056Y-118874128D01*
X115665061Y-118874128D01*
X115671513Y-118875500D01*
X115862487Y-118875500D01*
X115868939Y-118874128D01*
X115868944Y-118874128D01*
X115955887Y-118855647D01*
X116049288Y-118835794D01*
X116107061Y-118810072D01*
X116217722Y-118760803D01*
X116217724Y-118760802D01*
X116223752Y-118758118D01*
X116373163Y-118649564D01*
X116440031Y-118625706D01*
X116447224Y-118625500D01*
X117893005Y-118625500D01*
X117961126Y-118645502D01*
X118007619Y-118699158D01*
X118017723Y-118769432D01*
X118012838Y-118790435D01*
X118008498Y-118803791D01*
X118008496Y-118803798D01*
X118006458Y-118810072D01*
X118005768Y-118816633D01*
X118005768Y-118816635D01*
X117999581Y-118875500D01*
X117986496Y-119000000D01*
X117987186Y-119006565D01*
X117996608Y-119096206D01*
X118006458Y-119189928D01*
X118065473Y-119371556D01*
X118160960Y-119536944D01*
X118288747Y-119678866D01*
X118443248Y-119791118D01*
X118449276Y-119793802D01*
X118449278Y-119793803D01*
X118502640Y-119817561D01*
X118617712Y-119868794D01*
X118711113Y-119888647D01*
X118798056Y-119907128D01*
X118798061Y-119907128D01*
X118804513Y-119908500D01*
X118995487Y-119908500D01*
X119001939Y-119907128D01*
X119001944Y-119907128D01*
X119088887Y-119888647D01*
X119182288Y-119868794D01*
X119297360Y-119817561D01*
X119350722Y-119793803D01*
X119350724Y-119793802D01*
X119356752Y-119791118D01*
X119506163Y-119682564D01*
X119573031Y-119658706D01*
X119580224Y-119658500D01*
X137919776Y-119658500D01*
X137987897Y-119678502D01*
X137993834Y-119682562D01*
X138143248Y-119791118D01*
X138149276Y-119793802D01*
X138149278Y-119793803D01*
X138202640Y-119817561D01*
X138317712Y-119868794D01*
X138411113Y-119888647D01*
X138498056Y-119907128D01*
X138498061Y-119907128D01*
X138504513Y-119908500D01*
X138695487Y-119908500D01*
X138701939Y-119907128D01*
X138701944Y-119907128D01*
X138788887Y-119888647D01*
X138882288Y-119868794D01*
X138997360Y-119817561D01*
X139050722Y-119793803D01*
X139050724Y-119793802D01*
X139056752Y-119791118D01*
X139206163Y-119682564D01*
X139273031Y-119658706D01*
X139280224Y-119658500D01*
X160719776Y-119658500D01*
X160787897Y-119678502D01*
X160793834Y-119682562D01*
X160943248Y-119791118D01*
X160949276Y-119793802D01*
X160949278Y-119793803D01*
X161002640Y-119817561D01*
X161117712Y-119868794D01*
X161211113Y-119888647D01*
X161298056Y-119907128D01*
X161298061Y-119907128D01*
X161304513Y-119908500D01*
X161495487Y-119908500D01*
X161501939Y-119907128D01*
X161501944Y-119907128D01*
X161588887Y-119888647D01*
X161682288Y-119868794D01*
X161797360Y-119817561D01*
X161850722Y-119793803D01*
X161850724Y-119793802D01*
X161856752Y-119791118D01*
X162006163Y-119682564D01*
X162073031Y-119658706D01*
X162080224Y-119658500D01*
X181007413Y-119658500D01*
X181081472Y-119682563D01*
X181087902Y-119687235D01*
X181087909Y-119687239D01*
X181093248Y-119691118D01*
X181099276Y-119693802D01*
X181099278Y-119693803D01*
X181261681Y-119766109D01*
X181267712Y-119768794D01*
X181354479Y-119787237D01*
X181448056Y-119807128D01*
X181448061Y-119807128D01*
X181454513Y-119808500D01*
X181645487Y-119808500D01*
X181651939Y-119807128D01*
X181651944Y-119807128D01*
X181745521Y-119787237D01*
X181832288Y-119768794D01*
X181838319Y-119766109D01*
X182000722Y-119693803D01*
X182000724Y-119693802D01*
X182006752Y-119691118D01*
X182012097Y-119687235D01*
X182062157Y-119650864D01*
X182161253Y-119578866D01*
X182289040Y-119436944D01*
X182384527Y-119271556D01*
X182443542Y-119089928D01*
X182463504Y-118900000D01*
X182453392Y-118803791D01*
X182444232Y-118716635D01*
X182444232Y-118716633D01*
X182443542Y-118710072D01*
X182384527Y-118528444D01*
X182289040Y-118363056D01*
X182161253Y-118221134D01*
X182006752Y-118108882D01*
X182000724Y-118106198D01*
X182000722Y-118106197D01*
X181838319Y-118033891D01*
X181838318Y-118033891D01*
X181832288Y-118031206D01*
X181738888Y-118011353D01*
X181651944Y-117992872D01*
X181651939Y-117992872D01*
X181645487Y-117991500D01*
X181454513Y-117991500D01*
X181448061Y-117992872D01*
X181448056Y-117992872D01*
X181361112Y-118011353D01*
X181267712Y-118031206D01*
X181261682Y-118033891D01*
X181261681Y-118033891D01*
X181099278Y-118106197D01*
X181099276Y-118106198D01*
X181093248Y-118108882D01*
X180938747Y-118221134D01*
X180934326Y-118226044D01*
X180934325Y-118226045D01*
X180867907Y-118299810D01*
X180807461Y-118337050D01*
X180774271Y-118341500D01*
X180239995Y-118341500D01*
X180171874Y-118321498D01*
X180125381Y-118267842D01*
X180115277Y-118197568D01*
X180120162Y-118176565D01*
X180124502Y-118163209D01*
X180124504Y-118163202D01*
X180126542Y-118156928D01*
X180146504Y-117967000D01*
X180126542Y-117777072D01*
X180067527Y-117595444D01*
X179972040Y-117430056D01*
X179859040Y-117304556D01*
X179848675Y-117293045D01*
X179848674Y-117293044D01*
X179844253Y-117288134D01*
X179689752Y-117175882D01*
X179683724Y-117173198D01*
X179683722Y-117173197D01*
X179521319Y-117100891D01*
X179521318Y-117100891D01*
X179515288Y-117098206D01*
X179421888Y-117078353D01*
X179334944Y-117059872D01*
X179334939Y-117059872D01*
X179328487Y-117058500D01*
X179137513Y-117058500D01*
X179131061Y-117059872D01*
X179131056Y-117059872D01*
X179044112Y-117078353D01*
X178950712Y-117098206D01*
X178944682Y-117100891D01*
X178944681Y-117100891D01*
X178782278Y-117173197D01*
X178782276Y-117173198D01*
X178776248Y-117175882D01*
X178770907Y-117179762D01*
X178770906Y-117179763D01*
X178695097Y-117234842D01*
X178627092Y-117284251D01*
X178626837Y-117284436D01*
X178559969Y-117308294D01*
X178552776Y-117308500D01*
X175139670Y-117308500D01*
X175071549Y-117288498D01*
X175025056Y-117234842D01*
X175014952Y-117164568D01*
X175019837Y-117143564D01*
X175024502Y-117129206D01*
X175026542Y-117122928D01*
X175029141Y-117098206D01*
X175045814Y-116939565D01*
X175046504Y-116933000D01*
X175026542Y-116743072D01*
X174967527Y-116561444D01*
X174872040Y-116396056D01*
X174749104Y-116259521D01*
X174748675Y-116259045D01*
X174748674Y-116259044D01*
X174744253Y-116254134D01*
X174589752Y-116141882D01*
X174583724Y-116139198D01*
X174583722Y-116139197D01*
X174421319Y-116066891D01*
X174421318Y-116066891D01*
X174415288Y-116064206D01*
X174321888Y-116044353D01*
X174234944Y-116025872D01*
X174234939Y-116025872D01*
X174228487Y-116024500D01*
X174037513Y-116024500D01*
X174031061Y-116025872D01*
X174031056Y-116025872D01*
X173944112Y-116044353D01*
X173850712Y-116064206D01*
X173844682Y-116066891D01*
X173844681Y-116066891D01*
X173682278Y-116139197D01*
X173682276Y-116139198D01*
X173676248Y-116141882D01*
X173670907Y-116145762D01*
X173670906Y-116145763D01*
X173616289Y-116185445D01*
X173527092Y-116250251D01*
X173526837Y-116250436D01*
X173459969Y-116274294D01*
X173452776Y-116274500D01*
X172130678Y-116274500D01*
X172062557Y-116254498D01*
X172016064Y-116200842D01*
X172005960Y-116130568D01*
X172020728Y-116088610D01*
X172021304Y-116087868D01*
X172024450Y-116080598D01*
X172024454Y-116080591D01*
X172039654Y-116045465D01*
X172044876Y-116034805D01*
X172063305Y-116001284D01*
X172063306Y-116001282D01*
X172067124Y-115994337D01*
X172072459Y-115973559D01*
X172078858Y-115954869D01*
X172087380Y-115935176D01*
X172094606Y-115889552D01*
X172097013Y-115877929D01*
X172106528Y-115840868D01*
X172108500Y-115833188D01*
X172108500Y-115811741D01*
X172110051Y-115792031D01*
X172112166Y-115778677D01*
X172113406Y-115770848D01*
X172109059Y-115724859D01*
X172108500Y-115713004D01*
X172108500Y-114810200D01*
X172128502Y-114742079D01*
X172182158Y-114695586D01*
X172234500Y-114684200D01*
X172260134Y-114684200D01*
X172322316Y-114677445D01*
X172458705Y-114626315D01*
X172575261Y-114538961D01*
X172662615Y-114422405D01*
X172713745Y-114286016D01*
X172720500Y-114223834D01*
X172720500Y-114215643D01*
X172740502Y-114147522D01*
X172794158Y-114101029D01*
X172864432Y-114090925D01*
X172929012Y-114120419D01*
X172948819Y-114142113D01*
X173024351Y-114247226D01*
X173056272Y-114278160D01*
X173136701Y-114356101D01*
X173187217Y-114405055D01*
X173213037Y-114422405D01*
X173370805Y-114528421D01*
X173370810Y-114528424D01*
X173375458Y-114531547D01*
X173380590Y-114533800D01*
X173380594Y-114533802D01*
X173473420Y-114574550D01*
X173583124Y-114622707D01*
X173588582Y-114624017D01*
X173588581Y-114624017D01*
X173798192Y-114674340D01*
X173798198Y-114674341D01*
X173803651Y-114675650D01*
X173916860Y-114682178D01*
X174024463Y-114688383D01*
X174024466Y-114688383D01*
X174030069Y-114688706D01*
X174255219Y-114661459D01*
X174260581Y-114659809D01*
X174260583Y-114659809D01*
X174388522Y-114620450D01*
X174471987Y-114594773D01*
X174580120Y-114538961D01*
X174668536Y-114493326D01*
X174668537Y-114493326D01*
X174673519Y-114490754D01*
X174853447Y-114352691D01*
X174973807Y-114220417D01*
X175002308Y-114189095D01*
X175002310Y-114189092D01*
X175006081Y-114184948D01*
X175020436Y-114162064D01*
X175123616Y-113997582D01*
X175123618Y-113997578D01*
X175126599Y-113992826D01*
X175143898Y-113949794D01*
X175187864Y-113894051D01*
X175254989Y-113870926D01*
X175323960Y-113887763D01*
X175374530Y-113942548D01*
X175424258Y-114046804D01*
X175432007Y-114063051D01*
X175435284Y-114067612D01*
X175435285Y-114067613D01*
X175545087Y-114220417D01*
X175564351Y-114247226D01*
X175596272Y-114278160D01*
X175676701Y-114356101D01*
X175727217Y-114405055D01*
X175753037Y-114422405D01*
X175910805Y-114528421D01*
X175910810Y-114528424D01*
X175915458Y-114531547D01*
X175920590Y-114533800D01*
X175920594Y-114533802D01*
X176013420Y-114574550D01*
X176123124Y-114622707D01*
X176128582Y-114624017D01*
X176128581Y-114624017D01*
X176338192Y-114674340D01*
X176338198Y-114674341D01*
X176343651Y-114675650D01*
X176456860Y-114682178D01*
X176564463Y-114688383D01*
X176564466Y-114688383D01*
X176570069Y-114688706D01*
X176795219Y-114661459D01*
X176800581Y-114659809D01*
X176800583Y-114659809D01*
X176928522Y-114620450D01*
X177011987Y-114594773D01*
X177120120Y-114538961D01*
X177208536Y-114493326D01*
X177208537Y-114493326D01*
X177213519Y-114490754D01*
X177393447Y-114352691D01*
X177513807Y-114220417D01*
X177542308Y-114189095D01*
X177542310Y-114189092D01*
X177546081Y-114184948D01*
X177560436Y-114162064D01*
X177663616Y-113997582D01*
X177663618Y-113997578D01*
X177666599Y-113992826D01*
X177683898Y-113949794D01*
X177727864Y-113894051D01*
X177794989Y-113870926D01*
X177863960Y-113887763D01*
X177914530Y-113942548D01*
X177964258Y-114046804D01*
X177972007Y-114063051D01*
X177975284Y-114067612D01*
X177975285Y-114067613D01*
X178085087Y-114220417D01*
X178104351Y-114247226D01*
X178136272Y-114278160D01*
X178216701Y-114356101D01*
X178267217Y-114405055D01*
X178293037Y-114422405D01*
X178450805Y-114528421D01*
X178450810Y-114528424D01*
X178455458Y-114531547D01*
X178460590Y-114533800D01*
X178460594Y-114533802D01*
X178553420Y-114574550D01*
X178663124Y-114622707D01*
X178668582Y-114624017D01*
X178668581Y-114624017D01*
X178878192Y-114674340D01*
X178878198Y-114674341D01*
X178883651Y-114675650D01*
X178996860Y-114682178D01*
X179104463Y-114688383D01*
X179104466Y-114688383D01*
X179110069Y-114688706D01*
X179335219Y-114661459D01*
X179340581Y-114659809D01*
X179340583Y-114659809D01*
X179468522Y-114620450D01*
X179551987Y-114594773D01*
X179660120Y-114538961D01*
X179748536Y-114493326D01*
X179748537Y-114493326D01*
X179753519Y-114490754D01*
X179933447Y-114352691D01*
X180053807Y-114220417D01*
X180082308Y-114189095D01*
X180082310Y-114189092D01*
X180086081Y-114184948D01*
X180100436Y-114162064D01*
X180203616Y-113997582D01*
X180203618Y-113997578D01*
X180206599Y-113992826D01*
X180223898Y-113949794D01*
X180267864Y-113894051D01*
X180334989Y-113870926D01*
X180403960Y-113887763D01*
X180454530Y-113942548D01*
X180504258Y-114046804D01*
X180512007Y-114063051D01*
X180515284Y-114067612D01*
X180515285Y-114067613D01*
X180625087Y-114220417D01*
X180644351Y-114247226D01*
X180676272Y-114278160D01*
X180756701Y-114356101D01*
X180807217Y-114405055D01*
X180833037Y-114422405D01*
X180990805Y-114528421D01*
X180990810Y-114528424D01*
X180995458Y-114531547D01*
X181000590Y-114533800D01*
X181000594Y-114533802D01*
X181093420Y-114574550D01*
X181203124Y-114622707D01*
X181208582Y-114624017D01*
X181208581Y-114624017D01*
X181418192Y-114674340D01*
X181418198Y-114674341D01*
X181423651Y-114675650D01*
X181536860Y-114682178D01*
X181644463Y-114688383D01*
X181644466Y-114688383D01*
X181650069Y-114688706D01*
X181875219Y-114661459D01*
X181880581Y-114659809D01*
X181880583Y-114659809D01*
X182008522Y-114620450D01*
X182091987Y-114594773D01*
X182200120Y-114538961D01*
X182288536Y-114493326D01*
X182288537Y-114493326D01*
X182293519Y-114490754D01*
X182473447Y-114352691D01*
X182593807Y-114220417D01*
X182622308Y-114189095D01*
X182622310Y-114189092D01*
X182626081Y-114184948D01*
X182640436Y-114162064D01*
X182743616Y-113997582D01*
X182743618Y-113997578D01*
X182746599Y-113992826D01*
X182831190Y-113782399D01*
X182877181Y-113560318D01*
X182877447Y-113555706D01*
X182880395Y-113504579D01*
X182880395Y-113504575D01*
X182880500Y-113502756D01*
X182880500Y-112356165D01*
X182865474Y-112187805D01*
X182805630Y-111969049D01*
X182791602Y-111939637D01*
X182710410Y-111769416D01*
X182710409Y-111769415D01*
X182707993Y-111764349D01*
X182683218Y-111729871D01*
X182578926Y-111584734D01*
X182578924Y-111584732D01*
X182575649Y-111580174D01*
X182495993Y-111502982D01*
X182416811Y-111426248D01*
X182416808Y-111426246D01*
X182412783Y-111422345D01*
X182324224Y-111362836D01*
X182229195Y-111298979D01*
X182229190Y-111298976D01*
X182224542Y-111295853D01*
X182219410Y-111293600D01*
X182219406Y-111293598D01*
X182058999Y-111223184D01*
X182016876Y-111204693D01*
X181965380Y-111192330D01*
X181801808Y-111153060D01*
X181801802Y-111153059D01*
X181796349Y-111151750D01*
X181683140Y-111145222D01*
X181575537Y-111139017D01*
X181575534Y-111139017D01*
X181569931Y-111138694D01*
X181344781Y-111165941D01*
X181339419Y-111167591D01*
X181339417Y-111167591D01*
X181255583Y-111193382D01*
X181128013Y-111232627D01*
X181092312Y-111251054D01*
X181009885Y-111293598D01*
X180926481Y-111336646D01*
X180746553Y-111474709D01*
X180704113Y-111521350D01*
X180601399Y-111634232D01*
X180593919Y-111642452D01*
X180590938Y-111647203D01*
X180590938Y-111647204D01*
X180491341Y-111805976D01*
X180473401Y-111834574D01*
X180456103Y-111877605D01*
X180412136Y-111933349D01*
X180345011Y-111956474D01*
X180276040Y-111939637D01*
X180225470Y-111884852D01*
X180170410Y-111769416D01*
X180170409Y-111769415D01*
X180167993Y-111764349D01*
X180143218Y-111729871D01*
X180038926Y-111584734D01*
X180038924Y-111584732D01*
X180035649Y-111580174D01*
X179955993Y-111502982D01*
X179876811Y-111426248D01*
X179876808Y-111426246D01*
X179872783Y-111422345D01*
X179784224Y-111362836D01*
X179689195Y-111298979D01*
X179689190Y-111298976D01*
X179684542Y-111295853D01*
X179679410Y-111293600D01*
X179679406Y-111293598D01*
X179518999Y-111223184D01*
X179476876Y-111204693D01*
X179425380Y-111192330D01*
X179261808Y-111153060D01*
X179261802Y-111153059D01*
X179256349Y-111151750D01*
X179143140Y-111145222D01*
X179035537Y-111139017D01*
X179035534Y-111139017D01*
X179029931Y-111138694D01*
X178804781Y-111165941D01*
X178799419Y-111167591D01*
X178799417Y-111167591D01*
X178715583Y-111193382D01*
X178588013Y-111232627D01*
X178552312Y-111251054D01*
X178469885Y-111293598D01*
X178386481Y-111336646D01*
X178206553Y-111474709D01*
X178164113Y-111521350D01*
X178061399Y-111634232D01*
X178053919Y-111642452D01*
X178050938Y-111647203D01*
X178050938Y-111647204D01*
X177951341Y-111805976D01*
X177933401Y-111834574D01*
X177916103Y-111877605D01*
X177872136Y-111933349D01*
X177805011Y-111956474D01*
X177736040Y-111939637D01*
X177685470Y-111884852D01*
X177630410Y-111769416D01*
X177630409Y-111769415D01*
X177627993Y-111764349D01*
X177603218Y-111729871D01*
X177498926Y-111584734D01*
X177498924Y-111584732D01*
X177495649Y-111580174D01*
X177415993Y-111502982D01*
X177336811Y-111426248D01*
X177336808Y-111426246D01*
X177332783Y-111422345D01*
X177244224Y-111362836D01*
X177149195Y-111298979D01*
X177149190Y-111298976D01*
X177144542Y-111295853D01*
X177139410Y-111293600D01*
X177139406Y-111293598D01*
X176978999Y-111223184D01*
X176936876Y-111204693D01*
X176885380Y-111192330D01*
X176721808Y-111153060D01*
X176721802Y-111153059D01*
X176716349Y-111151750D01*
X176603140Y-111145222D01*
X176495537Y-111139017D01*
X176495534Y-111139017D01*
X176489931Y-111138694D01*
X176264781Y-111165941D01*
X176259419Y-111167591D01*
X176259417Y-111167591D01*
X176175583Y-111193382D01*
X176048013Y-111232627D01*
X176012312Y-111251054D01*
X175929885Y-111293598D01*
X175846481Y-111336646D01*
X175666553Y-111474709D01*
X175624113Y-111521350D01*
X175521399Y-111634232D01*
X175513919Y-111642452D01*
X175510938Y-111647203D01*
X175510938Y-111647204D01*
X175411341Y-111805976D01*
X175393401Y-111834574D01*
X175376103Y-111877605D01*
X175332136Y-111933349D01*
X175265011Y-111956474D01*
X175196040Y-111939637D01*
X175145470Y-111884852D01*
X175090410Y-111769416D01*
X175090409Y-111769415D01*
X175087993Y-111764349D01*
X175063218Y-111729871D01*
X174958926Y-111584734D01*
X174958924Y-111584732D01*
X174955649Y-111580174D01*
X174875993Y-111502982D01*
X174796811Y-111426248D01*
X174796808Y-111426246D01*
X174792783Y-111422345D01*
X174704224Y-111362836D01*
X174609195Y-111298979D01*
X174609190Y-111298976D01*
X174604542Y-111295853D01*
X174599410Y-111293600D01*
X174599406Y-111293598D01*
X174438999Y-111223184D01*
X174396876Y-111204693D01*
X174345380Y-111192330D01*
X174181808Y-111153060D01*
X174181802Y-111153059D01*
X174176349Y-111151750D01*
X174063140Y-111145222D01*
X173955537Y-111139017D01*
X173955534Y-111139017D01*
X173949931Y-111138694D01*
X173724781Y-111165941D01*
X173719419Y-111167591D01*
X173719417Y-111167591D01*
X173635583Y-111193382D01*
X173508013Y-111232627D01*
X173472312Y-111251054D01*
X173389885Y-111293598D01*
X173306481Y-111336646D01*
X173126553Y-111474709D01*
X173084113Y-111521350D01*
X172981399Y-111634232D01*
X172973919Y-111642452D01*
X172970942Y-111647198D01*
X172970938Y-111647203D01*
X172953237Y-111675422D01*
X172900094Y-111722500D01*
X172829935Y-111733372D01*
X172765035Y-111704588D01*
X172726000Y-111645286D01*
X172720785Y-111610375D01*
X172720684Y-111610380D01*
X172720626Y-111609310D01*
X172720500Y-111608466D01*
X172720500Y-111603566D01*
X172713745Y-111541384D01*
X172662615Y-111404995D01*
X172575261Y-111288439D01*
X172458705Y-111201085D01*
X172322316Y-111149955D01*
X172260134Y-111143200D01*
X170639866Y-111143200D01*
X170577684Y-111149955D01*
X170441295Y-111201085D01*
X170324739Y-111288439D01*
X170237385Y-111404995D01*
X170186255Y-111541384D01*
X170179500Y-111603566D01*
X170179500Y-114223834D01*
X170186255Y-114286016D01*
X170237385Y-114422405D01*
X170324739Y-114538961D01*
X170441295Y-114626315D01*
X170577684Y-114677445D01*
X170639866Y-114684200D01*
X170665500Y-114684200D01*
X170733621Y-114704202D01*
X170780114Y-114757858D01*
X170791500Y-114810200D01*
X170791500Y-115115500D01*
X170771498Y-115183621D01*
X170717842Y-115230114D01*
X170665500Y-115241500D01*
X151914500Y-115241500D01*
X151846379Y-115221498D01*
X151799886Y-115167842D01*
X151788500Y-115115500D01*
X151788500Y-114810200D01*
X151808502Y-114742079D01*
X151862158Y-114695586D01*
X151914500Y-114684200D01*
X151940134Y-114684200D01*
X152002316Y-114677445D01*
X152138705Y-114626315D01*
X152255261Y-114538961D01*
X152342615Y-114422405D01*
X152393745Y-114286016D01*
X152400500Y-114223834D01*
X152400500Y-114215643D01*
X152420502Y-114147522D01*
X152474158Y-114101029D01*
X152544432Y-114090925D01*
X152609012Y-114120419D01*
X152628819Y-114142113D01*
X152704351Y-114247226D01*
X152736272Y-114278160D01*
X152816701Y-114356101D01*
X152867217Y-114405055D01*
X152893037Y-114422405D01*
X153050805Y-114528421D01*
X153050810Y-114528424D01*
X153055458Y-114531547D01*
X153060590Y-114533800D01*
X153060594Y-114533802D01*
X153153420Y-114574550D01*
X153263124Y-114622707D01*
X153268582Y-114624017D01*
X153268581Y-114624017D01*
X153478192Y-114674340D01*
X153478198Y-114674341D01*
X153483651Y-114675650D01*
X153596860Y-114682178D01*
X153704463Y-114688383D01*
X153704466Y-114688383D01*
X153710069Y-114688706D01*
X153935219Y-114661459D01*
X153940581Y-114659809D01*
X153940583Y-114659809D01*
X154068522Y-114620450D01*
X154151987Y-114594773D01*
X154260120Y-114538961D01*
X154348536Y-114493326D01*
X154348537Y-114493326D01*
X154353519Y-114490754D01*
X154533447Y-114352691D01*
X154653807Y-114220417D01*
X154682308Y-114189095D01*
X154682310Y-114189092D01*
X154686081Y-114184948D01*
X154700436Y-114162064D01*
X154803616Y-113997582D01*
X154803618Y-113997578D01*
X154806599Y-113992826D01*
X154823898Y-113949794D01*
X154867864Y-113894051D01*
X154934989Y-113870926D01*
X155003960Y-113887763D01*
X155054530Y-113942548D01*
X155104258Y-114046804D01*
X155112007Y-114063051D01*
X155115284Y-114067612D01*
X155115285Y-114067613D01*
X155225087Y-114220417D01*
X155244351Y-114247226D01*
X155276272Y-114278160D01*
X155356701Y-114356101D01*
X155407217Y-114405055D01*
X155433037Y-114422405D01*
X155590805Y-114528421D01*
X155590810Y-114528424D01*
X155595458Y-114531547D01*
X155600590Y-114533800D01*
X155600594Y-114533802D01*
X155693420Y-114574550D01*
X155803124Y-114622707D01*
X155808582Y-114624017D01*
X155808581Y-114624017D01*
X156018192Y-114674340D01*
X156018198Y-114674341D01*
X156023651Y-114675650D01*
X156136860Y-114682178D01*
X156244463Y-114688383D01*
X156244466Y-114688383D01*
X156250069Y-114688706D01*
X156475219Y-114661459D01*
X156480581Y-114659809D01*
X156480583Y-114659809D01*
X156608522Y-114620450D01*
X156691987Y-114594773D01*
X156800120Y-114538961D01*
X156888536Y-114493326D01*
X156888537Y-114493326D01*
X156893519Y-114490754D01*
X157073447Y-114352691D01*
X157193807Y-114220417D01*
X157222308Y-114189095D01*
X157222310Y-114189092D01*
X157226081Y-114184948D01*
X157240436Y-114162064D01*
X157343616Y-113997582D01*
X157343618Y-113997578D01*
X157346599Y-113992826D01*
X157363898Y-113949794D01*
X157407864Y-113894051D01*
X157474989Y-113870926D01*
X157543960Y-113887763D01*
X157594530Y-113942548D01*
X157644258Y-114046804D01*
X157652007Y-114063051D01*
X157655284Y-114067612D01*
X157655285Y-114067613D01*
X157765087Y-114220417D01*
X157784351Y-114247226D01*
X157816272Y-114278160D01*
X157896701Y-114356101D01*
X157947217Y-114405055D01*
X157973037Y-114422405D01*
X158130805Y-114528421D01*
X158130810Y-114528424D01*
X158135458Y-114531547D01*
X158140590Y-114533800D01*
X158140594Y-114533802D01*
X158233420Y-114574550D01*
X158343124Y-114622707D01*
X158348582Y-114624017D01*
X158348581Y-114624017D01*
X158558192Y-114674340D01*
X158558198Y-114674341D01*
X158563651Y-114675650D01*
X158676860Y-114682178D01*
X158784463Y-114688383D01*
X158784466Y-114688383D01*
X158790069Y-114688706D01*
X159015219Y-114661459D01*
X159020581Y-114659809D01*
X159020583Y-114659809D01*
X159148522Y-114620450D01*
X159231987Y-114594773D01*
X159340120Y-114538961D01*
X159428536Y-114493326D01*
X159428537Y-114493326D01*
X159433519Y-114490754D01*
X159613447Y-114352691D01*
X159733807Y-114220417D01*
X159762308Y-114189095D01*
X159762310Y-114189092D01*
X159766081Y-114184948D01*
X159780436Y-114162064D01*
X159883616Y-113997582D01*
X159883618Y-113997578D01*
X159886599Y-113992826D01*
X159903898Y-113949794D01*
X159947864Y-113894051D01*
X160014989Y-113870926D01*
X160083960Y-113887763D01*
X160134530Y-113942548D01*
X160184258Y-114046804D01*
X160192007Y-114063051D01*
X160195284Y-114067612D01*
X160195285Y-114067613D01*
X160305087Y-114220417D01*
X160324351Y-114247226D01*
X160356272Y-114278160D01*
X160436701Y-114356101D01*
X160487217Y-114405055D01*
X160513037Y-114422405D01*
X160670805Y-114528421D01*
X160670810Y-114528424D01*
X160675458Y-114531547D01*
X160680590Y-114533800D01*
X160680594Y-114533802D01*
X160773420Y-114574550D01*
X160883124Y-114622707D01*
X160888582Y-114624017D01*
X160888581Y-114624017D01*
X161098192Y-114674340D01*
X161098198Y-114674341D01*
X161103651Y-114675650D01*
X161216860Y-114682178D01*
X161324463Y-114688383D01*
X161324466Y-114688383D01*
X161330069Y-114688706D01*
X161555219Y-114661459D01*
X161560581Y-114659809D01*
X161560583Y-114659809D01*
X161688522Y-114620450D01*
X161771987Y-114594773D01*
X161880120Y-114538961D01*
X161968536Y-114493326D01*
X161968537Y-114493326D01*
X161973519Y-114490754D01*
X162153447Y-114352691D01*
X162273807Y-114220417D01*
X162302308Y-114189095D01*
X162302310Y-114189092D01*
X162306081Y-114184948D01*
X162320436Y-114162064D01*
X162423616Y-113997582D01*
X162423618Y-113997578D01*
X162426599Y-113992826D01*
X162511190Y-113782399D01*
X162557181Y-113560318D01*
X162557447Y-113555706D01*
X162560395Y-113504579D01*
X162560395Y-113504575D01*
X162560500Y-113502756D01*
X162560500Y-112356165D01*
X162545474Y-112187805D01*
X162485630Y-111969049D01*
X162471602Y-111939637D01*
X162390410Y-111769416D01*
X162390409Y-111769415D01*
X162387993Y-111764349D01*
X162363218Y-111729871D01*
X162258926Y-111584734D01*
X162258924Y-111584732D01*
X162255649Y-111580174D01*
X162175993Y-111502982D01*
X162096811Y-111426248D01*
X162096808Y-111426246D01*
X162092783Y-111422345D01*
X162004224Y-111362836D01*
X161909195Y-111298979D01*
X161909190Y-111298976D01*
X161904542Y-111295853D01*
X161899410Y-111293600D01*
X161899406Y-111293598D01*
X161738999Y-111223184D01*
X161696876Y-111204693D01*
X161645380Y-111192330D01*
X161481808Y-111153060D01*
X161481802Y-111153059D01*
X161476349Y-111151750D01*
X161363140Y-111145222D01*
X161255537Y-111139017D01*
X161255534Y-111139017D01*
X161249931Y-111138694D01*
X161024781Y-111165941D01*
X161019419Y-111167591D01*
X161019417Y-111167591D01*
X160935583Y-111193382D01*
X160808013Y-111232627D01*
X160772312Y-111251054D01*
X160689885Y-111293598D01*
X160606481Y-111336646D01*
X160426553Y-111474709D01*
X160384113Y-111521350D01*
X160281399Y-111634232D01*
X160273919Y-111642452D01*
X160270938Y-111647203D01*
X160270938Y-111647204D01*
X160171341Y-111805976D01*
X160153401Y-111834574D01*
X160136103Y-111877605D01*
X160092136Y-111933349D01*
X160025011Y-111956474D01*
X159956040Y-111939637D01*
X159905470Y-111884852D01*
X159850410Y-111769416D01*
X159850409Y-111769415D01*
X159847993Y-111764349D01*
X159823218Y-111729871D01*
X159718926Y-111584734D01*
X159718924Y-111584732D01*
X159715649Y-111580174D01*
X159635993Y-111502982D01*
X159556811Y-111426248D01*
X159556808Y-111426246D01*
X159552783Y-111422345D01*
X159464224Y-111362836D01*
X159369195Y-111298979D01*
X159369190Y-111298976D01*
X159364542Y-111295853D01*
X159359410Y-111293600D01*
X159359406Y-111293598D01*
X159198999Y-111223184D01*
X159156876Y-111204693D01*
X159105380Y-111192330D01*
X158941808Y-111153060D01*
X158941802Y-111153059D01*
X158936349Y-111151750D01*
X158823140Y-111145222D01*
X158715537Y-111139017D01*
X158715534Y-111139017D01*
X158709931Y-111138694D01*
X158484781Y-111165941D01*
X158479419Y-111167591D01*
X158479417Y-111167591D01*
X158395583Y-111193382D01*
X158268013Y-111232627D01*
X158232312Y-111251054D01*
X158149885Y-111293598D01*
X158066481Y-111336646D01*
X157886553Y-111474709D01*
X157844113Y-111521350D01*
X157741399Y-111634232D01*
X157733919Y-111642452D01*
X157730938Y-111647203D01*
X157730938Y-111647204D01*
X157631341Y-111805976D01*
X157613401Y-111834574D01*
X157596103Y-111877605D01*
X157552136Y-111933349D01*
X157485011Y-111956474D01*
X157416040Y-111939637D01*
X157365470Y-111884852D01*
X157310410Y-111769416D01*
X157310409Y-111769415D01*
X157307993Y-111764349D01*
X157283218Y-111729871D01*
X157178926Y-111584734D01*
X157178924Y-111584732D01*
X157175649Y-111580174D01*
X157095993Y-111502982D01*
X157016811Y-111426248D01*
X157016808Y-111426246D01*
X157012783Y-111422345D01*
X156924224Y-111362836D01*
X156878839Y-111308240D01*
X156868500Y-111258254D01*
X156868500Y-110734155D01*
X156870732Y-110710546D01*
X156870939Y-110709462D01*
X156870939Y-110709460D01*
X156872424Y-110701676D01*
X156868749Y-110643264D01*
X156868500Y-110635353D01*
X156868500Y-110618568D01*
X156866396Y-110601910D01*
X156865652Y-110594034D01*
X156862475Y-110543539D01*
X156862475Y-110543537D01*
X156861977Y-110535629D01*
X156859189Y-110527049D01*
X156854014Y-110503895D01*
X156853875Y-110502797D01*
X156852882Y-110494936D01*
X156849966Y-110487571D01*
X156849965Y-110487567D01*
X156831327Y-110440494D01*
X156828645Y-110433044D01*
X156813015Y-110384939D01*
X156813015Y-110384938D01*
X156810564Y-110377396D01*
X156806316Y-110370702D01*
X156806313Y-110370696D01*
X156805724Y-110369768D01*
X156794960Y-110348643D01*
X156794554Y-110347618D01*
X156791635Y-110340244D01*
X156757226Y-110292884D01*
X156752777Y-110286337D01*
X156725665Y-110243616D01*
X156721416Y-110236920D01*
X156714827Y-110230732D01*
X156699149Y-110212949D01*
X156698500Y-110212056D01*
X156693841Y-110205643D01*
X156687731Y-110200588D01*
X156648745Y-110168335D01*
X156642811Y-110163104D01*
X156605910Y-110128453D01*
X156605911Y-110128453D01*
X156600133Y-110123028D01*
X156593191Y-110119212D01*
X156593186Y-110119208D01*
X156592216Y-110118675D01*
X156572605Y-110105348D01*
X156571754Y-110104644D01*
X156565646Y-110099591D01*
X156512685Y-110074669D01*
X156505633Y-110071076D01*
X156461286Y-110046696D01*
X156461285Y-110046695D01*
X156454337Y-110042876D01*
X156446659Y-110040905D01*
X156446657Y-110040904D01*
X156446124Y-110040767D01*
X156445590Y-110040630D01*
X156423278Y-110032597D01*
X156422280Y-110032127D01*
X156422277Y-110032126D01*
X156415105Y-110028751D01*
X156407318Y-110027266D01*
X156407316Y-110027265D01*
X156378608Y-110021789D01*
X156357596Y-110017781D01*
X156349880Y-110016056D01*
X156293188Y-110001500D01*
X156284155Y-110001500D01*
X156260546Y-109999268D01*
X156259462Y-109999061D01*
X156259460Y-109999061D01*
X156251676Y-109997576D01*
X156193265Y-110001251D01*
X156185353Y-110001500D01*
X149792056Y-110001500D01*
X149780200Y-110000941D01*
X149780197Y-110000941D01*
X149772463Y-109999212D01*
X149701631Y-110001438D01*
X149697673Y-110001500D01*
X149668568Y-110001500D01*
X149664168Y-110002056D01*
X149652336Y-110002988D01*
X149606169Y-110004438D01*
X149585579Y-110010420D01*
X149566218Y-110014430D01*
X149559230Y-110015312D01*
X149552796Y-110016125D01*
X149552795Y-110016125D01*
X149544936Y-110017118D01*
X149537571Y-110020034D01*
X149537567Y-110020035D01*
X149501979Y-110034126D01*
X149490769Y-110037965D01*
X149446400Y-110050855D01*
X149427935Y-110061775D01*
X149410195Y-110070466D01*
X149390244Y-110078365D01*
X149353105Y-110105348D01*
X149352874Y-110105516D01*
X149342952Y-110112033D01*
X149310023Y-110131507D01*
X149310019Y-110131510D01*
X149303193Y-110135547D01*
X149288029Y-110150711D01*
X149272996Y-110163551D01*
X149255643Y-110176159D01*
X149235434Y-110200588D01*
X149226198Y-110211752D01*
X149218208Y-110220532D01*
X148104595Y-111334145D01*
X148095815Y-111342135D01*
X148095813Y-111342137D01*
X148089120Y-111346384D01*
X148083694Y-111352162D01*
X148083693Y-111352163D01*
X148040596Y-111398057D01*
X148037841Y-111400899D01*
X148017273Y-111421467D01*
X148014556Y-111424970D01*
X148006848Y-111433995D01*
X147975228Y-111467667D01*
X147971407Y-111474618D01*
X147971406Y-111474619D01*
X147964897Y-111486458D01*
X147954043Y-111502982D01*
X147946218Y-111513071D01*
X147940896Y-111519932D01*
X147937749Y-111527204D01*
X147937748Y-111527206D01*
X147922546Y-111562335D01*
X147917324Y-111572995D01*
X147902385Y-111600169D01*
X147895076Y-111613463D01*
X147889741Y-111634241D01*
X147883342Y-111652931D01*
X147874820Y-111672624D01*
X147873580Y-111680455D01*
X147867594Y-111718248D01*
X147865187Y-111729871D01*
X147863367Y-111736961D01*
X147853700Y-111774612D01*
X147853700Y-111796059D01*
X147852149Y-111815769D01*
X147848794Y-111836952D01*
X147849540Y-111844843D01*
X147853141Y-111882938D01*
X147853700Y-111894796D01*
X147853700Y-113298050D01*
X147833698Y-113366171D01*
X147816795Y-113387145D01*
X147737390Y-113466550D01*
X147675078Y-113500576D01*
X147604263Y-113495511D01*
X147554659Y-113461766D01*
X147471253Y-113369134D01*
X147316752Y-113256882D01*
X147310724Y-113254198D01*
X147310722Y-113254197D01*
X147148319Y-113181891D01*
X147148318Y-113181891D01*
X147142288Y-113179206D01*
X147048887Y-113159353D01*
X146961944Y-113140872D01*
X146961939Y-113140872D01*
X146955487Y-113139500D01*
X146764513Y-113139500D01*
X146758061Y-113140872D01*
X146758056Y-113140872D01*
X146671113Y-113159353D01*
X146577712Y-113179206D01*
X146571682Y-113181891D01*
X146571681Y-113181891D01*
X146409278Y-113254197D01*
X146409276Y-113254198D01*
X146403248Y-113256882D01*
X146397907Y-113260762D01*
X146397906Y-113260763D01*
X146349363Y-113296032D01*
X146254092Y-113365251D01*
X146253837Y-113365436D01*
X146186969Y-113389294D01*
X146179776Y-113389500D01*
X146061849Y-113389500D01*
X145993728Y-113369498D01*
X145947235Y-113315842D01*
X145945618Y-113311739D01*
X145943870Y-113308007D01*
X145941550Y-113301054D01*
X145848478Y-113150652D01*
X145723303Y-113025695D01*
X145719084Y-113023094D01*
X145678583Y-112965970D01*
X145675351Y-112895047D01*
X145710976Y-112833635D01*
X145718530Y-112827078D01*
X145724348Y-112823478D01*
X145849305Y-112698303D01*
X145942115Y-112547738D01*
X145997797Y-112379861D01*
X146008500Y-112275400D01*
X146008500Y-111524600D01*
X146006257Y-111502982D01*
X145998238Y-111425692D01*
X145998237Y-111425688D01*
X145997526Y-111418834D01*
X145995031Y-111411354D01*
X145943868Y-111258002D01*
X145941550Y-111251054D01*
X145848478Y-111100652D01*
X145723303Y-110975695D01*
X145711634Y-110968502D01*
X145578968Y-110886725D01*
X145578966Y-110886724D01*
X145572738Y-110882885D01*
X145565791Y-110880581D01*
X145559156Y-110877487D01*
X145560236Y-110875171D01*
X145511755Y-110841585D01*
X145484518Y-110776021D01*
X145497051Y-110706139D01*
X145545376Y-110654127D01*
X145560482Y-110647212D01*
X145560370Y-110646973D01*
X145566996Y-110643869D01*
X145573946Y-110641550D01*
X145724348Y-110548478D01*
X145849305Y-110423303D01*
X145900504Y-110340244D01*
X145938275Y-110278968D01*
X145938276Y-110278966D01*
X145942115Y-110272738D01*
X145989972Y-110128453D01*
X145995632Y-110111389D01*
X145995632Y-110111387D01*
X145997797Y-110104861D01*
X146000891Y-110074669D01*
X146003557Y-110048646D01*
X146008500Y-110000400D01*
X146008500Y-109199600D01*
X145997526Y-109093834D01*
X145941550Y-108926054D01*
X145848478Y-108775652D01*
X145761891Y-108689216D01*
X145727812Y-108626934D01*
X145732815Y-108556114D01*
X145761736Y-108511025D01*
X145844134Y-108428483D01*
X145849305Y-108423303D01*
X145942115Y-108272738D01*
X145997797Y-108104861D01*
X146008500Y-108000400D01*
X146008500Y-107226248D01*
X146028502Y-107158127D01*
X146083250Y-107111142D01*
X146119717Y-107094905D01*
X146125752Y-107092218D01*
X146280253Y-106979966D01*
X146408040Y-106838044D01*
X146455124Y-106756492D01*
X146506507Y-106707499D01*
X146576221Y-106694064D01*
X146642131Y-106720451D01*
X146653338Y-106730398D01*
X147121845Y-107198905D01*
X147129835Y-107207685D01*
X147134084Y-107214380D01*
X147139862Y-107219806D01*
X147139863Y-107219807D01*
X147185757Y-107262904D01*
X147188599Y-107265659D01*
X147209167Y-107286227D01*
X147212670Y-107288944D01*
X147221695Y-107296652D01*
X147255367Y-107328272D01*
X147262318Y-107332093D01*
X147262319Y-107332094D01*
X147274158Y-107338603D01*
X147290682Y-107349457D01*
X147300771Y-107357282D01*
X147307632Y-107362604D01*
X147314904Y-107365751D01*
X147314906Y-107365752D01*
X147350035Y-107380954D01*
X147360696Y-107386176D01*
X147401163Y-107408424D01*
X147421941Y-107413759D01*
X147440631Y-107420158D01*
X147460324Y-107428680D01*
X147504096Y-107435613D01*
X147505948Y-107435906D01*
X147517571Y-107438313D01*
X147545572Y-107445502D01*
X147562312Y-107449800D01*
X147583759Y-107449800D01*
X147603469Y-107451351D01*
X147624652Y-107454706D01*
X147670641Y-107450359D01*
X147682496Y-107449800D01*
X158115676Y-107449800D01*
X158183797Y-107469802D01*
X158189734Y-107473862D01*
X158339148Y-107582418D01*
X158345176Y-107585102D01*
X158345178Y-107585103D01*
X158507581Y-107657409D01*
X158513612Y-107660094D01*
X158607013Y-107679947D01*
X158693956Y-107698428D01*
X158693961Y-107698428D01*
X158700413Y-107699800D01*
X158891387Y-107699800D01*
X158897839Y-107698428D01*
X158897844Y-107698428D01*
X158984787Y-107679947D01*
X159078188Y-107660094D01*
X159084219Y-107657409D01*
X159246622Y-107585103D01*
X159246624Y-107585102D01*
X159252652Y-107582418D01*
X159407153Y-107470166D01*
X159435834Y-107438313D01*
X159530521Y-107333152D01*
X159530522Y-107333151D01*
X159534940Y-107328244D01*
X159605793Y-107205524D01*
X159627123Y-107168579D01*
X159627124Y-107168578D01*
X159630427Y-107162856D01*
X159689442Y-106981228D01*
X159709404Y-106791300D01*
X159689442Y-106601372D01*
X159630427Y-106419744D01*
X159534940Y-106254356D01*
X159407153Y-106112434D01*
X159252652Y-106000182D01*
X159246624Y-105997498D01*
X159246622Y-105997497D01*
X159084219Y-105925191D01*
X159084218Y-105925191D01*
X159078188Y-105922506D01*
X158984787Y-105902653D01*
X158897844Y-105884172D01*
X158897839Y-105884172D01*
X158891387Y-105882800D01*
X158700413Y-105882800D01*
X158693961Y-105884172D01*
X158693956Y-105884172D01*
X158607013Y-105902653D01*
X158513612Y-105922506D01*
X158507582Y-105925191D01*
X158507581Y-105925191D01*
X158345178Y-105997497D01*
X158345176Y-105997498D01*
X158339148Y-106000182D01*
X158189992Y-106108551D01*
X158189737Y-106108736D01*
X158122869Y-106132594D01*
X158115676Y-106132800D01*
X147970450Y-106132800D01*
X147902329Y-106112798D01*
X147881355Y-106095895D01*
X145633055Y-103847595D01*
X145625065Y-103838815D01*
X145625063Y-103838813D01*
X145620816Y-103832120D01*
X145613160Y-103824930D01*
X145569143Y-103783596D01*
X145566301Y-103780841D01*
X145545733Y-103760273D01*
X145542226Y-103757553D01*
X145533204Y-103749847D01*
X145505313Y-103723656D01*
X145499533Y-103718228D01*
X145487164Y-103711428D01*
X145480742Y-103707897D01*
X145464218Y-103697043D01*
X145453532Y-103688755D01*
X145447268Y-103683896D01*
X145439996Y-103680749D01*
X145439994Y-103680748D01*
X145404865Y-103665546D01*
X145394205Y-103660324D01*
X145360684Y-103641895D01*
X145360682Y-103641894D01*
X145353737Y-103638076D01*
X145332959Y-103632741D01*
X145314269Y-103626342D01*
X145294576Y-103617820D01*
X145248952Y-103610594D01*
X145237329Y-103608187D01*
X145209328Y-103600998D01*
X145192588Y-103596700D01*
X145171141Y-103596700D01*
X145151431Y-103595149D01*
X145138077Y-103593034D01*
X145130248Y-103591794D01*
X145084259Y-103596141D01*
X145072404Y-103596700D01*
X131928650Y-103596700D01*
X131860529Y-103576698D01*
X131839553Y-103559794D01*
X131812968Y-103533208D01*
X131778944Y-103470895D01*
X131776755Y-103457285D01*
X131764232Y-103338136D01*
X131764232Y-103338135D01*
X131763542Y-103331572D01*
X131760965Y-103323639D01*
X131716231Y-103185966D01*
X131704527Y-103149944D01*
X131609040Y-102984556D01*
X131602075Y-102976820D01*
X131485675Y-102847545D01*
X131485674Y-102847544D01*
X131481253Y-102842634D01*
X131336191Y-102737240D01*
X131332094Y-102734263D01*
X131332093Y-102734262D01*
X131326752Y-102730382D01*
X131320724Y-102727698D01*
X131320722Y-102727697D01*
X131158319Y-102655391D01*
X131158318Y-102655391D01*
X131152288Y-102652706D01*
X131044788Y-102629856D01*
X130971944Y-102614372D01*
X130971939Y-102614372D01*
X130965487Y-102613000D01*
X130774513Y-102613000D01*
X130768061Y-102614372D01*
X130768056Y-102614372D01*
X130695212Y-102629856D01*
X130587712Y-102652706D01*
X130581682Y-102655391D01*
X130581681Y-102655391D01*
X130419278Y-102727697D01*
X130419276Y-102727698D01*
X130413248Y-102730382D01*
X130407907Y-102734262D01*
X130407906Y-102734263D01*
X130403809Y-102737240D01*
X130258747Y-102842634D01*
X130254326Y-102847544D01*
X130254325Y-102847545D01*
X130137926Y-102976820D01*
X130130960Y-102984556D01*
X130035473Y-103149944D01*
X129976458Y-103331572D01*
X129975768Y-103338133D01*
X129975768Y-103338135D01*
X129969810Y-103394820D01*
X129956496Y-103521500D01*
X129957186Y-103528065D01*
X129973977Y-103687819D01*
X129976458Y-103711428D01*
X130035473Y-103893056D01*
X130038776Y-103898778D01*
X130038777Y-103898779D01*
X130055183Y-103927195D01*
X130130960Y-104058444D01*
X130135378Y-104063351D01*
X130135379Y-104063352D01*
X130222938Y-104160596D01*
X130258747Y-104200366D01*
X130413248Y-104312618D01*
X130419276Y-104315302D01*
X130419278Y-104315303D01*
X130521795Y-104360946D01*
X130587712Y-104390294D01*
X130681112Y-104410147D01*
X130768056Y-104428628D01*
X130768061Y-104428628D01*
X130774513Y-104430000D01*
X130795051Y-104430000D01*
X130863172Y-104450002D01*
X130884146Y-104466905D01*
X131080041Y-104662800D01*
X131088031Y-104671581D01*
X131088039Y-104671590D01*
X131092284Y-104678280D01*
X131098059Y-104683703D01*
X131143973Y-104726819D01*
X131146815Y-104729574D01*
X131167367Y-104750126D01*
X131170501Y-104752557D01*
X131170863Y-104752838D01*
X131179891Y-104760548D01*
X131213567Y-104792172D01*
X131220518Y-104795993D01*
X131220519Y-104795994D01*
X131232355Y-104802501D01*
X131248884Y-104813358D01*
X131259569Y-104821647D01*
X131259571Y-104821648D01*
X131265831Y-104826504D01*
X131308244Y-104844857D01*
X131318881Y-104850068D01*
X131359363Y-104872324D01*
X131367042Y-104874296D01*
X131367043Y-104874296D01*
X131380134Y-104877657D01*
X131398836Y-104884059D01*
X131418523Y-104892579D01*
X131426352Y-104893819D01*
X131464148Y-104899805D01*
X131475774Y-104902213D01*
X131512835Y-104911729D01*
X131512836Y-104911729D01*
X131520512Y-104913700D01*
X131541958Y-104913700D01*
X131561668Y-104915251D01*
X131582851Y-104918606D01*
X131618342Y-104915251D01*
X131628836Y-104914259D01*
X131640694Y-104913700D01*
X144784450Y-104913700D01*
X144852571Y-104933702D01*
X144873545Y-104950605D01*
X145236544Y-105313604D01*
X145270570Y-105375916D01*
X145265505Y-105446731D01*
X145222958Y-105503567D01*
X145215275Y-105508634D01*
X145212248Y-105509982D01*
X145057747Y-105622234D01*
X144929960Y-105764156D01*
X144926659Y-105769874D01*
X144839329Y-105921134D01*
X144834473Y-105929544D01*
X144775458Y-106111172D01*
X144774768Y-106117735D01*
X144774768Y-106117736D01*
X144762245Y-106236886D01*
X144735232Y-106302542D01*
X144726030Y-106312810D01*
X144584245Y-106454595D01*
X144521933Y-106488621D01*
X144495150Y-106491500D01*
X144299600Y-106491500D01*
X144296354Y-106491837D01*
X144296350Y-106491837D01*
X144200692Y-106501762D01*
X144200688Y-106501763D01*
X144193834Y-106502474D01*
X144187298Y-106504655D01*
X144187296Y-106504655D01*
X144055194Y-106548728D01*
X144026054Y-106558450D01*
X143875652Y-106651522D01*
X143750695Y-106776697D01*
X143746855Y-106782927D01*
X143746854Y-106782928D01*
X143709855Y-106842952D01*
X143657885Y-106927262D01*
X143602203Y-107095139D01*
X143601503Y-107101975D01*
X143601502Y-107101978D01*
X143599800Y-107118592D01*
X143591500Y-107199600D01*
X143591500Y-108000400D01*
X143602474Y-108106166D01*
X143658450Y-108273946D01*
X143751522Y-108424348D01*
X143756704Y-108429521D01*
X143838109Y-108510784D01*
X143872188Y-108573066D01*
X143867185Y-108643886D01*
X143838264Y-108688975D01*
X143762940Y-108764431D01*
X143750695Y-108776697D01*
X143657885Y-108927262D01*
X143602203Y-109095139D01*
X143591500Y-109199600D01*
X143591500Y-110000400D01*
X143591837Y-110003646D01*
X143591837Y-110003650D01*
X143601442Y-110096216D01*
X143602474Y-110106166D01*
X143604655Y-110112702D01*
X143604655Y-110112704D01*
X143627864Y-110182268D01*
X143658450Y-110273946D01*
X143751522Y-110424348D01*
X143876697Y-110549305D01*
X143882927Y-110553145D01*
X143882928Y-110553146D01*
X144020090Y-110637694D01*
X144027262Y-110642115D01*
X144034209Y-110644419D01*
X144040844Y-110647513D01*
X144039764Y-110649829D01*
X144088245Y-110683415D01*
X144115482Y-110748979D01*
X144102949Y-110818861D01*
X144054624Y-110870873D01*
X144039518Y-110877788D01*
X144039630Y-110878027D01*
X144033004Y-110881131D01*
X144026054Y-110883450D01*
X143875652Y-110976522D01*
X143750695Y-111101697D01*
X143746855Y-111107927D01*
X143746854Y-111107928D01*
X143671005Y-111230978D01*
X143657885Y-111252262D01*
X143645886Y-111288439D01*
X143608585Y-111400899D01*
X143602203Y-111420139D01*
X143601503Y-111426975D01*
X143601502Y-111426978D01*
X143597870Y-111462432D01*
X143591500Y-111524600D01*
X143591500Y-112275400D01*
X143591837Y-112278646D01*
X143591837Y-112278650D01*
X143600171Y-112358967D01*
X143602474Y-112381166D01*
X143658450Y-112548946D01*
X143751522Y-112699348D01*
X143876697Y-112824305D01*
X143880916Y-112826906D01*
X143921417Y-112884030D01*
X143924649Y-112954953D01*
X143889024Y-113016365D01*
X143881470Y-113022922D01*
X143875652Y-113026522D01*
X143750695Y-113151697D01*
X143746855Y-113157927D01*
X143746854Y-113157928D01*
X143698756Y-113235958D01*
X143657885Y-113302262D01*
X143602203Y-113470139D01*
X143601503Y-113476975D01*
X143601502Y-113476978D01*
X143599603Y-113495511D01*
X143591500Y-113574600D01*
X143591500Y-114220400D01*
X143571498Y-114288521D01*
X143517842Y-114335014D01*
X143465500Y-114346400D01*
X139572580Y-114346400D01*
X139504459Y-114326398D01*
X139457966Y-114272742D01*
X139447862Y-114202468D01*
X139465843Y-114153444D01*
X139469965Y-114146874D01*
X139524879Y-114059333D01*
X139563616Y-113997582D01*
X139563618Y-113997578D01*
X139566599Y-113992826D01*
X139651190Y-113782399D01*
X139697181Y-113560318D01*
X139697447Y-113555706D01*
X139700395Y-113504579D01*
X139700395Y-113504575D01*
X139700500Y-113502756D01*
X139700500Y-112356165D01*
X139685474Y-112187805D01*
X139625630Y-111969049D01*
X139611602Y-111939637D01*
X139530410Y-111769416D01*
X139530409Y-111769415D01*
X139527993Y-111764349D01*
X139503218Y-111729871D01*
X139398926Y-111584734D01*
X139398924Y-111584732D01*
X139395649Y-111580174D01*
X139315993Y-111502982D01*
X139236811Y-111426248D01*
X139236808Y-111426246D01*
X139232783Y-111422345D01*
X139144224Y-111362836D01*
X139049195Y-111298979D01*
X139049190Y-111298976D01*
X139044542Y-111295853D01*
X139039410Y-111293600D01*
X139039406Y-111293598D01*
X138878999Y-111223184D01*
X138836876Y-111204693D01*
X138785380Y-111192330D01*
X138621808Y-111153060D01*
X138621802Y-111153059D01*
X138616349Y-111151750D01*
X138503140Y-111145222D01*
X138395537Y-111139017D01*
X138395534Y-111139017D01*
X138389931Y-111138694D01*
X138164781Y-111165941D01*
X138159419Y-111167591D01*
X138159417Y-111167591D01*
X138075583Y-111193382D01*
X137948013Y-111232627D01*
X137912312Y-111251054D01*
X137829885Y-111293598D01*
X137746481Y-111336646D01*
X137566553Y-111474709D01*
X137524113Y-111521350D01*
X137421399Y-111634232D01*
X137413919Y-111642452D01*
X137410938Y-111647203D01*
X137410938Y-111647204D01*
X137311341Y-111805976D01*
X137293401Y-111834574D01*
X137276103Y-111877605D01*
X137232136Y-111933349D01*
X137165011Y-111956474D01*
X137096040Y-111939637D01*
X137045470Y-111884852D01*
X136990410Y-111769416D01*
X136990409Y-111769415D01*
X136987993Y-111764349D01*
X136963218Y-111729871D01*
X136858926Y-111584734D01*
X136858924Y-111584732D01*
X136855649Y-111580174D01*
X136775993Y-111502982D01*
X136696811Y-111426248D01*
X136696808Y-111426246D01*
X136692783Y-111422345D01*
X136604224Y-111362836D01*
X136509195Y-111298979D01*
X136509190Y-111298976D01*
X136504542Y-111295853D01*
X136499410Y-111293600D01*
X136499406Y-111293598D01*
X136338999Y-111223184D01*
X136296876Y-111204693D01*
X136245380Y-111192330D01*
X136081808Y-111153060D01*
X136081802Y-111153059D01*
X136076349Y-111151750D01*
X135963140Y-111145222D01*
X135855537Y-111139017D01*
X135855534Y-111139017D01*
X135849931Y-111138694D01*
X135624781Y-111165941D01*
X135619419Y-111167591D01*
X135619417Y-111167591D01*
X135535583Y-111193382D01*
X135408013Y-111232627D01*
X135372312Y-111251054D01*
X135289885Y-111293598D01*
X135206481Y-111336646D01*
X135026553Y-111474709D01*
X134984113Y-111521350D01*
X134881399Y-111634232D01*
X134873919Y-111642452D01*
X134870938Y-111647203D01*
X134870938Y-111647204D01*
X134771341Y-111805976D01*
X134753401Y-111834574D01*
X134736103Y-111877605D01*
X134692136Y-111933349D01*
X134625011Y-111956474D01*
X134556040Y-111939637D01*
X134505470Y-111884852D01*
X134450410Y-111769416D01*
X134450409Y-111769415D01*
X134447993Y-111764349D01*
X134423218Y-111729871D01*
X134318926Y-111584734D01*
X134318924Y-111584732D01*
X134315649Y-111580174D01*
X134235993Y-111502982D01*
X134156811Y-111426248D01*
X134156808Y-111426246D01*
X134152783Y-111422345D01*
X134064885Y-111363280D01*
X134019500Y-111308684D01*
X134009223Y-111262657D01*
X134008562Y-111241632D01*
X134008500Y-111237673D01*
X134008500Y-111208568D01*
X134007944Y-111204168D01*
X134007012Y-111192330D01*
X134005811Y-111154094D01*
X134005562Y-111146169D01*
X133999580Y-111125579D01*
X133995570Y-111106216D01*
X133993875Y-111092796D01*
X133993875Y-111092795D01*
X133992882Y-111084936D01*
X133989966Y-111077571D01*
X133989965Y-111077567D01*
X133975874Y-111041979D01*
X133972035Y-111030769D01*
X133959145Y-110986400D01*
X133948225Y-110967935D01*
X133939534Y-110950195D01*
X133931635Y-110930244D01*
X133904482Y-110892871D01*
X133897967Y-110882952D01*
X133878493Y-110850023D01*
X133878490Y-110850019D01*
X133874453Y-110843193D01*
X133859289Y-110828029D01*
X133846448Y-110812995D01*
X133838501Y-110802057D01*
X133833841Y-110795643D01*
X133798247Y-110766197D01*
X133789468Y-110758208D01*
X132913655Y-109882395D01*
X132905665Y-109873615D01*
X132905663Y-109873613D01*
X132901416Y-109866920D01*
X132849742Y-109818395D01*
X132846901Y-109815641D01*
X132826333Y-109795073D01*
X132822826Y-109792353D01*
X132813804Y-109784647D01*
X132785913Y-109758456D01*
X132780133Y-109753028D01*
X132773181Y-109749206D01*
X132761342Y-109742697D01*
X132744818Y-109731843D01*
X132734132Y-109723555D01*
X132727868Y-109718696D01*
X132720596Y-109715549D01*
X132720594Y-109715548D01*
X132685465Y-109700346D01*
X132674805Y-109695124D01*
X132641284Y-109676695D01*
X132641282Y-109676694D01*
X132634337Y-109672876D01*
X132613559Y-109667541D01*
X132594869Y-109661142D01*
X132575176Y-109652620D01*
X132529552Y-109645394D01*
X132517929Y-109642987D01*
X132489928Y-109635798D01*
X132473188Y-109631500D01*
X132451741Y-109631500D01*
X132432031Y-109629949D01*
X132418677Y-109627834D01*
X132410848Y-109626594D01*
X132364859Y-109630941D01*
X132353004Y-109631500D01*
X129982649Y-109631500D01*
X129914528Y-109611498D01*
X129893554Y-109594595D01*
X120464505Y-100165545D01*
X120430479Y-100103233D01*
X120427600Y-100076450D01*
X120427600Y-98974559D01*
X120447602Y-98906438D01*
X120459964Y-98890249D01*
X120503721Y-98841652D01*
X120503722Y-98841651D01*
X120508140Y-98836744D01*
X120603627Y-98671356D01*
X120662642Y-98489728D01*
X120682604Y-98299800D01*
X120672342Y-98202165D01*
X120663332Y-98116435D01*
X120663332Y-98116433D01*
X120662642Y-98109872D01*
X120603627Y-97928244D01*
X120508140Y-97762856D01*
X120416294Y-97660850D01*
X120384775Y-97625845D01*
X120384774Y-97625844D01*
X120380353Y-97620934D01*
X120243694Y-97521645D01*
X120231194Y-97512563D01*
X120231193Y-97512562D01*
X120225852Y-97508682D01*
X120219824Y-97505998D01*
X120219822Y-97505997D01*
X120057419Y-97433691D01*
X120057418Y-97433691D01*
X120051388Y-97431006D01*
X119944862Y-97408363D01*
X119871044Y-97392672D01*
X119871039Y-97392672D01*
X119864587Y-97391300D01*
X119673613Y-97391300D01*
X119667161Y-97392672D01*
X119667156Y-97392672D01*
X119593338Y-97408363D01*
X119486812Y-97431006D01*
X119480782Y-97433691D01*
X119480781Y-97433691D01*
X119318378Y-97505997D01*
X119318376Y-97505998D01*
X119312348Y-97508682D01*
X119307007Y-97512562D01*
X119307006Y-97512563D01*
X119206605Y-97585509D01*
X119139737Y-97609367D01*
X119070586Y-97593287D01*
X119038910Y-97567886D01*
X118992853Y-97516734D01*
X118838352Y-97404482D01*
X118832324Y-97401798D01*
X118832322Y-97401797D01*
X118669919Y-97329491D01*
X118669918Y-97329491D01*
X118663888Y-97326806D01*
X118570487Y-97306953D01*
X118483544Y-97288472D01*
X118483539Y-97288472D01*
X118477087Y-97287100D01*
X118286113Y-97287100D01*
X118279661Y-97288472D01*
X118279656Y-97288472D01*
X118192712Y-97306953D01*
X118099312Y-97326806D01*
X118093282Y-97329491D01*
X118093281Y-97329491D01*
X117930878Y-97401797D01*
X117930876Y-97401798D01*
X117924848Y-97404482D01*
X117770347Y-97516734D01*
X117642560Y-97658656D01*
X117547073Y-97824044D01*
X117488058Y-98005672D01*
X117487368Y-98012233D01*
X117487368Y-98012235D01*
X117482635Y-98057266D01*
X117468096Y-98195600D01*
X117468786Y-98202165D01*
X117487008Y-98375534D01*
X117488058Y-98385528D01*
X117547073Y-98567156D01*
X117642560Y-98732544D01*
X117646978Y-98737451D01*
X117646979Y-98737452D01*
X117690736Y-98786049D01*
X117721454Y-98850056D01*
X117723100Y-98870359D01*
X117723100Y-99780644D01*
X117722541Y-99792500D01*
X117720812Y-99800237D01*
X117721192Y-99812315D01*
X117723038Y-99871069D01*
X117723100Y-99875027D01*
X117723100Y-99904132D01*
X117723656Y-99908532D01*
X117724588Y-99920364D01*
X117726038Y-99966531D01*
X117728250Y-99974144D01*
X117728250Y-99974145D01*
X117732019Y-99987116D01*
X117736030Y-100006482D01*
X117738718Y-100027764D01*
X117741634Y-100035129D01*
X117741635Y-100035133D01*
X117755726Y-100070721D01*
X117759565Y-100081931D01*
X117772455Y-100126300D01*
X117783375Y-100144765D01*
X117792066Y-100162505D01*
X117799965Y-100182456D01*
X117825863Y-100218102D01*
X117827116Y-100219826D01*
X117833633Y-100229748D01*
X117853107Y-100262677D01*
X117853110Y-100262681D01*
X117857147Y-100269507D01*
X117872311Y-100284671D01*
X117885151Y-100299704D01*
X117897759Y-100317057D01*
X117933352Y-100346502D01*
X117942132Y-100354492D01*
X128515745Y-110928105D01*
X128549771Y-110990417D01*
X128544706Y-111061232D01*
X128502159Y-111118068D01*
X128435639Y-111142879D01*
X128426650Y-111143200D01*
X127459866Y-111143200D01*
X127397684Y-111149955D01*
X127261295Y-111201085D01*
X127144739Y-111288439D01*
X127057385Y-111404995D01*
X127006255Y-111541384D01*
X126999500Y-111603566D01*
X126999500Y-114223834D01*
X127006255Y-114286016D01*
X127057385Y-114422405D01*
X127144739Y-114538961D01*
X127261295Y-114626315D01*
X127397684Y-114677445D01*
X127459866Y-114684200D01*
X127485500Y-114684200D01*
X127553621Y-114704202D01*
X127600114Y-114757858D01*
X127611500Y-114810200D01*
X127611500Y-115115500D01*
X127591498Y-115183621D01*
X127537842Y-115230114D01*
X127485500Y-115241500D01*
X108484500Y-115241500D01*
X108416379Y-115221498D01*
X108369886Y-115167842D01*
X108358500Y-115115500D01*
X108358500Y-114810200D01*
X108378502Y-114742079D01*
X108432158Y-114695586D01*
X108484500Y-114684200D01*
X108760134Y-114684200D01*
X108822316Y-114677445D01*
X108958705Y-114626315D01*
X109075261Y-114538961D01*
X109162615Y-114422405D01*
X109213745Y-114286016D01*
X109220500Y-114223834D01*
X109220500Y-114215643D01*
X109240502Y-114147522D01*
X109294158Y-114101029D01*
X109364432Y-114090925D01*
X109429012Y-114120419D01*
X109448819Y-114142113D01*
X109524351Y-114247226D01*
X109556272Y-114278160D01*
X109636701Y-114356101D01*
X109687217Y-114405055D01*
X109713037Y-114422405D01*
X109870805Y-114528421D01*
X109870810Y-114528424D01*
X109875458Y-114531547D01*
X109880590Y-114533800D01*
X109880594Y-114533802D01*
X109973420Y-114574550D01*
X110083124Y-114622707D01*
X110088582Y-114624017D01*
X110088581Y-114624017D01*
X110298192Y-114674340D01*
X110298198Y-114674341D01*
X110303651Y-114675650D01*
X110416860Y-114682178D01*
X110524463Y-114688383D01*
X110524466Y-114688383D01*
X110530069Y-114688706D01*
X110755219Y-114661459D01*
X110760581Y-114659809D01*
X110760583Y-114659809D01*
X110888522Y-114620450D01*
X110971987Y-114594773D01*
X111080120Y-114538961D01*
X111168536Y-114493326D01*
X111168537Y-114493326D01*
X111173519Y-114490754D01*
X111353447Y-114352691D01*
X111473807Y-114220417D01*
X111502308Y-114189095D01*
X111502310Y-114189092D01*
X111506081Y-114184948D01*
X111520436Y-114162064D01*
X111623616Y-113997582D01*
X111623618Y-113997578D01*
X111626599Y-113992826D01*
X111643898Y-113949794D01*
X111687864Y-113894051D01*
X111754989Y-113870926D01*
X111823960Y-113887763D01*
X111874530Y-113942548D01*
X111924258Y-114046804D01*
X111932007Y-114063051D01*
X111935284Y-114067612D01*
X111935285Y-114067613D01*
X112045087Y-114220417D01*
X112064351Y-114247226D01*
X112096272Y-114278160D01*
X112176701Y-114356101D01*
X112227217Y-114405055D01*
X112253037Y-114422405D01*
X112410805Y-114528421D01*
X112410810Y-114528424D01*
X112415458Y-114531547D01*
X112420590Y-114533800D01*
X112420594Y-114533802D01*
X112513420Y-114574550D01*
X112623124Y-114622707D01*
X112628582Y-114624017D01*
X112628581Y-114624017D01*
X112838192Y-114674340D01*
X112838198Y-114674341D01*
X112843651Y-114675650D01*
X112956860Y-114682178D01*
X113064463Y-114688383D01*
X113064466Y-114688383D01*
X113070069Y-114688706D01*
X113295219Y-114661459D01*
X113300581Y-114659809D01*
X113300583Y-114659809D01*
X113428522Y-114620450D01*
X113511987Y-114594773D01*
X113620120Y-114538961D01*
X113708536Y-114493326D01*
X113708537Y-114493326D01*
X113713519Y-114490754D01*
X113893447Y-114352691D01*
X114013807Y-114220417D01*
X114042308Y-114189095D01*
X114042310Y-114189092D01*
X114046081Y-114184948D01*
X114060436Y-114162064D01*
X114163616Y-113997582D01*
X114163618Y-113997578D01*
X114166599Y-113992826D01*
X114183898Y-113949794D01*
X114227864Y-113894051D01*
X114294989Y-113870926D01*
X114363960Y-113887763D01*
X114414530Y-113942548D01*
X114464258Y-114046804D01*
X114472007Y-114063051D01*
X114475284Y-114067612D01*
X114475285Y-114067613D01*
X114585087Y-114220417D01*
X114604351Y-114247226D01*
X114636272Y-114278160D01*
X114716701Y-114356101D01*
X114767217Y-114405055D01*
X114793037Y-114422405D01*
X114950805Y-114528421D01*
X114950810Y-114528424D01*
X114955458Y-114531547D01*
X114960590Y-114533800D01*
X114960594Y-114533802D01*
X115053420Y-114574550D01*
X115163124Y-114622707D01*
X115168582Y-114624017D01*
X115168581Y-114624017D01*
X115378192Y-114674340D01*
X115378198Y-114674341D01*
X115383651Y-114675650D01*
X115496860Y-114682178D01*
X115604463Y-114688383D01*
X115604466Y-114688383D01*
X115610069Y-114688706D01*
X115835219Y-114661459D01*
X115840581Y-114659809D01*
X115840583Y-114659809D01*
X115968522Y-114620450D01*
X116051987Y-114594773D01*
X116160120Y-114538961D01*
X116248536Y-114493326D01*
X116248537Y-114493326D01*
X116253519Y-114490754D01*
X116433447Y-114352691D01*
X116553807Y-114220417D01*
X116582308Y-114189095D01*
X116582310Y-114189092D01*
X116586081Y-114184948D01*
X116600436Y-114162064D01*
X116703616Y-113997582D01*
X116703618Y-113997578D01*
X116706599Y-113992826D01*
X116723898Y-113949794D01*
X116767864Y-113894051D01*
X116834989Y-113870926D01*
X116903960Y-113887763D01*
X116954530Y-113942548D01*
X117004258Y-114046804D01*
X117012007Y-114063051D01*
X117015284Y-114067612D01*
X117015285Y-114067613D01*
X117125087Y-114220417D01*
X117144351Y-114247226D01*
X117176272Y-114278160D01*
X117256701Y-114356101D01*
X117307217Y-114405055D01*
X117333037Y-114422405D01*
X117490805Y-114528421D01*
X117490810Y-114528424D01*
X117495458Y-114531547D01*
X117500590Y-114533800D01*
X117500594Y-114533802D01*
X117593420Y-114574550D01*
X117703124Y-114622707D01*
X117708582Y-114624017D01*
X117708581Y-114624017D01*
X117918192Y-114674340D01*
X117918198Y-114674341D01*
X117923651Y-114675650D01*
X118036860Y-114682178D01*
X118144463Y-114688383D01*
X118144466Y-114688383D01*
X118150069Y-114688706D01*
X118375219Y-114661459D01*
X118380581Y-114659809D01*
X118380583Y-114659809D01*
X118508522Y-114620450D01*
X118591987Y-114594773D01*
X118700120Y-114538961D01*
X118788536Y-114493326D01*
X118788537Y-114493326D01*
X118793519Y-114490754D01*
X118973447Y-114352691D01*
X119093807Y-114220417D01*
X119122308Y-114189095D01*
X119122310Y-114189092D01*
X119126081Y-114184948D01*
X119140436Y-114162064D01*
X119243616Y-113997582D01*
X119243618Y-113997578D01*
X119246599Y-113992826D01*
X119331190Y-113782399D01*
X119377181Y-113560318D01*
X119377447Y-113555706D01*
X119380395Y-113504579D01*
X119380395Y-113504575D01*
X119380500Y-113502756D01*
X119380500Y-112356165D01*
X119365474Y-112187805D01*
X119305630Y-111969049D01*
X119291602Y-111939637D01*
X119210410Y-111769416D01*
X119210409Y-111769415D01*
X119207993Y-111764349D01*
X119183218Y-111729871D01*
X119078926Y-111584734D01*
X119078924Y-111584732D01*
X119075649Y-111580174D01*
X118995993Y-111502982D01*
X118916811Y-111426248D01*
X118916808Y-111426246D01*
X118912783Y-111422345D01*
X118824224Y-111362836D01*
X118729195Y-111298979D01*
X118729190Y-111298976D01*
X118724542Y-111295853D01*
X118719410Y-111293600D01*
X118719406Y-111293598D01*
X118558999Y-111223184D01*
X118516876Y-111204693D01*
X118465380Y-111192330D01*
X118301808Y-111153060D01*
X118301802Y-111153059D01*
X118296349Y-111151750D01*
X118183140Y-111145222D01*
X118075537Y-111139017D01*
X118075534Y-111139017D01*
X118069931Y-111138694D01*
X117844781Y-111165941D01*
X117839419Y-111167591D01*
X117839417Y-111167591D01*
X117755583Y-111193382D01*
X117628013Y-111232627D01*
X117592312Y-111251054D01*
X117509885Y-111293598D01*
X117426481Y-111336646D01*
X117246553Y-111474709D01*
X117204113Y-111521350D01*
X117101399Y-111634232D01*
X117093919Y-111642452D01*
X117090938Y-111647203D01*
X117090938Y-111647204D01*
X116991341Y-111805976D01*
X116973401Y-111834574D01*
X116956103Y-111877605D01*
X116912136Y-111933349D01*
X116845011Y-111956474D01*
X116776040Y-111939637D01*
X116725470Y-111884852D01*
X116670410Y-111769416D01*
X116670409Y-111769415D01*
X116667993Y-111764349D01*
X116643218Y-111729871D01*
X116538926Y-111584734D01*
X116538924Y-111584732D01*
X116535649Y-111580174D01*
X116455993Y-111502982D01*
X116376811Y-111426248D01*
X116376808Y-111426246D01*
X116372783Y-111422345D01*
X116284224Y-111362836D01*
X116189195Y-111298979D01*
X116189190Y-111298976D01*
X116184542Y-111295853D01*
X116179410Y-111293600D01*
X116179406Y-111293598D01*
X116018999Y-111223184D01*
X115976876Y-111204693D01*
X115925380Y-111192330D01*
X115761808Y-111153060D01*
X115761802Y-111153059D01*
X115756349Y-111151750D01*
X115643140Y-111145222D01*
X115535537Y-111139017D01*
X115535534Y-111139017D01*
X115529931Y-111138694D01*
X115304781Y-111165941D01*
X115299419Y-111167591D01*
X115299417Y-111167591D01*
X115215583Y-111193382D01*
X115088013Y-111232627D01*
X115052312Y-111251054D01*
X114969885Y-111293598D01*
X114886481Y-111336646D01*
X114706553Y-111474709D01*
X114664113Y-111521350D01*
X114561399Y-111634232D01*
X114553919Y-111642452D01*
X114550938Y-111647203D01*
X114550938Y-111647204D01*
X114451341Y-111805976D01*
X114433401Y-111834574D01*
X114416103Y-111877605D01*
X114372136Y-111933349D01*
X114305011Y-111956474D01*
X114236040Y-111939637D01*
X114185470Y-111884852D01*
X114130410Y-111769416D01*
X114130409Y-111769415D01*
X114127993Y-111764349D01*
X114103218Y-111729871D01*
X113998926Y-111584734D01*
X113998924Y-111584732D01*
X113995649Y-111580174D01*
X113915993Y-111502982D01*
X113836811Y-111426248D01*
X113836808Y-111426246D01*
X113832783Y-111422345D01*
X113744224Y-111362836D01*
X113649195Y-111298979D01*
X113649190Y-111298976D01*
X113644542Y-111295853D01*
X113639410Y-111293600D01*
X113639406Y-111293598D01*
X113478999Y-111223184D01*
X113436876Y-111204693D01*
X113385380Y-111192330D01*
X113221808Y-111153060D01*
X113221802Y-111153059D01*
X113216349Y-111151750D01*
X113103140Y-111145222D01*
X112995537Y-111139017D01*
X112995534Y-111139017D01*
X112989931Y-111138694D01*
X112764781Y-111165941D01*
X112759419Y-111167591D01*
X112759417Y-111167591D01*
X112675583Y-111193382D01*
X112548013Y-111232627D01*
X112512312Y-111251054D01*
X112429885Y-111293598D01*
X112346481Y-111336646D01*
X112166553Y-111474709D01*
X112124113Y-111521350D01*
X112021399Y-111634232D01*
X112013919Y-111642452D01*
X112010938Y-111647203D01*
X112010938Y-111647204D01*
X111911341Y-111805976D01*
X111893401Y-111834574D01*
X111876103Y-111877605D01*
X111832136Y-111933349D01*
X111765011Y-111956474D01*
X111696040Y-111939637D01*
X111645470Y-111884852D01*
X111590410Y-111769416D01*
X111590409Y-111769415D01*
X111587993Y-111764349D01*
X111563218Y-111729871D01*
X111458926Y-111584734D01*
X111458924Y-111584732D01*
X111455649Y-111580174D01*
X111375993Y-111502982D01*
X111296811Y-111426248D01*
X111296808Y-111426246D01*
X111292783Y-111422345D01*
X111204224Y-111362836D01*
X111109195Y-111298979D01*
X111109190Y-111298976D01*
X111104542Y-111295853D01*
X111099410Y-111293600D01*
X111099406Y-111293598D01*
X110938999Y-111223184D01*
X110896876Y-111204693D01*
X110845380Y-111192330D01*
X110681808Y-111153060D01*
X110681802Y-111153059D01*
X110676349Y-111151750D01*
X110563140Y-111145222D01*
X110455537Y-111139017D01*
X110455534Y-111139017D01*
X110449931Y-111138694D01*
X110224781Y-111165941D01*
X110219419Y-111167591D01*
X110219417Y-111167591D01*
X110135583Y-111193382D01*
X110008013Y-111232627D01*
X109972312Y-111251054D01*
X109889885Y-111293598D01*
X109806481Y-111336646D01*
X109626553Y-111474709D01*
X109584113Y-111521350D01*
X109481399Y-111634232D01*
X109473919Y-111642452D01*
X109470942Y-111647198D01*
X109470938Y-111647203D01*
X109453237Y-111675422D01*
X109400094Y-111722500D01*
X109329935Y-111733372D01*
X109265035Y-111704588D01*
X109226000Y-111645286D01*
X109220785Y-111610375D01*
X109220684Y-111610380D01*
X109220626Y-111609310D01*
X109220500Y-111608466D01*
X109220500Y-111603566D01*
X109213745Y-111541384D01*
X109162615Y-111404995D01*
X109075261Y-111288439D01*
X108958705Y-111201085D01*
X108822316Y-111149955D01*
X108760134Y-111143200D01*
X108734500Y-111143200D01*
X108666379Y-111123198D01*
X108619886Y-111069542D01*
X108608500Y-111017200D01*
X108608500Y-103957350D01*
X108628502Y-103889229D01*
X108645405Y-103868255D01*
X116916455Y-95597205D01*
X116978767Y-95563179D01*
X117005550Y-95560300D01*
X130649456Y-95560300D01*
X130717577Y-95580302D01*
X130764070Y-95633958D01*
X130774174Y-95704232D01*
X130770133Y-95721609D01*
X130769499Y-95724589D01*
X130767458Y-95730872D01*
X130766768Y-95737438D01*
X130766767Y-95737442D01*
X130750749Y-95889851D01*
X130747496Y-95920800D01*
X130748186Y-95927365D01*
X130764563Y-96083180D01*
X130767458Y-96110728D01*
X130826473Y-96292356D01*
X130921960Y-96457744D01*
X130926378Y-96462651D01*
X130926379Y-96462652D01*
X131044404Y-96593732D01*
X131049747Y-96599666D01*
X131204248Y-96711918D01*
X131210276Y-96714602D01*
X131210278Y-96714603D01*
X131355041Y-96779055D01*
X131378712Y-96789594D01*
X131470805Y-96809169D01*
X131559056Y-96827928D01*
X131559061Y-96827928D01*
X131565513Y-96829300D01*
X131756487Y-96829300D01*
X131762939Y-96827928D01*
X131762944Y-96827928D01*
X131851195Y-96809169D01*
X131943288Y-96789594D01*
X131966959Y-96779055D01*
X132111722Y-96714603D01*
X132111724Y-96714602D01*
X132117752Y-96711918D01*
X132272253Y-96599666D01*
X132278036Y-96593244D01*
X132369655Y-96491490D01*
X132430101Y-96454250D01*
X132463291Y-96449800D01*
X140376650Y-96449800D01*
X140444771Y-96469802D01*
X140491264Y-96523458D01*
X140501368Y-96593732D01*
X140471874Y-96658312D01*
X140465745Y-96664895D01*
X138494445Y-98636195D01*
X138432133Y-98670221D01*
X138405350Y-98673100D01*
X138384813Y-98673100D01*
X138378361Y-98674472D01*
X138378356Y-98674472D01*
X138291413Y-98692953D01*
X138198012Y-98712806D01*
X138191982Y-98715491D01*
X138191981Y-98715491D01*
X138029578Y-98787797D01*
X138029576Y-98787798D01*
X138023548Y-98790482D01*
X137869047Y-98902734D01*
X137864626Y-98907644D01*
X137864625Y-98907645D01*
X137804376Y-98974559D01*
X137741260Y-99044656D01*
X137645773Y-99210044D01*
X137586758Y-99391672D01*
X137566796Y-99581600D01*
X137567486Y-99588165D01*
X137578255Y-99690630D01*
X137565483Y-99760468D01*
X137516980Y-99812315D01*
X137452945Y-99829800D01*
X131881804Y-99829800D01*
X131813683Y-99809798D01*
X131767190Y-99756142D01*
X131761971Y-99742737D01*
X131706568Y-99572226D01*
X131704527Y-99565944D01*
X131609040Y-99400556D01*
X131481253Y-99258634D01*
X131326752Y-99146382D01*
X131320724Y-99143698D01*
X131320722Y-99143697D01*
X131158319Y-99071391D01*
X131158318Y-99071391D01*
X131152288Y-99068706D01*
X131058888Y-99048853D01*
X130971944Y-99030372D01*
X130971939Y-99030372D01*
X130965487Y-99029000D01*
X130774513Y-99029000D01*
X130768061Y-99030372D01*
X130768056Y-99030372D01*
X130681112Y-99048853D01*
X130587712Y-99068706D01*
X130581682Y-99071391D01*
X130581681Y-99071391D01*
X130419278Y-99143697D01*
X130419276Y-99143698D01*
X130413248Y-99146382D01*
X130258747Y-99258634D01*
X130130960Y-99400556D01*
X130035473Y-99565944D01*
X129976458Y-99747572D01*
X129975768Y-99754133D01*
X129975768Y-99754135D01*
X129963478Y-99871069D01*
X129956496Y-99937500D01*
X129957186Y-99944065D01*
X129971679Y-100081955D01*
X129976458Y-100127428D01*
X130035473Y-100309056D01*
X130038776Y-100314778D01*
X130038777Y-100314779D01*
X130072686Y-100373510D01*
X130130960Y-100474444D01*
X130258747Y-100616366D01*
X130413248Y-100728618D01*
X130419276Y-100731302D01*
X130419278Y-100731303D01*
X130581681Y-100803609D01*
X130587712Y-100806294D01*
X130681112Y-100826147D01*
X130768056Y-100844628D01*
X130768061Y-100844628D01*
X130774513Y-100846000D01*
X130795050Y-100846000D01*
X130863171Y-100866002D01*
X130884145Y-100882905D01*
X130897145Y-100895905D01*
X130905135Y-100904685D01*
X130909384Y-100911380D01*
X130915162Y-100916806D01*
X130915163Y-100916807D01*
X130961057Y-100959904D01*
X130963899Y-100962659D01*
X130984467Y-100983227D01*
X130987970Y-100985944D01*
X130996995Y-100993652D01*
X131030667Y-101025272D01*
X131037618Y-101029093D01*
X131037619Y-101029094D01*
X131049458Y-101035603D01*
X131065982Y-101046457D01*
X131076071Y-101054282D01*
X131082932Y-101059604D01*
X131090204Y-101062751D01*
X131090206Y-101062752D01*
X131125335Y-101077954D01*
X131135995Y-101083176D01*
X131165968Y-101099654D01*
X131176463Y-101105424D01*
X131197241Y-101110759D01*
X131215931Y-101117158D01*
X131235624Y-101125680D01*
X131270363Y-101131182D01*
X131281248Y-101132906D01*
X131292871Y-101135313D01*
X131317554Y-101141650D01*
X131337612Y-101146800D01*
X131359059Y-101146800D01*
X131378769Y-101148351D01*
X131399952Y-101151706D01*
X131445941Y-101147359D01*
X131457796Y-101146800D01*
X139865044Y-101146800D01*
X139876900Y-101147359D01*
X139876903Y-101147359D01*
X139884637Y-101149088D01*
X139955469Y-101146862D01*
X139959427Y-101146800D01*
X139988532Y-101146800D01*
X139992932Y-101146244D01*
X140004764Y-101145312D01*
X140050931Y-101143862D01*
X140071521Y-101137880D01*
X140090882Y-101133870D01*
X140098516Y-101132906D01*
X140104304Y-101132175D01*
X140104305Y-101132175D01*
X140112164Y-101131182D01*
X140119529Y-101128266D01*
X140119533Y-101128265D01*
X140155121Y-101114174D01*
X140166331Y-101110335D01*
X140210700Y-101097445D01*
X140229165Y-101086525D01*
X140246905Y-101077834D01*
X140266856Y-101069935D01*
X140304229Y-101042782D01*
X140314148Y-101036267D01*
X140347077Y-101016793D01*
X140347081Y-101016790D01*
X140353907Y-101012753D01*
X140369071Y-100997589D01*
X140384105Y-100984748D01*
X140401457Y-100972141D01*
X140430903Y-100936547D01*
X140438892Y-100927768D01*
X143623255Y-97743405D01*
X143685567Y-97709379D01*
X143712350Y-97706500D01*
X149661850Y-97706500D01*
X149729971Y-97726502D01*
X149750945Y-97743405D01*
X154099030Y-102091489D01*
X154133056Y-102153801D01*
X154135245Y-102167412D01*
X154148458Y-102293128D01*
X154150498Y-102299405D01*
X154150498Y-102299407D01*
X154156293Y-102317242D01*
X154207473Y-102474756D01*
X154210776Y-102480478D01*
X154210777Y-102480479D01*
X154225355Y-102505728D01*
X154302960Y-102640144D01*
X154307378Y-102645051D01*
X154307379Y-102645052D01*
X154390830Y-102737734D01*
X154430747Y-102782066D01*
X154490457Y-102825448D01*
X154549515Y-102868356D01*
X154585248Y-102894318D01*
X154591276Y-102897002D01*
X154591278Y-102897003D01*
X154690208Y-102941049D01*
X154759712Y-102971994D01*
X154845712Y-102990274D01*
X154940056Y-103010328D01*
X154940061Y-103010328D01*
X154946513Y-103011700D01*
X154967050Y-103011700D01*
X155035171Y-103031702D01*
X155056145Y-103048605D01*
X155485245Y-103477705D01*
X155519271Y-103540017D01*
X155514206Y-103610832D01*
X155471659Y-103667668D01*
X155405139Y-103692479D01*
X155396150Y-103692800D01*
X153950050Y-103692800D01*
X153881929Y-103672798D01*
X153860955Y-103655895D01*
X152475070Y-102270010D01*
X152441044Y-102207698D01*
X152438855Y-102194086D01*
X152426332Y-102074936D01*
X152426332Y-102074935D01*
X152425642Y-102068372D01*
X152366627Y-101886744D01*
X152271140Y-101721356D01*
X152163455Y-101601759D01*
X152147775Y-101584345D01*
X152147774Y-101584344D01*
X152143353Y-101579434D01*
X151988852Y-101467182D01*
X151982824Y-101464498D01*
X151982822Y-101464497D01*
X151820419Y-101392191D01*
X151820418Y-101392191D01*
X151814388Y-101389506D01*
X151720988Y-101369653D01*
X151634044Y-101351172D01*
X151634039Y-101351172D01*
X151627587Y-101349800D01*
X151436613Y-101349800D01*
X151430161Y-101351172D01*
X151430156Y-101351172D01*
X151343212Y-101369653D01*
X151249812Y-101389506D01*
X151243782Y-101392191D01*
X151243781Y-101392191D01*
X151081378Y-101464497D01*
X151081376Y-101464498D01*
X151075348Y-101467182D01*
X150920847Y-101579434D01*
X150916426Y-101584344D01*
X150916425Y-101584345D01*
X150900746Y-101601759D01*
X150793060Y-101721356D01*
X150697573Y-101886744D01*
X150638558Y-102068372D01*
X150637868Y-102074933D01*
X150637868Y-102074935D01*
X150631876Y-102131951D01*
X150618596Y-102258300D01*
X150619286Y-102264865D01*
X150622257Y-102293128D01*
X150638558Y-102448228D01*
X150697573Y-102629856D01*
X150700876Y-102635578D01*
X150700877Y-102635579D01*
X150727142Y-102681071D01*
X150793060Y-102795244D01*
X150797478Y-102800151D01*
X150797479Y-102800152D01*
X150907415Y-102922248D01*
X150920847Y-102937166D01*
X151075348Y-103049418D01*
X151081376Y-103052102D01*
X151081378Y-103052103D01*
X151210526Y-103109603D01*
X151249812Y-103127094D01*
X151343212Y-103146947D01*
X151430156Y-103165428D01*
X151430161Y-103165428D01*
X151436613Y-103166800D01*
X151457150Y-103166800D01*
X151525271Y-103186802D01*
X151546245Y-103203705D01*
X153101445Y-104758905D01*
X153109435Y-104767685D01*
X153113684Y-104774380D01*
X153119462Y-104779806D01*
X153119463Y-104779807D01*
X153165357Y-104822904D01*
X153168199Y-104825659D01*
X153188767Y-104846227D01*
X153192270Y-104848944D01*
X153201295Y-104856652D01*
X153234967Y-104888272D01*
X153241918Y-104892093D01*
X153241919Y-104892094D01*
X153253758Y-104898603D01*
X153270282Y-104909457D01*
X153280371Y-104917282D01*
X153287232Y-104922604D01*
X153294504Y-104925751D01*
X153294506Y-104925752D01*
X153329635Y-104940954D01*
X153340296Y-104946176D01*
X153380763Y-104968424D01*
X153401541Y-104973759D01*
X153420231Y-104980158D01*
X153439924Y-104988680D01*
X153483696Y-104995613D01*
X153485548Y-104995906D01*
X153497171Y-104998313D01*
X153525172Y-105005502D01*
X153541912Y-105009800D01*
X153563359Y-105009800D01*
X153583069Y-105011351D01*
X153604252Y-105014706D01*
X153650241Y-105010359D01*
X153662096Y-105009800D01*
X162858176Y-105009800D01*
X162926297Y-105029802D01*
X162932234Y-105033862D01*
X162960175Y-105054162D01*
X163061739Y-105127953D01*
X163081648Y-105142418D01*
X163087676Y-105145102D01*
X163087678Y-105145103D01*
X163250081Y-105217409D01*
X163256112Y-105220094D01*
X163348463Y-105239724D01*
X163436456Y-105258428D01*
X163436461Y-105258428D01*
X163442913Y-105259800D01*
X163633887Y-105259800D01*
X163640339Y-105258428D01*
X163640344Y-105258428D01*
X163728337Y-105239724D01*
X163820688Y-105220094D01*
X163826719Y-105217409D01*
X163989122Y-105145103D01*
X163989124Y-105145102D01*
X163995152Y-105142418D01*
X164029412Y-105117527D01*
X164116625Y-105054162D01*
X164149653Y-105030166D01*
X164221311Y-104950581D01*
X164281753Y-104913344D01*
X164352737Y-104914695D01*
X164404039Y-104945799D01*
X164488445Y-105030205D01*
X164496435Y-105038985D01*
X164500684Y-105045680D01*
X164506462Y-105051106D01*
X164506463Y-105051107D01*
X164552357Y-105094204D01*
X164555199Y-105096959D01*
X164575767Y-105117527D01*
X164579270Y-105120244D01*
X164588295Y-105127952D01*
X164621967Y-105159572D01*
X164628918Y-105163393D01*
X164628919Y-105163394D01*
X164640758Y-105169903D01*
X164657282Y-105180757D01*
X164667371Y-105188582D01*
X164674232Y-105193904D01*
X164681504Y-105197051D01*
X164681506Y-105197052D01*
X164716635Y-105212254D01*
X164727295Y-105217476D01*
X164757268Y-105233954D01*
X164767763Y-105239724D01*
X164788541Y-105245059D01*
X164807231Y-105251458D01*
X164826924Y-105259980D01*
X164861663Y-105265482D01*
X164872548Y-105267206D01*
X164884171Y-105269613D01*
X164908854Y-105275950D01*
X164928912Y-105281100D01*
X164950359Y-105281100D01*
X164970069Y-105282651D01*
X164991252Y-105286006D01*
X165037241Y-105281659D01*
X165049096Y-105281100D01*
X168375644Y-105281100D01*
X168387500Y-105281659D01*
X168387503Y-105281659D01*
X168395237Y-105283388D01*
X168466069Y-105281162D01*
X168470027Y-105281100D01*
X168499132Y-105281100D01*
X168503532Y-105280544D01*
X168515364Y-105279612D01*
X168561531Y-105278162D01*
X168582121Y-105272180D01*
X168601482Y-105268170D01*
X168609116Y-105267206D01*
X168614904Y-105266475D01*
X168614905Y-105266475D01*
X168622764Y-105265482D01*
X168630129Y-105262566D01*
X168630133Y-105262565D01*
X168665721Y-105248474D01*
X168676931Y-105244635D01*
X168721300Y-105231745D01*
X168739765Y-105220825D01*
X168757505Y-105212134D01*
X168777456Y-105204235D01*
X168814829Y-105177082D01*
X168824748Y-105170567D01*
X168857677Y-105151093D01*
X168857681Y-105151090D01*
X168864507Y-105147053D01*
X168879671Y-105131889D01*
X168894705Y-105119048D01*
X168912057Y-105106441D01*
X168941503Y-105070847D01*
X168949492Y-105062068D01*
X170750355Y-103261205D01*
X170812667Y-103227179D01*
X170839450Y-103224300D01*
X170859987Y-103224300D01*
X170866439Y-103222928D01*
X170866444Y-103222928D01*
X170984160Y-103197906D01*
X171046788Y-103184594D01*
X171071297Y-103173682D01*
X171215222Y-103109603D01*
X171215224Y-103109602D01*
X171221252Y-103106918D01*
X171236734Y-103095670D01*
X171300394Y-103049418D01*
X171375753Y-102994666D01*
X171385642Y-102983683D01*
X171499121Y-102857652D01*
X171499122Y-102857651D01*
X171503540Y-102852744D01*
X171589132Y-102704495D01*
X171595723Y-102693079D01*
X171595724Y-102693078D01*
X171599027Y-102687356D01*
X171658042Y-102505728D01*
X171664086Y-102448228D01*
X171677314Y-102322365D01*
X171678004Y-102315800D01*
X171666642Y-102207698D01*
X171658732Y-102132435D01*
X171658732Y-102132433D01*
X171658042Y-102125872D01*
X171599027Y-101944244D01*
X171503540Y-101778856D01*
X171493257Y-101767435D01*
X171380175Y-101641845D01*
X171380174Y-101641844D01*
X171375753Y-101636934D01*
X171221252Y-101524682D01*
X171215224Y-101521998D01*
X171215222Y-101521997D01*
X171052819Y-101449691D01*
X171052818Y-101449691D01*
X171046788Y-101447006D01*
X170953387Y-101427153D01*
X170866444Y-101408672D01*
X170866439Y-101408672D01*
X170859987Y-101407300D01*
X170669013Y-101407300D01*
X170662561Y-101408672D01*
X170662556Y-101408672D01*
X170575612Y-101427153D01*
X170482212Y-101447006D01*
X170476182Y-101449691D01*
X170476181Y-101449691D01*
X170313778Y-101521997D01*
X170313776Y-101521998D01*
X170307748Y-101524682D01*
X170153247Y-101636934D01*
X170148826Y-101641844D01*
X170148825Y-101641845D01*
X170035744Y-101767435D01*
X170025460Y-101778856D01*
X169929973Y-101944244D01*
X169927931Y-101950529D01*
X169887509Y-102074935D01*
X169870958Y-102125872D01*
X169870268Y-102132435D01*
X169870268Y-102132436D01*
X169857745Y-102251586D01*
X169830732Y-102317242D01*
X169821530Y-102327510D01*
X168221845Y-103927195D01*
X168159533Y-103961221D01*
X168132750Y-103964100D01*
X166489593Y-103964100D01*
X166421472Y-103944098D01*
X166374979Y-103890442D01*
X166364283Y-103824930D01*
X166369114Y-103778965D01*
X166369804Y-103772400D01*
X166365993Y-103736146D01*
X166370307Y-103687819D01*
X166371429Y-103683957D01*
X166374580Y-103676676D01*
X166381806Y-103631052D01*
X166384213Y-103619429D01*
X166393728Y-103582368D01*
X166395700Y-103574688D01*
X166395700Y-103553241D01*
X166397251Y-103533531D01*
X166398117Y-103528065D01*
X166400606Y-103512348D01*
X166396259Y-103466359D01*
X166395700Y-103454504D01*
X166395700Y-94373059D01*
X166396259Y-94361203D01*
X166397989Y-94353463D01*
X166395762Y-94282611D01*
X166395700Y-94278653D01*
X166395700Y-94249568D01*
X166395146Y-94245179D01*
X166394213Y-94233337D01*
X166393011Y-94195094D01*
X166392762Y-94187169D01*
X166386780Y-94166579D01*
X166382770Y-94147216D01*
X166381075Y-94133796D01*
X166381075Y-94133795D01*
X166380082Y-94125936D01*
X166377166Y-94118571D01*
X166377165Y-94118567D01*
X166363074Y-94082979D01*
X166359235Y-94071769D01*
X166346345Y-94027400D01*
X166335425Y-94008935D01*
X166326734Y-93991195D01*
X166318835Y-93971244D01*
X166291682Y-93933871D01*
X166285167Y-93923952D01*
X166265693Y-93891023D01*
X166265690Y-93891019D01*
X166261653Y-93884193D01*
X166246489Y-93869029D01*
X166233648Y-93853995D01*
X166225701Y-93843057D01*
X166221041Y-93836643D01*
X166185447Y-93807197D01*
X166176668Y-93799208D01*
X162299855Y-89922395D01*
X162291865Y-89913615D01*
X162291863Y-89913613D01*
X162287616Y-89906920D01*
X162270575Y-89890917D01*
X162235943Y-89858396D01*
X162233101Y-89855641D01*
X162212533Y-89835073D01*
X162209026Y-89832353D01*
X162200004Y-89824647D01*
X162172113Y-89798456D01*
X162166333Y-89793028D01*
X162159381Y-89789206D01*
X162147542Y-89782697D01*
X162131018Y-89771843D01*
X162120332Y-89763555D01*
X162114068Y-89758696D01*
X162106796Y-89755549D01*
X162106794Y-89755548D01*
X162071665Y-89740346D01*
X162061005Y-89735124D01*
X162027484Y-89716695D01*
X162027482Y-89716694D01*
X162020537Y-89712876D01*
X162012857Y-89710904D01*
X162005489Y-89707987D01*
X162006647Y-89705063D01*
X161958188Y-89676224D01*
X161926493Y-89612694D01*
X161934177Y-89542115D01*
X161973817Y-89490525D01*
X161975310Y-89489380D01*
X162153447Y-89352691D01*
X162306081Y-89184948D01*
X162382547Y-89063051D01*
X162423616Y-88997582D01*
X162423619Y-88997576D01*
X162426599Y-88992826D01*
X162511190Y-88782399D01*
X162557181Y-88560318D01*
X162560500Y-88502756D01*
X162560500Y-87356165D01*
X162545474Y-87187805D01*
X162485630Y-86969049D01*
X162471602Y-86939637D01*
X162390410Y-86769416D01*
X162390409Y-86769415D01*
X162387993Y-86764349D01*
X162297421Y-86638305D01*
X162258926Y-86584734D01*
X162258924Y-86584732D01*
X162255649Y-86580174D01*
X162251623Y-86576273D01*
X162251614Y-86576262D01*
X162181465Y-86508283D01*
X162146465Y-86446513D01*
X162150417Y-86375627D01*
X162192066Y-86318130D01*
X162258189Y-86292278D01*
X162269150Y-86291800D01*
X170467981Y-86291800D01*
X170536102Y-86311802D01*
X170582595Y-86365458D01*
X170592699Y-86435732D01*
X170561175Y-86502599D01*
X170440601Y-86635109D01*
X170433919Y-86642452D01*
X170430938Y-86647203D01*
X170430938Y-86647204D01*
X170354275Y-86769416D01*
X170313401Y-86834574D01*
X170228810Y-87045001D01*
X170182819Y-87267082D01*
X170182553Y-87271693D01*
X170182553Y-87271694D01*
X170181196Y-87295238D01*
X170179500Y-87324644D01*
X170179500Y-88471235D01*
X170194526Y-88639595D01*
X170254370Y-88858351D01*
X170256782Y-88863409D01*
X170256784Y-88863413D01*
X170316026Y-88987616D01*
X170352007Y-89063051D01*
X170355284Y-89067612D01*
X170355285Y-89067613D01*
X170450839Y-89200589D01*
X170484351Y-89247226D01*
X170559710Y-89320254D01*
X170596701Y-89356101D01*
X170647217Y-89405055D01*
X170672519Y-89422057D01*
X170830805Y-89528421D01*
X170830810Y-89528424D01*
X170835458Y-89531547D01*
X170840590Y-89533800D01*
X170840594Y-89533802D01*
X170949467Y-89581594D01*
X171043124Y-89622707D01*
X171048582Y-89624017D01*
X171048581Y-89624017D01*
X171258192Y-89674340D01*
X171258198Y-89674341D01*
X171263651Y-89675650D01*
X171376860Y-89682178D01*
X171484463Y-89688383D01*
X171484466Y-89688383D01*
X171490069Y-89688706D01*
X171715219Y-89661459D01*
X171720581Y-89659809D01*
X171720583Y-89659809D01*
X171841185Y-89622707D01*
X171931987Y-89594773D01*
X172049530Y-89534104D01*
X172128536Y-89493326D01*
X172128537Y-89493326D01*
X172133519Y-89490754D01*
X172313447Y-89352691D01*
X172466081Y-89184948D01*
X172542547Y-89063051D01*
X172583616Y-88997582D01*
X172583619Y-88997576D01*
X172586599Y-88992826D01*
X172603898Y-88949794D01*
X172647864Y-88894051D01*
X172714989Y-88870926D01*
X172783960Y-88887763D01*
X172834530Y-88942548D01*
X172892007Y-89063051D01*
X172895284Y-89067612D01*
X172895285Y-89067613D01*
X172990839Y-89200589D01*
X173024351Y-89247226D01*
X173099710Y-89320254D01*
X173136701Y-89356101D01*
X173187217Y-89405055D01*
X173212519Y-89422057D01*
X173370805Y-89528421D01*
X173370810Y-89528424D01*
X173375458Y-89531547D01*
X173380590Y-89533800D01*
X173380594Y-89533802D01*
X173489467Y-89581594D01*
X173583124Y-89622707D01*
X173588582Y-89624017D01*
X173588581Y-89624017D01*
X173798192Y-89674340D01*
X173798198Y-89674341D01*
X173803651Y-89675650D01*
X173916860Y-89682178D01*
X174024463Y-89688383D01*
X174024466Y-89688383D01*
X174030069Y-89688706D01*
X174255219Y-89661459D01*
X174260581Y-89659809D01*
X174260583Y-89659809D01*
X174438451Y-89605090D01*
X174509442Y-89604178D01*
X174569656Y-89641791D01*
X174599977Y-89705987D01*
X174601500Y-89725520D01*
X174601500Y-90383050D01*
X174581498Y-90451171D01*
X174564595Y-90472145D01*
X169409545Y-95627195D01*
X169347233Y-95661221D01*
X169320450Y-95664100D01*
X169299913Y-95664100D01*
X169293461Y-95665472D01*
X169293456Y-95665472D01*
X169233079Y-95678306D01*
X169113112Y-95703806D01*
X169107082Y-95706491D01*
X169107081Y-95706491D01*
X168944678Y-95778797D01*
X168944676Y-95778798D01*
X168938648Y-95781482D01*
X168784147Y-95893734D01*
X168779726Y-95898644D01*
X168779725Y-95898645D01*
X168753866Y-95927365D01*
X168656360Y-96035656D01*
X168560873Y-96201044D01*
X168501858Y-96382672D01*
X168481896Y-96572600D01*
X168482586Y-96579165D01*
X168490905Y-96658312D01*
X168501858Y-96762528D01*
X168560873Y-96944156D01*
X168656360Y-97109544D01*
X168660778Y-97114451D01*
X168660779Y-97114452D01*
X168771754Y-97237702D01*
X168784147Y-97251466D01*
X168938648Y-97363718D01*
X168944676Y-97366402D01*
X168944678Y-97366403D01*
X169107081Y-97438709D01*
X169113112Y-97441394D01*
X169185963Y-97456879D01*
X169293456Y-97479728D01*
X169293461Y-97479728D01*
X169299913Y-97481100D01*
X169490887Y-97481100D01*
X169497339Y-97479728D01*
X169497344Y-97479728D01*
X169604837Y-97456879D01*
X169677688Y-97441394D01*
X169683719Y-97438709D01*
X169846122Y-97366403D01*
X169846124Y-97366402D01*
X169852152Y-97363718D01*
X170006653Y-97251466D01*
X170019046Y-97237702D01*
X170130021Y-97114452D01*
X170130022Y-97114451D01*
X170134440Y-97109544D01*
X170229927Y-96944156D01*
X170285801Y-96772194D01*
X170286902Y-96768807D01*
X170286902Y-96768805D01*
X170288942Y-96762528D01*
X170302155Y-96636813D01*
X170329168Y-96571158D01*
X170338370Y-96560890D01*
X175603605Y-91295655D01*
X175665917Y-91261629D01*
X175736732Y-91266694D01*
X175793568Y-91309241D01*
X175818379Y-91375761D01*
X175818700Y-91384750D01*
X175818700Y-103770544D01*
X175818141Y-103782400D01*
X175816412Y-103790137D01*
X175817942Y-103838815D01*
X175818638Y-103860969D01*
X175818700Y-103864927D01*
X175818700Y-103894032D01*
X175819256Y-103898432D01*
X175820188Y-103910264D01*
X175821638Y-103956431D01*
X175823850Y-103964044D01*
X175823850Y-103964045D01*
X175827619Y-103977016D01*
X175831630Y-103996384D01*
X175833203Y-104008834D01*
X175834318Y-104017664D01*
X175837234Y-104025029D01*
X175837235Y-104025033D01*
X175851326Y-104060621D01*
X175855165Y-104071831D01*
X175868055Y-104116200D01*
X175878975Y-104134665D01*
X175887666Y-104152405D01*
X175895565Y-104172356D01*
X175918737Y-104204249D01*
X175922716Y-104209726D01*
X175929233Y-104219648D01*
X175948707Y-104252577D01*
X175948710Y-104252581D01*
X175952747Y-104259407D01*
X175967911Y-104274571D01*
X175980751Y-104289604D01*
X175993359Y-104306957D01*
X176003448Y-104315303D01*
X176028952Y-104336402D01*
X176037732Y-104344392D01*
X176390230Y-104696890D01*
X176424256Y-104759202D01*
X176426444Y-104772811D01*
X176433866Y-104843419D01*
X176438138Y-104884062D01*
X176439658Y-104898528D01*
X176498673Y-105080156D01*
X176501976Y-105085878D01*
X176501977Y-105085879D01*
X176507558Y-105095545D01*
X176594160Y-105245544D01*
X176598578Y-105250451D01*
X176598579Y-105250452D01*
X176629920Y-105285260D01*
X176721947Y-105387466D01*
X176876448Y-105499718D01*
X176882476Y-105502402D01*
X176882478Y-105502403D01*
X176908218Y-105513863D01*
X177050912Y-105577394D01*
X177144313Y-105597247D01*
X177231256Y-105615728D01*
X177231261Y-105615728D01*
X177237713Y-105617100D01*
X177428687Y-105617100D01*
X177435139Y-105615728D01*
X177435144Y-105615728D01*
X177522087Y-105597247D01*
X177615488Y-105577394D01*
X177758182Y-105513863D01*
X177783922Y-105502403D01*
X177783924Y-105502402D01*
X177789952Y-105499718D01*
X177944453Y-105387466D01*
X178036480Y-105285260D01*
X178067821Y-105250452D01*
X178067822Y-105250451D01*
X178072240Y-105245544D01*
X178158842Y-105095545D01*
X178164423Y-105085879D01*
X178164424Y-105085878D01*
X178167727Y-105080156D01*
X178226742Y-104898528D01*
X178228263Y-104884062D01*
X178246014Y-104715165D01*
X178246704Y-104708600D01*
X178226742Y-104518672D01*
X178167727Y-104337044D01*
X178072240Y-104171656D01*
X178067820Y-104166748D01*
X178063941Y-104161408D01*
X178065058Y-104160596D01*
X178037511Y-104103189D01*
X178046279Y-104032736D01*
X178059928Y-104008834D01*
X178062025Y-104005947D01*
X178066440Y-104001044D01*
X178161927Y-103835656D01*
X178220942Y-103654028D01*
X178224579Y-103619429D01*
X178240214Y-103470665D01*
X178240904Y-103464100D01*
X178233784Y-103396355D01*
X178221632Y-103280735D01*
X178221632Y-103280733D01*
X178220942Y-103274172D01*
X178161927Y-103092544D01*
X178149835Y-103071599D01*
X178102582Y-102989755D01*
X178066440Y-102927156D01*
X178018264Y-102873651D01*
X177987546Y-102809644D01*
X177985900Y-102789341D01*
X177985900Y-99984208D01*
X178005902Y-99916087D01*
X178018264Y-99899898D01*
X178119421Y-99787552D01*
X178119422Y-99787551D01*
X178123840Y-99782644D01*
X178194395Y-99660440D01*
X178216023Y-99622979D01*
X178216024Y-99622978D01*
X178219327Y-99617256D01*
X178278342Y-99435628D01*
X178298304Y-99245700D01*
X178279984Y-99071391D01*
X178279032Y-99062335D01*
X178279032Y-99062333D01*
X178278342Y-99055772D01*
X178219327Y-98874144D01*
X178123840Y-98708756D01*
X177996053Y-98566834D01*
X177841552Y-98454582D01*
X177835524Y-98451898D01*
X177835522Y-98451897D01*
X177673119Y-98379591D01*
X177673118Y-98379591D01*
X177667088Y-98376906D01*
X177573687Y-98357053D01*
X177486744Y-98338572D01*
X177486739Y-98338572D01*
X177480287Y-98337200D01*
X177289313Y-98337200D01*
X177282856Y-98338572D01*
X177276285Y-98339263D01*
X177276004Y-98336592D01*
X177217108Y-98332099D01*
X177160475Y-98289283D01*
X177135980Y-98222646D01*
X177135700Y-98214254D01*
X177135700Y-89920327D01*
X177144292Y-89875288D01*
X177147124Y-89870137D01*
X177150139Y-89858396D01*
X177152457Y-89849366D01*
X177158859Y-89830664D01*
X177167379Y-89810977D01*
X177172615Y-89777920D01*
X177174605Y-89765352D01*
X177177013Y-89753726D01*
X177186529Y-89716665D01*
X177186529Y-89716664D01*
X177188500Y-89708988D01*
X177188500Y-89687542D01*
X177190051Y-89667831D01*
X177192166Y-89654478D01*
X177193406Y-89646649D01*
X177189356Y-89603805D01*
X177202859Y-89534104D01*
X177251901Y-89482768D01*
X177320912Y-89466095D01*
X177387982Y-89489380D01*
X177403892Y-89502852D01*
X181289595Y-93388555D01*
X181323621Y-93450867D01*
X181326500Y-93477650D01*
X181326500Y-102047641D01*
X181306498Y-102115762D01*
X181294136Y-102131951D01*
X181245960Y-102185456D01*
X181150473Y-102350844D01*
X181091458Y-102532472D01*
X181090768Y-102539033D01*
X181090768Y-102539035D01*
X181073378Y-102704495D01*
X181071496Y-102722400D01*
X181072186Y-102728965D01*
X181090430Y-102902544D01*
X181091458Y-102912328D01*
X181150473Y-103093956D01*
X181153776Y-103099678D01*
X181153777Y-103099679D01*
X181182798Y-103149944D01*
X181245960Y-103259344D01*
X181250378Y-103264251D01*
X181250379Y-103264252D01*
X181321576Y-103343324D01*
X181373747Y-103401266D01*
X181434371Y-103445312D01*
X181515777Y-103504457D01*
X181528248Y-103513518D01*
X181534276Y-103516202D01*
X181534278Y-103516203D01*
X181670153Y-103576698D01*
X181702712Y-103591194D01*
X181789606Y-103609664D01*
X181883056Y-103629528D01*
X181883061Y-103629528D01*
X181889513Y-103630900D01*
X182080487Y-103630900D01*
X182086939Y-103629528D01*
X182086944Y-103629528D01*
X182180394Y-103609664D01*
X182267288Y-103591194D01*
X182299847Y-103576698D01*
X182435722Y-103516203D01*
X182435724Y-103516202D01*
X182441752Y-103513518D01*
X182454224Y-103504457D01*
X182535629Y-103445312D01*
X182596253Y-103401266D01*
X182648424Y-103343324D01*
X182719621Y-103264252D01*
X182719622Y-103264251D01*
X182724040Y-103259344D01*
X182787202Y-103149944D01*
X182816223Y-103099679D01*
X182816224Y-103099678D01*
X182819527Y-103093956D01*
X182878542Y-102912328D01*
X182879571Y-102902544D01*
X182897814Y-102728965D01*
X182898504Y-102722400D01*
X182896622Y-102704495D01*
X182879232Y-102539035D01*
X182879232Y-102539033D01*
X182878542Y-102532472D01*
X182819527Y-102350844D01*
X182724040Y-102185456D01*
X182675864Y-102131951D01*
X182645146Y-102067944D01*
X182643500Y-102047641D01*
X182643500Y-93234759D01*
X182644059Y-93222903D01*
X182645789Y-93215163D01*
X182643562Y-93144311D01*
X182643500Y-93140353D01*
X182643500Y-93111268D01*
X182642946Y-93106879D01*
X182642013Y-93095037D01*
X182640811Y-93056794D01*
X182640562Y-93048869D01*
X182634580Y-93028279D01*
X182630570Y-93008916D01*
X182628875Y-92995496D01*
X182628875Y-92995495D01*
X182627882Y-92987636D01*
X182624966Y-92980271D01*
X182624965Y-92980267D01*
X182610874Y-92944679D01*
X182607035Y-92933469D01*
X182594145Y-92889100D01*
X182583225Y-92870635D01*
X182574534Y-92852895D01*
X182566635Y-92832944D01*
X182539482Y-92795571D01*
X182532967Y-92785652D01*
X182513493Y-92752723D01*
X182513490Y-92752719D01*
X182509453Y-92745893D01*
X182494289Y-92730729D01*
X182481448Y-92715695D01*
X182473501Y-92704757D01*
X182468841Y-92698343D01*
X182433247Y-92668897D01*
X182424468Y-92660908D01*
X179546215Y-89782655D01*
X179512189Y-89720343D01*
X179517254Y-89649528D01*
X179559801Y-89592692D01*
X179577517Y-89581596D01*
X179753519Y-89490754D01*
X179933447Y-89352691D01*
X180086081Y-89184948D01*
X180162547Y-89063051D01*
X180203616Y-88997582D01*
X180203619Y-88997576D01*
X180206599Y-88992826D01*
X180223898Y-88949794D01*
X180267864Y-88894051D01*
X180334989Y-88870926D01*
X180403960Y-88887763D01*
X180454530Y-88942548D01*
X180512007Y-89063051D01*
X180515284Y-89067612D01*
X180515285Y-89067613D01*
X180610839Y-89200589D01*
X180644351Y-89247226D01*
X180719710Y-89320254D01*
X180756701Y-89356101D01*
X180807217Y-89405055D01*
X180832519Y-89422057D01*
X180990805Y-89528421D01*
X180990810Y-89528424D01*
X180995458Y-89531547D01*
X181000590Y-89533800D01*
X181000594Y-89533802D01*
X181109467Y-89581594D01*
X181203124Y-89622707D01*
X181208582Y-89624017D01*
X181208581Y-89624017D01*
X181418192Y-89674340D01*
X181418198Y-89674341D01*
X181423651Y-89675650D01*
X181536860Y-89682178D01*
X181644463Y-89688383D01*
X181644466Y-89688383D01*
X181650069Y-89688706D01*
X181875219Y-89661459D01*
X181880581Y-89659809D01*
X181880583Y-89659809D01*
X182001185Y-89622707D01*
X182091987Y-89594773D01*
X182209530Y-89534104D01*
X182288536Y-89493326D01*
X182288537Y-89493326D01*
X182293519Y-89490754D01*
X182473447Y-89352691D01*
X182626081Y-89184948D01*
X182702547Y-89063051D01*
X182743616Y-88997582D01*
X182743619Y-88997576D01*
X182746599Y-88992826D01*
X182831190Y-88782399D01*
X182877181Y-88560318D01*
X182880500Y-88502756D01*
X182880500Y-87356165D01*
X182865474Y-87187805D01*
X182805630Y-86969049D01*
X182791602Y-86939637D01*
X182710410Y-86769416D01*
X182710409Y-86769415D01*
X182707993Y-86764349D01*
X182617421Y-86638305D01*
X182578926Y-86584734D01*
X182578924Y-86584732D01*
X182575649Y-86580174D01*
X182495598Y-86502599D01*
X182416811Y-86426248D01*
X182416808Y-86426246D01*
X182412783Y-86422345D01*
X182343259Y-86375627D01*
X182229195Y-86298979D01*
X182229190Y-86298976D01*
X182224542Y-86295853D01*
X182219410Y-86293600D01*
X182219406Y-86293598D01*
X182076754Y-86230978D01*
X182016876Y-86204693D01*
X181983122Y-86196590D01*
X181801808Y-86153060D01*
X181801802Y-86153059D01*
X181796349Y-86151750D01*
X181683140Y-86145222D01*
X181575537Y-86139017D01*
X181575534Y-86139017D01*
X181569931Y-86138694D01*
X181344781Y-86165941D01*
X181339419Y-86167591D01*
X181339417Y-86167591D01*
X181255583Y-86193382D01*
X181128013Y-86232627D01*
X181123029Y-86235199D01*
X181123030Y-86235199D01*
X180952083Y-86323432D01*
X180926481Y-86336646D01*
X180746553Y-86474709D01*
X180716003Y-86508283D01*
X180600601Y-86635109D01*
X180593919Y-86642452D01*
X180590938Y-86647203D01*
X180590938Y-86647204D01*
X180514275Y-86769416D01*
X180473401Y-86834574D01*
X180471307Y-86839784D01*
X180456103Y-86877605D01*
X180412136Y-86933349D01*
X180345011Y-86956474D01*
X180276040Y-86939637D01*
X180225470Y-86884852D01*
X180170410Y-86769416D01*
X180170409Y-86769415D01*
X180167993Y-86764349D01*
X180077421Y-86638305D01*
X180038926Y-86584734D01*
X180038924Y-86584732D01*
X180035649Y-86580174D01*
X179955598Y-86502599D01*
X179876811Y-86426248D01*
X179876808Y-86426246D01*
X179872783Y-86422345D01*
X179803259Y-86375627D01*
X179689195Y-86298979D01*
X179689190Y-86298976D01*
X179684542Y-86295853D01*
X179679410Y-86293600D01*
X179679406Y-86293598D01*
X179536754Y-86230978D01*
X179476876Y-86204693D01*
X179443122Y-86196590D01*
X179261808Y-86153060D01*
X179261802Y-86153059D01*
X179256349Y-86151750D01*
X179143140Y-86145222D01*
X179035537Y-86139017D01*
X179035534Y-86139017D01*
X179029931Y-86138694D01*
X178804781Y-86165941D01*
X178799419Y-86167591D01*
X178799417Y-86167591D01*
X178715583Y-86193382D01*
X178588013Y-86232627D01*
X178583029Y-86235199D01*
X178583030Y-86235199D01*
X178412083Y-86323432D01*
X178386481Y-86336646D01*
X178382033Y-86340059D01*
X178382030Y-86340061D01*
X178330439Y-86379648D01*
X178264219Y-86405248D01*
X178194670Y-86390983D01*
X178164641Y-86368780D01*
X177549852Y-85753991D01*
X177541863Y-85745212D01*
X177537616Y-85738520D01*
X177485941Y-85689994D01*
X177483100Y-85687240D01*
X177462533Y-85666673D01*
X177459026Y-85663953D01*
X177450004Y-85656247D01*
X177440729Y-85647537D01*
X177416333Y-85624628D01*
X177409381Y-85620806D01*
X177397542Y-85614297D01*
X177381018Y-85603443D01*
X177370332Y-85595155D01*
X177364068Y-85590296D01*
X177356796Y-85587149D01*
X177356794Y-85587148D01*
X177321665Y-85571946D01*
X177311005Y-85566724D01*
X177277484Y-85548295D01*
X177277482Y-85548294D01*
X177270537Y-85544476D01*
X177249759Y-85539141D01*
X177231069Y-85532742D01*
X177211376Y-85524220D01*
X177165752Y-85516994D01*
X177154129Y-85514587D01*
X177119370Y-85505663D01*
X177109388Y-85503100D01*
X177087941Y-85503100D01*
X177068231Y-85501549D01*
X177047048Y-85498194D01*
X177001059Y-85502541D01*
X176989204Y-85503100D01*
X176075060Y-85503100D01*
X176063203Y-85502541D01*
X176055463Y-85500811D01*
X176047538Y-85501060D01*
X176047537Y-85501060D01*
X175984599Y-85503038D01*
X175980641Y-85503100D01*
X175951568Y-85503100D01*
X175947634Y-85503597D01*
X175947632Y-85503597D01*
X175947189Y-85503653D01*
X175935354Y-85504585D01*
X175902564Y-85505616D01*
X175897089Y-85505788D01*
X175897088Y-85505788D01*
X175889169Y-85506037D01*
X175869444Y-85511768D01*
X175868571Y-85512021D01*
X175849218Y-85516029D01*
X175845743Y-85516468D01*
X175827936Y-85518718D01*
X175820568Y-85521635D01*
X175820565Y-85521636D01*
X175784982Y-85535725D01*
X175773747Y-85539571D01*
X175737016Y-85550242D01*
X175737013Y-85550243D01*
X175729400Y-85552455D01*
X175710935Y-85563375D01*
X175693195Y-85572066D01*
X175673244Y-85579965D01*
X175635874Y-85607116D01*
X175625952Y-85613633D01*
X175593023Y-85633107D01*
X175593019Y-85633110D01*
X175586193Y-85637147D01*
X175571029Y-85652311D01*
X175555996Y-85665151D01*
X175538643Y-85677759D01*
X175522106Y-85697749D01*
X175509198Y-85713352D01*
X175501208Y-85722132D01*
X174871009Y-86352331D01*
X174808697Y-86386357D01*
X174737882Y-86381292D01*
X174711638Y-86367818D01*
X174609195Y-86298979D01*
X174609190Y-86298976D01*
X174604542Y-86295853D01*
X174599410Y-86293600D01*
X174599406Y-86293598D01*
X174456754Y-86230978D01*
X174396876Y-86204693D01*
X174363122Y-86196590D01*
X174181808Y-86153060D01*
X174181802Y-86153059D01*
X174176349Y-86151750D01*
X174063140Y-86145222D01*
X173955537Y-86139017D01*
X173955534Y-86139017D01*
X173949931Y-86138694D01*
X173724781Y-86165941D01*
X173719419Y-86167591D01*
X173719417Y-86167591D01*
X173635583Y-86193382D01*
X173508013Y-86232627D01*
X173503029Y-86235199D01*
X173503030Y-86235199D01*
X173332083Y-86323432D01*
X173306481Y-86336646D01*
X173126553Y-86474709D01*
X173096003Y-86508283D01*
X172980601Y-86635109D01*
X172973919Y-86642452D01*
X172970938Y-86647203D01*
X172970938Y-86647204D01*
X172894275Y-86769416D01*
X172853401Y-86834574D01*
X172851307Y-86839784D01*
X172836103Y-86877605D01*
X172792136Y-86933349D01*
X172725011Y-86956474D01*
X172656040Y-86939637D01*
X172605470Y-86884852D01*
X172550410Y-86769416D01*
X172550409Y-86769415D01*
X172547993Y-86764349D01*
X172457421Y-86638305D01*
X172418926Y-86584734D01*
X172418924Y-86584732D01*
X172415649Y-86580174D01*
X172335598Y-86502599D01*
X172256810Y-86426247D01*
X172256807Y-86426245D01*
X172252783Y-86422345D01*
X172227340Y-86405248D01*
X172214224Y-86396434D01*
X172168839Y-86341838D01*
X172158500Y-86291853D01*
X172158500Y-85782273D01*
X172159033Y-85770696D01*
X172159215Y-85768718D01*
X172160927Y-85760980D01*
X172158571Y-85691023D01*
X172158500Y-85686782D01*
X172158500Y-85658568D01*
X172158003Y-85654632D01*
X172157834Y-85653291D01*
X172156911Y-85641739D01*
X172155594Y-85602617D01*
X172155594Y-85602614D01*
X172155327Y-85594698D01*
X172153100Y-85587097D01*
X172153099Y-85587090D01*
X172149549Y-85574974D01*
X172145459Y-85555337D01*
X172144815Y-85550242D01*
X172142882Y-85534936D01*
X172125552Y-85491165D01*
X172121786Y-85480206D01*
X172110781Y-85442640D01*
X172110780Y-85442637D01*
X172108552Y-85435033D01*
X172107204Y-85432766D01*
X172098642Y-85364658D01*
X172129277Y-85300611D01*
X172189674Y-85263293D01*
X172223022Y-85258800D01*
X173319776Y-85258800D01*
X173387897Y-85278802D01*
X173393834Y-85282862D01*
X173543248Y-85391418D01*
X173549276Y-85394102D01*
X173549278Y-85394103D01*
X173641209Y-85435033D01*
X173717712Y-85469094D01*
X173796166Y-85485770D01*
X173898056Y-85507428D01*
X173898061Y-85507428D01*
X173904513Y-85508800D01*
X174095487Y-85508800D01*
X174101939Y-85507428D01*
X174101944Y-85507428D01*
X174203834Y-85485770D01*
X174282288Y-85469094D01*
X174358791Y-85435033D01*
X174450722Y-85394103D01*
X174450724Y-85394102D01*
X174456752Y-85391418D01*
X174611253Y-85279166D01*
X174647793Y-85238584D01*
X174734621Y-85142152D01*
X174734622Y-85142151D01*
X174739040Y-85137244D01*
X174825224Y-84987970D01*
X174831223Y-84977579D01*
X174831224Y-84977578D01*
X174834527Y-84971856D01*
X174893542Y-84790228D01*
X174905891Y-84672739D01*
X174912814Y-84606865D01*
X174913504Y-84600300D01*
X174895251Y-84426635D01*
X174894232Y-84416935D01*
X174894232Y-84416933D01*
X174893542Y-84410372D01*
X174893047Y-84408849D01*
X174898307Y-84339907D01*
X174941123Y-84283274D01*
X175007761Y-84258780D01*
X175016152Y-84258500D01*
X178419776Y-84258500D01*
X178487897Y-84278502D01*
X178493834Y-84282562D01*
X178643248Y-84391118D01*
X178649276Y-84393802D01*
X178649278Y-84393803D01*
X178811681Y-84466109D01*
X178817712Y-84468794D01*
X178911112Y-84488647D01*
X178998056Y-84507128D01*
X178998061Y-84507128D01*
X179004513Y-84508500D01*
X179195487Y-84508500D01*
X179201939Y-84507128D01*
X179201944Y-84507128D01*
X179288888Y-84488647D01*
X179382288Y-84468794D01*
X179388319Y-84466109D01*
X179550722Y-84393803D01*
X179550724Y-84393802D01*
X179556752Y-84391118D01*
X179711253Y-84278866D01*
X179715675Y-84273955D01*
X179834621Y-84141852D01*
X179834622Y-84141851D01*
X179839040Y-84136944D01*
X179902683Y-84026712D01*
X179931223Y-83977279D01*
X179931224Y-83977278D01*
X179934527Y-83971556D01*
X179993542Y-83789928D01*
X180013504Y-83600000D01*
X179993542Y-83410072D01*
X179976212Y-83356736D01*
X179974184Y-83285769D01*
X180010847Y-83224971D01*
X180074559Y-83193645D01*
X180096045Y-83191800D01*
X180954254Y-83191800D01*
X181022375Y-83211802D01*
X181047889Y-83233488D01*
X181088747Y-83278866D01*
X181243248Y-83391118D01*
X181249276Y-83393802D01*
X181249278Y-83393803D01*
X181300560Y-83416635D01*
X181417712Y-83468794D01*
X181511112Y-83488647D01*
X181598056Y-83507128D01*
X181598061Y-83507128D01*
X181604513Y-83508500D01*
X181795487Y-83508500D01*
X181801939Y-83507128D01*
X181801944Y-83507128D01*
X181888888Y-83488647D01*
X181982288Y-83468794D01*
X182099440Y-83416635D01*
X182150722Y-83393803D01*
X182150724Y-83393802D01*
X182156752Y-83391118D01*
X182311253Y-83278866D01*
X182387986Y-83193645D01*
X182434621Y-83141852D01*
X182434622Y-83141851D01*
X182439040Y-83136944D01*
X182534527Y-82971556D01*
X182593542Y-82789928D01*
X182598954Y-82738441D01*
X182612814Y-82606565D01*
X182613504Y-82600000D01*
X182593542Y-82410072D01*
X182534527Y-82228444D01*
X182439040Y-82063056D01*
X182311253Y-81921134D01*
X182191174Y-81833891D01*
X182162094Y-81812763D01*
X182162093Y-81812762D01*
X182156752Y-81808882D01*
X182150724Y-81806198D01*
X182150722Y-81806197D01*
X181988319Y-81733891D01*
X181988318Y-81733891D01*
X181982288Y-81731206D01*
X181888888Y-81711353D01*
X181801944Y-81692872D01*
X181801939Y-81692872D01*
X181795487Y-81691500D01*
X181604513Y-81691500D01*
X181598061Y-81692872D01*
X181598056Y-81692872D01*
X181511113Y-81711353D01*
X181417712Y-81731206D01*
X181411682Y-81733891D01*
X181411681Y-81733891D01*
X181249278Y-81806197D01*
X181249276Y-81806198D01*
X181243248Y-81808882D01*
X181237907Y-81812762D01*
X181237906Y-81812763D01*
X181185641Y-81850736D01*
X181118773Y-81874595D01*
X181111580Y-81874800D01*
X162147224Y-81874800D01*
X162079103Y-81854798D01*
X162073163Y-81850736D01*
X162046283Y-81831206D01*
X161923752Y-81742182D01*
X161917724Y-81739498D01*
X161917722Y-81739497D01*
X161755319Y-81667191D01*
X161755318Y-81667191D01*
X161749288Y-81664506D01*
X161655887Y-81644653D01*
X161568944Y-81626172D01*
X161568939Y-81626172D01*
X161562487Y-81624800D01*
X161371513Y-81624800D01*
X161365061Y-81626172D01*
X161365056Y-81626172D01*
X161278112Y-81644653D01*
X161184712Y-81664506D01*
X161178682Y-81667191D01*
X161178681Y-81667191D01*
X161016278Y-81739497D01*
X161016276Y-81739498D01*
X161010248Y-81742182D01*
X160887718Y-81831206D01*
X160860837Y-81850736D01*
X160793969Y-81874594D01*
X160786776Y-81874800D01*
X138806985Y-81874800D01*
X138755736Y-81863907D01*
X138688319Y-81833891D01*
X138688318Y-81833891D01*
X138682288Y-81831206D01*
X138588888Y-81811353D01*
X138501944Y-81792872D01*
X138501939Y-81792872D01*
X138495487Y-81791500D01*
X138304513Y-81791500D01*
X138298061Y-81792872D01*
X138298056Y-81792872D01*
X138211112Y-81811353D01*
X138117712Y-81831206D01*
X138111682Y-81833891D01*
X138111681Y-81833891D01*
X138044264Y-81863907D01*
X137993015Y-81874800D01*
X118825672Y-81874800D01*
X118757551Y-81854798D01*
X118732035Y-81833109D01*
X118729087Y-81829834D01*
X118721253Y-81821134D01*
X118566752Y-81708882D01*
X118560724Y-81706198D01*
X118560722Y-81706197D01*
X118398319Y-81633891D01*
X118398318Y-81633891D01*
X118392288Y-81631206D01*
X118298888Y-81611353D01*
X118211944Y-81592872D01*
X118211939Y-81592872D01*
X118205487Y-81591500D01*
X118014513Y-81591500D01*
X118008061Y-81592872D01*
X118008056Y-81592872D01*
X117921112Y-81611353D01*
X117827712Y-81631206D01*
X117821682Y-81633891D01*
X117821681Y-81633891D01*
X117659278Y-81706197D01*
X117659276Y-81706198D01*
X117653248Y-81708882D01*
X117498747Y-81821134D01*
X117494326Y-81826044D01*
X117494325Y-81826045D01*
X117450611Y-81874595D01*
X117370960Y-81963056D01*
X117313225Y-82063056D01*
X117290148Y-82103027D01*
X117275473Y-82128444D01*
X117216458Y-82310072D01*
X117215768Y-82316633D01*
X117215768Y-82316635D01*
X117205948Y-82410072D01*
X117196496Y-82500000D01*
X117216458Y-82689928D01*
X117218498Y-82696206D01*
X117233658Y-82742864D01*
X117235686Y-82813831D01*
X117199023Y-82874629D01*
X117135311Y-82905955D01*
X117113825Y-82907800D01*
X116233840Y-82907800D01*
X116165719Y-82887798D01*
X116159779Y-82883736D01*
X116062094Y-82812763D01*
X116062093Y-82812762D01*
X116056752Y-82808882D01*
X116050724Y-82806198D01*
X116050722Y-82806197D01*
X115888319Y-82733891D01*
X115888318Y-82733891D01*
X115882288Y-82731206D01*
X115788887Y-82711353D01*
X115701944Y-82692872D01*
X115701939Y-82692872D01*
X115695487Y-82691500D01*
X115504513Y-82691500D01*
X115498061Y-82692872D01*
X115498056Y-82692872D01*
X115411113Y-82711353D01*
X115317712Y-82731206D01*
X115311682Y-82733891D01*
X115311681Y-82733891D01*
X115149278Y-82806197D01*
X115149276Y-82806198D01*
X115143248Y-82808882D01*
X114988747Y-82921134D01*
X114860960Y-83063056D01*
X114765473Y-83228444D01*
X114706458Y-83410072D01*
X114686496Y-83600000D01*
X114706458Y-83789928D01*
X114708498Y-83796206D01*
X114709156Y-83799302D01*
X114703755Y-83870092D01*
X114660939Y-83926725D01*
X114594302Y-83951220D01*
X114585910Y-83951500D01*
X111170224Y-83951500D01*
X111102103Y-83931498D01*
X111096163Y-83927436D01*
X111095909Y-83927251D01*
X110946752Y-83818882D01*
X110940724Y-83816198D01*
X110940722Y-83816197D01*
X110778319Y-83743891D01*
X110778318Y-83743891D01*
X110772288Y-83741206D01*
X110678888Y-83721353D01*
X110591944Y-83702872D01*
X110591939Y-83702872D01*
X110585487Y-83701500D01*
X110394513Y-83701500D01*
X110388061Y-83702872D01*
X110388056Y-83702872D01*
X110301112Y-83721353D01*
X110207712Y-83741206D01*
X110201682Y-83743891D01*
X110201681Y-83743891D01*
X110039278Y-83816197D01*
X110039276Y-83816198D01*
X110033248Y-83818882D01*
X109878747Y-83931134D01*
X109874326Y-83936044D01*
X109874325Y-83936045D01*
X109795651Y-84023422D01*
X109750960Y-84073056D01*
X109655473Y-84238444D01*
X109596458Y-84420072D01*
X109595768Y-84426633D01*
X109595768Y-84426635D01*
X109577515Y-84600300D01*
X109576496Y-84610000D01*
X109577186Y-84616565D01*
X109595439Y-84790228D01*
X109596458Y-84799928D01*
X109598500Y-84806211D01*
X109598501Y-84806218D01*
X109599686Y-84809865D01*
X109599750Y-84812092D01*
X109599872Y-84812668D01*
X109599767Y-84812690D01*
X109601713Y-84880832D01*
X109565050Y-84941630D01*
X109501338Y-84972955D01*
X109479853Y-84974800D01*
X108148960Y-84974800D01*
X108137744Y-84974263D01*
X108130311Y-84972592D01*
X108058954Y-84974743D01*
X108055158Y-84974800D01*
X108025568Y-84974800D01*
X108021637Y-84975297D01*
X108021567Y-84975301D01*
X108009684Y-84976228D01*
X107971936Y-84977366D01*
X107971935Y-84977366D01*
X107964011Y-84977605D01*
X107942926Y-84983702D01*
X107923718Y-84987667D01*
X107901936Y-84990418D01*
X107894569Y-84993335D01*
X107894568Y-84993335D01*
X107859455Y-85007237D01*
X107848074Y-85011126D01*
X107804182Y-85023817D01*
X107785272Y-85034968D01*
X107767662Y-85043581D01*
X107747244Y-85051665D01*
X107740833Y-85056323D01*
X107740831Y-85056324D01*
X107710275Y-85078525D01*
X107700213Y-85085125D01*
X107667697Y-85104298D01*
X107667694Y-85104300D01*
X107660867Y-85108326D01*
X107645324Y-85123829D01*
X107630411Y-85136549D01*
X107619056Y-85144799D01*
X107619053Y-85144802D01*
X107612643Y-85149459D01*
X107607591Y-85155566D01*
X107583521Y-85184662D01*
X107575417Y-85193557D01*
X107543149Y-85225742D01*
X107534483Y-85233617D01*
X107533613Y-85234336D01*
X107526920Y-85238584D01*
X107521493Y-85244363D01*
X107478733Y-85289897D01*
X107475889Y-85292829D01*
X107455634Y-85313032D01*
X107452603Y-85316930D01*
X107444993Y-85325828D01*
X107413028Y-85359867D01*
X107409210Y-85366813D01*
X107409208Y-85366815D01*
X107402942Y-85378213D01*
X107391989Y-85394864D01*
X107383997Y-85405141D01*
X107379130Y-85411399D01*
X107375974Y-85418667D01*
X107360527Y-85454237D01*
X107355375Y-85464737D01*
X107332876Y-85505663D01*
X107330905Y-85513338D01*
X107330905Y-85513339D01*
X107327669Y-85525943D01*
X107321201Y-85544795D01*
X107316019Y-85556728D01*
X107316018Y-85556732D01*
X107312859Y-85564006D01*
X107305492Y-85610139D01*
X107303117Y-85621569D01*
X107291500Y-85666812D01*
X107291500Y-85687754D01*
X107289923Y-85707623D01*
X107286621Y-85728300D01*
X107287357Y-85736195D01*
X107287357Y-85736197D01*
X107290956Y-85774796D01*
X107291500Y-85786493D01*
X107291500Y-86255311D01*
X107271498Y-86323432D01*
X107242204Y-86355274D01*
X107224603Y-86368780D01*
X107086553Y-86474709D01*
X107056003Y-86508283D01*
X106940601Y-86635109D01*
X106933919Y-86642452D01*
X106930938Y-86647203D01*
X106930938Y-86647204D01*
X106854275Y-86769416D01*
X106813401Y-86834574D01*
X106728810Y-87045001D01*
X106682819Y-87267082D01*
X106682553Y-87271693D01*
X106682553Y-87271694D01*
X106681196Y-87295238D01*
X106679500Y-87324644D01*
X106679500Y-88471235D01*
X106694526Y-88639595D01*
X106754370Y-88858351D01*
X106756782Y-88863409D01*
X106756784Y-88863413D01*
X106816026Y-88987616D01*
X106852007Y-89063051D01*
X106855284Y-89067612D01*
X106855285Y-89067613D01*
X106950839Y-89200589D01*
X106984351Y-89247226D01*
X107059710Y-89320254D01*
X107096701Y-89356101D01*
X107147217Y-89405055D01*
X107172519Y-89422057D01*
X107330805Y-89528421D01*
X107330810Y-89528424D01*
X107335458Y-89531547D01*
X107340590Y-89533800D01*
X107340594Y-89533802D01*
X107449467Y-89581594D01*
X107543124Y-89622707D01*
X107548582Y-89624017D01*
X107548581Y-89624017D01*
X107758192Y-89674340D01*
X107758198Y-89674341D01*
X107763651Y-89675650D01*
X107876860Y-89682178D01*
X107984463Y-89688383D01*
X107984466Y-89688383D01*
X107990069Y-89688706D01*
X108215219Y-89661459D01*
X108220581Y-89659809D01*
X108220583Y-89659809D01*
X108341185Y-89622707D01*
X108431987Y-89594773D01*
X108549530Y-89534104D01*
X108628536Y-89493326D01*
X108628537Y-89493326D01*
X108633519Y-89490754D01*
X108813447Y-89352691D01*
X108966081Y-89184948D01*
X109042547Y-89063051D01*
X109083616Y-88997582D01*
X109083619Y-88997576D01*
X109086599Y-88992826D01*
X109103898Y-88949794D01*
X109147864Y-88894051D01*
X109214989Y-88870926D01*
X109283960Y-88887763D01*
X109334530Y-88942548D01*
X109392007Y-89063051D01*
X109395284Y-89067612D01*
X109395285Y-89067613D01*
X109490839Y-89200589D01*
X109524351Y-89247226D01*
X109599710Y-89320254D01*
X109636701Y-89356101D01*
X109687217Y-89405055D01*
X109712519Y-89422057D01*
X109870805Y-89528421D01*
X109870810Y-89528424D01*
X109875458Y-89531547D01*
X109880590Y-89533800D01*
X109880594Y-89533802D01*
X109989467Y-89581594D01*
X110083124Y-89622707D01*
X110088582Y-89624017D01*
X110088581Y-89624017D01*
X110298192Y-89674340D01*
X110298198Y-89674341D01*
X110303651Y-89675650D01*
X110416860Y-89682178D01*
X110524463Y-89688383D01*
X110524466Y-89688383D01*
X110530069Y-89688706D01*
X110755219Y-89661459D01*
X110760581Y-89659809D01*
X110760583Y-89659809D01*
X110881185Y-89622707D01*
X110971987Y-89594773D01*
X111089530Y-89534104D01*
X111168536Y-89493326D01*
X111168537Y-89493326D01*
X111173519Y-89490754D01*
X111353447Y-89352691D01*
X111506081Y-89184948D01*
X111582547Y-89063051D01*
X111623616Y-88997582D01*
X111623619Y-88997576D01*
X111626599Y-88992826D01*
X111643898Y-88949794D01*
X111687864Y-88894051D01*
X111754989Y-88870926D01*
X111823960Y-88887763D01*
X111874530Y-88942548D01*
X111932007Y-89063051D01*
X111935284Y-89067612D01*
X111935285Y-89067613D01*
X112030839Y-89200589D01*
X112064351Y-89247226D01*
X112139710Y-89320254D01*
X112176701Y-89356101D01*
X112227217Y-89405055D01*
X112252519Y-89422057D01*
X112410805Y-89528421D01*
X112410810Y-89528424D01*
X112415458Y-89531547D01*
X112420590Y-89533800D01*
X112420594Y-89533802D01*
X112529467Y-89581594D01*
X112623124Y-89622707D01*
X112628582Y-89624017D01*
X112628581Y-89624017D01*
X112838192Y-89674340D01*
X112838198Y-89674341D01*
X112843651Y-89675650D01*
X112956860Y-89682178D01*
X113064463Y-89688383D01*
X113064466Y-89688383D01*
X113070069Y-89688706D01*
X113295219Y-89661459D01*
X113300581Y-89659809D01*
X113300583Y-89659809D01*
X113421185Y-89622707D01*
X113511987Y-89594773D01*
X113629530Y-89534104D01*
X113708536Y-89493326D01*
X113708537Y-89493326D01*
X113713519Y-89490754D01*
X113893447Y-89352691D01*
X114046081Y-89184948D01*
X114122547Y-89063051D01*
X114163616Y-88997582D01*
X114163619Y-88997576D01*
X114166599Y-88992826D01*
X114183898Y-88949794D01*
X114227864Y-88894051D01*
X114294989Y-88870926D01*
X114363960Y-88887763D01*
X114414530Y-88942548D01*
X114472007Y-89063051D01*
X114475284Y-89067612D01*
X114475285Y-89067613D01*
X114570839Y-89200589D01*
X114604351Y-89247226D01*
X114679710Y-89320254D01*
X114716701Y-89356101D01*
X114767217Y-89405055D01*
X114792519Y-89422057D01*
X114950805Y-89528421D01*
X114950810Y-89528424D01*
X114955458Y-89531547D01*
X114960590Y-89533800D01*
X114960594Y-89533802D01*
X115069467Y-89581594D01*
X115163124Y-89622707D01*
X115168582Y-89624017D01*
X115168581Y-89624017D01*
X115378192Y-89674340D01*
X115378198Y-89674341D01*
X115383651Y-89675650D01*
X115496860Y-89682178D01*
X115604463Y-89688383D01*
X115604466Y-89688383D01*
X115610069Y-89688706D01*
X115835219Y-89661459D01*
X115840581Y-89659809D01*
X115840583Y-89659809D01*
X115961185Y-89622707D01*
X116051987Y-89594773D01*
X116169530Y-89534104D01*
X116248536Y-89493326D01*
X116248537Y-89493326D01*
X116253519Y-89490754D01*
X116433447Y-89352691D01*
X116586081Y-89184948D01*
X116662547Y-89063051D01*
X116703616Y-88997582D01*
X116703619Y-88997576D01*
X116706599Y-88992826D01*
X116723898Y-88949794D01*
X116767864Y-88894051D01*
X116834989Y-88870926D01*
X116903960Y-88887763D01*
X116954530Y-88942548D01*
X117012007Y-89063051D01*
X117015284Y-89067612D01*
X117015285Y-89067613D01*
X117110839Y-89200589D01*
X117144351Y-89247226D01*
X117219710Y-89320254D01*
X117256701Y-89356101D01*
X117307217Y-89405055D01*
X117332519Y-89422057D01*
X117490805Y-89528421D01*
X117490810Y-89528424D01*
X117495458Y-89531547D01*
X117500590Y-89533800D01*
X117500594Y-89533802D01*
X117609467Y-89581594D01*
X117703124Y-89622707D01*
X117708582Y-89624017D01*
X117708581Y-89624017D01*
X117918192Y-89674340D01*
X117918198Y-89674341D01*
X117923651Y-89675650D01*
X118036860Y-89682178D01*
X118144463Y-89688383D01*
X118144466Y-89688383D01*
X118150069Y-89688706D01*
X118375219Y-89661459D01*
X118380581Y-89659809D01*
X118380583Y-89659809D01*
X118501185Y-89622707D01*
X118591987Y-89594773D01*
X118709530Y-89534104D01*
X118788536Y-89493326D01*
X118788537Y-89493326D01*
X118793519Y-89490754D01*
X118973447Y-89352691D01*
X119126081Y-89184948D01*
X119202547Y-89063051D01*
X119243616Y-88997582D01*
X119243619Y-88997576D01*
X119246599Y-88992826D01*
X119331190Y-88782399D01*
X119377181Y-88560318D01*
X119380500Y-88502756D01*
X119380500Y-87356165D01*
X119365474Y-87187805D01*
X119305630Y-86969049D01*
X119291602Y-86939637D01*
X119210410Y-86769416D01*
X119210409Y-86769415D01*
X119207993Y-86764349D01*
X119117421Y-86638305D01*
X119078926Y-86584734D01*
X119078924Y-86584732D01*
X119075649Y-86580174D01*
X119071623Y-86576273D01*
X119071614Y-86576262D01*
X119001465Y-86508283D01*
X118966465Y-86446513D01*
X118970417Y-86375627D01*
X119012066Y-86318130D01*
X119078189Y-86292278D01*
X119089150Y-86291800D01*
X127287981Y-86291800D01*
X127356102Y-86311802D01*
X127402595Y-86365458D01*
X127412699Y-86435732D01*
X127381175Y-86502599D01*
X127260601Y-86635109D01*
X127253919Y-86642452D01*
X127250938Y-86647203D01*
X127250938Y-86647204D01*
X127174275Y-86769416D01*
X127133401Y-86834574D01*
X127048810Y-87045001D01*
X127002819Y-87267082D01*
X127002553Y-87271693D01*
X127002553Y-87271694D01*
X127001196Y-87295238D01*
X126999500Y-87324644D01*
X126999500Y-88471235D01*
X127014526Y-88639595D01*
X127074370Y-88858351D01*
X127076782Y-88863409D01*
X127076784Y-88863413D01*
X127136026Y-88987616D01*
X127172007Y-89063051D01*
X127175284Y-89067612D01*
X127175285Y-89067613D01*
X127270839Y-89200589D01*
X127304351Y-89247226D01*
X127379710Y-89320254D01*
X127416701Y-89356101D01*
X127467217Y-89405055D01*
X127492519Y-89422057D01*
X127650805Y-89528421D01*
X127650810Y-89528424D01*
X127655458Y-89531547D01*
X127660590Y-89533800D01*
X127660594Y-89533802D01*
X127769467Y-89581594D01*
X127863124Y-89622707D01*
X127868582Y-89624017D01*
X127868581Y-89624017D01*
X128078192Y-89674340D01*
X128078198Y-89674341D01*
X128083651Y-89675650D01*
X128196860Y-89682178D01*
X128304463Y-89688383D01*
X128304466Y-89688383D01*
X128310069Y-89688706D01*
X128535219Y-89661459D01*
X128540581Y-89659809D01*
X128540583Y-89659809D01*
X128661185Y-89622707D01*
X128751987Y-89594773D01*
X128869530Y-89534104D01*
X128948536Y-89493326D01*
X128948537Y-89493326D01*
X128953519Y-89490754D01*
X129133447Y-89352691D01*
X129286081Y-89184948D01*
X129362547Y-89063051D01*
X129403616Y-88997582D01*
X129403619Y-88997576D01*
X129406599Y-88992826D01*
X129423898Y-88949794D01*
X129467864Y-88894051D01*
X129534989Y-88870926D01*
X129603960Y-88887763D01*
X129654530Y-88942548D01*
X129712007Y-89063051D01*
X129715284Y-89067612D01*
X129715285Y-89067613D01*
X129810839Y-89200589D01*
X129844351Y-89247226D01*
X129919710Y-89320254D01*
X129956701Y-89356101D01*
X130007217Y-89405055D01*
X130032519Y-89422057D01*
X130190805Y-89528421D01*
X130190810Y-89528424D01*
X130195458Y-89531547D01*
X130200590Y-89533800D01*
X130200594Y-89533802D01*
X130309467Y-89581594D01*
X130403124Y-89622707D01*
X130408582Y-89624017D01*
X130408581Y-89624017D01*
X130618192Y-89674340D01*
X130618198Y-89674341D01*
X130623651Y-89675650D01*
X130736860Y-89682178D01*
X130844463Y-89688383D01*
X130844466Y-89688383D01*
X130850069Y-89688706D01*
X131075219Y-89661459D01*
X131080581Y-89659809D01*
X131080583Y-89659809D01*
X131201185Y-89622707D01*
X131291987Y-89594773D01*
X131409530Y-89534104D01*
X131488536Y-89493326D01*
X131488537Y-89493326D01*
X131493519Y-89490754D01*
X131673447Y-89352691D01*
X131826081Y-89184948D01*
X131902547Y-89063051D01*
X131943616Y-88997582D01*
X131943619Y-88997576D01*
X131946599Y-88992826D01*
X131963898Y-88949794D01*
X132007864Y-88894051D01*
X132074989Y-88870926D01*
X132143960Y-88887763D01*
X132194530Y-88942548D01*
X132252007Y-89063051D01*
X132255284Y-89067612D01*
X132255285Y-89067613D01*
X132350839Y-89200589D01*
X132384351Y-89247226D01*
X132459710Y-89320254D01*
X132496701Y-89356101D01*
X132547217Y-89405055D01*
X132572519Y-89422057D01*
X132730805Y-89528421D01*
X132730810Y-89528424D01*
X132735458Y-89531547D01*
X132740590Y-89533800D01*
X132740594Y-89533802D01*
X132849467Y-89581594D01*
X132943124Y-89622707D01*
X132948582Y-89624017D01*
X132948581Y-89624017D01*
X133158192Y-89674340D01*
X133158198Y-89674341D01*
X133163651Y-89675650D01*
X133276860Y-89682178D01*
X133384463Y-89688383D01*
X133384466Y-89688383D01*
X133390069Y-89688706D01*
X133615219Y-89661459D01*
X133620581Y-89659809D01*
X133620583Y-89659809D01*
X133741185Y-89622707D01*
X133831987Y-89594773D01*
X133949530Y-89534104D01*
X134028536Y-89493326D01*
X134028537Y-89493326D01*
X134033519Y-89490754D01*
X134213447Y-89352691D01*
X134366081Y-89184948D01*
X134442547Y-89063051D01*
X134483616Y-88997582D01*
X134483619Y-88997576D01*
X134486599Y-88992826D01*
X134503898Y-88949794D01*
X134547864Y-88894051D01*
X134614989Y-88870926D01*
X134683960Y-88887763D01*
X134734530Y-88942548D01*
X134792007Y-89063051D01*
X134795284Y-89067612D01*
X134795285Y-89067613D01*
X134890839Y-89200589D01*
X134924351Y-89247226D01*
X134999710Y-89320254D01*
X135036701Y-89356101D01*
X135087217Y-89405055D01*
X135112519Y-89422057D01*
X135270805Y-89528421D01*
X135270810Y-89528424D01*
X135275458Y-89531547D01*
X135280590Y-89533800D01*
X135280594Y-89533802D01*
X135389467Y-89581594D01*
X135483124Y-89622707D01*
X135488582Y-89624017D01*
X135488581Y-89624017D01*
X135698192Y-89674340D01*
X135698198Y-89674341D01*
X135703651Y-89675650D01*
X135816860Y-89682178D01*
X135924463Y-89688383D01*
X135924466Y-89688383D01*
X135930069Y-89688706D01*
X136155219Y-89661459D01*
X136160581Y-89659809D01*
X136160583Y-89659809D01*
X136281185Y-89622707D01*
X136371987Y-89594773D01*
X136489530Y-89534104D01*
X136568536Y-89493326D01*
X136568537Y-89493326D01*
X136573519Y-89490754D01*
X136753447Y-89352691D01*
X136906081Y-89184948D01*
X136982547Y-89063051D01*
X137023616Y-88997582D01*
X137023619Y-88997576D01*
X137026599Y-88992826D01*
X137043898Y-88949794D01*
X137087864Y-88894051D01*
X137154989Y-88870926D01*
X137223960Y-88887763D01*
X137274530Y-88942548D01*
X137332007Y-89063051D01*
X137335284Y-89067612D01*
X137335285Y-89067613D01*
X137430839Y-89200589D01*
X137464351Y-89247226D01*
X137539710Y-89320254D01*
X137576701Y-89356101D01*
X137627217Y-89405055D01*
X137652519Y-89422057D01*
X137810805Y-89528421D01*
X137810810Y-89528424D01*
X137815458Y-89531547D01*
X137820590Y-89533800D01*
X137820594Y-89533802D01*
X137929467Y-89581594D01*
X138023124Y-89622707D01*
X138028582Y-89624017D01*
X138028581Y-89624017D01*
X138238192Y-89674340D01*
X138238198Y-89674341D01*
X138243651Y-89675650D01*
X138356860Y-89682178D01*
X138464463Y-89688383D01*
X138464466Y-89688383D01*
X138470069Y-89688706D01*
X138695219Y-89661459D01*
X138700581Y-89659809D01*
X138700583Y-89659809D01*
X138821185Y-89622707D01*
X138911987Y-89594773D01*
X139029530Y-89534104D01*
X139108536Y-89493326D01*
X139108537Y-89493326D01*
X139113519Y-89490754D01*
X139293447Y-89352691D01*
X139446081Y-89184948D01*
X139522547Y-89063051D01*
X139563616Y-88997582D01*
X139563619Y-88997576D01*
X139566599Y-88992826D01*
X139651190Y-88782399D01*
X139697181Y-88560318D01*
X139700500Y-88502756D01*
X139700500Y-87356165D01*
X139685474Y-87187805D01*
X139625630Y-86969049D01*
X139611602Y-86939637D01*
X139530410Y-86769416D01*
X139530409Y-86769415D01*
X139527993Y-86764349D01*
X139437421Y-86638305D01*
X139398926Y-86584734D01*
X139398924Y-86584732D01*
X139395649Y-86580174D01*
X139391623Y-86576273D01*
X139391614Y-86576262D01*
X139321465Y-86508283D01*
X139286465Y-86446513D01*
X139290417Y-86375627D01*
X139332066Y-86318130D01*
X139398189Y-86292278D01*
X139409150Y-86291800D01*
X150147981Y-86291800D01*
X150216102Y-86311802D01*
X150262595Y-86365458D01*
X150272699Y-86435732D01*
X150241175Y-86502599D01*
X150120601Y-86635109D01*
X150113919Y-86642452D01*
X150110938Y-86647203D01*
X150110938Y-86647204D01*
X150034275Y-86769416D01*
X149993401Y-86834574D01*
X149908810Y-87045001D01*
X149862819Y-87267082D01*
X149862553Y-87271693D01*
X149862553Y-87271694D01*
X149861196Y-87295238D01*
X149859500Y-87324644D01*
X149859500Y-88471235D01*
X149874526Y-88639595D01*
X149934370Y-88858351D01*
X149936782Y-88863409D01*
X149936784Y-88863413D01*
X149996026Y-88987616D01*
X150032007Y-89063051D01*
X150035284Y-89067612D01*
X150035285Y-89067613D01*
X150130839Y-89200589D01*
X150164351Y-89247226D01*
X150239710Y-89320254D01*
X150276701Y-89356101D01*
X150327217Y-89405055D01*
X150352519Y-89422057D01*
X150510805Y-89528421D01*
X150510810Y-89528424D01*
X150515458Y-89531547D01*
X150520590Y-89533800D01*
X150520594Y-89533802D01*
X150629467Y-89581594D01*
X150723124Y-89622707D01*
X150728582Y-89624017D01*
X150728581Y-89624017D01*
X150938192Y-89674340D01*
X150938198Y-89674341D01*
X150943651Y-89675650D01*
X151056860Y-89682178D01*
X151164463Y-89688383D01*
X151164466Y-89688383D01*
X151170069Y-89688706D01*
X151395219Y-89661459D01*
X151400581Y-89659809D01*
X151400583Y-89659809D01*
X151521185Y-89622707D01*
X151611987Y-89594773D01*
X151729530Y-89534104D01*
X151808536Y-89493326D01*
X151808537Y-89493326D01*
X151813519Y-89490754D01*
X151993447Y-89352691D01*
X152146081Y-89184948D01*
X152222547Y-89063051D01*
X152263616Y-88997582D01*
X152263619Y-88997576D01*
X152266599Y-88992826D01*
X152283898Y-88949794D01*
X152327864Y-88894051D01*
X152394989Y-88870926D01*
X152463960Y-88887763D01*
X152514530Y-88942548D01*
X152572007Y-89063051D01*
X152575284Y-89067612D01*
X152575285Y-89067613D01*
X152670839Y-89200589D01*
X152704351Y-89247226D01*
X152779710Y-89320254D01*
X152816701Y-89356101D01*
X152867217Y-89405055D01*
X152892519Y-89422057D01*
X153050805Y-89528421D01*
X153050810Y-89528424D01*
X153055458Y-89531547D01*
X153060590Y-89533800D01*
X153060594Y-89533802D01*
X153169467Y-89581594D01*
X153263124Y-89622707D01*
X153268582Y-89624017D01*
X153268581Y-89624017D01*
X153478192Y-89674340D01*
X153478198Y-89674341D01*
X153483651Y-89675650D01*
X153596860Y-89682178D01*
X153704463Y-89688383D01*
X153704466Y-89688383D01*
X153710069Y-89688706D01*
X153935219Y-89661459D01*
X153940581Y-89659809D01*
X153940583Y-89659809D01*
X154061185Y-89622707D01*
X154151987Y-89594773D01*
X154269530Y-89534104D01*
X154348536Y-89493326D01*
X154348537Y-89493326D01*
X154353519Y-89490754D01*
X154533447Y-89352691D01*
X154686081Y-89184948D01*
X154762547Y-89063051D01*
X154803616Y-88997582D01*
X154803619Y-88997576D01*
X154806599Y-88992826D01*
X154823898Y-88949794D01*
X154867864Y-88894051D01*
X154934989Y-88870926D01*
X155003960Y-88887763D01*
X155054530Y-88942548D01*
X155112007Y-89063051D01*
X155115284Y-89067612D01*
X155115285Y-89067613D01*
X155210839Y-89200589D01*
X155244351Y-89247226D01*
X155319710Y-89320254D01*
X155356701Y-89356101D01*
X155407217Y-89405055D01*
X155432519Y-89422057D01*
X155590805Y-89528421D01*
X155590810Y-89528424D01*
X155595458Y-89531547D01*
X155600590Y-89533800D01*
X155600594Y-89533802D01*
X155709467Y-89581594D01*
X155803124Y-89622707D01*
X155808582Y-89624017D01*
X155808581Y-89624017D01*
X156018192Y-89674340D01*
X156018198Y-89674341D01*
X156023651Y-89675650D01*
X156136860Y-89682178D01*
X156244463Y-89688383D01*
X156244466Y-89688383D01*
X156250069Y-89688706D01*
X156475219Y-89661459D01*
X156480581Y-89659809D01*
X156480583Y-89659809D01*
X156601185Y-89622707D01*
X156691987Y-89594773D01*
X156809530Y-89534104D01*
X156888536Y-89493326D01*
X156888537Y-89493326D01*
X156893519Y-89490754D01*
X157073447Y-89352691D01*
X157226081Y-89184948D01*
X157302547Y-89063051D01*
X157343616Y-88997582D01*
X157343619Y-88997576D01*
X157346599Y-88992826D01*
X157363898Y-88949794D01*
X157407864Y-88894051D01*
X157474989Y-88870926D01*
X157543960Y-88887763D01*
X157594530Y-88942548D01*
X157652007Y-89063051D01*
X157655284Y-89067612D01*
X157655285Y-89067613D01*
X157750839Y-89200589D01*
X157784351Y-89247226D01*
X157859710Y-89320254D01*
X157896701Y-89356101D01*
X157947217Y-89405055D01*
X157972519Y-89422057D01*
X158130805Y-89528421D01*
X158130810Y-89528424D01*
X158135458Y-89531547D01*
X158261805Y-89587009D01*
X158291474Y-89605299D01*
X158301761Y-89613810D01*
X158310536Y-89621796D01*
X159426341Y-90737600D01*
X159434331Y-90746381D01*
X159434339Y-90746390D01*
X159438584Y-90753080D01*
X159444359Y-90758503D01*
X159490273Y-90801619D01*
X159493115Y-90804374D01*
X159513667Y-90824926D01*
X159516801Y-90827357D01*
X159517163Y-90827638D01*
X159526191Y-90835348D01*
X159559867Y-90866972D01*
X159566818Y-90870793D01*
X159566819Y-90870794D01*
X159578655Y-90877301D01*
X159595184Y-90888158D01*
X159605869Y-90896447D01*
X159605871Y-90896448D01*
X159612131Y-90901304D01*
X159654544Y-90919657D01*
X159665181Y-90924868D01*
X159705663Y-90947124D01*
X159713342Y-90949096D01*
X159713343Y-90949096D01*
X159726434Y-90952457D01*
X159745136Y-90958859D01*
X159764823Y-90967379D01*
X159772652Y-90968619D01*
X159810448Y-90974605D01*
X159822074Y-90977013D01*
X159859135Y-90986529D01*
X159859136Y-90986529D01*
X159866812Y-90988500D01*
X159888258Y-90988500D01*
X159907968Y-90990051D01*
X159929151Y-90993406D01*
X159975140Y-90989059D01*
X159986995Y-90988500D01*
X161451250Y-90988500D01*
X161519371Y-91008502D01*
X161540345Y-91025405D01*
X163557338Y-93042398D01*
X163591364Y-93104710D01*
X163586299Y-93175525D01*
X163543752Y-93232361D01*
X163477232Y-93257172D01*
X163459608Y-93256878D01*
X163456887Y-93256300D01*
X163265913Y-93256300D01*
X163259461Y-93257672D01*
X163259456Y-93257672D01*
X163172513Y-93276153D01*
X163079112Y-93296006D01*
X163073082Y-93298691D01*
X163073081Y-93298691D01*
X162910678Y-93370997D01*
X162910676Y-93370998D01*
X162904648Y-93373682D01*
X162899307Y-93377562D01*
X162899306Y-93377563D01*
X162755237Y-93482236D01*
X162688369Y-93506094D01*
X162681176Y-93506300D01*
X116147260Y-93506300D01*
X116135403Y-93505741D01*
X116127663Y-93504011D01*
X116119738Y-93504260D01*
X116119737Y-93504260D01*
X116056799Y-93506238D01*
X116052841Y-93506300D01*
X116023768Y-93506300D01*
X116019834Y-93506797D01*
X116019832Y-93506797D01*
X116019389Y-93506853D01*
X116007554Y-93507785D01*
X115974764Y-93508816D01*
X115969289Y-93508988D01*
X115969288Y-93508988D01*
X115961369Y-93509237D01*
X115941644Y-93514968D01*
X115940771Y-93515221D01*
X115921418Y-93519229D01*
X115917943Y-93519668D01*
X115900136Y-93521918D01*
X115892768Y-93524835D01*
X115892765Y-93524836D01*
X115857182Y-93538925D01*
X115845947Y-93542771D01*
X115809216Y-93553442D01*
X115809213Y-93553443D01*
X115801600Y-93555655D01*
X115783135Y-93566575D01*
X115765395Y-93575266D01*
X115745444Y-93583165D01*
X115708074Y-93610316D01*
X115698152Y-93616833D01*
X115665223Y-93636307D01*
X115665219Y-93636310D01*
X115658393Y-93640347D01*
X115643229Y-93655511D01*
X115628196Y-93668351D01*
X115610843Y-93680959D01*
X115581398Y-93716552D01*
X115573408Y-93725332D01*
X106293895Y-103004845D01*
X106285115Y-103012835D01*
X106285113Y-103012837D01*
X106278420Y-103017084D01*
X106272994Y-103022862D01*
X106272993Y-103022863D01*
X106229896Y-103068757D01*
X106227141Y-103071599D01*
X106206573Y-103092167D01*
X106203856Y-103095670D01*
X106196148Y-103104695D01*
X106164528Y-103138367D01*
X106160707Y-103145318D01*
X106160706Y-103145319D01*
X106154197Y-103157158D01*
X106143343Y-103173682D01*
X106136962Y-103181909D01*
X106130196Y-103190632D01*
X106127049Y-103197904D01*
X106127048Y-103197906D01*
X106111846Y-103233035D01*
X106106624Y-103243695D01*
X106096998Y-103261205D01*
X106084376Y-103284163D01*
X106079041Y-103304941D01*
X106072642Y-103323631D01*
X106064120Y-103343324D01*
X106062880Y-103351155D01*
X106056894Y-103388948D01*
X106054487Y-103400571D01*
X106043000Y-103445312D01*
X106043000Y-103466759D01*
X106041449Y-103486469D01*
X106038094Y-103507652D01*
X95326808Y-103507652D01*
X95292873Y-102292770D01*
X95292824Y-102289252D01*
X95292824Y-100910748D01*
X95292873Y-100907230D01*
X95331364Y-99529262D01*
X95331511Y-99525747D01*
X95408463Y-98149348D01*
X95408709Y-98145838D01*
X95524058Y-96772194D01*
X95524401Y-96768692D01*
X95678063Y-95398757D01*
X95678504Y-95395266D01*
X95870360Y-94030142D01*
X95870891Y-94026712D01*
X96100802Y-92667395D01*
X96101421Y-92664027D01*
X96369175Y-91311775D01*
X96369906Y-91308334D01*
X96675321Y-89964042D01*
X96676149Y-89960622D01*
X96949998Y-88894051D01*
X97018966Y-88625440D01*
X97019885Y-88622055D01*
X97053571Y-88504579D01*
X97399864Y-87296909D01*
X97400873Y-87293566D01*
X97407812Y-87271694D01*
X97817703Y-85979553D01*
X97818813Y-85976218D01*
X97902397Y-85736197D01*
X98272161Y-84674380D01*
X98273335Y-84671154D01*
X98715507Y-83507128D01*
X98762872Y-83382439D01*
X98764167Y-83379168D01*
X99289482Y-82104657D01*
X99290868Y-82101423D01*
X99851564Y-80842080D01*
X99853040Y-80838886D01*
X100448685Y-79595679D01*
X100450250Y-79592528D01*
X101080339Y-78366507D01*
X101081990Y-78363400D01*
X101746113Y-77155364D01*
X101747851Y-77152305D01*
X102445423Y-75963323D01*
X102447246Y-75960313D01*
X103177751Y-74791260D01*
X103179657Y-74788303D01*
X103942514Y-73640112D01*
X103944502Y-73637209D01*
X104739109Y-72510781D01*
X104741177Y-72507934D01*
X105566946Y-71404106D01*
X105569093Y-71401318D01*
X105616473Y-71341540D01*
X106425352Y-70320988D01*
X106427573Y-70318264D01*
X106872093Y-69788506D01*
X107313679Y-69262244D01*
X107315942Y-69259622D01*
X108231213Y-68228727D01*
X108233585Y-68226130D01*
X109177228Y-67221254D01*
X109179672Y-67218723D01*
X110151020Y-66240569D01*
X110153534Y-66238107D01*
X110694511Y-65722942D01*
X111151828Y-65287445D01*
X111154400Y-65285064D01*
X112178837Y-64362656D01*
X112181484Y-64360338D01*
X113082763Y-63593290D01*
X113231289Y-63466885D01*
X113233955Y-63464679D01*
X114308311Y-62600874D01*
X114311077Y-62598713D01*
X115409126Y-61765248D01*
X115411959Y-61763160D01*
X116532811Y-60960709D01*
X116535700Y-60958701D01*
X116761571Y-60806349D01*
X117678572Y-60187825D01*
X117681482Y-60185921D01*
X118845398Y-59447278D01*
X118848395Y-59445434D01*
X120032494Y-58739569D01*
X120035541Y-58737810D01*
X121238856Y-58065300D01*
X121241951Y-58063626D01*
X122463614Y-57424956D01*
X122466754Y-57423370D01*
X123096697Y-57116126D01*
X123705770Y-56819061D01*
X123708942Y-56817569D01*
X124347852Y-56527747D01*
X124964313Y-56248108D01*
X124967534Y-56246700D01*
X126238346Y-55712500D01*
X126241608Y-55711182D01*
X127526848Y-55212670D01*
X127530146Y-55211444D01*
X128828767Y-54749026D01*
X128832098Y-54747892D01*
X130143124Y-54321913D01*
X130146485Y-54320872D01*
X131468940Y-53931653D01*
X131472329Y-53930707D01*
X132805108Y-53578572D01*
X132808522Y-53577721D01*
X134150622Y-53262934D01*
X134154058Y-53262179D01*
X134853865Y-53118529D01*
X135504376Y-52984998D01*
X135507831Y-52984338D01*
X136865473Y-52744950D01*
X136868901Y-52744395D01*
X138232609Y-52543020D01*
X138236080Y-52542556D01*
X139604964Y-52379326D01*
X139608449Y-52378961D01*
X139963361Y-52346661D01*
X140981267Y-52254025D01*
X140984775Y-52253755D01*
X142360568Y-52167198D01*
X142364083Y-52167026D01*
X143741748Y-52118916D01*
X143745265Y-52118842D01*
X144473393Y-52113759D01*
X145123785Y-52109218D01*
X145127279Y-52109243D01*
G37*
%TD.AperFunction*%
%TD*%
M02*
