%TF.GenerationSoftware,KiCad,Pcbnew,6.0.2+dfsg-1*%
%TF.CreationDate,2023-04-16T00:57:55+03:00*%
%TF.ProjectId,clock,636c6f63-6b2e-46b6-9963-61645f706362,rev?*%
%TF.SameCoordinates,Original*%
%TF.FileFunction,Legend,Bot*%
%TF.FilePolarity,Positive*%
%FSLAX46Y46*%
G04 Gerber Fmt 4.6, Leading zero omitted, Abs format (unit mm)*
G04 Created by KiCad (PCBNEW 6.0.2+dfsg-1) date 2023-04-16 00:57:55*
%MOMM*%
%LPD*%
G01*
G04 APERTURE LIST*
%ADD10C,0.150000*%
%ADD11C,0.120000*%
G04 APERTURE END LIST*
D10*
%TO.C,C4*%
X149597142Y-98703333D02*
X149644761Y-98655714D01*
X149692380Y-98512857D01*
X149692380Y-98417619D01*
X149644761Y-98274761D01*
X149549523Y-98179523D01*
X149454285Y-98131904D01*
X149263809Y-98084285D01*
X149120952Y-98084285D01*
X148930476Y-98131904D01*
X148835238Y-98179523D01*
X148740000Y-98274761D01*
X148692380Y-98417619D01*
X148692380Y-98512857D01*
X148740000Y-98655714D01*
X148787619Y-98703333D01*
X149025714Y-99560476D02*
X149692380Y-99560476D01*
X148644761Y-99322380D02*
X149359047Y-99084285D01*
X149359047Y-99703333D01*
%TO.C,J1*%
X127802380Y-99956666D02*
X128516666Y-99956666D01*
X128659523Y-99909047D01*
X128754761Y-99813809D01*
X128802380Y-99670952D01*
X128802380Y-99575714D01*
X128802380Y-100956666D02*
X128802380Y-100385238D01*
X128802380Y-100670952D02*
X127802380Y-100670952D01*
X127945238Y-100575714D01*
X128040476Y-100480476D01*
X128088095Y-100385238D01*
%TO.C,R2*%
X118872380Y-92273333D02*
X118396190Y-91940000D01*
X118872380Y-91701904D02*
X117872380Y-91701904D01*
X117872380Y-92082857D01*
X117920000Y-92178095D01*
X117967619Y-92225714D01*
X118062857Y-92273333D01*
X118205714Y-92273333D01*
X118300952Y-92225714D01*
X118348571Y-92178095D01*
X118396190Y-92082857D01*
X118396190Y-91701904D01*
X117967619Y-92654285D02*
X117920000Y-92701904D01*
X117872380Y-92797142D01*
X117872380Y-93035238D01*
X117920000Y-93130476D01*
X117967619Y-93178095D01*
X118062857Y-93225714D01*
X118158095Y-93225714D01*
X118300952Y-93178095D01*
X118872380Y-92606666D01*
X118872380Y-93225714D01*
%TO.C,U3*%
X165077380Y-100775595D02*
X165886904Y-100775595D01*
X165982142Y-100823214D01*
X166029761Y-100870833D01*
X166077380Y-100966071D01*
X166077380Y-101156547D01*
X166029761Y-101251785D01*
X165982142Y-101299404D01*
X165886904Y-101347023D01*
X165077380Y-101347023D01*
X165077380Y-101727976D02*
X165077380Y-102347023D01*
X165458333Y-102013690D01*
X165458333Y-102156547D01*
X165505952Y-102251785D01*
X165553571Y-102299404D01*
X165648809Y-102347023D01*
X165886904Y-102347023D01*
X165982142Y-102299404D01*
X166029761Y-102251785D01*
X166077380Y-102156547D01*
X166077380Y-101870833D01*
X166029761Y-101775595D01*
X165982142Y-101727976D01*
%TO.C,Q1*%
X117747619Y-98604761D02*
X117700000Y-98509523D01*
X117604761Y-98414285D01*
X117461904Y-98271428D01*
X117414285Y-98176190D01*
X117414285Y-98080952D01*
X117652380Y-98128571D02*
X117604761Y-98033333D01*
X117509523Y-97938095D01*
X117319047Y-97890476D01*
X116985714Y-97890476D01*
X116795238Y-97938095D01*
X116700000Y-98033333D01*
X116652380Y-98128571D01*
X116652380Y-98319047D01*
X116700000Y-98414285D01*
X116795238Y-98509523D01*
X116985714Y-98557142D01*
X117319047Y-98557142D01*
X117509523Y-98509523D01*
X117604761Y-98414285D01*
X117652380Y-98319047D01*
X117652380Y-98128571D01*
X117652380Y-99509523D02*
X117652380Y-98938095D01*
X117652380Y-99223809D02*
X116652380Y-99223809D01*
X116795238Y-99128571D01*
X116890476Y-99033333D01*
X116938095Y-98938095D01*
%TO.C,Q3*%
X151377619Y-92464761D02*
X151330000Y-92369523D01*
X151234761Y-92274285D01*
X151091904Y-92131428D01*
X151044285Y-92036190D01*
X151044285Y-91940952D01*
X151282380Y-91988571D02*
X151234761Y-91893333D01*
X151139523Y-91798095D01*
X150949047Y-91750476D01*
X150615714Y-91750476D01*
X150425238Y-91798095D01*
X150330000Y-91893333D01*
X150282380Y-91988571D01*
X150282380Y-92179047D01*
X150330000Y-92274285D01*
X150425238Y-92369523D01*
X150615714Y-92417142D01*
X150949047Y-92417142D01*
X151139523Y-92369523D01*
X151234761Y-92274285D01*
X151282380Y-92179047D01*
X151282380Y-91988571D01*
X150282380Y-92750476D02*
X150282380Y-93369523D01*
X150663333Y-93036190D01*
X150663333Y-93179047D01*
X150710952Y-93274285D01*
X150758571Y-93321904D01*
X150853809Y-93369523D01*
X151091904Y-93369523D01*
X151187142Y-93321904D01*
X151234761Y-93274285D01*
X151282380Y-93179047D01*
X151282380Y-92893333D01*
X151234761Y-92798095D01*
X151187142Y-92750476D01*
%TO.C,Q2*%
X126257619Y-91954761D02*
X126210000Y-91859523D01*
X126114761Y-91764285D01*
X125971904Y-91621428D01*
X125924285Y-91526190D01*
X125924285Y-91430952D01*
X126162380Y-91478571D02*
X126114761Y-91383333D01*
X126019523Y-91288095D01*
X125829047Y-91240476D01*
X125495714Y-91240476D01*
X125305238Y-91288095D01*
X125210000Y-91383333D01*
X125162380Y-91478571D01*
X125162380Y-91669047D01*
X125210000Y-91764285D01*
X125305238Y-91859523D01*
X125495714Y-91907142D01*
X125829047Y-91907142D01*
X126019523Y-91859523D01*
X126114761Y-91764285D01*
X126162380Y-91669047D01*
X126162380Y-91478571D01*
X125257619Y-92288095D02*
X125210000Y-92335714D01*
X125162380Y-92430952D01*
X125162380Y-92669047D01*
X125210000Y-92764285D01*
X125257619Y-92811904D01*
X125352857Y-92859523D01*
X125448095Y-92859523D01*
X125590952Y-92811904D01*
X126162380Y-92240476D01*
X126162380Y-92859523D01*
%TO.C,R3*%
X144102380Y-92463333D02*
X143626190Y-92130000D01*
X144102380Y-91891904D02*
X143102380Y-91891904D01*
X143102380Y-92272857D01*
X143150000Y-92368095D01*
X143197619Y-92415714D01*
X143292857Y-92463333D01*
X143435714Y-92463333D01*
X143530952Y-92415714D01*
X143578571Y-92368095D01*
X143626190Y-92272857D01*
X143626190Y-91891904D01*
X143102380Y-92796666D02*
X143102380Y-93415714D01*
X143483333Y-93082380D01*
X143483333Y-93225238D01*
X143530952Y-93320476D01*
X143578571Y-93368095D01*
X143673809Y-93415714D01*
X143911904Y-93415714D01*
X144007142Y-93368095D01*
X144054761Y-93320476D01*
X144102380Y-93225238D01*
X144102380Y-92939523D01*
X144054761Y-92844285D01*
X144007142Y-92796666D01*
%TO.C,C5*%
X181262142Y-101308333D02*
X181309761Y-101260714D01*
X181357380Y-101117857D01*
X181357380Y-101022619D01*
X181309761Y-100879761D01*
X181214523Y-100784523D01*
X181119285Y-100736904D01*
X180928809Y-100689285D01*
X180785952Y-100689285D01*
X180595476Y-100736904D01*
X180500238Y-100784523D01*
X180405000Y-100879761D01*
X180357380Y-101022619D01*
X180357380Y-101117857D01*
X180405000Y-101260714D01*
X180452619Y-101308333D01*
X180357380Y-102213095D02*
X180357380Y-101736904D01*
X180833571Y-101689285D01*
X180785952Y-101736904D01*
X180738333Y-101832142D01*
X180738333Y-102070238D01*
X180785952Y-102165476D01*
X180833571Y-102213095D01*
X180928809Y-102260714D01*
X181166904Y-102260714D01*
X181262142Y-102213095D01*
X181309761Y-102165476D01*
X181357380Y-102070238D01*
X181357380Y-101832142D01*
X181309761Y-101736904D01*
X181262142Y-101689285D01*
%TO.C,C3*%
X146957142Y-101233333D02*
X147004761Y-101185714D01*
X147052380Y-101042857D01*
X147052380Y-100947619D01*
X147004761Y-100804761D01*
X146909523Y-100709523D01*
X146814285Y-100661904D01*
X146623809Y-100614285D01*
X146480952Y-100614285D01*
X146290476Y-100661904D01*
X146195238Y-100709523D01*
X146100000Y-100804761D01*
X146052380Y-100947619D01*
X146052380Y-101042857D01*
X146100000Y-101185714D01*
X146147619Y-101233333D01*
X146052380Y-101566666D02*
X146052380Y-102185714D01*
X146433333Y-101852380D01*
X146433333Y-101995238D01*
X146480952Y-102090476D01*
X146528571Y-102138095D01*
X146623809Y-102185714D01*
X146861904Y-102185714D01*
X146957142Y-102138095D01*
X147004761Y-102090476D01*
X147052380Y-101995238D01*
X147052380Y-101709523D01*
X147004761Y-101614285D01*
X146957142Y-101566666D01*
%TO.C,U6*%
X162542380Y-100668095D02*
X163351904Y-100668095D01*
X163447142Y-100715714D01*
X163494761Y-100763333D01*
X163542380Y-100858571D01*
X163542380Y-101049047D01*
X163494761Y-101144285D01*
X163447142Y-101191904D01*
X163351904Y-101239523D01*
X162542380Y-101239523D01*
X162542380Y-102144285D02*
X162542380Y-101953809D01*
X162590000Y-101858571D01*
X162637619Y-101810952D01*
X162780476Y-101715714D01*
X162970952Y-101668095D01*
X163351904Y-101668095D01*
X163447142Y-101715714D01*
X163494761Y-101763333D01*
X163542380Y-101858571D01*
X163542380Y-102049047D01*
X163494761Y-102144285D01*
X163447142Y-102191904D01*
X163351904Y-102239523D01*
X163113809Y-102239523D01*
X163018571Y-102191904D01*
X162970952Y-102144285D01*
X162923333Y-102049047D01*
X162923333Y-101858571D01*
X162970952Y-101763333D01*
X163018571Y-101715714D01*
X163113809Y-101668095D01*
%TO.C,Q4*%
X180847619Y-93144761D02*
X180800000Y-93049523D01*
X180704761Y-92954285D01*
X180561904Y-92811428D01*
X180514285Y-92716190D01*
X180514285Y-92620952D01*
X180752380Y-92668571D02*
X180704761Y-92573333D01*
X180609523Y-92478095D01*
X180419047Y-92430476D01*
X180085714Y-92430476D01*
X179895238Y-92478095D01*
X179800000Y-92573333D01*
X179752380Y-92668571D01*
X179752380Y-92859047D01*
X179800000Y-92954285D01*
X179895238Y-93049523D01*
X180085714Y-93097142D01*
X180419047Y-93097142D01*
X180609523Y-93049523D01*
X180704761Y-92954285D01*
X180752380Y-92859047D01*
X180752380Y-92668571D01*
X180085714Y-93954285D02*
X180752380Y-93954285D01*
X179704761Y-93716190D02*
X180419047Y-93478095D01*
X180419047Y-94097142D01*
%TO.C,R1*%
X119882380Y-101220833D02*
X119406190Y-100887500D01*
X119882380Y-100649404D02*
X118882380Y-100649404D01*
X118882380Y-101030357D01*
X118930000Y-101125595D01*
X118977619Y-101173214D01*
X119072857Y-101220833D01*
X119215714Y-101220833D01*
X119310952Y-101173214D01*
X119358571Y-101125595D01*
X119406190Y-101030357D01*
X119406190Y-100649404D01*
X119882380Y-102173214D02*
X119882380Y-101601785D01*
X119882380Y-101887500D02*
X118882380Y-101887500D01*
X119025238Y-101792261D01*
X119120476Y-101697023D01*
X119168095Y-101601785D01*
%TO.C,R4*%
X174292380Y-93343333D02*
X173816190Y-93010000D01*
X174292380Y-92771904D02*
X173292380Y-92771904D01*
X173292380Y-93152857D01*
X173340000Y-93248095D01*
X173387619Y-93295714D01*
X173482857Y-93343333D01*
X173625714Y-93343333D01*
X173720952Y-93295714D01*
X173768571Y-93248095D01*
X173816190Y-93152857D01*
X173816190Y-92771904D01*
X173625714Y-94200476D02*
X174292380Y-94200476D01*
X173244761Y-93962380D02*
X173959047Y-93724285D01*
X173959047Y-94343333D01*
D11*
%TO.C,C4*%
X149735000Y-101923752D02*
X149735000Y-101401248D01*
X148265000Y-101923752D02*
X148265000Y-101401248D01*
%TO.C,J1*%
X133920000Y-98600000D02*
X132900000Y-98600000D01*
X128840000Y-103800000D02*
X127820000Y-103800000D01*
X131380000Y-98600000D02*
X130360000Y-98600000D01*
X135440000Y-105240000D02*
X135440000Y-103800000D01*
X131380000Y-103800000D02*
X130360000Y-103800000D01*
X123760000Y-98600000D02*
X123190000Y-98600000D01*
X123760000Y-103800000D02*
X123190000Y-103800000D01*
X136010000Y-103800000D02*
X135440000Y-103800000D01*
X136010000Y-98600000D02*
X135440000Y-98600000D01*
X136010000Y-103800000D02*
X136010000Y-98600000D01*
X126300000Y-98600000D02*
X125280000Y-98600000D01*
X123190000Y-103800000D02*
X123190000Y-98600000D01*
X126300000Y-103800000D02*
X125280000Y-103800000D01*
X128840000Y-98600000D02*
X127820000Y-98600000D01*
X133920000Y-103800000D02*
X132900000Y-103800000D01*
%TO.C,R2*%
X120422500Y-92797224D02*
X120422500Y-92287776D01*
X119377500Y-92797224D02*
X119377500Y-92287776D01*
%TO.C,U3*%
X176585000Y-101537500D02*
X176585000Y-103487500D01*
X166465000Y-101537500D02*
X166465000Y-103487500D01*
X176585000Y-101537500D02*
X176585000Y-99587500D01*
X166465000Y-101537500D02*
X166465000Y-98087500D01*
%TO.C,Q1*%
X113120000Y-97940000D02*
X113120000Y-99400000D01*
X116280000Y-97940000D02*
X115350000Y-97940000D01*
X113120000Y-97940000D02*
X114050000Y-97940000D01*
X116280000Y-97940000D02*
X116280000Y-101100000D01*
%TO.C,Q3*%
X149780000Y-95400000D02*
X148850000Y-95400000D01*
X146620000Y-95400000D02*
X146620000Y-92240000D01*
X149780000Y-95400000D02*
X149780000Y-93940000D01*
X146620000Y-95400000D02*
X147550000Y-95400000D01*
%TO.C,Q2*%
X121280000Y-92970000D02*
X122210000Y-92970000D01*
X121280000Y-92970000D02*
X121280000Y-89810000D01*
X124440000Y-92970000D02*
X124440000Y-91510000D01*
X124440000Y-92970000D02*
X123510000Y-92970000D01*
%TO.C,R3*%
X145572500Y-94564724D02*
X145572500Y-94055276D01*
X144527500Y-94564724D02*
X144527500Y-94055276D01*
%TO.C,C5*%
X178490000Y-101736252D02*
X178490000Y-101213748D01*
X179960000Y-101736252D02*
X179960000Y-101213748D01*
%TO.C,C3*%
X136940000Y-104695563D02*
X136940000Y-97040000D01*
X144595563Y-105760000D02*
X145660000Y-104695563D01*
X145660000Y-104695563D02*
X145660000Y-97040000D01*
X143810000Y-107000000D02*
X143810000Y-106000000D01*
X144310000Y-106500000D02*
X143310000Y-106500000D01*
X138004437Y-105760000D02*
X136940000Y-104695563D01*
X136940000Y-97040000D02*
X139790000Y-97040000D01*
X138004437Y-105760000D02*
X139790000Y-105760000D01*
X144595563Y-105760000D02*
X142810000Y-105760000D01*
X145660000Y-97040000D02*
X142810000Y-97040000D01*
%TO.C,U6*%
X161985000Y-101375000D02*
X161985000Y-103325000D01*
X151865000Y-101375000D02*
X151865000Y-97925000D01*
X161985000Y-101375000D02*
X161985000Y-99425000D01*
X151865000Y-101375000D02*
X151865000Y-103325000D01*
%TO.C,Q4*%
X176420000Y-95460000D02*
X177350000Y-95460000D01*
X179580000Y-95460000D02*
X179580000Y-94000000D01*
X176420000Y-95460000D02*
X176420000Y-92300000D01*
X179580000Y-95460000D02*
X178650000Y-95460000D01*
%TO.C,R1*%
X117477500Y-101642224D02*
X117477500Y-101132776D01*
X118522500Y-101642224D02*
X118522500Y-101132776D01*
%TO.C,R4*%
X174677500Y-95154724D02*
X174677500Y-94645276D01*
X175722500Y-95154724D02*
X175722500Y-94645276D01*
%TD*%
M02*
