%TF.GenerationSoftware,KiCad,Pcbnew,6.0.2+dfsg-1*%
%TF.CreationDate,2023-04-16T00:57:55+03:00*%
%TF.ProjectId,clock,636c6f63-6b2e-46b6-9963-61645f706362,rev?*%
%TF.SameCoordinates,Original*%
%TF.FileFunction,Legend,Top*%
%TF.FilePolarity,Positive*%
%FSLAX46Y46*%
G04 Gerber Fmt 4.6, Leading zero omitted, Abs format (unit mm)*
G04 Created by KiCad (PCBNEW 6.0.2+dfsg-1) date 2023-04-16 00:57:55*
%MOMM*%
%LPD*%
G01*
G04 APERTURE LIST*
%ADD10C,0.150000*%
%ADD11C,0.120000*%
G04 APERTURE END LIST*
D10*
%TO.C,C1*%
X159233333Y-138637142D02*
X159185714Y-138684761D01*
X159042857Y-138732380D01*
X158947619Y-138732380D01*
X158804761Y-138684761D01*
X158709523Y-138589523D01*
X158661904Y-138494285D01*
X158614285Y-138303809D01*
X158614285Y-138160952D01*
X158661904Y-137970476D01*
X158709523Y-137875238D01*
X158804761Y-137780000D01*
X158947619Y-137732380D01*
X159042857Y-137732380D01*
X159185714Y-137780000D01*
X159233333Y-137827619D01*
X160185714Y-138732380D02*
X159614285Y-138732380D01*
X159900000Y-138732380D02*
X159900000Y-137732380D01*
X159804761Y-137875238D01*
X159709523Y-137970476D01*
X159614285Y-138018095D01*
%TO.C,R8*%
X133003333Y-135602380D02*
X132670000Y-135126190D01*
X132431904Y-135602380D02*
X132431904Y-134602380D01*
X132812857Y-134602380D01*
X132908095Y-134650000D01*
X132955714Y-134697619D01*
X133003333Y-134792857D01*
X133003333Y-134935714D01*
X132955714Y-135030952D01*
X132908095Y-135078571D01*
X132812857Y-135126190D01*
X132431904Y-135126190D01*
X133574761Y-135030952D02*
X133479523Y-134983333D01*
X133431904Y-134935714D01*
X133384285Y-134840476D01*
X133384285Y-134792857D01*
X133431904Y-134697619D01*
X133479523Y-134650000D01*
X133574761Y-134602380D01*
X133765238Y-134602380D01*
X133860476Y-134650000D01*
X133908095Y-134697619D01*
X133955714Y-134792857D01*
X133955714Y-134840476D01*
X133908095Y-134935714D01*
X133860476Y-134983333D01*
X133765238Y-135030952D01*
X133574761Y-135030952D01*
X133479523Y-135078571D01*
X133431904Y-135126190D01*
X133384285Y-135221428D01*
X133384285Y-135411904D01*
X133431904Y-135507142D01*
X133479523Y-135554761D01*
X133574761Y-135602380D01*
X133765238Y-135602380D01*
X133860476Y-135554761D01*
X133908095Y-135507142D01*
X133955714Y-135411904D01*
X133955714Y-135221428D01*
X133908095Y-135126190D01*
X133860476Y-135078571D01*
X133765238Y-135030952D01*
%TO.C,R7*%
X130133333Y-129802380D02*
X129800000Y-129326190D01*
X129561904Y-129802380D02*
X129561904Y-128802380D01*
X129942857Y-128802380D01*
X130038095Y-128850000D01*
X130085714Y-128897619D01*
X130133333Y-128992857D01*
X130133333Y-129135714D01*
X130085714Y-129230952D01*
X130038095Y-129278571D01*
X129942857Y-129326190D01*
X129561904Y-129326190D01*
X130466666Y-128802380D02*
X131133333Y-128802380D01*
X130704761Y-129802380D01*
%TO.C,R6*%
X162473333Y-134212380D02*
X162140000Y-133736190D01*
X161901904Y-134212380D02*
X161901904Y-133212380D01*
X162282857Y-133212380D01*
X162378095Y-133260000D01*
X162425714Y-133307619D01*
X162473333Y-133402857D01*
X162473333Y-133545714D01*
X162425714Y-133640952D01*
X162378095Y-133688571D01*
X162282857Y-133736190D01*
X161901904Y-133736190D01*
X163330476Y-133212380D02*
X163140000Y-133212380D01*
X163044761Y-133260000D01*
X162997142Y-133307619D01*
X162901904Y-133450476D01*
X162854285Y-133640952D01*
X162854285Y-134021904D01*
X162901904Y-134117142D01*
X162949523Y-134164761D01*
X163044761Y-134212380D01*
X163235238Y-134212380D01*
X163330476Y-134164761D01*
X163378095Y-134117142D01*
X163425714Y-134021904D01*
X163425714Y-133783809D01*
X163378095Y-133688571D01*
X163330476Y-133640952D01*
X163235238Y-133593333D01*
X163044761Y-133593333D01*
X162949523Y-133640952D01*
X162901904Y-133688571D01*
X162854285Y-133783809D01*
%TO.C,C2*%
X130193333Y-138827142D02*
X130145714Y-138874761D01*
X130002857Y-138922380D01*
X129907619Y-138922380D01*
X129764761Y-138874761D01*
X129669523Y-138779523D01*
X129621904Y-138684285D01*
X129574285Y-138493809D01*
X129574285Y-138350952D01*
X129621904Y-138160476D01*
X129669523Y-138065238D01*
X129764761Y-137970000D01*
X129907619Y-137922380D01*
X130002857Y-137922380D01*
X130145714Y-137970000D01*
X130193333Y-138017619D01*
X130574285Y-138017619D02*
X130621904Y-137970000D01*
X130717142Y-137922380D01*
X130955238Y-137922380D01*
X131050476Y-137970000D01*
X131098095Y-138017619D01*
X131145714Y-138112857D01*
X131145714Y-138208095D01*
X131098095Y-138350952D01*
X130526666Y-138922380D01*
X131145714Y-138922380D01*
%TO.C,SW2*%
X137046666Y-139804761D02*
X137189523Y-139852380D01*
X137427619Y-139852380D01*
X137522857Y-139804761D01*
X137570476Y-139757142D01*
X137618095Y-139661904D01*
X137618095Y-139566666D01*
X137570476Y-139471428D01*
X137522857Y-139423809D01*
X137427619Y-139376190D01*
X137237142Y-139328571D01*
X137141904Y-139280952D01*
X137094285Y-139233333D01*
X137046666Y-139138095D01*
X137046666Y-139042857D01*
X137094285Y-138947619D01*
X137141904Y-138900000D01*
X137237142Y-138852380D01*
X137475238Y-138852380D01*
X137618095Y-138900000D01*
X137951428Y-138852380D02*
X138189523Y-139852380D01*
X138380000Y-139138095D01*
X138570476Y-139852380D01*
X138808571Y-138852380D01*
X139141904Y-138947619D02*
X139189523Y-138900000D01*
X139284761Y-138852380D01*
X139522857Y-138852380D01*
X139618095Y-138900000D01*
X139665714Y-138947619D01*
X139713333Y-139042857D01*
X139713333Y-139138095D01*
X139665714Y-139280952D01*
X139094285Y-139852380D01*
X139713333Y-139852380D01*
%TO.C,SW1*%
X149846666Y-139804761D02*
X149989523Y-139852380D01*
X150227619Y-139852380D01*
X150322857Y-139804761D01*
X150370476Y-139757142D01*
X150418095Y-139661904D01*
X150418095Y-139566666D01*
X150370476Y-139471428D01*
X150322857Y-139423809D01*
X150227619Y-139376190D01*
X150037142Y-139328571D01*
X149941904Y-139280952D01*
X149894285Y-139233333D01*
X149846666Y-139138095D01*
X149846666Y-139042857D01*
X149894285Y-138947619D01*
X149941904Y-138900000D01*
X150037142Y-138852380D01*
X150275238Y-138852380D01*
X150418095Y-138900000D01*
X150751428Y-138852380D02*
X150989523Y-139852380D01*
X151180000Y-139138095D01*
X151370476Y-139852380D01*
X151608571Y-138852380D01*
X152513333Y-139852380D02*
X151941904Y-139852380D01*
X152227619Y-139852380D02*
X152227619Y-138852380D01*
X152132380Y-138995238D01*
X152037142Y-139090476D01*
X151941904Y-139138095D01*
%TO.C,R5*%
X158623333Y-129882380D02*
X158290000Y-129406190D01*
X158051904Y-129882380D02*
X158051904Y-128882380D01*
X158432857Y-128882380D01*
X158528095Y-128930000D01*
X158575714Y-128977619D01*
X158623333Y-129072857D01*
X158623333Y-129215714D01*
X158575714Y-129310952D01*
X158528095Y-129358571D01*
X158432857Y-129406190D01*
X158051904Y-129406190D01*
X159528095Y-128882380D02*
X159051904Y-128882380D01*
X159004285Y-129358571D01*
X159051904Y-129310952D01*
X159147142Y-129263333D01*
X159385238Y-129263333D01*
X159480476Y-129310952D01*
X159528095Y-129358571D01*
X159575714Y-129453809D01*
X159575714Y-129691904D01*
X159528095Y-129787142D01*
X159480476Y-129834761D01*
X159385238Y-129882380D01*
X159147142Y-129882380D01*
X159051904Y-129834761D01*
X159004285Y-129787142D01*
D11*
%TO.C,R9*%
X145535000Y-108372936D02*
X145535000Y-108827064D01*
X144065000Y-108372936D02*
X144065000Y-108827064D01*
%TO.C,U1*%
X109050000Y-109793700D02*
X116050000Y-109793700D01*
X109050000Y-109793700D02*
X111270000Y-91313700D01*
X117270000Y-100813700D02*
X110270000Y-100813700D01*
X111270000Y-91313700D02*
X118470000Y-91313700D01*
X111270000Y-91313700D02*
X118270000Y-91313700D01*
X118470000Y-91313700D02*
X116050000Y-109793700D01*
X118497214Y-109793700D02*
G75*
G03*
X118497214Y-109793700I-447214J0D01*
G01*
%TO.C,D1*%
X143840000Y-111925000D02*
X143840000Y-114785000D01*
X143840000Y-114785000D02*
X145760000Y-114785000D01*
X145760000Y-114785000D02*
X145760000Y-111925000D01*
%TO.C,C1*%
X159661252Y-135865000D02*
X159138748Y-135865000D01*
X159661252Y-137335000D02*
X159138748Y-137335000D01*
%TO.C,G\u002A\u002A\u002A*%
X154080000Y-75080000D02*
X154080000Y-75290000D01*
X154080000Y-75290000D02*
X154020000Y-75480000D01*
X154020000Y-75480000D02*
X153840000Y-75550000D01*
X153840000Y-75550000D02*
X153550000Y-75420000D01*
X153550000Y-75420000D02*
X153340000Y-75230000D01*
X153340000Y-75230000D02*
X153250000Y-75090000D01*
X153250000Y-75090000D02*
X153230000Y-75010000D01*
X153230000Y-75010000D02*
X154050000Y-74920000D01*
X154050000Y-74920000D02*
X154080000Y-75080000D01*
G36*
X154080000Y-75080000D02*
G01*
X154080000Y-75290000D01*
X154020000Y-75480000D01*
X153840000Y-75550000D01*
X153550000Y-75420000D01*
X153340000Y-75230000D01*
X153250000Y-75090000D01*
X153230000Y-75010000D01*
X154050000Y-74920000D01*
X154080000Y-75080000D01*
G37*
X154080000Y-75080000D02*
X154080000Y-75290000D01*
X154020000Y-75480000D01*
X153840000Y-75550000D01*
X153550000Y-75420000D01*
X153340000Y-75230000D01*
X153250000Y-75090000D01*
X153230000Y-75010000D01*
X154050000Y-74920000D01*
X154080000Y-75080000D01*
G36*
X144189523Y-66239103D02*
G01*
X144507801Y-66296970D01*
X144798957Y-66394407D01*
X145056563Y-66530847D01*
X145188333Y-66627849D01*
X145237310Y-66671878D01*
X145247162Y-66691798D01*
X145214517Y-66687288D01*
X145135998Y-66658027D01*
X145028858Y-66612669D01*
X144697105Y-66495621D01*
X144319529Y-66412299D01*
X144038636Y-66375223D01*
X143687815Y-66360142D01*
X143320941Y-66384844D01*
X142931058Y-66450262D01*
X142511207Y-66557331D01*
X142375776Y-66598529D01*
X142336294Y-66608503D01*
X142341501Y-66600368D01*
X142382514Y-66578229D01*
X142450453Y-66546186D01*
X142536436Y-66508344D01*
X142631583Y-66468805D01*
X142727013Y-66431670D01*
X142773742Y-66414693D01*
X143136232Y-66308602D01*
X143497311Y-66244352D01*
X143850551Y-66221375D01*
X144189523Y-66239103D01*
G37*
X155420000Y-74650000D02*
X155490000Y-74880000D01*
X155490000Y-74880000D02*
X155460000Y-75010000D01*
X155460000Y-75010000D02*
X155370000Y-75120000D01*
X155370000Y-75120000D02*
X155220000Y-75190000D01*
X155220000Y-75190000D02*
X154980000Y-75200000D01*
X154980000Y-75200000D02*
X154780000Y-75110000D01*
X154780000Y-75110000D02*
X154620000Y-74980000D01*
X154620000Y-74980000D02*
X154490000Y-74760000D01*
X154490000Y-74760000D02*
X155260000Y-74370000D01*
X155260000Y-74370000D02*
X155420000Y-74650000D01*
G36*
X155420000Y-74650000D02*
G01*
X155490000Y-74880000D01*
X155460000Y-75010000D01*
X155370000Y-75120000D01*
X155220000Y-75190000D01*
X154980000Y-75200000D01*
X154780000Y-75110000D01*
X154620000Y-74980000D01*
X154490000Y-74760000D01*
X155260000Y-74370000D01*
X155420000Y-74650000D01*
G37*
X155420000Y-74650000D02*
X155490000Y-74880000D01*
X155460000Y-75010000D01*
X155370000Y-75120000D01*
X155220000Y-75190000D01*
X154980000Y-75200000D01*
X154780000Y-75110000D01*
X154620000Y-74980000D01*
X154490000Y-74760000D01*
X155260000Y-74370000D01*
X155420000Y-74650000D01*
G36*
X135413997Y-77643388D02*
G01*
X135445332Y-77428091D01*
X135492233Y-77226158D01*
X135533478Y-77102477D01*
X135538185Y-77073026D01*
X135514464Y-77057554D01*
X135450583Y-77051571D01*
X135398228Y-77050723D01*
X135130279Y-77028518D01*
X134833371Y-76967659D01*
X134518101Y-76871899D01*
X134195064Y-76744988D01*
X133874859Y-76590679D01*
X133568082Y-76412723D01*
X133533623Y-76390574D01*
X133394002Y-76288610D01*
X133238809Y-76156816D01*
X133079678Y-76006884D01*
X132928245Y-75850510D01*
X132796146Y-75699387D01*
X132695017Y-75565210D01*
X132665185Y-75517771D01*
X132520637Y-75214769D01*
X132431012Y-74902277D01*
X132396174Y-74585722D01*
X132402695Y-74481994D01*
X132708990Y-74481994D01*
X132709345Y-74615231D01*
X132712776Y-74683855D01*
X132758699Y-74964018D01*
X132857912Y-75231325D01*
X133011905Y-75488803D01*
X133222167Y-75739484D01*
X133242214Y-75760099D01*
X133548602Y-76031671D01*
X133899249Y-76269104D01*
X134289718Y-76469748D01*
X134681066Y-76619816D01*
X134831813Y-76666655D01*
X134951988Y-76695993D01*
X135064920Y-76711718D01*
X135193939Y-76717719D01*
X135271895Y-76718287D01*
X135436097Y-76714499D01*
X135565752Y-76700972D01*
X135683937Y-76674459D01*
X135764817Y-76648972D01*
X136029957Y-76543401D01*
X136294737Y-76410113D01*
X136552160Y-76254800D01*
X136795233Y-76083157D01*
X137016957Y-75900876D01*
X137210338Y-75713653D01*
X137368379Y-75527180D01*
X137484085Y-75347152D01*
X137532761Y-75229483D01*
X137866485Y-75229483D01*
X137889745Y-75227195D01*
X137949709Y-75202150D01*
X138019212Y-75167177D01*
X138120789Y-75118277D01*
X138218200Y-75079949D01*
X138266752Y-75065942D01*
X138362066Y-75045969D01*
X138258425Y-74931251D01*
X138187261Y-74843117D01*
X138126226Y-74751860D01*
X138106999Y-74716326D01*
X138072294Y-74652024D01*
X138045958Y-74617822D01*
X138041983Y-74616119D01*
X138029502Y-74641881D01*
X138006425Y-74709951D01*
X137976710Y-74806499D01*
X137944312Y-74917697D01*
X137913190Y-75029717D01*
X137887299Y-75128729D01*
X137870596Y-75200905D01*
X137866485Y-75229483D01*
X137532761Y-75229483D01*
X137544850Y-75200258D01*
X137570885Y-75112039D01*
X137592699Y-75041940D01*
X137597955Y-75026285D01*
X137590352Y-75014336D01*
X137550317Y-75039785D01*
X137516149Y-75069317D01*
X137441238Y-75132668D01*
X137372239Y-75182141D01*
X137354223Y-75192548D01*
X137267082Y-75216718D01*
X137150959Y-75223792D01*
X137032270Y-75213828D01*
X136948269Y-75191668D01*
X136866644Y-75158313D01*
X136987659Y-75135567D01*
X137132241Y-75094649D01*
X137262335Y-75024496D01*
X137394568Y-74915272D01*
X137445844Y-74864547D01*
X137533472Y-74766702D01*
X137609893Y-74661184D01*
X137679129Y-74539362D01*
X137745200Y-74392602D01*
X137812126Y-74212273D01*
X137883927Y-73989742D01*
X137938540Y-73806647D01*
X138021221Y-73529254D01*
X138099761Y-73282049D01*
X138178007Y-73056944D01*
X138259805Y-72845848D01*
X138349000Y-72640672D01*
X138449439Y-72433325D01*
X138564966Y-72215718D01*
X138699429Y-71979761D01*
X138856672Y-71717364D01*
X139040542Y-71420436D01*
X139172631Y-71210660D01*
X139264680Y-71057159D01*
X139361820Y-70881718D01*
X139455753Y-70700541D01*
X139538177Y-70529834D01*
X139600796Y-70385800D01*
X139617327Y-70342391D01*
X139638499Y-70303555D01*
X139650083Y-70300509D01*
X139649397Y-70333954D01*
X139634090Y-70411898D01*
X139607109Y-70523572D01*
X139571398Y-70658209D01*
X139529904Y-70805041D01*
X139485572Y-70953300D01*
X139441349Y-71092218D01*
X139403372Y-71202295D01*
X139368686Y-71294443D01*
X139330722Y-71387509D01*
X139286049Y-71488566D01*
X139231232Y-71604689D01*
X139162841Y-71742952D01*
X139077442Y-71910430D01*
X138971602Y-72114196D01*
X138841889Y-72361324D01*
X138830224Y-72383470D01*
X138690555Y-72669423D01*
X138571669Y-72955045D01*
X138475126Y-73233575D01*
X138402487Y-73498255D01*
X138355312Y-73742321D01*
X138335162Y-73959015D01*
X138343596Y-74141575D01*
X138382176Y-74283240D01*
X138388661Y-74296692D01*
X138429762Y-74368272D01*
X138480946Y-74437876D01*
X138546828Y-74508893D01*
X138632025Y-74584712D01*
X138741151Y-74668724D01*
X138878822Y-74764318D01*
X139049653Y-74874882D01*
X139258261Y-75003808D01*
X139509261Y-75154484D01*
X139751689Y-75297668D01*
X140076695Y-75489498D01*
X140356307Y-75656639D01*
X140595778Y-75802643D01*
X140800362Y-75931066D01*
X140975315Y-76045459D01*
X141125889Y-76149376D01*
X141257340Y-76246371D01*
X141374921Y-76339996D01*
X141483887Y-76433805D01*
X141589491Y-76531351D01*
X141621895Y-76562448D01*
X141853858Y-76786774D01*
X142143813Y-76685056D01*
X142467366Y-76585012D01*
X142778503Y-76515008D01*
X143069559Y-76475874D01*
X143332871Y-76468441D01*
X143560773Y-76493541D01*
X143664199Y-76520194D01*
X143810861Y-76589276D01*
X143953201Y-76693762D01*
X144071672Y-76817398D01*
X144130718Y-76908166D01*
X144189762Y-77054092D01*
X144246451Y-77253710D01*
X144300197Y-77502746D01*
X144350412Y-77796929D01*
X144396505Y-78131985D01*
X144437888Y-78503643D01*
X144473972Y-78907629D01*
X144504168Y-79339671D01*
X144527463Y-79785797D01*
X144537273Y-79960403D01*
X144540000Y-80077176D01*
X144549332Y-80168434D01*
X144600000Y-80170000D01*
X144610000Y-80094185D01*
X144607218Y-79969637D01*
X144591545Y-79797775D01*
X144591778Y-79776644D01*
X144595998Y-79637029D01*
X144912870Y-79637029D01*
X144919615Y-79661383D01*
X144945516Y-79680354D01*
X144999084Y-79695991D01*
X145088830Y-79710346D01*
X145223264Y-79725468D01*
X145318813Y-79734805D01*
X145457806Y-79752786D01*
X145613676Y-79780517D01*
X145770297Y-79814330D01*
X145911543Y-79850555D01*
X146021288Y-79885526D01*
X146066163Y-79904823D01*
X146177012Y-79984460D01*
X146266031Y-80088830D01*
X146316873Y-80198408D01*
X146318743Y-80206538D01*
X146316122Y-80309281D01*
X146277361Y-80429434D01*
X146211646Y-80548235D01*
X146128165Y-80646924D01*
X146086932Y-80679989D01*
X146024592Y-80725828D01*
X145989049Y-80758521D01*
X145985906Y-80764525D01*
X145997001Y-80770521D01*
X146033625Y-80773388D01*
X146100509Y-80772899D01*
X146202381Y-80768829D01*
X146343970Y-80760953D01*
X146530006Y-80749044D01*
X146765218Y-80732878D01*
X146999365Y-80716196D01*
X147211436Y-80699361D01*
X147394455Y-80681728D01*
X147541130Y-80664165D01*
X147644167Y-80647542D01*
X147695256Y-80633276D01*
X147817442Y-80558438D01*
X147965102Y-80449560D01*
X148125953Y-80316619D01*
X148287714Y-80169594D01*
X148389127Y-80069568D01*
X148489784Y-79968176D01*
X148555020Y-79906729D01*
X148588553Y-79882376D01*
X148594098Y-79892268D01*
X148581205Y-79922283D01*
X148495001Y-80069270D01*
X148381300Y-80230449D01*
X148257289Y-80383056D01*
X148145309Y-80499610D01*
X148007434Y-80626699D01*
X148163637Y-80606799D01*
X148856694Y-80507203D01*
X149506051Y-80390786D01*
X150110181Y-80258060D01*
X150667560Y-80109538D01*
X151176660Y-79945736D01*
X151635957Y-79767165D01*
X152043925Y-79574339D01*
X152399037Y-79367773D01*
X152699769Y-79147978D01*
X152823622Y-79038622D01*
X153050541Y-78791415D01*
X153221451Y-78531539D01*
X153336043Y-78260463D01*
X153394005Y-77979654D01*
X153395026Y-77690581D01*
X153338796Y-77394711D01*
X153232164Y-77108891D01*
X153182510Y-77005935D01*
X153140804Y-76941002D01*
X153092221Y-76898783D01*
X153021933Y-76863971D01*
X152977485Y-76845934D01*
X152758262Y-76753296D01*
X152562066Y-76656525D01*
X152378717Y-76548608D01*
X152198036Y-76422530D01*
X152009842Y-76271277D01*
X151803956Y-76087833D01*
X151609425Y-75903280D01*
X151420731Y-75723880D01*
X151262914Y-75582406D01*
X151128190Y-75473565D01*
X151008771Y-75392063D01*
X150896872Y-75332606D01*
X150784705Y-75289900D01*
X150664486Y-75258653D01*
X150659794Y-75257650D01*
X150451648Y-75228783D01*
X150236190Y-75231163D01*
X150005388Y-75266295D01*
X149751206Y-75335678D01*
X149465612Y-75440814D01*
X149296806Y-75512407D01*
X148907223Y-75696997D01*
X148570650Y-75885121D01*
X148282110Y-76080268D01*
X148036621Y-76285925D01*
X147829206Y-76505577D01*
X147766602Y-76583897D01*
X147689620Y-76687856D01*
X147628147Y-76777343D01*
X147589689Y-76841034D01*
X147580456Y-76864816D01*
X147608214Y-76892273D01*
X147686812Y-76914850D01*
X147809236Y-76931658D01*
X147968472Y-76941807D01*
X148157507Y-76944409D01*
X148203858Y-76943856D01*
X148372077Y-76935325D01*
X148534194Y-76913363D01*
X148704565Y-76874701D01*
X148897542Y-76816073D01*
X149127479Y-76734210D01*
X149131712Y-76732628D01*
X149312052Y-76686541D01*
X149525310Y-76666553D01*
X149752253Y-76673407D01*
X149943584Y-76701311D01*
X150066333Y-76729117D01*
X150203910Y-76764170D01*
X150343628Y-76802753D01*
X150472802Y-76841151D01*
X150578745Y-76875648D01*
X150648772Y-76902528D01*
X150668470Y-76913632D01*
X150667113Y-76925987D01*
X150618681Y-76918239D01*
X150610479Y-76916058D01*
X150549922Y-76907492D01*
X150444936Y-76900691D01*
X150309073Y-76896237D01*
X150155882Y-76894714D01*
X150117557Y-76894853D01*
X149960636Y-76896754D01*
X149835457Y-76901740D01*
X149725885Y-76912151D01*
X149615781Y-76930328D01*
X149489010Y-76958612D01*
X149329435Y-76999341D01*
X149247694Y-77021003D01*
X149009874Y-77083928D01*
X148818704Y-77133100D01*
X148664945Y-77170227D01*
X148539355Y-77197017D01*
X148432693Y-77215179D01*
X148335718Y-77226419D01*
X148239190Y-77232447D01*
X148133867Y-77234970D01*
X148087877Y-77235376D01*
X147902404Y-77232634D01*
X147739538Y-77219714D01*
X147583217Y-77193414D01*
X147417382Y-77150532D01*
X147225976Y-77087867D01*
X147077182Y-77033872D01*
X146821038Y-76942205D01*
X146604003Y-76873478D01*
X146413376Y-76824581D01*
X146236456Y-76792404D01*
X146060542Y-76773837D01*
X146000205Y-76770149D01*
X145807369Y-76766652D01*
X145645513Y-76780818D01*
X145511035Y-76817260D01*
X145400330Y-76880597D01*
X145309793Y-76975444D01*
X145235822Y-77106416D01*
X145174812Y-77278129D01*
X145123158Y-77495201D01*
X145077258Y-77762246D01*
X145045035Y-77993529D01*
X145029233Y-78122289D01*
X145018081Y-78227978D01*
X145012731Y-78298555D01*
X145013627Y-78321967D01*
X145044311Y-78332111D01*
X145119447Y-78351695D01*
X145226858Y-78377657D01*
X145323468Y-78399967D01*
X145561585Y-78460439D01*
X145748607Y-78523665D01*
X145891421Y-78593216D01*
X145996919Y-78672665D01*
X146071988Y-78765581D01*
X146089947Y-78797270D01*
X146125878Y-78925342D01*
X146111486Y-79062877D01*
X146051577Y-79201349D01*
X145950957Y-79332234D01*
X145814434Y-79447005D01*
X145681256Y-79522110D01*
X145604256Y-79553411D01*
X145526596Y-79573297D01*
X145431841Y-79584171D01*
X145303560Y-79588433D01*
X145224571Y-79588835D01*
X145085430Y-79589873D01*
X144994478Y-79593993D01*
X144941931Y-79602710D01*
X144918010Y-79617534D01*
X144912870Y-79637029D01*
X144595998Y-79637029D01*
X144597110Y-79600258D01*
X144609400Y-79378827D01*
X144609497Y-79377465D01*
X144912877Y-79377465D01*
X144920939Y-79409458D01*
X144951262Y-79431045D01*
X145013048Y-79444348D01*
X145115498Y-79451488D01*
X145246324Y-79454356D01*
X145394831Y-79450733D01*
X145507384Y-79433597D01*
X145605111Y-79399662D01*
X145608767Y-79398019D01*
X145760715Y-79309036D01*
X145879574Y-79198602D01*
X145957262Y-79076334D01*
X145985697Y-78951849D01*
X145985708Y-78949476D01*
X145958350Y-78860040D01*
X145882003Y-78771152D01*
X145765255Y-78690265D01*
X145616696Y-78624833D01*
X145608395Y-78622037D01*
X145475292Y-78581324D01*
X145338203Y-78545214D01*
X145209380Y-78516242D01*
X145101072Y-78496943D01*
X145025532Y-78489852D01*
X144996198Y-78495360D01*
X144988667Y-78528336D01*
X144978013Y-78606841D01*
X144965396Y-78718572D01*
X144951980Y-78851224D01*
X144938927Y-78992496D01*
X144927399Y-79130083D01*
X144918558Y-79251682D01*
X144913566Y-79344990D01*
X144912877Y-79377465D01*
X144609497Y-79377465D01*
X144627515Y-79124730D01*
X144650324Y-78850348D01*
X144676692Y-78568057D01*
X144705488Y-78290239D01*
X144735578Y-78029271D01*
X144765830Y-77797533D01*
X144784188Y-77673854D01*
X144841399Y-77367044D01*
X144910067Y-77113484D01*
X144994128Y-76908922D01*
X145097515Y-76749107D01*
X145224164Y-76629787D01*
X145378010Y-76546712D01*
X145562987Y-76495630D01*
X145783032Y-76472289D01*
X145898721Y-76469695D01*
X146104800Y-76477169D01*
X146308225Y-76502161D01*
X146523666Y-76547541D01*
X146765792Y-76616181D01*
X146942557Y-76673991D01*
X147276004Y-76787402D01*
X147401492Y-76644103D01*
X147516375Y-76527032D01*
X147669433Y-76395259D01*
X147862798Y-76247325D01*
X148098601Y-76081770D01*
X148378976Y-75897136D01*
X148706055Y-75691964D01*
X149081969Y-75464795D01*
X149392671Y-75281770D01*
X149680715Y-75112391D01*
X149796442Y-75042746D01*
X150772876Y-75042746D01*
X150880148Y-75075238D01*
X150972768Y-75109737D01*
X151079268Y-75158213D01*
X151117899Y-75178139D01*
X151192912Y-75216932D01*
X151243104Y-75239699D01*
X151254774Y-75242473D01*
X151250517Y-75213788D01*
X151233972Y-75141127D01*
X151207983Y-75036494D01*
X151184995Y-74948004D01*
X151151072Y-74824945D01*
X151120261Y-74722798D01*
X151096683Y-74654716D01*
X151086833Y-74634533D01*
X151061538Y-74640932D01*
X151025742Y-74687828D01*
X151015272Y-74707022D01*
X150966300Y-74789258D01*
X150899796Y-74884379D01*
X150869288Y-74923668D01*
X150772876Y-75042746D01*
X149796442Y-75042746D01*
X149922476Y-74966898D01*
X150122703Y-74841635D01*
X150286147Y-74732947D01*
X150417557Y-74637178D01*
X150521683Y-74550673D01*
X150603275Y-74469776D01*
X150667084Y-74390831D01*
X150717858Y-74310184D01*
X150756911Y-74231856D01*
X150801806Y-74121093D01*
X150826656Y-74022041D01*
X150836630Y-73908229D01*
X150837613Y-73818744D01*
X150832924Y-73693873D01*
X150818697Y-73567891D01*
X150792906Y-73435289D01*
X150753525Y-73290559D01*
X150698529Y-73128192D01*
X150625891Y-72942680D01*
X150533586Y-72728513D01*
X150419588Y-72480183D01*
X150281871Y-72192183D01*
X150118409Y-71859002D01*
X150112493Y-71847055D01*
X149990129Y-71595269D01*
X149875326Y-71350013D01*
X149770745Y-71117652D01*
X149679048Y-70904553D01*
X149602897Y-70717083D01*
X149544952Y-70561608D01*
X149507874Y-70444494D01*
X149494326Y-70372109D01*
X149494343Y-70368287D01*
X149507225Y-70381534D01*
X149541976Y-70437893D01*
X149593751Y-70529011D01*
X149657701Y-70646529D01*
X149679358Y-70687237D01*
X149752023Y-70820897D01*
X149846934Y-70990082D01*
X149956095Y-71180838D01*
X150071509Y-71379212D01*
X150185180Y-71571248D01*
X150202755Y-71600593D01*
X150390834Y-71921604D01*
X150563020Y-72230521D01*
X150715938Y-72520667D01*
X150846208Y-72785365D01*
X150950455Y-73017938D01*
X151025301Y-73211709D01*
X151039580Y-73255074D01*
X151075363Y-73374166D01*
X151120214Y-73531401D01*
X151169086Y-73708676D01*
X151216932Y-73887889D01*
X151230170Y-73938699D01*
X151325287Y-74265561D01*
X151427081Y-74535827D01*
X151536279Y-74750586D01*
X151653610Y-74910929D01*
X151779801Y-75017944D01*
X151915580Y-75072721D01*
X151993571Y-75080968D01*
X152055528Y-75083650D01*
X152066654Y-75095229D01*
X152034099Y-75123601D01*
X152032962Y-75124461D01*
X151934865Y-75164965D01*
X151817108Y-75163361D01*
X151697593Y-75121727D01*
X151631926Y-75077934D01*
X151570039Y-75031211D01*
X151531079Y-75010050D01*
X151524149Y-75012695D01*
X151536768Y-75081146D01*
X151568071Y-75179857D01*
X151610054Y-75287605D01*
X151654710Y-75383165D01*
X151680628Y-75427577D01*
X151787177Y-75563376D01*
X151933930Y-75717650D01*
X152110287Y-75880917D01*
X152305643Y-76043694D01*
X152509398Y-76196500D01*
X152637906Y-76283770D01*
X152928723Y-76460913D01*
X153190544Y-76593992D01*
X153430138Y-76684595D01*
X153654270Y-76734308D01*
X153869707Y-76744719D01*
X154083217Y-76717415D01*
X154267470Y-76666001D01*
X154611498Y-76527283D01*
X154946036Y-76351937D01*
X155263547Y-76146127D01*
X155556492Y-75916016D01*
X155817332Y-75667768D01*
X156038528Y-75407547D01*
X156212540Y-75141516D01*
X156270183Y-75028588D01*
X156324449Y-74890431D01*
X156367936Y-74738416D01*
X156397221Y-74589579D01*
X156408882Y-74460953D01*
X156401322Y-74375944D01*
X156388045Y-74346355D01*
X156363242Y-74350847D01*
X156313852Y-74393140D01*
X156302282Y-74404155D01*
X156196340Y-74470117D01*
X156063916Y-74489012D01*
X155902794Y-74460730D01*
X155710761Y-74385157D01*
X155685942Y-74373107D01*
X155570809Y-74318930D01*
X155494956Y-74291094D01*
X155447684Y-74286524D01*
X155423166Y-74297629D01*
X155406732Y-74322025D01*
X155409569Y-74361153D01*
X155434949Y-74426119D01*
X155486141Y-74528030D01*
X155497140Y-74548874D01*
X155579183Y-74737127D01*
X155610690Y-74898062D01*
X155591451Y-75033174D01*
X155521256Y-75143956D01*
X155401377Y-75231126D01*
X155257927Y-75280557D01*
X155089609Y-75298871D01*
X154919819Y-75286014D01*
X154771952Y-75241931D01*
X154753109Y-75232623D01*
X154681771Y-75184965D01*
X154598793Y-75115100D01*
X154516517Y-75035480D01*
X154447282Y-74958554D01*
X154403430Y-74896775D01*
X154394383Y-74870691D01*
X154370193Y-74860317D01*
X154312988Y-74862170D01*
X154245821Y-74873660D01*
X154191743Y-74892195D01*
X154188858Y-74893796D01*
X154183236Y-74925436D01*
X154186282Y-74997108D01*
X154194290Y-75069398D01*
X154203745Y-75268739D01*
X154175082Y-75429717D01*
X154111351Y-75549561D01*
X154015597Y-75625500D01*
X153890869Y-75654761D01*
X153740212Y-75634572D01*
X153621958Y-75590000D01*
X153418913Y-75464860D01*
X153241096Y-75293463D01*
X153146598Y-75165501D01*
X153073787Y-75068765D01*
X153062007Y-75060329D01*
X153263561Y-75060329D01*
X153285409Y-75115421D01*
X153343074Y-75191443D01*
X153424745Y-75276249D01*
X153518608Y-75357690D01*
X153612848Y-75423620D01*
X153622194Y-75429096D01*
X153767986Y-75495117D01*
X153887652Y-75511445D01*
X153979749Y-75477979D01*
X154004231Y-75455565D01*
X154034403Y-75408279D01*
X154050371Y-75340442D01*
X154055179Y-75236155D01*
X154054843Y-75191432D01*
X154049867Y-75086233D01*
X154039783Y-75003978D01*
X154026729Y-74961809D01*
X154026116Y-74961139D01*
X153985489Y-74953535D01*
X153903082Y-74960020D01*
X153798776Y-74978307D01*
X153665506Y-75001152D01*
X153525399Y-75016857D01*
X153430285Y-75021551D01*
X153326779Y-75026630D01*
X153273948Y-75042102D01*
X153263561Y-75060329D01*
X153062007Y-75060329D01*
X153012518Y-75024888D01*
X152992331Y-75021418D01*
X152891189Y-75001130D01*
X152783035Y-74950726D01*
X152690660Y-74883129D01*
X152642083Y-74822805D01*
X152603370Y-74687318D01*
X152607584Y-74640049D01*
X152741644Y-74640049D01*
X152768135Y-74725572D01*
X152838249Y-74803583D01*
X152937946Y-74860412D01*
X152981759Y-74873869D01*
X153095920Y-74888279D01*
X153250918Y-74890325D01*
X153431123Y-74880855D01*
X153620908Y-74860713D01*
X153804641Y-74830746D01*
X153814475Y-74828786D01*
X153835087Y-74823475D01*
X154546378Y-74823475D01*
X154586557Y-74895796D01*
X154633347Y-74953109D01*
X154763687Y-75064474D01*
X154918049Y-75137521D01*
X155081433Y-75167905D01*
X155238840Y-75151280D01*
X155275699Y-75139194D01*
X155381695Y-75075989D01*
X155448688Y-74987637D01*
X155467214Y-74905349D01*
X155454275Y-74837161D01*
X155420124Y-74738187D01*
X155371761Y-74628309D01*
X155364544Y-74613763D01*
X155261874Y-74409887D01*
X155168825Y-74467015D01*
X155084288Y-74515273D01*
X154973493Y-74573681D01*
X154852789Y-74634181D01*
X154738524Y-74688713D01*
X154647047Y-74729220D01*
X154604600Y-74745137D01*
X154552651Y-74775131D01*
X154546378Y-74823475D01*
X153835087Y-74823475D01*
X154236845Y-74719957D01*
X154640508Y-74569069D01*
X155014505Y-74380839D01*
X155319761Y-74181116D01*
X155353581Y-74154059D01*
X155617591Y-74154059D01*
X155634392Y-74181665D01*
X155687454Y-74220359D01*
X155704577Y-74230161D01*
X155876715Y-74312024D01*
X156014709Y-74350244D01*
X156122204Y-74345163D01*
X156202846Y-74297127D01*
X156218991Y-74278761D01*
X156262266Y-74195909D01*
X156278109Y-74083350D01*
X156278450Y-74054046D01*
X156267023Y-73944941D01*
X156237960Y-73830344D01*
X156197797Y-73729086D01*
X156153072Y-73659998D01*
X156137000Y-73646558D01*
X156108748Y-73659968D01*
X156050731Y-73706428D01*
X155972627Y-73776482D01*
X155884117Y-73860670D01*
X155794880Y-73949535D01*
X155714597Y-74033620D01*
X155652946Y-74103466D01*
X155619609Y-74149616D01*
X155617591Y-74154059D01*
X155353581Y-74154059D01*
X155416924Y-74103382D01*
X155525866Y-74007182D01*
X155638620Y-73900700D01*
X155747222Y-73792121D01*
X155843704Y-73689627D01*
X155920102Y-73601403D01*
X155968449Y-73535634D01*
X155981195Y-73501581D01*
X155952225Y-73472885D01*
X155886352Y-73429771D01*
X155815926Y-73391061D01*
X155712792Y-73344987D01*
X155615743Y-73320539D01*
X155497494Y-73311782D01*
X155449317Y-73311324D01*
X155272243Y-73323774D01*
X155054673Y-73358836D01*
X154807924Y-73413073D01*
X154543312Y-73483052D01*
X154272153Y-73565337D01*
X154005766Y-73656494D01*
X153755465Y-73753088D01*
X153532568Y-73851684D01*
X153348391Y-73948847D01*
X153347890Y-73949144D01*
X153189198Y-74056354D01*
X153043026Y-74179701D01*
X152917312Y-74310140D01*
X152819990Y-74438628D01*
X152758997Y-74556119D01*
X152741644Y-74640049D01*
X152607584Y-74640049D01*
X152616659Y-74538256D01*
X152679013Y-74380610D01*
X152787496Y-74219370D01*
X152939171Y-74059525D01*
X153131101Y-73906068D01*
X153214471Y-73850151D01*
X153411933Y-73734842D01*
X153652625Y-73611951D01*
X153923354Y-73487294D01*
X154210928Y-73366686D01*
X154502156Y-73255942D01*
X154764075Y-73167101D01*
X154837968Y-73140194D01*
X154881535Y-73117548D01*
X154886558Y-73110964D01*
X154863984Y-73087168D01*
X154805893Y-73042147D01*
X154734713Y-72992374D01*
X154629655Y-72912183D01*
X154497362Y-72796509D01*
X154347266Y-72654795D01*
X154188803Y-72496482D01*
X154031406Y-72331013D01*
X153884510Y-72167830D01*
X153757547Y-72016375D01*
X153749708Y-72006529D01*
X153486181Y-71652858D01*
X153214972Y-71247786D01*
X152939223Y-70796887D01*
X152662072Y-70305733D01*
X152386661Y-69779896D01*
X152116128Y-69224948D01*
X151853614Y-68646462D01*
X151844144Y-68624790D01*
X151601792Y-68112317D01*
X151345221Y-67653782D01*
X151072804Y-67246517D01*
X150791002Y-66896940D01*
X150707362Y-66807493D01*
X150631928Y-66735298D01*
X150576794Y-66691614D01*
X150562894Y-66684569D01*
X150508612Y-66684549D01*
X150419414Y-66701344D01*
X150315041Y-66731185D01*
X150231135Y-66761605D01*
X150161663Y-66795448D01*
X150094858Y-66841477D01*
X150018954Y-66908457D01*
X149922184Y-67005151D01*
X149858994Y-67070834D01*
X149593288Y-67328674D01*
X149314251Y-67562528D01*
X149037394Y-67759705D01*
X148952437Y-67812597D01*
X148535456Y-68033458D01*
X148078579Y-68222229D01*
X147592289Y-68375540D01*
X147087067Y-68490022D01*
X146641371Y-68555297D01*
X146524819Y-68569645D01*
X146431424Y-68584235D01*
X146375326Y-68596722D01*
X146366058Y-68600989D01*
X146355757Y-68639540D01*
X146347714Y-68725009D01*
X146341976Y-68846366D01*
X146338588Y-68992579D01*
X146337595Y-69152619D01*
X146339042Y-69315455D01*
X146342976Y-69470056D01*
X146349442Y-69605391D01*
X146358486Y-69710431D01*
X146361386Y-69732236D01*
X146381860Y-69851528D01*
X146403397Y-69946890D01*
X146423418Y-70010765D01*
X146439343Y-70035595D01*
X146448592Y-70013821D01*
X146449827Y-69991347D01*
X146469710Y-69899794D01*
X146519906Y-69785702D01*
X146590373Y-69668175D01*
X146671070Y-69566318D01*
X146675936Y-69561207D01*
X146847163Y-69423697D01*
X147051033Y-69326238D01*
X147278248Y-69268832D01*
X147519509Y-69251482D01*
X147765517Y-69274191D01*
X148006974Y-69336963D01*
X148234582Y-69439800D01*
X148412632Y-69560670D01*
X148542451Y-69700996D01*
X148643994Y-69883464D01*
X148714201Y-70097995D01*
X148750013Y-70334510D01*
X148748367Y-70582929D01*
X148741841Y-70644941D01*
X148666830Y-71019424D01*
X148540205Y-71370159D01*
X148364680Y-71693685D01*
X148142969Y-71986540D01*
X147877786Y-72245263D01*
X147571844Y-72466391D01*
X147227858Y-72646464D01*
X147145912Y-72680801D01*
X146932346Y-72757721D01*
X146723259Y-72813042D01*
X146504651Y-72848812D01*
X146262519Y-72867079D01*
X145982864Y-72869891D01*
X145869726Y-72867498D01*
X145630344Y-72857666D01*
X145420756Y-72842667D01*
X145251057Y-72823369D01*
X145152140Y-72805726D01*
X144676698Y-72670575D01*
X144234940Y-72488334D01*
X143825922Y-72258431D01*
X143448695Y-71980289D01*
X143102314Y-71653336D01*
X142927204Y-71455616D01*
X142617504Y-71041335D01*
X142339421Y-70581013D01*
X142094753Y-70078342D01*
X141885295Y-69537019D01*
X141712846Y-68960737D01*
X141711972Y-68957357D01*
X141675460Y-68818431D01*
X141643436Y-68701057D01*
X141618924Y-68615989D01*
X141604944Y-68573983D01*
X141603567Y-68571573D01*
X141571739Y-68562301D01*
X141495333Y-68546714D01*
X141387093Y-68527280D01*
X141302565Y-68513250D01*
X140764544Y-68405038D01*
X140268328Y-68259412D01*
X139809832Y-68074406D01*
X139384968Y-67848059D01*
X138989650Y-67578406D01*
X138619790Y-67263484D01*
X138538706Y-67185243D01*
X138297070Y-66946826D01*
X138180315Y-67077306D01*
X138023318Y-67272874D01*
X137856619Y-67517885D01*
X137684207Y-67805430D01*
X137510072Y-68128599D01*
X137338205Y-68480486D01*
X137225799Y-68730045D01*
X136995680Y-69238961D01*
X136753552Y-69738398D01*
X136503691Y-70220652D01*
X136250375Y-70678020D01*
X135997881Y-71102800D01*
X135750487Y-71487287D01*
X135512470Y-71823779D01*
X135494973Y-71847055D01*
X135271890Y-72126259D01*
X135034001Y-72394765D01*
X134792054Y-72641455D01*
X134556801Y-72855213D01*
X134395186Y-72984286D01*
X134214367Y-73118949D01*
X134670642Y-73270356D01*
X135072363Y-73412430D01*
X135420099Y-73554591D01*
X135717825Y-73698844D01*
X135969517Y-73847197D01*
X136179147Y-74001655D01*
X136259627Y-74072576D01*
X136425304Y-74246205D01*
X136539971Y-74409234D01*
X136602259Y-74559232D01*
X136610801Y-74693764D01*
X136610386Y-74696456D01*
X136565474Y-74810561D01*
X136477847Y-74911091D01*
X136362780Y-74983837D01*
X136272364Y-75010900D01*
X136204808Y-75027209D01*
X136150960Y-75058756D01*
X136095764Y-75117574D01*
X136034342Y-75201134D01*
X135906677Y-75354519D01*
X135759282Y-75484742D01*
X135603860Y-75584025D01*
X135452116Y-75644592D01*
X135343875Y-75659954D01*
X135209534Y-75635829D01*
X135107530Y-75564710D01*
X135038996Y-75448486D01*
X135009296Y-75308919D01*
X135148661Y-75308919D01*
X135177936Y-75423802D01*
X135237856Y-75491903D01*
X135329281Y-75514963D01*
X135332070Y-75514977D01*
X135432097Y-75500732D01*
X135527045Y-75466992D01*
X135700945Y-75357540D01*
X135836540Y-75224831D01*
X135868897Y-75183186D01*
X135918061Y-75105487D01*
X135923608Y-75057049D01*
X135881280Y-75031585D01*
X135786822Y-75022809D01*
X135760119Y-75022499D01*
X135671183Y-75016644D01*
X135550566Y-75001654D01*
X135423263Y-74980675D01*
X135414194Y-74978958D01*
X135307127Y-74960219D01*
X135224168Y-74948980D01*
X135179832Y-74947110D01*
X135176471Y-74948339D01*
X135167874Y-74981546D01*
X135157762Y-75055876D01*
X135149168Y-75145511D01*
X135148661Y-75308919D01*
X135009296Y-75308919D01*
X135005066Y-75289042D01*
X135006073Y-75097358D01*
X135024104Y-74884060D01*
X134930534Y-74865057D01*
X134858784Y-74859180D01*
X134814070Y-74885747D01*
X134794807Y-74912308D01*
X134750885Y-74969210D01*
X134682280Y-75045792D01*
X134628566Y-75100842D01*
X134487796Y-75207389D01*
X134328627Y-75275111D01*
X134161689Y-75304622D01*
X133997610Y-75296537D01*
X133847020Y-75251471D01*
X133720549Y-75170039D01*
X133628826Y-75052855D01*
X133623680Y-75042716D01*
X133592129Y-74965579D01*
X133587804Y-74921931D01*
X133742735Y-74921931D01*
X133766219Y-75018198D01*
X133780194Y-75038436D01*
X133873502Y-75109667D01*
X134001522Y-75152417D01*
X134147114Y-75164179D01*
X134293139Y-75142440D01*
X134351825Y-75122155D01*
X134505765Y-75030194D01*
X134618527Y-74902862D01*
X134638043Y-74868768D01*
X134680074Y-74787970D01*
X134468564Y-74691339D01*
X134341675Y-74630607D01*
X134211906Y-74564079D01*
X134107242Y-74506105D01*
X134106793Y-74505840D01*
X134027829Y-74460557D01*
X133974054Y-74441598D01*
X133933460Y-74454753D01*
X133894040Y-74505807D01*
X133843787Y-74600548D01*
X133822550Y-74642843D01*
X133761728Y-74794797D01*
X133742735Y-74921931D01*
X133587804Y-74921931D01*
X133585303Y-74896697D01*
X133600813Y-74806284D01*
X133603733Y-74793943D01*
X133638111Y-74690985D01*
X133691802Y-74571316D01*
X133735810Y-74490610D01*
X133787496Y-74402550D01*
X133811383Y-74350531D01*
X133810353Y-74321385D01*
X133787290Y-74301943D01*
X133778206Y-74296942D01*
X133733385Y-74285722D01*
X133673774Y-74300142D01*
X133584362Y-74344204D01*
X133569115Y-74352683D01*
X133379720Y-74440928D01*
X133208515Y-74484757D01*
X133060284Y-74484213D01*
X132939811Y-74439338D01*
X132851879Y-74350174D01*
X132849498Y-74346331D01*
X132811734Y-74271383D01*
X132793259Y-74209187D01*
X132792894Y-74202934D01*
X132780095Y-74159886D01*
X132765876Y-74152192D01*
X132745414Y-74179077D01*
X132728277Y-74251371D01*
X132715718Y-74356525D01*
X132708990Y-74481994D01*
X132402695Y-74481994D01*
X132415988Y-74270532D01*
X132457519Y-74098215D01*
X132921104Y-74098215D01*
X132942729Y-74206477D01*
X132984287Y-74291598D01*
X133019675Y-74325059D01*
X133121450Y-74352283D01*
X133251993Y-74335806D01*
X133387192Y-74284390D01*
X133498209Y-74229675D01*
X133561482Y-74190530D01*
X133581099Y-74156523D01*
X133561150Y-74117220D01*
X133505724Y-74062188D01*
X133482627Y-74040903D01*
X133393531Y-73952095D01*
X133294693Y-73843684D01*
X133226018Y-73761891D01*
X133160419Y-73682713D01*
X133108278Y-73625346D01*
X133080200Y-73601403D01*
X133079371Y-73601278D01*
X133056513Y-73626451D01*
X133023743Y-73691342D01*
X132987428Y-73780014D01*
X132953938Y-73876525D01*
X132929642Y-73964938D01*
X132925138Y-73987274D01*
X132921104Y-74098215D01*
X132457519Y-74098215D01*
X132490316Y-73962135D01*
X132619024Y-73665960D01*
X132715553Y-73506345D01*
X132760160Y-73454064D01*
X133206142Y-73454064D01*
X133250033Y-73545939D01*
X133339220Y-73667562D01*
X133369756Y-73704239D01*
X133660012Y-74002330D01*
X133990296Y-74259663D01*
X134361076Y-74476472D01*
X134772821Y-74652991D01*
X135225999Y-74789456D01*
X135721080Y-74886100D01*
X135735822Y-74888275D01*
X135844723Y-74895666D01*
X135977039Y-74892501D01*
X136113409Y-74880589D01*
X136234474Y-74861741D01*
X136320874Y-74837768D01*
X136332340Y-74832492D01*
X136418269Y-74768742D01*
X136454753Y-74687906D01*
X136443151Y-74583250D01*
X136402696Y-74483000D01*
X136283369Y-74301807D01*
X136107660Y-74130005D01*
X135876544Y-73968418D01*
X135653529Y-73847603D01*
X135412173Y-73739230D01*
X135152052Y-73639115D01*
X134880718Y-73548835D01*
X134605728Y-73469970D01*
X134334633Y-73404097D01*
X134074990Y-73352796D01*
X133834350Y-73317644D01*
X133620270Y-73300220D01*
X133440302Y-73302102D01*
X133302001Y-73324869D01*
X133249463Y-73345277D01*
X133206351Y-73388367D01*
X133206142Y-73454064D01*
X132760160Y-73454064D01*
X132874727Y-73319787D01*
X133072288Y-73170127D01*
X133297938Y-73062758D01*
X133541379Y-73003070D01*
X133697208Y-72992374D01*
X133783500Y-72989933D01*
X133851814Y-72978240D01*
X133919207Y-72950743D01*
X134002732Y-72900888D01*
X134092841Y-72840358D01*
X134306078Y-72676625D01*
X134536144Y-72467753D01*
X134776193Y-72221541D01*
X135019379Y-71945789D01*
X135258858Y-71648296D01*
X135487783Y-71336861D01*
X135699309Y-71019285D01*
X135719589Y-70986930D01*
X135884933Y-70711487D01*
X136063414Y-70396222D01*
X136247431Y-70055472D01*
X136429385Y-69703574D01*
X136601678Y-69354863D01*
X136734742Y-69071914D01*
X136888515Y-68737177D01*
X137022031Y-68449749D01*
X137138394Y-68203860D01*
X137240705Y-67993738D01*
X137332064Y-67813615D01*
X137415576Y-67657720D01*
X137494340Y-67520283D01*
X137571460Y-67395534D01*
X137650036Y-67277702D01*
X137733171Y-67161018D01*
X137823967Y-67039711D01*
X137834841Y-67025463D01*
X138035050Y-66763562D01*
X137769797Y-66672378D01*
X137463212Y-66552895D01*
X137129164Y-66397618D01*
X136779523Y-66213363D01*
X136426159Y-66006946D01*
X136080942Y-65785186D01*
X135755742Y-65554899D01*
X135559956Y-65403254D01*
X135119508Y-65019921D01*
X134683666Y-64585225D01*
X134257120Y-64105797D01*
X133844557Y-63588265D01*
X133450666Y-63039257D01*
X133080136Y-62465404D01*
X132737654Y-61873333D01*
X132427910Y-61269674D01*
X132155590Y-60661056D01*
X132088188Y-60494460D01*
X131853550Y-59848748D01*
X131669055Y-59226314D01*
X131534932Y-58628187D01*
X131451407Y-58055395D01*
X131418709Y-57508965D01*
X131418302Y-57467394D01*
X131417509Y-57336571D01*
X131692493Y-57336571D01*
X131695535Y-57468927D01*
X131700567Y-57588550D01*
X131751892Y-58152938D01*
X131852823Y-58738335D01*
X132001201Y-59339618D01*
X132194862Y-59951664D01*
X132431646Y-60569348D01*
X132709392Y-61187547D01*
X133025938Y-61801137D01*
X133379122Y-62404994D01*
X133766783Y-62993994D01*
X134186760Y-63563013D01*
X134259983Y-63655845D01*
X134416762Y-63844296D01*
X134601552Y-64052516D01*
X134805929Y-64272083D01*
X135021471Y-64494571D01*
X135239755Y-64711556D01*
X135452357Y-64914615D01*
X135650854Y-65095325D01*
X135826824Y-65245260D01*
X135929248Y-65325287D01*
X136188688Y-65510346D01*
X136462620Y-65692219D01*
X136733751Y-65859935D01*
X136984788Y-66002518D01*
X137053402Y-66038652D01*
X137156491Y-66090009D01*
X137280397Y-66149066D01*
X137413547Y-66210635D01*
X137544364Y-66269528D01*
X137661273Y-66320557D01*
X137752699Y-66358533D01*
X137807067Y-66378268D01*
X137814686Y-66379879D01*
X137810565Y-66357161D01*
X137782971Y-66294847D01*
X137736978Y-66203818D01*
X137703897Y-66142203D01*
X137428849Y-65591686D01*
X137204178Y-65034005D01*
X137025966Y-64457769D01*
X136890296Y-63851591D01*
X136863454Y-63699338D01*
X136836573Y-63485123D01*
X136819920Y-63235952D01*
X136813512Y-62969508D01*
X136817362Y-62703475D01*
X136831488Y-62455535D01*
X136855903Y-62243372D01*
X136862150Y-62206073D01*
X136902363Y-62000482D01*
X136949154Y-61801964D01*
X137005188Y-61603542D01*
X137073126Y-61398241D01*
X137155634Y-61179084D01*
X137255373Y-60939096D01*
X137375006Y-60671301D01*
X137517197Y-60368723D01*
X137684610Y-60024386D01*
X137730660Y-59931072D01*
X137910644Y-59565152D01*
X138064907Y-59246644D01*
X138195030Y-58971800D01*
X138302595Y-58736871D01*
X138389185Y-58538107D01*
X138456380Y-58371761D01*
X138505764Y-58234083D01*
X138538918Y-58121325D01*
X138557423Y-58029737D01*
X138562877Y-57958868D01*
X138534551Y-57767096D01*
X138451458Y-57573015D01*
X138316428Y-57381085D01*
X138132288Y-57195766D01*
X138022580Y-57106899D01*
X137790215Y-56951951D01*
X137511554Y-56800492D01*
X137198288Y-56656602D01*
X136862109Y-56524361D01*
X136514709Y-56407848D01*
X136167780Y-56311142D01*
X135833012Y-56238322D01*
X135522098Y-56193469D01*
X135373379Y-56182537D01*
X135187373Y-56180435D01*
X134982582Y-56190714D01*
X134751158Y-56214291D01*
X134485251Y-56252083D01*
X134177013Y-56305008D01*
X133938105Y-56350328D01*
X133792810Y-56379615D01*
X133664195Y-56408283D01*
X133544082Y-56439258D01*
X133424294Y-56475465D01*
X133296650Y-56519829D01*
X133152975Y-56575275D01*
X132985088Y-56644730D01*
X132784814Y-56731118D01*
X132543972Y-56837364D01*
X132410491Y-56896750D01*
X132227890Y-56977509D01*
X132061911Y-57049751D01*
X131920165Y-57110258D01*
X131810264Y-57155810D01*
X131739819Y-57183189D01*
X131717339Y-57189863D01*
X131703107Y-57203882D01*
X131694921Y-57250504D01*
X131692493Y-57336571D01*
X131417509Y-57336571D01*
X131415502Y-57005542D01*
X131589475Y-56935416D01*
X131667430Y-56902888D01*
X131787845Y-56851258D01*
X131940237Y-56785086D01*
X132114123Y-56708933D01*
X132299019Y-56627360D01*
X132372351Y-56594838D01*
X132862603Y-56381518D01*
X133308774Y-56197182D01*
X133716106Y-56040323D01*
X134089844Y-55909431D01*
X134211498Y-55871942D01*
X135896001Y-55871942D01*
X135920850Y-55885082D01*
X135995726Y-55907776D01*
X136122964Y-55941612D01*
X136243242Y-55972471D01*
X136630410Y-56088966D01*
X137016773Y-56238785D01*
X137391810Y-56416270D01*
X137745001Y-56615767D01*
X138065825Y-56831618D01*
X138343761Y-57058169D01*
X138447471Y-57157471D01*
X138592600Y-57310820D01*
X138697767Y-57441011D01*
X138768946Y-57560280D01*
X138812110Y-57680865D01*
X138833232Y-57815005D01*
X138838333Y-57958242D01*
X138834407Y-58109004D01*
X138820144Y-58225250D01*
X138791813Y-58330080D01*
X138768104Y-58393173D01*
X138681314Y-58605134D01*
X138594693Y-58809787D01*
X138503556Y-59017515D01*
X138403216Y-59238701D01*
X138288987Y-59483728D01*
X138156181Y-59762981D01*
X138053629Y-59976150D01*
X137873165Y-60354358D01*
X137718803Y-60688435D01*
X137588255Y-60984816D01*
X137479232Y-61249936D01*
X137389448Y-61490229D01*
X137316613Y-61712133D01*
X137258442Y-61922081D01*
X137212644Y-62126509D01*
X137176934Y-62331852D01*
X137153142Y-62509049D01*
X137125925Y-62952952D01*
X137144849Y-63420031D01*
X137207743Y-63901392D01*
X137312433Y-64388138D01*
X137456747Y-64871373D01*
X137638512Y-65342200D01*
X137855557Y-65791724D01*
X138027378Y-66089049D01*
X138324267Y-66515561D01*
X138655840Y-66895915D01*
X139022544Y-67230413D01*
X139424821Y-67519362D01*
X139863119Y-67763066D01*
X140337880Y-67961830D01*
X140849550Y-68115959D01*
X141055054Y-68163162D01*
X141239092Y-68200760D01*
X141373174Y-68224606D01*
X141463603Y-68235005D01*
X141516685Y-68232262D01*
X141538725Y-68216683D01*
X141536028Y-68188572D01*
X141535172Y-68186381D01*
X141523171Y-68126608D01*
X141513338Y-68018489D01*
X141505778Y-67871631D01*
X141500598Y-67695641D01*
X141497904Y-67500128D01*
X141497800Y-67294698D01*
X141500394Y-67088959D01*
X141505790Y-66892520D01*
X141514095Y-66714987D01*
X141518260Y-66651359D01*
X141535482Y-66429224D01*
X141551506Y-66255181D01*
X141566015Y-66130697D01*
X141578694Y-66057239D01*
X141589227Y-66036272D01*
X141597299Y-66069265D01*
X141602593Y-66157683D01*
X141604453Y-66250936D01*
X141623475Y-66701952D01*
X141669977Y-67187628D01*
X141741389Y-67693027D01*
X141835140Y-68203211D01*
X141948659Y-68703243D01*
X142079375Y-69178186D01*
X142142823Y-69378839D01*
X142335749Y-69893293D01*
X142561440Y-70370398D01*
X142817795Y-70806996D01*
X143102716Y-71199930D01*
X143414104Y-71546042D01*
X143749858Y-71842175D01*
X143812108Y-71889473D01*
X144126581Y-72093614D01*
X144479786Y-72271424D01*
X144855857Y-72416120D01*
X145238928Y-72520917D01*
X145333310Y-72539971D01*
X145506649Y-72562756D01*
X145716750Y-72575418D01*
X145947731Y-72578366D01*
X146183709Y-72572007D01*
X146408802Y-72556748D01*
X146607126Y-72532996D01*
X146754087Y-72503521D01*
X146953968Y-72438790D01*
X147164897Y-72350399D01*
X147368931Y-72247259D01*
X147548125Y-72138277D01*
X147661220Y-72053145D01*
X147910667Y-71806493D01*
X148117349Y-71533226D01*
X148277965Y-71240032D01*
X148389215Y-70933605D01*
X148447797Y-70620634D01*
X148456355Y-70441468D01*
X148449430Y-70260120D01*
X148427974Y-70119848D01*
X148388248Y-70004748D01*
X148329994Y-69903963D01*
X148206054Y-69771435D01*
X148042856Y-69667788D01*
X147852320Y-69594634D01*
X147646369Y-69553586D01*
X147436921Y-69546256D01*
X147235899Y-69574255D01*
X147055222Y-69639196D01*
X146937178Y-69715627D01*
X146837422Y-69831653D01*
X146761171Y-69989132D01*
X146713761Y-70174446D01*
X146700414Y-70320045D01*
X146700337Y-70423335D01*
X146710242Y-70488136D01*
X146736242Y-70533823D01*
X146781557Y-70577288D01*
X146825607Y-70609844D01*
X146874528Y-70630162D01*
X146938798Y-70638626D01*
X147028891Y-70635622D01*
X147155284Y-70621536D01*
X147324906Y-70597284D01*
X147449977Y-70578546D01*
X147305000Y-70729469D01*
X147152759Y-70868598D01*
X147012241Y-70954137D01*
X146877893Y-70987852D01*
X146744162Y-70971512D01*
X146656718Y-70935798D01*
X146504081Y-70829375D01*
X146371918Y-70675224D01*
X146258794Y-70471009D01*
X146163272Y-70214395D01*
X146121900Y-70066643D01*
X146100899Y-69978590D01*
X146085044Y-69894372D01*
X146073634Y-69803864D01*
X146065966Y-69696939D01*
X146061340Y-69563473D01*
X146059053Y-69393338D01*
X146058404Y-69176409D01*
X146058402Y-69150479D01*
X146059922Y-68892596D01*
X146065078Y-68661969D01*
X146074859Y-68444379D01*
X146090255Y-68225611D01*
X146112256Y-67991448D01*
X146141851Y-67727672D01*
X146177515Y-67439749D01*
X146206465Y-67224702D01*
X146239141Y-67001779D01*
X146274141Y-66778794D01*
X146310061Y-66563562D01*
X146345499Y-66363898D01*
X146379050Y-66187617D01*
X146409312Y-66042533D01*
X146434882Y-65936462D01*
X146454356Y-65877218D01*
X146459573Y-65868890D01*
X146468659Y-65888756D01*
X146480647Y-65953681D01*
X146493324Y-66050957D01*
X146496675Y-66082056D01*
X146509561Y-66270795D01*
X146514983Y-66504189D01*
X146513250Y-66769424D01*
X146504672Y-67053687D01*
X146489560Y-67344165D01*
X146468224Y-67628046D01*
X146456177Y-67755130D01*
X146403368Y-68273478D01*
X146622812Y-68255178D01*
X147075194Y-68194805D01*
X147525901Y-68091268D01*
X147966784Y-67948227D01*
X148389698Y-67769339D01*
X148786495Y-67558265D01*
X149149027Y-67318663D01*
X149469148Y-67054193D01*
X149611730Y-66912746D01*
X149814199Y-66687311D01*
X149989172Y-66466600D01*
X150147255Y-66235155D01*
X150299050Y-65977520D01*
X150445737Y-65697139D01*
X150653070Y-65241877D01*
X150827492Y-64774463D01*
X150967058Y-64303437D01*
X151069826Y-63837344D01*
X151133851Y-63384725D01*
X151157189Y-62954123D01*
X151144765Y-62625355D01*
X151124812Y-62421875D01*
X151099572Y-62232032D01*
X151066827Y-62049382D01*
X151024359Y-61867480D01*
X150969949Y-61679882D01*
X150901381Y-61480144D01*
X150816436Y-61261821D01*
X150712896Y-61018470D01*
X150588544Y-60743645D01*
X150441161Y-60430902D01*
X150268529Y-60073798D01*
X150262000Y-60060411D01*
X150142676Y-59814557D01*
X150024370Y-59568444D01*
X149911193Y-59330789D01*
X149807254Y-59110312D01*
X149716664Y-58915732D01*
X149643534Y-58755767D01*
X149592187Y-58639635D01*
X149526880Y-58485777D01*
X149481163Y-58371155D01*
X149451502Y-58281824D01*
X149434360Y-58203839D01*
X149426203Y-58123255D01*
X149423496Y-58026127D01*
X149423483Y-58024311D01*
X149682876Y-58024311D01*
X149696704Y-58170328D01*
X149735477Y-58334467D01*
X149800634Y-58522060D01*
X149893616Y-58738438D01*
X150015860Y-58988931D01*
X150168808Y-59278872D01*
X150267167Y-59458220D01*
X150489863Y-59867493D01*
X150681441Y-60236745D01*
X150844736Y-60572970D01*
X150982584Y-60883158D01*
X151097823Y-61174301D01*
X151193287Y-61453390D01*
X151271814Y-61727416D01*
X151336238Y-62003372D01*
X151370086Y-62177077D01*
X151391205Y-62333265D01*
X151406977Y-62530632D01*
X151417278Y-62754910D01*
X151421985Y-62991831D01*
X151420972Y-63227126D01*
X151414116Y-63446528D01*
X151401292Y-63635767D01*
X151383964Y-63771826D01*
X151280610Y-64251808D01*
X151139233Y-64747894D01*
X150966611Y-65239359D01*
X150769517Y-65705480D01*
X150712821Y-65824636D01*
X150637745Y-65979932D01*
X150586173Y-66091896D01*
X150555256Y-66168853D01*
X150542145Y-66219130D01*
X150543990Y-66251051D01*
X150557942Y-66272941D01*
X150559020Y-66274036D01*
X150585682Y-66293138D01*
X150621581Y-66296534D01*
X150678982Y-66281755D01*
X150770149Y-66246332D01*
X150837032Y-66218051D01*
X150971702Y-66156595D01*
X151129179Y-66079016D01*
X151282406Y-65998797D01*
X151333623Y-65970576D01*
X151781882Y-65702614D01*
X152196739Y-65418474D01*
X152591484Y-65107835D01*
X152979412Y-64760379D01*
X153294265Y-64448469D01*
X153775900Y-63919516D01*
X154228964Y-63356123D01*
X154650657Y-62763877D01*
X155038176Y-62148365D01*
X155388721Y-61515175D01*
X155699490Y-60869893D01*
X155967683Y-60218105D01*
X156190497Y-59565399D01*
X156365132Y-58917363D01*
X156488786Y-58279582D01*
X156526525Y-58001913D01*
X156546897Y-57804482D01*
X156560551Y-57621304D01*
X156567362Y-57460480D01*
X156567207Y-57330111D01*
X156559963Y-57238300D01*
X156545506Y-57193147D01*
X156538913Y-57189863D01*
X156505509Y-57178546D01*
X156426192Y-57146594D01*
X156308010Y-57096999D01*
X156158007Y-57032758D01*
X155983229Y-56956864D01*
X155790723Y-56872313D01*
X155763285Y-56860188D01*
X155507656Y-56747534D01*
X155296505Y-56655823D01*
X155121472Y-56582098D01*
X154974195Y-56523405D01*
X154846315Y-56476788D01*
X154729472Y-56439291D01*
X154615306Y-56407959D01*
X154495456Y-56379837D01*
X154361562Y-56351969D01*
X154280491Y-56335988D01*
X153839956Y-56258559D01*
X153442111Y-56207815D01*
X153077961Y-56184143D01*
X152738512Y-56187926D01*
X152414771Y-56219549D01*
X152097742Y-56279398D01*
X151778432Y-56367856D01*
X151530881Y-56453641D01*
X151149609Y-56608671D01*
X150804763Y-56774802D01*
X150500062Y-56949513D01*
X150239226Y-57130285D01*
X150025976Y-57314599D01*
X149864031Y-57499934D01*
X149776669Y-57641689D01*
X149724298Y-57765323D01*
X149692554Y-57891087D01*
X149682876Y-58024311D01*
X149423483Y-58024311D01*
X149423110Y-57972740D01*
X149424607Y-57832759D01*
X149432891Y-57732160D01*
X149451041Y-57652454D01*
X149482136Y-57575149D01*
X149493143Y-57552306D01*
X149565020Y-57438615D01*
X149675667Y-57303474D01*
X149815045Y-57156742D01*
X149973112Y-57008281D01*
X150139828Y-56867949D01*
X150305152Y-56745608D01*
X150335023Y-56725576D01*
X150630277Y-56547231D01*
X150958909Y-56376668D01*
X151305433Y-56220438D01*
X151654366Y-56085089D01*
X151990222Y-55977172D01*
X152263219Y-55909984D01*
X152353804Y-55888617D01*
X152390378Y-55873122D01*
X152376675Y-55863992D01*
X152316424Y-55861722D01*
X152213358Y-55866806D01*
X152071208Y-55879738D01*
X152051191Y-55881897D01*
X151880920Y-55903505D01*
X151716281Y-55931400D01*
X151552043Y-55967649D01*
X151382980Y-56014320D01*
X151203863Y-56073478D01*
X151009463Y-56147191D01*
X150794552Y-56237526D01*
X150553903Y-56346550D01*
X150282286Y-56476331D01*
X149974474Y-56628934D01*
X149625238Y-56806428D01*
X149337645Y-56954710D01*
X149209382Y-57018734D01*
X149111378Y-57059387D01*
X149023851Y-57082602D01*
X148927015Y-57094309D01*
X148859220Y-57098144D01*
X148695028Y-57095270D01*
X148544127Y-57067793D01*
X148393011Y-57010835D01*
X148228173Y-56919520D01*
X148069607Y-56812965D01*
X147814228Y-56633320D01*
X147596355Y-56484216D01*
X147407798Y-56360493D01*
X147240366Y-56256989D01*
X147085866Y-56168546D01*
X146936109Y-56090002D01*
X146871569Y-56058198D01*
X146346403Y-55835477D01*
X145798850Y-55663182D01*
X145234687Y-55541312D01*
X144659691Y-55469868D01*
X144079638Y-55448849D01*
X143500303Y-55478255D01*
X142927463Y-55558087D01*
X142366894Y-55688344D01*
X141824373Y-55869026D01*
X141389931Y-56058256D01*
X141223365Y-56143255D01*
X141052277Y-56239191D01*
X140868358Y-56351288D01*
X140663299Y-56484771D01*
X140428792Y-56644867D01*
X140190392Y-56812680D01*
X140003594Y-56936758D01*
X139841766Y-57022308D01*
X139691424Y-57074206D01*
X139539085Y-57097333D01*
X139401303Y-57098165D01*
X139281087Y-57089237D01*
X139183802Y-57070415D01*
X139086048Y-57035022D01*
X138964426Y-56976382D01*
X138951874Y-56969924D01*
X138609860Y-56793884D01*
X138313581Y-56642660D01*
X138057575Y-56513837D01*
X137836378Y-56404999D01*
X137644527Y-56313729D01*
X137476559Y-56237613D01*
X137327009Y-56174235D01*
X137190416Y-56121179D01*
X137061315Y-56076029D01*
X136934243Y-56036369D01*
X136803736Y-55999784D01*
X136692671Y-55970976D01*
X136526595Y-55934342D01*
X136344579Y-55902620D01*
X136174789Y-55880404D01*
X136098265Y-55873988D01*
X135987044Y-55867981D01*
X135918844Y-55866771D01*
X135896001Y-55871942D01*
X134211498Y-55871942D01*
X134435231Y-55802996D01*
X134757511Y-55719508D01*
X135061928Y-55657458D01*
X135353726Y-55615336D01*
X135638147Y-55591633D01*
X135880799Y-55584830D01*
X136163607Y-55591367D01*
X136418634Y-55615512D01*
X136667629Y-55660792D01*
X136932338Y-55730731D01*
X137094142Y-55781522D01*
X137366955Y-55879883D01*
X137673880Y-56006222D01*
X138001939Y-56154670D01*
X138338155Y-56319358D01*
X138664361Y-56491570D01*
X138820034Y-56575834D01*
X138964869Y-56652171D01*
X139088548Y-56715302D01*
X139180750Y-56759943D01*
X139226849Y-56779468D01*
X139395811Y-56810652D01*
X139576216Y-56791934D01*
X139771632Y-56722339D01*
X139985623Y-56600891D01*
X140056141Y-56552666D01*
X140378288Y-56328878D01*
X140666783Y-56139067D01*
X140930867Y-55978181D01*
X141179781Y-55841169D01*
X141422765Y-55722978D01*
X141669059Y-55618556D01*
X141927903Y-55522851D01*
X141959742Y-55511885D01*
X142531543Y-55345924D01*
X143118429Y-55232482D01*
X143714594Y-55171245D01*
X144314233Y-55161894D01*
X144911541Y-55204112D01*
X145500710Y-55297584D01*
X146075936Y-55441992D01*
X146631413Y-55637019D01*
X146967345Y-55785130D01*
X147177179Y-55888262D01*
X147357801Y-55984418D01*
X147526088Y-56083752D01*
X147698917Y-56196416D01*
X147893167Y-56332566D01*
X147971895Y-56389506D01*
X148183752Y-56538456D01*
X148360878Y-56650790D01*
X148510261Y-56730174D01*
X148638885Y-56780273D01*
X148753738Y-56804753D01*
X148765675Y-56806025D01*
X148855449Y-56809114D01*
X148945549Y-56798291D01*
X149045405Y-56770158D01*
X149164451Y-56721318D01*
X149312119Y-56648372D01*
X149497839Y-56547922D01*
X149526733Y-56531851D01*
X149998018Y-56279568D01*
X150434755Y-56068416D01*
X150841782Y-55896965D01*
X151223940Y-55763786D01*
X151586070Y-55667447D01*
X151933011Y-55606519D01*
X152269604Y-55579573D01*
X152600689Y-55585177D01*
X152703413Y-55593343D01*
X152963971Y-55622899D01*
X153221989Y-55663195D01*
X153483226Y-55716071D01*
X153753441Y-55783363D01*
X154038393Y-55866909D01*
X154343843Y-55968548D01*
X154675549Y-56090117D01*
X155039271Y-56233454D01*
X155440769Y-56400397D01*
X155885802Y-56592784D01*
X156018128Y-56651078D01*
X156213384Y-56737239D01*
X156393278Y-56816314D01*
X156550407Y-56885073D01*
X156677368Y-56940286D01*
X156766758Y-56978724D01*
X156811173Y-56997157D01*
X156812647Y-56997701D01*
X156832798Y-57008075D01*
X156846858Y-57028098D01*
X156855465Y-57066265D01*
X156859258Y-57131072D01*
X156858876Y-57231014D01*
X156854956Y-57374587D01*
X156850565Y-57502340D01*
X156803277Y-58101460D01*
X156704246Y-58719192D01*
X156555039Y-59351322D01*
X156357226Y-59993640D01*
X156112374Y-60641934D01*
X155822051Y-61291994D01*
X155487826Y-61939606D01*
X155111266Y-62580561D01*
X154761056Y-63114118D01*
X154297864Y-63745240D01*
X153814651Y-64323679D01*
X153311931Y-64848974D01*
X152790215Y-65320661D01*
X152250013Y-65738280D01*
X151691838Y-66101368D01*
X151116200Y-66409462D01*
X151109988Y-66412441D01*
X150855615Y-66534258D01*
X151010501Y-66697049D01*
X151204485Y-66917486D01*
X151391783Y-67165365D01*
X151575724Y-67446226D01*
X151759633Y-67765612D01*
X151946837Y-68129063D01*
X152140664Y-68542121D01*
X152205097Y-68686740D01*
X152291887Y-68878339D01*
X152397248Y-69102237D01*
X152515446Y-69346966D01*
X152640748Y-69601054D01*
X152767419Y-69853035D01*
X152889726Y-70091437D01*
X153001936Y-70304792D01*
X153098315Y-70481630D01*
X153132697Y-70542260D01*
X153289002Y-70803708D01*
X153462303Y-71076777D01*
X153642425Y-71346314D01*
X153819191Y-71597169D01*
X153982426Y-71814192D01*
X154012191Y-71851751D01*
X154181587Y-72051396D01*
X154372653Y-72256527D01*
X154573145Y-72455227D01*
X154770819Y-72635585D01*
X154953430Y-72785685D01*
X155029581Y-72841697D01*
X155137021Y-72914828D01*
X155215414Y-72959669D01*
X155281839Y-72983079D01*
X155353376Y-72991918D01*
X155406522Y-72993083D01*
X155663083Y-73016652D01*
X155891284Y-73087472D01*
X156100098Y-73209301D01*
X156266671Y-73353397D01*
X156399262Y-73503705D01*
X156503821Y-73667240D01*
X156588745Y-73859452D01*
X156654580Y-74067018D01*
X156706070Y-74354310D01*
X156700894Y-74641030D01*
X156638827Y-74927783D01*
X156519643Y-75215171D01*
X156343118Y-75503798D01*
X156109025Y-75794268D01*
X155946194Y-75964406D01*
X155697277Y-76187744D01*
X155421215Y-76395598D01*
X155127151Y-76583376D01*
X154824230Y-76746487D01*
X154521598Y-76880339D01*
X154228398Y-76980341D01*
X153953775Y-77041901D01*
X153763907Y-77060129D01*
X153661895Y-77063434D01*
X153587158Y-77066508D01*
X153554117Y-77068747D01*
X153553636Y-77068942D01*
X153562215Y-77095384D01*
X153584703Y-77161638D01*
X153612631Y-77242915D01*
X153688098Y-77543384D01*
X153713120Y-77852956D01*
X153687758Y-78159176D01*
X153612077Y-78449591D01*
X153606498Y-78464744D01*
X153475288Y-78735180D01*
X153288277Y-78996287D01*
X153047096Y-79246763D01*
X152753378Y-79485300D01*
X152408753Y-79710596D01*
X152014853Y-79921345D01*
X151573311Y-80116242D01*
X151509640Y-80141464D01*
X151036828Y-80308566D01*
X150512113Y-80461232D01*
X149939879Y-80598964D01*
X149324516Y-80721263D01*
X148670409Y-80827629D01*
X147981946Y-80917563D01*
X147263514Y-80990567D01*
X146519499Y-81046141D01*
X145754289Y-81083787D01*
X144972270Y-81103005D01*
X144177830Y-81103297D01*
X143375355Y-81084163D01*
X143260137Y-81079808D01*
X142435410Y-81036741D01*
X141650024Y-80974582D01*
X140905201Y-80893722D01*
X140202165Y-80794551D01*
X139542139Y-80677459D01*
X138926346Y-80542838D01*
X138356011Y-80391077D01*
X137832357Y-80222566D01*
X137356607Y-80037697D01*
X136929985Y-79836859D01*
X136553713Y-79620443D01*
X136229016Y-79388840D01*
X135957117Y-79142439D01*
X135739240Y-78881631D01*
X135588891Y-78631986D01*
X135492832Y-78412533D01*
X135434104Y-78206097D01*
X135406670Y-77987196D01*
X135404958Y-77926236D01*
X135710611Y-77926236D01*
X135720269Y-78014483D01*
X135791725Y-78300754D01*
X135915148Y-78571423D01*
X136091060Y-78826858D01*
X136319979Y-79067424D01*
X136602425Y-79293487D01*
X136938920Y-79505414D01*
X137329984Y-79703569D01*
X137776135Y-79888320D01*
X138277896Y-80060031D01*
X138835784Y-80219070D01*
X138863913Y-80226373D01*
X139024080Y-80265388D01*
X139212708Y-80307391D01*
X139422488Y-80351116D01*
X139646111Y-80395299D01*
X139876266Y-80438675D01*
X140105644Y-80479978D01*
X140326935Y-80517945D01*
X140532830Y-80551309D01*
X140716020Y-80578807D01*
X140869193Y-80599173D01*
X140985042Y-80611143D01*
X141056256Y-80613451D01*
X141075279Y-80609044D01*
X141063435Y-80585467D01*
X141016916Y-80544576D01*
X141004174Y-80535232D01*
X140922805Y-80463156D01*
X140826065Y-80356744D01*
X140726684Y-80232385D01*
X140637396Y-80106468D01*
X140570933Y-79995384D01*
X140550534Y-79951278D01*
X140516414Y-79864569D01*
X140489401Y-79795968D01*
X140482044Y-79777306D01*
X140492443Y-79778020D01*
X140534268Y-79814946D01*
X140600150Y-79881190D01*
X140651949Y-79936237D01*
X140865246Y-80159668D01*
X141057919Y-80346462D01*
X141225583Y-80492515D01*
X141331940Y-80572616D01*
X141476918Y-80672210D01*
X142129315Y-80717951D01*
X142327600Y-80731801D01*
X142515132Y-80744805D01*
X142681162Y-80756223D01*
X142814935Y-80765319D01*
X142905702Y-80771354D01*
X142926689Y-80772692D01*
X143019334Y-80778964D01*
X143091074Y-80784739D01*
X143111993Y-80786920D01*
X143113490Y-80772807D01*
X143078158Y-80730801D01*
X143016786Y-80672844D01*
X142901935Y-80558164D01*
X142832556Y-80451093D01*
X142800669Y-80336738D01*
X142796658Y-80268676D01*
X142941187Y-80268676D01*
X142968459Y-80381710D01*
X143044258Y-80494114D01*
X143159561Y-80598134D01*
X143305343Y-80686015D01*
X143472580Y-80750003D01*
X143513729Y-80760666D01*
X143607272Y-80774756D01*
X143736787Y-80784347D01*
X143881620Y-80788980D01*
X144021117Y-80788195D01*
X144134623Y-80781532D01*
X144177263Y-80775445D01*
X144260770Y-80758743D01*
X144258726Y-80669706D01*
X144855466Y-80669706D01*
X144869887Y-80732662D01*
X144908094Y-80768299D01*
X144978338Y-80783575D01*
X145088866Y-80785445D01*
X145247929Y-80780869D01*
X145275319Y-80780089D01*
X145450836Y-80771644D01*
X145585401Y-80755719D01*
X145695839Y-80729820D01*
X145756600Y-80708811D01*
X145908307Y-80630128D01*
X146037612Y-80524485D01*
X146130726Y-80404574D01*
X146161999Y-80335690D01*
X146180073Y-80259640D01*
X146167676Y-80203440D01*
X146138197Y-80158325D01*
X146069469Y-80086557D01*
X145997174Y-80032840D01*
X145922536Y-80002232D01*
X145803395Y-79968164D01*
X145652912Y-79933368D01*
X145484243Y-79900575D01*
X145310547Y-79872514D01*
X145144982Y-79851916D01*
X145108596Y-79848446D01*
X144883881Y-79828483D01*
X144883749Y-79969618D01*
X144881977Y-80058426D01*
X144877302Y-80185701D01*
X144870506Y-80332037D01*
X144864990Y-80434005D01*
X144856584Y-80572473D01*
X144855466Y-80669706D01*
X144258726Y-80669706D01*
X144250668Y-80318766D01*
X144245510Y-80163768D01*
X144238009Y-80028994D01*
X144229002Y-79925251D01*
X144219322Y-79863344D01*
X144214541Y-79851507D01*
X144175246Y-79843435D01*
X144090704Y-79845001D01*
X143972575Y-79854661D01*
X143832514Y-79870872D01*
X143682180Y-79892091D01*
X143533229Y-79916774D01*
X143397319Y-79943379D01*
X143286106Y-79970362D01*
X143261145Y-79977724D01*
X143108687Y-80036496D01*
X143008413Y-80103945D01*
X142954622Y-80185254D01*
X142941187Y-80268676D01*
X142796658Y-80268676D01*
X142796210Y-80261081D01*
X142814756Y-80143112D01*
X142872392Y-80041467D01*
X142972109Y-79954690D01*
X143116901Y-79881319D01*
X143309763Y-79819897D01*
X143553687Y-79768965D01*
X143851667Y-79727064D01*
X143904142Y-79721146D01*
X144025785Y-79707993D01*
X144124426Y-79697636D01*
X144186792Y-79691453D01*
X144201346Y-79690319D01*
X144214608Y-79666251D01*
X144216986Y-79639280D01*
X144211542Y-79617033D01*
X144188717Y-79602349D01*
X144138772Y-79593715D01*
X144051969Y-79589613D01*
X143918570Y-79588531D01*
X143890787Y-79588538D01*
X143738715Y-79587043D01*
X143628557Y-79580697D01*
X143544294Y-79567195D01*
X143469906Y-79544232D01*
X143411270Y-79519555D01*
X143261663Y-79427968D01*
X143131976Y-79303501D01*
X143036436Y-79161716D01*
X142999957Y-79069700D01*
X142981788Y-78929540D01*
X142986604Y-78909263D01*
X143128333Y-78909263D01*
X143134205Y-79013544D01*
X143168541Y-79100813D01*
X143254873Y-79231997D01*
X143369048Y-79331691D01*
X143492100Y-79399320D01*
X143569034Y-79429712D01*
X143649243Y-79446975D01*
X143750977Y-79453522D01*
X143889386Y-79451861D01*
X144009545Y-79445356D01*
X144107792Y-79434638D01*
X144169616Y-79421541D01*
X144182170Y-79414863D01*
X144187719Y-79378908D01*
X144188499Y-79297551D01*
X144185296Y-79183115D01*
X144178896Y-79047922D01*
X144170083Y-78904295D01*
X144159644Y-78764555D01*
X144148363Y-78641026D01*
X144137026Y-78546030D01*
X144126419Y-78491889D01*
X144122884Y-78484726D01*
X144090118Y-78484258D01*
X144014371Y-78495032D01*
X143909096Y-78514939D01*
X143851056Y-78527333D01*
X143599155Y-78591070D01*
X143403056Y-78659346D01*
X143260635Y-78733948D01*
X143169769Y-78816659D01*
X143128333Y-78909263D01*
X142986604Y-78909263D01*
X143011413Y-78804801D01*
X143090471Y-78694215D01*
X143220600Y-78596515D01*
X143403439Y-78510435D01*
X143640627Y-78434706D01*
X143898036Y-78375133D01*
X143981881Y-78357420D01*
X144040425Y-78337365D01*
X144076659Y-78305760D01*
X144093576Y-78253396D01*
X144094168Y-78171066D01*
X144081425Y-78049563D01*
X144058543Y-77881146D01*
X144016780Y-77618218D01*
X143969314Y-77388255D01*
X143917940Y-77198349D01*
X143864452Y-77055591D01*
X143835931Y-77001584D01*
X143733685Y-76890267D01*
X143587762Y-76812947D01*
X143401514Y-76769692D01*
X143178292Y-76760572D01*
X142921449Y-76785654D01*
X142634335Y-76845006D01*
X142320304Y-76938696D01*
X142233787Y-76969003D01*
X141921402Y-77076738D01*
X141649518Y-77157729D01*
X141407445Y-77212480D01*
X141184495Y-77241495D01*
X140969975Y-77245277D01*
X140753198Y-77224330D01*
X140523472Y-77179158D01*
X140270109Y-77110264D01*
X140133893Y-77067935D01*
X139754087Y-76962224D01*
X139400777Y-76898684D01*
X139062027Y-76876062D01*
X138725899Y-76893104D01*
X138609282Y-76907828D01*
X138508290Y-76920503D01*
X138432277Y-76926436D01*
X138396987Y-76924424D01*
X138396575Y-76924094D01*
X138417718Y-76911007D01*
X138484485Y-76883909D01*
X138587251Y-76846416D01*
X138716393Y-76802146D01*
X138756105Y-76788984D01*
X138926474Y-76734978D01*
X139061955Y-76698201D01*
X139181692Y-76674823D01*
X139304830Y-76661016D01*
X139432740Y-76653678D01*
X139548390Y-76649531D01*
X139642681Y-76649712D01*
X139727423Y-76656661D01*
X139814423Y-76672820D01*
X139915494Y-76700631D01*
X140042444Y-76742536D01*
X140207083Y-76800975D01*
X140289871Y-76830878D01*
X140554383Y-76903047D01*
X140846469Y-76941779D01*
X141144818Y-76944831D01*
X141272765Y-76934273D01*
X141388670Y-76920067D01*
X141480529Y-76906856D01*
X141534712Y-76896691D01*
X141543269Y-76893565D01*
X141538714Y-76860131D01*
X141503322Y-76793196D01*
X141444184Y-76703124D01*
X141368393Y-76600281D01*
X141283040Y-76495033D01*
X141227731Y-76432356D01*
X141043690Y-76250332D01*
X140834431Y-76080798D01*
X140590886Y-75917402D01*
X140303989Y-75753791D01*
X140134271Y-75666326D01*
X139812144Y-75512813D01*
X139528066Y-75394316D01*
X139275502Y-75308765D01*
X139047918Y-75254091D01*
X138838782Y-75228222D01*
X138742671Y-75225430D01*
X138646664Y-75230664D01*
X138560657Y-75250067D01*
X138464154Y-75289994D01*
X138359908Y-75344083D01*
X138165669Y-75457816D01*
X137967338Y-75591205D01*
X137755957Y-75750915D01*
X137522567Y-75943615D01*
X137338833Y-76103893D01*
X137109470Y-76298752D01*
X136899005Y-76456688D01*
X136692143Y-76587615D01*
X136473590Y-76701450D01*
X136294539Y-76780846D01*
X136159525Y-76837598D01*
X136067389Y-76878607D01*
X136007502Y-76910484D01*
X135969234Y-76939839D01*
X135941953Y-76973283D01*
X135915566Y-77016511D01*
X135820986Y-77219932D01*
X135752562Y-77453352D01*
X135714401Y-77695784D01*
X135710611Y-77926236D01*
X135404958Y-77926236D01*
X135402718Y-77846499D01*
X135413997Y-77643388D01*
G37*
G36*
X144395796Y-67448237D02*
G01*
X144592941Y-67466167D01*
X144767918Y-67500532D01*
X144938213Y-67554609D01*
X145091756Y-67618257D01*
X145205152Y-67673055D01*
X145272466Y-67713674D01*
X145292326Y-67737528D01*
X145263359Y-67742028D01*
X145184193Y-67724587D01*
X145141434Y-67711909D01*
X144748384Y-67618907D01*
X144338982Y-67577049D01*
X143923163Y-67585787D01*
X143510867Y-67644577D01*
X143112030Y-67752872D01*
X142897694Y-67835182D01*
X142768787Y-67890042D01*
X142687094Y-67923064D01*
X142646636Y-67935499D01*
X142641432Y-67928598D01*
X142665499Y-67903612D01*
X142694726Y-67877637D01*
X142802197Y-67801062D01*
X142950516Y-67719283D01*
X143123880Y-67639486D01*
X143306487Y-67568856D01*
X143482532Y-67514579D01*
X143506598Y-67508488D01*
X143650810Y-67477634D01*
X143794364Y-67457804D01*
X143956678Y-67447061D01*
X144157172Y-67443471D01*
X144158995Y-67443466D01*
X144395796Y-67448237D01*
G37*
G36*
X141461030Y-62754389D02*
G01*
X141471028Y-62826781D01*
X141448696Y-62931826D01*
X141399492Y-63058187D01*
X141328876Y-63194531D01*
X141242307Y-63329522D01*
X141145244Y-63451826D01*
X141104293Y-63495064D01*
X140969716Y-63615810D01*
X140839542Y-63699536D01*
X140697750Y-63752627D01*
X140528321Y-63781466D01*
X140360593Y-63791409D01*
X140139587Y-63790142D01*
X139968322Y-63771969D01*
X139899825Y-63756492D01*
X139615129Y-63650007D01*
X139362541Y-63499655D01*
X139148143Y-63309349D01*
X139078492Y-63228055D01*
X139002033Y-63121858D01*
X138969493Y-63052530D01*
X138979925Y-63020202D01*
X139032379Y-63025000D01*
X139125908Y-63067057D01*
X139259562Y-63146499D01*
X139331256Y-63193611D01*
X139506356Y-63309141D01*
X139645958Y-63394591D01*
X139760910Y-63454736D01*
X139862062Y-63494349D01*
X139960263Y-63518205D01*
X140066363Y-63531077D01*
X140104084Y-63533676D01*
X140362764Y-63530921D01*
X140583022Y-63487227D01*
X140770131Y-63399782D01*
X140929363Y-63265775D01*
X141065990Y-63082396D01*
X141115619Y-62994350D01*
X141199610Y-62854574D01*
X141280542Y-62758487D01*
X141354339Y-62708921D01*
X141416927Y-62708706D01*
X141461030Y-62754389D01*
G37*
X156180000Y-73630000D02*
X156290000Y-73840000D01*
X156290000Y-73840000D02*
X156320000Y-74070000D01*
X156320000Y-74070000D02*
X156280000Y-74240000D01*
X156280000Y-74240000D02*
X156230000Y-74330000D01*
X156230000Y-74330000D02*
X156110000Y-74380000D01*
X156110000Y-74380000D02*
X155940000Y-74370000D01*
X155940000Y-74370000D02*
X155770000Y-74310000D01*
X155770000Y-74310000D02*
X155630000Y-74220000D01*
X155630000Y-74220000D02*
X155560000Y-74170000D01*
X155560000Y-74170000D02*
X155560000Y-74140000D01*
X155560000Y-74140000D02*
X156130000Y-73590000D01*
X156130000Y-73590000D02*
X156180000Y-73630000D01*
G36*
X156180000Y-73630000D02*
G01*
X156290000Y-73840000D01*
X156320000Y-74070000D01*
X156280000Y-74240000D01*
X156230000Y-74330000D01*
X156110000Y-74380000D01*
X155940000Y-74370000D01*
X155770000Y-74310000D01*
X155630000Y-74220000D01*
X155560000Y-74170000D01*
X155560000Y-74140000D01*
X156130000Y-73590000D01*
X156180000Y-73630000D01*
G37*
X156180000Y-73630000D02*
X156290000Y-73840000D01*
X156320000Y-74070000D01*
X156280000Y-74240000D01*
X156230000Y-74330000D01*
X156110000Y-74380000D01*
X155940000Y-74370000D01*
X155770000Y-74310000D01*
X155630000Y-74220000D01*
X155560000Y-74170000D01*
X155560000Y-74140000D01*
X156130000Y-73590000D01*
X156180000Y-73630000D01*
G36*
X144094620Y-64835343D02*
G01*
X144246107Y-64838154D01*
X144365383Y-64844318D01*
X144465335Y-64855042D01*
X144558850Y-64871535D01*
X144658812Y-64895006D01*
X144724406Y-64912181D01*
X144949332Y-64982093D01*
X145165993Y-65067557D01*
X145360761Y-65162214D01*
X145520008Y-65259701D01*
X145594269Y-65318186D01*
X145660729Y-65383349D01*
X145679645Y-65416191D01*
X145651472Y-65415805D01*
X145576665Y-65381284D01*
X145565608Y-65375363D01*
X145455378Y-65324016D01*
X145305779Y-65265696D01*
X145133986Y-65206314D01*
X144957172Y-65151781D01*
X144792512Y-65108006D01*
X144780512Y-65105177D01*
X144387760Y-65038301D01*
X143967110Y-65011790D01*
X143531534Y-65024871D01*
X143094003Y-65076769D01*
X142667491Y-65166709D01*
X142395252Y-65247564D01*
X142284011Y-65283530D01*
X142195578Y-65309586D01*
X142142720Y-65322094D01*
X142133600Y-65322111D01*
X142149162Y-65302988D01*
X142209232Y-65267458D01*
X142304123Y-65219753D01*
X142424149Y-65164105D01*
X142559624Y-65104745D01*
X142700861Y-65045907D01*
X142838173Y-64991821D01*
X142961875Y-64946719D01*
X143062281Y-64914835D01*
X143071666Y-64912268D01*
X143181161Y-64884199D01*
X143276744Y-64863811D01*
X143371296Y-64849894D01*
X143477701Y-64841237D01*
X143608840Y-64836633D01*
X143777594Y-64834870D01*
X143898036Y-64834674D01*
X144094620Y-64835343D01*
G37*
X133640000Y-74136523D02*
X133440000Y-74315806D01*
X133440000Y-74315806D02*
X133040000Y-74400000D01*
X133040000Y-74400000D02*
X132840000Y-74100000D01*
X132840000Y-74100000D02*
X133040000Y-73500000D01*
X133040000Y-73500000D02*
X133640000Y-74136523D01*
G36*
X133640000Y-74136523D02*
G01*
X133440000Y-74315806D01*
X133040000Y-74400000D01*
X132840000Y-74100000D01*
X133040000Y-73500000D01*
X133640000Y-74136523D01*
G37*
X133640000Y-74136523D02*
X133440000Y-74315806D01*
X133040000Y-74400000D01*
X132840000Y-74100000D01*
X133040000Y-73500000D01*
X133640000Y-74136523D01*
X135950000Y-75010000D02*
X135950000Y-75170000D01*
X135950000Y-75170000D02*
X135840000Y-75290000D01*
X135840000Y-75290000D02*
X135430000Y-75550000D01*
X135430000Y-75550000D02*
X135190000Y-75510000D01*
X135190000Y-75510000D02*
X135130000Y-75360000D01*
X135130000Y-75360000D02*
X135150000Y-74890000D01*
X135150000Y-74890000D02*
X135950000Y-75010000D01*
G36*
X135950000Y-75010000D02*
G01*
X135950000Y-75170000D01*
X135840000Y-75290000D01*
X135430000Y-75550000D01*
X135190000Y-75510000D01*
X135130000Y-75360000D01*
X135150000Y-74890000D01*
X135950000Y-75010000D01*
G37*
X135950000Y-75010000D02*
X135950000Y-75170000D01*
X135840000Y-75290000D01*
X135430000Y-75550000D01*
X135190000Y-75510000D01*
X135130000Y-75360000D01*
X135150000Y-74890000D01*
X135950000Y-75010000D01*
G36*
X146911337Y-62711162D02*
G01*
X146985872Y-62764644D01*
X147067207Y-62864415D01*
X147144381Y-62994350D01*
X147273424Y-63198320D01*
X147422957Y-63351789D01*
X147598253Y-63457570D01*
X147804583Y-63518472D01*
X148047221Y-63537308D01*
X148155915Y-63533676D01*
X148266880Y-63523329D01*
X148366445Y-63503540D01*
X148465459Y-63469534D01*
X148574772Y-63416538D01*
X148705232Y-63339776D01*
X148867690Y-63234476D01*
X148928744Y-63193611D01*
X149079850Y-63097586D01*
X149191249Y-63039005D01*
X149261994Y-63017738D01*
X149291135Y-63033655D01*
X149277725Y-63086629D01*
X149220815Y-63176529D01*
X149181508Y-63228055D01*
X149061681Y-63357009D01*
X148912886Y-63484705D01*
X148756438Y-63594274D01*
X148636975Y-63658951D01*
X148441135Y-63728504D01*
X148223076Y-63775638D01*
X147999570Y-63798906D01*
X147787391Y-63796865D01*
X147603311Y-63768068D01*
X147551617Y-63752458D01*
X147336982Y-63647043D01*
X147147507Y-63491147D01*
X146985849Y-63287735D01*
X146854662Y-63039771D01*
X146809598Y-62923932D01*
X146785797Y-62826423D01*
X146796775Y-62758703D01*
X146798970Y-62754389D01*
X146847678Y-62706800D01*
X146911337Y-62711162D01*
G37*
X134680074Y-74787970D02*
X134630000Y-74920000D01*
X134630000Y-74920000D02*
X134505765Y-75030194D01*
X134505765Y-75030194D02*
X134430000Y-75120000D01*
X134430000Y-75120000D02*
X134293139Y-75142440D01*
X134293139Y-75142440D02*
X134147114Y-75164179D01*
X134147114Y-75164179D02*
X134001522Y-75152417D01*
X134001522Y-75152417D02*
X133873502Y-75109667D01*
X133873502Y-75109667D02*
X133780194Y-75038436D01*
X133780194Y-75038436D02*
X133730000Y-75020000D01*
X133730000Y-75020000D02*
X133742735Y-74921931D01*
X133742735Y-74921931D02*
X133742735Y-74820000D01*
X133742735Y-74820000D02*
X133822550Y-74642843D01*
X133822550Y-74642843D02*
X133830000Y-74520000D01*
X133830000Y-74520000D02*
X133930000Y-74420000D01*
X133930000Y-74420000D02*
X134030000Y-74420000D01*
X134030000Y-74420000D02*
X134680074Y-74787970D01*
G36*
X134680074Y-74787970D02*
G01*
X134630000Y-74920000D01*
X134505765Y-75030194D01*
X134430000Y-75120000D01*
X134293139Y-75142440D01*
X134147114Y-75164179D01*
X134001522Y-75152417D01*
X133873502Y-75109667D01*
X133780194Y-75038436D01*
X133730000Y-75020000D01*
X133742735Y-74921931D01*
X133742735Y-74820000D01*
X133822550Y-74642843D01*
X133830000Y-74520000D01*
X133930000Y-74420000D01*
X134030000Y-74420000D01*
X134680074Y-74787970D01*
G37*
X134680074Y-74787970D02*
X134630000Y-74920000D01*
X134505765Y-75030194D01*
X134430000Y-75120000D01*
X134293139Y-75142440D01*
X134147114Y-75164179D01*
X134001522Y-75152417D01*
X133873502Y-75109667D01*
X133780194Y-75038436D01*
X133730000Y-75020000D01*
X133742735Y-74921931D01*
X133742735Y-74820000D01*
X133822550Y-74642843D01*
X133830000Y-74520000D01*
X133930000Y-74420000D01*
X134030000Y-74420000D01*
X134680074Y-74787970D01*
%TO.C,R8*%
X130527064Y-134520000D02*
X130072936Y-134520000D01*
X130527064Y-133050000D02*
X130072936Y-133050000D01*
%TO.C,R7*%
X130072936Y-131735000D02*
X130527064Y-131735000D01*
X130072936Y-130265000D02*
X130527064Y-130265000D01*
%TO.C,R6*%
X159142936Y-134520000D02*
X159597064Y-134520000D01*
X159142936Y-133050000D02*
X159597064Y-133050000D01*
%TO.C,C2*%
X130076248Y-135865000D02*
X130598752Y-135865000D01*
X130076248Y-137335000D02*
X130598752Y-137335000D01*
%TO.C,U2*%
X131590000Y-91313700D02*
X138590000Y-91313700D01*
X138790000Y-91313700D02*
X136370000Y-109793700D01*
X137590000Y-100813700D02*
X130590000Y-100813700D01*
X131590000Y-91313700D02*
X138790000Y-91313700D01*
X129370000Y-109793700D02*
X131590000Y-91313700D01*
X129370000Y-109793700D02*
X136370000Y-109793700D01*
X138817214Y-109793700D02*
G75*
G03*
X138817214Y-109793700I-447214J0D01*
G01*
%TO.C,R5*%
X159597064Y-130265000D02*
X159142936Y-130265000D01*
X159597064Y-131735000D02*
X159142936Y-131735000D01*
%TO.C,U5*%
X172550000Y-109793700D02*
X179550000Y-109793700D01*
X180770000Y-100813700D02*
X173770000Y-100813700D01*
X181970000Y-91313700D02*
X179550000Y-109793700D01*
X172550000Y-109793700D02*
X174770000Y-91313700D01*
X174770000Y-91313700D02*
X181970000Y-91313700D01*
X174770000Y-91313700D02*
X181770000Y-91313700D01*
X181997214Y-109793700D02*
G75*
G03*
X181997214Y-109793700I-447214J0D01*
G01*
%TO.C,U4*%
X160450000Y-100813700D02*
X153450000Y-100813700D01*
X152230000Y-109793700D02*
X154450000Y-91313700D01*
X152230000Y-109793700D02*
X159230000Y-109793700D01*
X161650000Y-91313700D02*
X159230000Y-109793700D01*
X154450000Y-91313700D02*
X161650000Y-91313700D01*
X154450000Y-91313700D02*
X161450000Y-91313700D01*
X161677214Y-109793700D02*
G75*
G03*
X161677214Y-109793700I-447214J0D01*
G01*
%TD*%
M02*
